<?xml version="1.0" encoding="UTF-8" standalone="no"?><svg xmlns="http://www.w3.org/2000/svg" xmlns:xlink="http://www.w3.org/1999/xlink" contentScriptType="application/ecmascript" contentStyleType="text/css" height="607.2px" preserveAspectRatio="none" style="width:639px;height:607px;" version="1.1" viewBox="0 0 639 607" width="639.2px" zoomAndPan="magnify"><defs><filter height="300%" id="fc4ma4fn9a1ul" width="300%" x="-1" y="-1"><feGaussianBlur result="blurOut" stdDeviation="1.6"/><feColorMatrix in="blurOut" result="blurOut2" type="matrix" values="0 0 0 0 0 0 0 0 0 0 0 0 0 0 0 0 0 0 .4 0"/><feOffset dx="3.2" dy="3.2" in="blurOut2" result="blurOut3"/><feBlend in="SourceGraphic" in2="blurOut3" mode="normal"/></filter></defs><g><!--MD5=[10ea673caf457862023e152271927b45]
cluster controller--><polygon fill="#FFFFFF" filter="url(#fc4ma4fn9a1ul)" points="340.8,4.8,401.6,4.8,407.2,22.7906,491.2,22.7906,491.2,104.8,340.8,104.8,340.8,4.8" style="stroke: #000000; stroke-width: 1.2000000000000002;"/><line style="stroke: #000000; stroke-width: 1.2000000000000002;" x1="340.8" x2="407.2" y1="22.7906" y2="22.7906"/><text fill="#000000" font-family="sans-serif" font-size="11.2" font-weight="bold" lengthAdjust="spacingAndGlyphs" textLength="56" x="344" y="17.2281">controller</text><!--MD5=[73a39ff06bfd21a4a8df8317230e2ab5]
cluster facade--><polygon fill="#FFFFFF" filter="url(#fc4ma4fn9a1ul)" points="322.4,131.2,364,131.2,369.6,149.1906,509.6,149.1906,509.6,231.2,322.4,231.2,322.4,131.2" style="stroke: #000000; stroke-width: 1.2000000000000002;"/><line style="stroke: #000000; stroke-width: 1.2000000000000002;" x1="322.4" x2="369.6" y1="149.1906" y2="149.1906"/><text fill="#000000" font-family="sans-serif" font-size="11.2" font-weight="bold" lengthAdjust="spacingAndGlyphs" textLength="36.8" x="325.6" y="143.6281">facade</text><!--MD5=[5622bc4ba3bf2be5d17935065b98c5f9]
cluster dao--><polygon fill="#FFFFFF" filter="url(#fc4ma4fn9a1ul)" points="12.8,257.6,38.4,257.6,44,275.5906,625.6,275.5906,625.6,601.6,12.8,601.6,12.8,257.6" style="stroke: #000000; stroke-width: 1.2000000000000002;"/><line style="stroke: #000000; stroke-width: 1.2000000000000002;" x1="12.8" x2="44" y1="275.5906" y2="275.5906"/><text fill="#000000" font-family="sans-serif" font-size="11.2" font-weight="bold" lengthAdjust="spacingAndGlyphs" textLength="20.8" x="16" y="270.0281">dao</text><!--MD5=[40f389b860e50d90baaf5de832b1264d]
cluster mysql--><polygon fill="#FFFFFF" filter="url(#fc4ma4fn9a1ul)" points="32,392.8,72,392.8,77.6,410.7906,184,410.7906,184,582.4,32,582.4,32,392.8" style="stroke: #000000; stroke-width: 1.2000000000000002;"/><line style="stroke: #000000; stroke-width: 1.2000000000000002;" x1="32" x2="77.6" y1="410.7906" y2="410.7906"/><text fill="#000000" font-family="sans-serif" font-size="11.2" font-weight="bold" lengthAdjust="spacingAndGlyphs" textLength="35.2" x="35.2" y="405.2281">mysql</text><!--MD5=[bab4019c732006648757f54388533847]
cluster postgres--><polygon fill="#FFFFFF" filter="url(#fc4ma4fn9a1ul)" points="203.2,392.8,258.4,392.8,264,410.7906,382.4,410.7906,382.4,582.4,203.2,582.4,203.2,392.8" style="stroke: #000000; stroke-width: 1.2000000000000002;"/><line style="stroke: #000000; stroke-width: 1.2000000000000002;" x1="203.2" x2="264" y1="410.7906" y2="410.7906"/><text fill="#000000" font-family="sans-serif" font-size="11.2" font-weight="bold" lengthAdjust="spacingAndGlyphs" textLength="50.4" x="206.4" y="405.2281">postgres</text><!--MD5=[73ad5e1502ea164349990f756202b7f3]
class TransactionController--><rect codeLine="4" fill="#FEFECE" filter="url(#fc4ma4fn9a1ul)" height="59.1281" id="TransactionController" style="stroke: #A80036; stroke-width: 1.2000000000000002;" width="124" x="354" y="32.8"/><ellipse cx="366" cy="45.6" fill="#ADD1B2" rx="8.8" ry="8.8" style="stroke: #A80036; stroke-width: 0.8;"/><path d="M367.9785,50.5145 Q367.5137,50.7535 367.0023,50.873 Q366.491,50.9926 365.9266,50.9926 Q363.9211,50.9926 362.8652,49.6711 Q361.8094,48.3496 361.8094,45.8527 Q361.8094,43.3492 362.8652,42.0277 Q363.9211,40.7063 365.9266,40.7063 Q366.491,40.7063 367.009,40.8258 Q367.527,40.9453 367.9785,41.1844 L367.9785,43.3625 Q367.4738,42.8977 366.999,42.6818 Q366.5242,42.466 366.0195,42.466 Q364.9438,42.466 364.3959,43.3193 Q363.848,44.1727 363.848,45.8527 Q363.848,47.5262 364.3959,48.3795 Q364.9438,49.2328 366.0195,49.2328 Q366.5242,49.2328 366.999,49.017 Q367.4738,48.8012 367.9785,48.3363 Z " fill="#000000"/><text fill="#000000" font-family="sans-serif" font-size="9.6" lengthAdjust="spacingAndGlyphs" textLength="98.4" x="377.2" y="49.2281">TransactionController</text><line style="stroke: #A80036; stroke-width: 1.2000000000000002;" x1="354.8" x2="477.2" y1="58.4" y2="58.4"/><line style="stroke: #A80036; stroke-width: 1.2000000000000002;" x1="354.8" x2="477.2" y1="64.8" y2="64.8"/><ellipse cx="362.8" cy="73.6" fill="#84BE84" rx="2.4" ry="2.4" style="stroke: #038048; stroke-width: 0.8;"/><text fill="#000000" font-family="sans-serif" font-size="8.8" lengthAdjust="spacingAndGlyphs" textLength="76" x="370" y="76.5078">getTransactions()</text><ellipse cx="362.8" cy="83.9641" fill="#84BE84" rx="2.4" ry="2.4" style="stroke: #038048; stroke-width: 0.8;"/><text fill="#000000" font-family="sans-serif" font-size="8.8" lengthAdjust="spacingAndGlyphs" textLength="82.4" x="370" y="86.8719">filterTransactions()</text><!--MD5=[863f95438c4654ad3ceec0b81ff3356b]
class TransactionFacade--><rect codeLine="11" fill="#FEFECE" filter="url(#fc4ma4fn9a1ul)" height="59.1281" id="TransactionFacade" style="stroke: #A80036; stroke-width: 1.2000000000000002;" width="161.6" x="335.2" y="159.2"/><ellipse cx="369.52" cy="172" fill="#ADD1B2" rx="8.8" ry="8.8" style="stroke: #A80036; stroke-width: 0.8;"/><path d="M371.4985,176.9145 Q371.0337,177.1535 370.5223,177.273 Q370.011,177.3926 369.4466,177.3926 Q367.4411,177.3926 366.3852,176.0711 Q365.3294,174.7496 365.3294,172.2527 Q365.3294,169.7492 366.3852,168.4277 Q367.4411,167.1063 369.4466,167.1063 Q370.011,167.1063 370.529,167.2258 Q371.047,167.3453 371.4985,167.5844 L371.4985,169.7625 Q370.9938,169.2977 370.519,169.0818 Q370.0442,168.866 369.5395,168.866 Q368.4638,168.866 367.9159,169.7193 Q367.368,170.5727 367.368,172.2527 Q367.368,173.9262 367.9159,174.7795 Q368.4638,175.6328 369.5395,175.6328 Q370.0442,175.6328 370.519,175.417 Q370.9938,175.2012 371.4985,174.7363 Z " fill="#000000"/><text fill="#000000" font-family="sans-serif" font-size="9.6" lengthAdjust="spacingAndGlyphs" textLength="86.4" x="385.68" y="175.6281">TransactionFacade</text><line style="stroke: #A80036; stroke-width: 1.2000000000000002;" x1="336" x2="496" y1="184.8" y2="184.8"/><line style="stroke: #A80036; stroke-width: 1.2000000000000002;" x1="336" x2="496" y1="191.2" y2="191.2"/><ellipse cx="344" cy="200" fill="#84BE84" rx="2.4" ry="2.4" style="stroke: #038048; stroke-width: 0.8;"/><text fill="#000000" font-family="sans-serif" font-size="8.8" lengthAdjust="spacingAndGlyphs" textLength="113.6" x="351.2" y="202.9078">getInstance() : AuthFacade</text><ellipse cx="344" cy="210.3641" fill="#84BE84" rx="2.4" ry="2.4" style="stroke: #038048; stroke-width: 0.8;"/><text fill="#000000" font-family="sans-serif" font-size="8.8" lengthAdjust="spacingAndGlyphs" textLength="140.8" x="351.2" y="213.2719">getTransactions() : Transaction[]</text><!--MD5=[4a0300a6597e068a69ac5dc42e345e2c]
class DAOFactory--><rect codeLine="20" fill="#FEFECE" filter="url(#fc4ma4fn9a1ul)" height="69.4922" id="DAOFactory" style="stroke: #A80036; stroke-width: 1.2000000000000002;" width="196.8" x="194.4" y="285.6"/><ellipse cx="262.6" cy="298.4" fill="#ADD1B2" rx="8.8" ry="8.8" style="stroke: #A80036; stroke-width: 0.8;"/><path d="M264.5785,303.3145 Q264.1137,303.5535 263.6023,303.673 Q263.091,303.7926 262.5266,303.7926 Q260.5211,303.7926 259.4652,302.4711 Q258.4094,301.1496 258.4094,298.6527 Q258.4094,296.1492 259.4652,294.8277 Q260.5211,293.5063 262.5266,293.5063 Q263.091,293.5063 263.609,293.6258 Q264.127,293.7453 264.5785,293.9844 L264.5785,296.1625 Q264.0738,295.6977 263.599,295.4818 Q263.1242,295.266 262.6195,295.266 Q261.5438,295.266 260.9959,296.1193 Q260.448,296.9727 260.448,298.6527 Q260.448,300.3262 260.9959,301.1795 Q261.5438,302.0328 262.6195,302.0328 Q263.1242,302.0328 263.599,301.817 Q264.0738,301.6012 264.5785,301.1363 Z " fill="#000000"/><text fill="#000000" font-family="sans-serif" font-size="9.6" lengthAdjust="spacingAndGlyphs" textLength="53.6" x="279" y="302.0281">DAOFactory</text><line style="stroke: #A80036; stroke-width: 1.2000000000000002;" x1="195.2" x2="390.4" y1="311.2" y2="311.2"/><polygon fill="none" points="203.2,316,206.4,319.2,203.2,322.4,200,319.2" style="stroke: #B38D22; stroke-width: 0.8;"/><text fill="#000000" font-family="sans-serif" font-size="8.8" lengthAdjust="spacingAndGlyphs" text-decoration="underline" textLength="104.8" x="210.4" y="322.9078">connection : Connection</text><line style="stroke: #A80036; stroke-width: 1.2000000000000002;" x1="195.2" x2="390.4" y1="327.9641" y2="327.9641"/><ellipse cx="203.2" cy="336.7641" fill="#84BE84" rx="2.4" ry="2.4" style="stroke: #038048; stroke-width: 0.8;"/><text fill="#000000" font-family="sans-serif" font-size="8.8" lengthAdjust="spacingAndGlyphs" textLength="176" x="210.4" y="339.6719">createTransactionDao() : TransactionDao</text><ellipse cx="203.2" cy="347.1281" fill="#84BE84" rx="2.4" ry="2.4" style="stroke: #038048; stroke-width: 0.8;"/><text fill="#000000" font-family="sans-serif" font-size="8.8" lengthAdjust="spacingAndGlyphs" text-decoration="underline" textLength="126.4" x="210.4" y="350.0359">getConnection() : Connection</text><!--MD5=[3a6eab5b2414aa53c0b74b8f29c4c326]
class TransactionDAO--><rect codeLine="41" fill="#FEFECE" filter="url(#fc4ma4fn9a1ul)" height="59.1281" id="TransactionDAO" style="stroke: #A80036; stroke-width: 1.2000000000000002;" width="216.8" x="395.6" y="410.4"/><ellipse cx="463.4" cy="423.2" fill="#ADD1B2" rx="8.8" ry="8.8" style="stroke: #A80036; stroke-width: 0.8;"/><path d="M465.3785,428.1145 Q464.9137,428.3535 464.4023,428.473 Q463.891,428.5926 463.3266,428.5926 Q461.3211,428.5926 460.2652,427.2711 Q459.2094,425.9496 459.2094,423.4527 Q459.2094,420.9492 460.2652,419.6277 Q461.3211,418.3063 463.3266,418.3063 Q463.891,418.3063 464.409,418.4258 Q464.927,418.5453 465.3785,418.7844 L465.3785,420.9625 Q464.8738,420.4977 464.399,420.2818 Q463.9242,420.066 463.4195,420.066 Q462.3438,420.066 461.7959,420.9193 Q461.248,421.7727 461.248,423.4527 Q461.248,425.1262 461.7959,425.9795 Q462.3438,426.8328 463.4195,426.8328 Q463.9242,426.8328 464.399,426.617 Q464.8738,426.4012 465.3785,425.9363 Z " fill="#000000"/><text fill="#000000" font-family="sans-serif" font-size="9.6" lengthAdjust="spacingAndGlyphs" textLength="74.4" x="479.8" y="426.8281">TransactionDAO</text><line style="stroke: #A80036; stroke-width: 1.2000000000000002;" x1="396.4" x2="611.6" y1="436" y2="436"/><line style="stroke: #A80036; stroke-width: 1.2000000000000002;" x1="396.4" x2="611.6" y1="442.4" y2="442.4"/><ellipse cx="404.4" cy="451.2" fill="#84BE84" rx="2.4" ry="2.4" style="stroke: #038048; stroke-width: 0.8;"/><text fill="#000000" font-family="sans-serif" font-size="8.8" lengthAdjust="spacingAndGlyphs" textLength="126.4" x="411.6" y="454.1078">getConnection() : Connection</text><ellipse cx="404.4" cy="461.5641" fill="#84BE84" rx="2.4" ry="2.4" style="stroke: #038048; stroke-width: 0.8;"/><text fill="#000000" font-family="sans-serif" font-size="8.8" lengthAdjust="spacingAndGlyphs" textLength="196" x="411.6" y="464.4719">findAllTransactions(int userId) : Transaction[]</text><!--MD5=[0e2e921ab886777c70e16ce5f6b9950f]
class MySqlDAOFactory--><rect codeLine="27" fill="#FEFECE" filter="url(#fc4ma4fn9a1ul)" height="38.4" id="MySqlDAOFactory" style="stroke: #A80036; stroke-width: 1.2000000000000002;" width="105.6" x="62.4" y="420.8"/><ellipse cx="74.4" cy="433.6" fill="#ADD1B2" rx="8.8" ry="8.8" style="stroke: #A80036; stroke-width: 0.8;"/><path d="M76.3785,438.5145 Q75.9137,438.7535 75.4023,438.873 Q74.891,438.9926 74.3266,438.9926 Q72.3211,438.9926 71.2652,437.6711 Q70.2094,436.3496 70.2094,433.8527 Q70.2094,431.3492 71.2652,430.0277 Q72.3211,428.7063 74.3266,428.7063 Q74.891,428.7063 75.409,428.8258 Q75.927,428.9453 76.3785,429.1844 L76.3785,431.3625 Q75.8738,430.8977 75.399,430.6818 Q74.9242,430.466 74.4195,430.466 Q73.3438,430.466 72.7959,431.3193 Q72.248,432.1727 72.248,433.8527 Q72.248,435.5262 72.7959,436.3795 Q73.3438,437.2328 74.4195,437.2328 Q74.9242,437.2328 75.399,437.017 Q75.8738,436.8012 76.3785,436.3363 Z " fill="#000000"/><text fill="#000000" font-family="sans-serif" font-size="9.6" lengthAdjust="spacingAndGlyphs" textLength="80" x="85.6" y="437.2281">MySqlDAOFactory</text><line style="stroke: #A80036; stroke-width: 1.2000000000000002;" x1="63.2" x2="167.2" y1="446.4" y2="446.4"/><line style="stroke: #A80036; stroke-width: 1.2000000000000002;" x1="63.2" x2="167.2" y1="452.8" y2="452.8"/><!--MD5=[a3f7ff5ac8c6e20d20d0eac371cbe13b]
class MySqlTransactionDAO--><rect codeLine="28" fill="#FEFECE" filter="url(#fc4ma4fn9a1ul)" height="38.4" id="MySqlTransactionDAO" style="stroke: #A80036; stroke-width: 1.2000000000000002;" width="126.4" x="44.8" y="531.2"/><ellipse cx="56.8" cy="544" fill="#ADD1B2" rx="8.8" ry="8.8" style="stroke: #A80036; stroke-width: 0.8;"/><path d="M58.7785,548.9145 Q58.3137,549.1535 57.8023,549.273 Q57.291,549.3926 56.7266,549.3926 Q54.7211,549.3926 53.6652,548.0711 Q52.6094,546.7496 52.6094,544.2527 Q52.6094,541.7492 53.6652,540.4277 Q54.7211,539.1063 56.7266,539.1063 Q57.291,539.1063 57.809,539.2258 Q58.327,539.3453 58.7785,539.5844 L58.7785,541.7625 Q58.2738,541.2977 57.799,541.0818 Q57.3242,540.866 56.8195,540.866 Q55.7438,540.866 55.1959,541.7193 Q54.648,542.5727 54.648,544.2527 Q54.648,545.9262 55.1959,546.7795 Q55.7438,547.6328 56.8195,547.6328 Q57.3242,547.6328 57.799,547.417 Q58.2738,547.2012 58.7785,546.7363 Z " fill="#000000"/><text fill="#000000" font-family="sans-serif" font-size="9.6" lengthAdjust="spacingAndGlyphs" textLength="100.8" x="68" y="547.6281">MySqlTransactionDAO</text><line style="stroke: #A80036; stroke-width: 1.2000000000000002;" x1="45.6" x2="170.4" y1="556.8" y2="556.8"/><line style="stroke: #A80036; stroke-width: 1.2000000000000002;" x1="45.6" x2="170.4" y1="563.2" y2="563.2"/><!--MD5=[53d91c5c39126efc6a9a0f5f529438be]
class MyPostGresDAOFactory--><rect codeLine="34" fill="#FEFECE" filter="url(#fc4ma4fn9a1ul)" height="38.4" id="MyPostGresDAOFactory" style="stroke: #A80036; stroke-width: 1.2000000000000002;" width="132.8" x="226.4" y="420.8"/><ellipse cx="238.4" cy="433.6" fill="#ADD1B2" rx="8.8" ry="8.8" style="stroke: #A80036; stroke-width: 0.8;"/><path d="M240.3785,438.5145 Q239.9137,438.7535 239.4023,438.873 Q238.891,438.9926 238.3266,438.9926 Q236.3211,438.9926 235.2652,437.6711 Q234.2094,436.3496 234.2094,433.8527 Q234.2094,431.3492 235.2652,430.0277 Q236.3211,428.7063 238.3266,428.7063 Q238.891,428.7063 239.409,428.8258 Q239.927,428.9453 240.3785,429.1844 L240.3785,431.3625 Q239.8738,430.8977 239.399,430.6818 Q238.9242,430.466 238.4195,430.466 Q237.3438,430.466 236.7959,431.3193 Q236.248,432.1727 236.248,433.8527 Q236.248,435.5262 236.7959,436.3795 Q237.3438,437.2328 238.4195,437.2328 Q238.9242,437.2328 239.399,437.017 Q239.8738,436.8012 240.3785,436.3363 Z " fill="#000000"/><text fill="#000000" font-family="sans-serif" font-size="9.6" lengthAdjust="spacingAndGlyphs" textLength="107.2" x="249.6" y="437.2281">MyPostGresDAOFactory</text><line style="stroke: #A80036; stroke-width: 1.2000000000000002;" x1="227.2" x2="358.4" y1="446.4" y2="446.4"/><line style="stroke: #A80036; stroke-width: 1.2000000000000002;" x1="227.2" x2="358.4" y1="452.8" y2="452.8"/><!--MD5=[bf804b7c3924d30ddf1ffe8c3deadb2b]
class MyPostGresTransactionDAO--><rect codeLine="35" fill="#FEFECE" filter="url(#fc4ma4fn9a1ul)" height="38.4" id="MyPostGresTransactionDAO" style="stroke: #A80036; stroke-width: 1.2000000000000002;" width="153.6" x="216" y="531.2"/><ellipse cx="228" cy="544" fill="#ADD1B2" rx="8.8" ry="8.8" style="stroke: #A80036; stroke-width: 0.8;"/><path d="M229.9785,548.9145 Q229.5137,549.1535 229.0023,549.273 Q228.491,549.3926 227.9266,549.3926 Q225.9211,549.3926 224.8652,548.0711 Q223.8094,546.7496 223.8094,544.2527 Q223.8094,541.7492 224.8652,540.4277 Q225.9211,539.1063 227.9266,539.1063 Q228.491,539.1063 229.009,539.2258 Q229.527,539.3453 229.9785,539.5844 L229.9785,541.7625 Q229.4738,541.2977 228.999,541.0818 Q228.5242,540.866 228.0195,540.866 Q226.9438,540.866 226.3959,541.7193 Q225.848,542.5727 225.848,544.2527 Q225.848,545.9262 226.3959,546.7795 Q226.9438,547.6328 228.0195,547.6328 Q228.5242,547.6328 228.999,547.417 Q229.4738,547.2012 229.9785,546.7363 Z " fill="#000000"/><text fill="#000000" font-family="sans-serif" font-size="9.6" lengthAdjust="spacingAndGlyphs" textLength="128" x="239.2" y="547.6281">MyPostGresTransactionDAO</text><line style="stroke: #A80036; stroke-width: 1.2000000000000002;" x1="216.8" x2="368.8" y1="556.8" y2="556.8"/><line style="stroke: #A80036; stroke-width: 1.2000000000000002;" x1="216.8" x2="368.8" y1="563.2" y2="563.2"/><!--MD5=[097dfe273c81c4a0248440e11a8351b4]
link MySqlDAOFactory to MySqlTransactionDAO--><path codeLine="30" d="M113.976,459.256 C112.744,477.936 110.832,506.848 109.504,526.912 " fill="none" id="MySqlDAOFactory-to-MySqlTransactionDAO" style="stroke: #A80036; stroke-width: 0.8; stroke-dasharray: 7.0,7.0;"/><polygon fill="#A80036" points="109.224,531.056,112.8905,524.082,109.487,527.0647,106.5044,523.6612,109.224,531.056" style="stroke: #A80036; stroke-width: 0.8;"/><text fill="#000000" font-family="sans-serif" font-size="10.4" lengthAdjust="spacingAndGlyphs" textLength="36" x="112" y="504.4547">creates</text><!--MD5=[93f8a2cc8e798d8760e85248b489e64b]
link MyPostGresDAOFactory to MyPostGresTransactionDAO--><path codeLine="37" d="M276.608,459.24 C267.112,472.328 257.936,490.464 263.2,507.2 C265.472,514.424 269.464,521.496 273.792,527.728 " fill="none" id="MyPostGresDAOFactory-to-MyPostGresTransactionDAO" style="stroke: #A80036; stroke-width: 0.8; stroke-dasharray: 7.0,7.0;"/><polygon fill="#A80036" points="276.224,531.096,274.6046,523.3851,273.8829,527.8527,269.4153,527.1309,276.224,531.096" style="stroke: #A80036; stroke-width: 0.8;"/><text fill="#000000" font-family="sans-serif" font-size="10.4" lengthAdjust="spacingAndGlyphs" textLength="36" x="264" y="504.4547">creates</text><!--MD5=[2244845d9532617fbdb71d141db8964f]
reverse link DAOFactory to MySqlDAOFactory--><path codeLine="46" d="M227.888,364.328 C198.672,383.736 165.736,405.624 143.056,420.696 " fill="none" id="DAOFactory-backto-MySqlDAOFactory" style="stroke: #A80036; stroke-width: 0.8;"/><polygon fill="none" points="225.008,359.52,241.432,355.328,231.2,368.848,225.008,359.52" style="stroke: #A80036; stroke-width: 0.8;"/><!--MD5=[0cc072129a130e9263fe0de79ee87aa7]
reverse link DAOFactory to MyPostGresDAOFactory--><path codeLine="47" d="M292.8,371.48 C292.8,388.872 292.8,407.296 292.8,420.528 " fill="none" id="DAOFactory-backto-MyPostGresDAOFactory" style="stroke: #A80036; stroke-width: 0.8;"/><polygon fill="none" points="287.2,371.328,292.8,355.328,298.4,371.328,287.2,371.328" style="stroke: #A80036; stroke-width: 0.8;"/><!--MD5=[6a568f99079ed5bb9f1a95e2d008cf5a]
reverse link TransactionDAO to MyPostGresTransactionDAO--><path codeLine="48" d="M479.248,482.928 C472.216,492.032 463.864,500.824 454.4,507.2 C429.384,524.056 398.024,534.216 369.6,540.336 " fill="none" id="TransactionDAO-backto-MyPostGresTransactionDAO" style="stroke: #A80036; stroke-width: 0.8;"/><polygon fill="none" points="474.808,479.504,488.576,469.608,483.984,485.928,474.808,479.504" style="stroke: #A80036; stroke-width: 0.8;"/><!--MD5=[b86dedbb1f7166fb6e6a11f9add4bdd6]
reverse link TransactionDAO to MySqlTransactionDAO--><path codeLine="49" d="M446.4,477.872 C426.784,488.952 404.272,500.04 382.4,507.2 C306.032,532.208 282.504,518.24 203.2,531.2 C192.896,532.88 182.008,534.832 171.408,536.816 " fill="none" id="TransactionDAO-backto-MySqlTransactionDAO" style="stroke: #A80036; stroke-width: 0.8;"/><polygon fill="none" points="443.808,472.904,460.448,469.672,449.456,482.576,443.808,472.904" style="stroke: #A80036; stroke-width: 0.8;"/><!--MD5=[b8e3dacfe557b22144370ac5085015d4]
link TransactionController to TransactionFacade--><path codeLine="53" d="M416,92.144 C416,110.904 416,135.384 416,154.912 " fill="none" id="TransactionController-to-TransactionFacade" style="stroke: #A80036; stroke-width: 0.8; stroke-dasharray: 7.0,7.0;"/><polygon fill="#A80036" points="416,158.992,419.2,151.792,416,154.992,412.8,151.792,416,158.992" style="stroke: #A80036; stroke-width: 0.8;"/><!--MD5=[98fb9b3b61fc278bc7abd1dffb33cacd]
link TransactionFacade to DAOFactory--><path codeLine="55" d="M388.656,218.448 C370.752,237.344 347.184,262.216 327.896,282.56 " fill="none" id="TransactionFacade-to-DAOFactory" style="stroke: #A80036; stroke-width: 0.8;"/><polygon fill="#A80036" points="325.088,285.528,332.3651,282.5075,327.8412,282.6263,327.7224,278.1024,325.088,285.528" style="stroke: #A80036; stroke-width: 0.8;"/><!--MD5=[e05d775764165980a33096f11c326e39]
link TransactionFacade to TransactionDAO--><path codeLine="57" d="M426.184,218.48 C442.64,265.16 474.992,356.928 492.344,406.152 " fill="none" id="TransactionFacade-to-TransactionDAO" style="stroke: #A80036; stroke-width: 0.8;"/><polygon fill="#A80036" points="493.776,410.2,494.4072,402.3462,492.4495,406.4264,488.3694,404.4686,493.776,410.2" style="stroke: #A80036; stroke-width: 0.8;"/><!--MD5=[cec8faa64dac569d4401a82538dc2612]
@startuml get_transactions_class_diagram

package controller <<Folder>> {

  class TransactionController {
    +getTransactions()
    +filterTransactions()
  }
}

package facade <<Folder>> {
  class TransactionFacade {
    +getInstance() : AuthFacade
    +getTransactions() : Transaction[]
  }

}

package dao <<Folder>> {

  class DAOFactory {
    #{static}connection : Connection
    +createTransactionDao() : TransactionDao
    +{static}getConnection() : Connection
  }

  package mysql <<Folder>> {
    class MySqlDAOFactory {}
    class MySqlTransactionDAO {}

    MySqlDAOFactory .down.> MySqlTransactionDAO : creates
  }

  package postgres <<Folder>> {
    class MyPostGresDAOFactory {}
    class MyPostGresTransactionDAO {}

    MyPostGresDAOFactory .down.> MyPostGresTransactionDAO : creates
  }


  class TransactionDAO {
    +getConnection() : Connection
    +findAllTransactions(int userId) : Transaction[]
  }

  DAOFactory <|- - MySqlDAOFactory
  DAOFactory <|- - MyPostGresDAOFactory
  TransactionDAO <|- - MyPostGresTransactionDAO
  TransactionDAO <|- - MySqlTransactionDAO

}

TransactionController .down.> TransactionFacade

TransactionFacade -down-> DAOFactory

TransactionFacade - -> TransactionDAO

@enduml

PlantUML version 1.2020.20(Sat Nov 21 11:02:45 CET 2020)
(GPL source distribution)
Java Runtime: OpenJDK Runtime Environment
JVM: OpenJDK 64-Bit Server VM
Default Encoding: UTF-8
Language: en
Country: GB
--></g></svg>