<?xml version="1.0" encoding="UTF-8" standalone="no"?><svg xmlns="http://www.w3.org/2000/svg" xmlns:xlink="http://www.w3.org/1999/xlink" contentScriptType="application/ecmascript" contentStyleType="text/css" height="746px" preserveAspectRatio="none" style="width:717px;height:746px;" version="1.1" viewBox="0 0 717 746" width="717px" zoomAndPan="magnify"><defs><filter height="300%" id="ftbttxz9ejhub" width="300%" x="-1" y="-1"><feGaussianBlur result="blurOut" stdDeviation="2.0"/><feColorMatrix in="blurOut" result="blurOut2" type="matrix" values="0 0 0 0 0 0 0 0 0 0 0 0 0 0 0 0 0 0 .4 0"/><feOffset dx="4.0" dy="4.0" in="blurOut2" result="blurOut3"/><feBlend in="SourceGraphic" in2="blurOut3" mode="normal"/></filter></defs><g><!--MD5=[8737fa1c2dfd8ac19a6b724ed539a806]
cluster transactionController--><polygon fill="#FFFFFF" filter="url(#ftbttxz9ejhub)" points="411,6,571,6,578,28.4883,599,28.4883,599,131,411,131,411,6" style="stroke:#000000;stroke-width:1.5;"/><line style="stroke:#000000;stroke-width:1.5;" x1="411" x2="578" y1="28.4883" y2="28.4883"/><text fill="#000000" font-family="sans-serif" font-size="14" font-weight="bold" lengthAdjust="spacingAndGlyphs" textLength="154" x="415" y="21.5352">transactionController</text><!--MD5=[f9c58d90839a0c7c212d8c6553ac9eb7]
cluster transaction--><polygon fill="#FFFFFF" filter="url(#ftbttxz9ejhub)" points="405,164,492,164,499,186.4883,605,186.4883,605,276,405,276,405,164" style="stroke:#000000;stroke-width:1.5;"/><line style="stroke:#000000;stroke-width:1.5;" x1="405" x2="499" y1="186.4883" y2="186.4883"/><text fill="#000000" font-family="sans-serif" font-size="14" font-weight="bold" lengthAdjust="spacingAndGlyphs" textLength="81" x="409" y="179.5352">transaction</text><!--MD5=[5622bc4ba3bf2be5d17935065b98c5f9]
cluster dao--><polygon fill="#FFFFFF" filter="url(#ftbttxz9ejhub)" points="16,309,48,309,55,331.4883,700,331.4883,700,739,16,739,16,309" style="stroke:#000000;stroke-width:1.5;"/><line style="stroke:#000000;stroke-width:1.5;" x1="16" x2="55" y1="331.4883" y2="331.4883"/><text fill="#000000" font-family="sans-serif" font-size="14" font-weight="bold" lengthAdjust="spacingAndGlyphs" textLength="26" x="20" y="324.5352">dao</text><!--MD5=[40f389b860e50d90baaf5de832b1264d]
cluster mysql--><polygon fill="#FFFFFF" filter="url(#ftbttxz9ejhub)" points="40,478,90,478,97,500.4883,230,500.4883,230,715,40,715,40,478" style="stroke:#000000;stroke-width:1.5;"/><line style="stroke:#000000;stroke-width:1.5;" x1="40" x2="97" y1="500.4883" y2="500.4883"/><text fill="#000000" font-family="sans-serif" font-size="14" font-weight="bold" lengthAdjust="spacingAndGlyphs" textLength="44" x="44" y="493.5352">mysql</text><!--MD5=[bab4019c732006648757f54388533847]
cluster postgres--><polygon fill="#FFFFFF" filter="url(#ftbttxz9ejhub)" points="254,478,323,478,330,500.4883,478,500.4883,478,715,254,715,254,478" style="stroke:#000000;stroke-width:1.5;"/><line style="stroke:#000000;stroke-width:1.5;" x1="254" x2="330" y1="500.4883" y2="500.4883"/><text fill="#000000" font-family="sans-serif" font-size="14" font-weight="bold" lengthAdjust="spacingAndGlyphs" textLength="63" x="258" y="493.5352">postgres</text><!--MD5=[73ad5e1502ea164349990f756202b7f3]
class TransactionController--><rect codeLine="5" fill="#FEFECE" filter="url(#ftbttxz9ejhub)" height="73.9102" id="TransactionController" style="stroke:#A80036;stroke-width:1.5;" width="155" x="427.5" y="41"/><ellipse cx="442.5" cy="57" fill="#ADD1B2" rx="11" ry="11" style="stroke:#A80036;stroke-width:1.0;"/><path d="M444.9731,63.1431 Q444.3921,63.4419 443.7529,63.5913 Q443.1138,63.7407 442.4082,63.7407 Q439.9014,63.7407 438.5815,62.0889 Q437.2617,60.437 437.2617,57.3159 Q437.2617,54.1865 438.5815,52.5347 Q439.9014,50.8828 442.4082,50.8828 Q443.1138,50.8828 443.7612,51.0322 Q444.4087,51.1816 444.9731,51.4805 L444.9731,54.2031 Q444.3423,53.6221 443.7488,53.3523 Q443.1553,53.0825 442.5244,53.0825 Q441.1797,53.0825 440.4949,54.1492 Q439.8101,55.2158 439.8101,57.3159 Q439.8101,59.4077 440.4949,60.4744 Q441.1797,61.541 442.5244,61.541 Q443.1553,61.541 443.7488,61.2712 Q444.3423,61.0015 444.9731,60.4204 Z " fill="#000000"/><text fill="#000000" font-family="sans-serif" font-size="12" lengthAdjust="spacingAndGlyphs" textLength="123" x="456.5" y="61.5352">TransactionController</text><line style="stroke:#A80036;stroke-width:1.5;" x1="428.5" x2="581.5" y1="73" y2="73"/><line style="stroke:#A80036;stroke-width:1.5;" x1="428.5" x2="581.5" y1="81" y2="81"/><ellipse cx="438.5" cy="92" fill="#84BE84" rx="3" ry="3" style="stroke:#038048;stroke-width:1.0;"/><text fill="#000000" font-family="sans-serif" font-size="11" lengthAdjust="spacingAndGlyphs" textLength="95" x="447.5" y="95.6348">getTransactions()</text><ellipse cx="438.5" cy="104.9551" fill="#84BE84" rx="3" ry="3" style="stroke:#038048;stroke-width:1.0;"/><text fill="#000000" font-family="sans-serif" font-size="11" lengthAdjust="spacingAndGlyphs" textLength="103" x="447.5" y="108.5898">filterTransactions()</text><!--MD5=[73e1e2b7d5870e3c423ec75e997fa891]
class TransactionFaçade--><rect codeLine="12" fill="#FEFECE" filter="url(#ftbttxz9ejhub)" height="60.9551" id="TransactionFaçade" style="stroke:#A80036;stroke-width:1.5;" width="168" x="421" y="199"/><ellipse cx="448.6" cy="215" fill="#ADD1B2" rx="11" ry="11" style="stroke:#A80036;stroke-width:1.0;"/><path d="M451.0731,221.1431 Q450.4921,221.4419 449.8529,221.5913 Q449.2138,221.7407 448.5082,221.7407 Q446.0014,221.7407 444.6815,220.0889 Q443.3617,218.437 443.3617,215.3159 Q443.3617,212.1865 444.6815,210.5347 Q446.0014,208.8828 448.5082,208.8828 Q449.2138,208.8828 449.8612,209.0322 Q450.5087,209.1816 451.0731,209.4805 L451.0731,212.2031 Q450.4423,211.6221 449.8488,211.3523 Q449.2553,211.0825 448.6244,211.0825 Q447.2797,211.0825 446.5949,212.1492 Q445.9101,213.2158 445.9101,215.3159 Q445.9101,217.4077 446.5949,218.4744 Q447.2797,219.541 448.6244,219.541 Q449.2553,219.541 449.8488,219.2712 Q450.4423,219.0015 451.0731,218.4204 Z " fill="#000000"/><text fill="#000000" font-family="sans-serif" font-size="12" lengthAdjust="spacingAndGlyphs" textLength="108" x="465.4" y="219.5352">TransactionFaçade</text><line style="stroke:#A80036;stroke-width:1.5;" x1="422" x2="588" y1="231" y2="231"/><line style="stroke:#A80036;stroke-width:1.5;" x1="422" x2="588" y1="239" y2="239"/><ellipse cx="432" cy="250" fill="#84BE84" rx="3" ry="3" style="stroke:#038048;stroke-width:1.0;"/><text fill="#000000" font-family="sans-serif" font-size="11" lengthAdjust="spacingAndGlyphs" textLength="142" x="441" y="253.6348">getInstance() : AuthFaçade</text><!--MD5=[4a0300a6597e068a69ac5dc42e345e2c]
class DAOFactory--><rect codeLine="20" fill="#FEFECE" filter="url(#ftbttxz9ejhub)" height="86.8652" id="DAOFactory" style="stroke:#A80036;stroke-width:1.5;" width="246" x="243" y="344"/><ellipse cx="328.25" cy="360" fill="#ADD1B2" rx="11" ry="11" style="stroke:#A80036;stroke-width:1.0;"/><path d="M330.7231,366.1431 Q330.1421,366.4419 329.5029,366.5913 Q328.8638,366.7407 328.1582,366.7407 Q325.6514,366.7407 324.3315,365.0889 Q323.0117,363.437 323.0117,360.3159 Q323.0117,357.1865 324.3315,355.5347 Q325.6514,353.8828 328.1582,353.8828 Q328.8638,353.8828 329.5112,354.0322 Q330.1587,354.1816 330.7231,354.4805 L330.7231,357.2031 Q330.0923,356.6221 329.4988,356.3523 Q328.9053,356.0825 328.2744,356.0825 Q326.9297,356.0825 326.2449,357.1492 Q325.5601,358.2158 325.5601,360.3159 Q325.5601,362.4077 326.2449,363.4744 Q326.9297,364.541 328.2744,364.541 Q328.9053,364.541 329.4988,364.2712 Q330.0923,364.0015 330.7231,363.4204 Z " fill="#000000"/><text fill="#000000" font-family="sans-serif" font-size="12" lengthAdjust="spacingAndGlyphs" textLength="67" x="348.75" y="364.5352">DAOFactory</text><line style="stroke:#A80036;stroke-width:1.5;" x1="244" x2="488" y1="376" y2="376"/><polygon fill="none" points="254,382,258,386,254,390,250,386" style="stroke:#B38D22;stroke-width:1.0;"/><text fill="#000000" font-family="sans-serif" font-size="11" lengthAdjust="spacingAndGlyphs" text-decoration="underline" textLength="131" x="263" y="390.6348">connection : Connection</text><line style="stroke:#A80036;stroke-width:1.5;" x1="244" x2="488" y1="396.9551" y2="396.9551"/><ellipse cx="254" cy="407.9551" fill="#84BE84" rx="3" ry="3" style="stroke:#038048;stroke-width:1.0;"/><text fill="#000000" font-family="sans-serif" font-size="11" lengthAdjust="spacingAndGlyphs" textLength="220" x="263" y="411.5898">createTransactionDao() : TransactionDao</text><ellipse cx="254" cy="420.9102" fill="#84BE84" rx="3" ry="3" style="stroke:#038048;stroke-width:1.0;"/><text fill="#000000" font-family="sans-serif" font-size="11" lengthAdjust="spacingAndGlyphs" text-decoration="underline" textLength="158" x="263" y="424.5449">getConnection() : Connection</text><!--MD5=[3a6eab5b2414aa53c0b74b8f29c4c326]
class TransactionDAO--><rect codeLine="41" fill="#FEFECE" filter="url(#ftbttxz9ejhub)" height="73.9102" id="TransactionDAO" style="stroke:#A80036;stroke-width:1.5;" width="190" x="494" y="500"/><ellipse cx="538.25" cy="516" fill="#ADD1B2" rx="11" ry="11" style="stroke:#A80036;stroke-width:1.0;"/><path d="M540.7231,522.1431 Q540.1421,522.4419 539.5029,522.5913 Q538.8638,522.7407 538.1582,522.7407 Q535.6514,522.7407 534.3315,521.0889 Q533.0117,519.437 533.0117,516.3159 Q533.0117,513.1865 534.3315,511.5347 Q535.6514,509.8828 538.1582,509.8828 Q538.8638,509.8828 539.5112,510.0322 Q540.1587,510.1816 540.7231,510.4805 L540.7231,513.2031 Q540.0923,512.6221 539.4988,512.3523 Q538.9053,512.0825 538.2744,512.0825 Q536.9297,512.0825 536.2449,513.1492 Q535.5601,514.2158 535.5601,516.3159 Q535.5601,518.4077 536.2449,519.4744 Q536.9297,520.541 538.2744,520.541 Q538.9053,520.541 539.4988,520.2712 Q540.0923,520.0015 540.7231,519.4204 Z " fill="#000000"/><text fill="#000000" font-family="sans-serif" font-size="12" lengthAdjust="spacingAndGlyphs" textLength="93" x="558.75" y="520.5352">TransactionDAO</text><line style="stroke:#A80036;stroke-width:1.5;" x1="495" x2="683" y1="532" y2="532"/><line style="stroke:#A80036;stroke-width:1.5;" x1="495" x2="683" y1="540" y2="540"/><ellipse cx="505" cy="551" fill="#84BE84" rx="3" ry="3" style="stroke:#038048;stroke-width:1.0;"/><text fill="#000000" font-family="sans-serif" font-size="11" lengthAdjust="spacingAndGlyphs" textLength="158" x="514" y="554.6348">getConnection() : Connection</text><ellipse cx="505" cy="563.9551" fill="#84BE84" rx="3" ry="3" style="stroke:#038048;stroke-width:1.0;"/><text fill="#000000" font-family="sans-serif" font-size="11" lengthAdjust="spacingAndGlyphs" textLength="164" x="514" y="567.5898">findAllTransactions(int userId)</text><!--MD5=[0e2e921ab886777c70e16ce5f6b9950f]
class MySqlDAOFactory--><rect codeLine="27" fill="#FEFECE" filter="url(#ftbttxz9ejhub)" height="48" id="MySqlDAOFactory" style="stroke:#A80036;stroke-width:1.5;" width="132" x="78" y="513"/><ellipse cx="93" cy="529" fill="#ADD1B2" rx="11" ry="11" style="stroke:#A80036;stroke-width:1.0;"/><path d="M95.4731,535.1431 Q94.8921,535.4419 94.2529,535.5913 Q93.6138,535.7407 92.9082,535.7407 Q90.4014,535.7407 89.0815,534.0889 Q87.7617,532.437 87.7617,529.3159 Q87.7617,526.1865 89.0815,524.5347 Q90.4014,522.8828 92.9082,522.8828 Q93.6138,522.8828 94.2612,523.0322 Q94.9087,523.1816 95.4731,523.4805 L95.4731,526.2031 Q94.8423,525.6221 94.2488,525.3523 Q93.6553,525.0825 93.0244,525.0825 Q91.6797,525.0825 90.9949,526.1492 Q90.3101,527.2158 90.3101,529.3159 Q90.3101,531.4077 90.9949,532.4744 Q91.6797,533.541 93.0244,533.541 Q93.6553,533.541 94.2488,533.2712 Q94.8423,533.0015 95.4731,532.4204 Z " fill="#000000"/><text fill="#000000" font-family="sans-serif" font-size="12" lengthAdjust="spacingAndGlyphs" textLength="100" x="107" y="533.5352">MySqlDAOFactory</text><line style="stroke:#A80036;stroke-width:1.5;" x1="79" x2="209" y1="545" y2="545"/><line style="stroke:#A80036;stroke-width:1.5;" x1="79" x2="209" y1="553" y2="553"/><!--MD5=[a3f7ff5ac8c6e20d20d0eac371cbe13b]
class MySqlTransactionDAO--><rect codeLine="28" fill="#FEFECE" filter="url(#ftbttxz9ejhub)" height="48" id="MySqlTransactionDAO" style="stroke:#A80036;stroke-width:1.5;" width="158" x="56" y="651"/><ellipse cx="71" cy="667" fill="#ADD1B2" rx="11" ry="11" style="stroke:#A80036;stroke-width:1.0;"/><path d="M73.4731,673.1431 Q72.8921,673.4419 72.2529,673.5913 Q71.6138,673.7407 70.9082,673.7407 Q68.4014,673.7407 67.0815,672.0889 Q65.7617,670.437 65.7617,667.3159 Q65.7617,664.1865 67.0815,662.5347 Q68.4014,660.8828 70.9082,660.8828 Q71.6138,660.8828 72.2612,661.0322 Q72.9087,661.1816 73.4731,661.4805 L73.4731,664.2031 Q72.8423,663.6221 72.2488,663.3523 Q71.6553,663.0825 71.0244,663.0825 Q69.6797,663.0825 68.9949,664.1492 Q68.3101,665.2158 68.3101,667.3159 Q68.3101,669.4077 68.9949,670.4744 Q69.6797,671.541 71.0244,671.541 Q71.6553,671.541 72.2488,671.2712 Q72.8423,671.0015 73.4731,670.4204 Z " fill="#000000"/><text fill="#000000" font-family="sans-serif" font-size="12" lengthAdjust="spacingAndGlyphs" textLength="126" x="85" y="671.5352">MySqlTransactionDAO</text><line style="stroke:#A80036;stroke-width:1.5;" x1="57" x2="213" y1="683" y2="683"/><line style="stroke:#A80036;stroke-width:1.5;" x1="57" x2="213" y1="691" y2="691"/><!--MD5=[53d91c5c39126efc6a9a0f5f529438be]
class MyPostGresDAOFactory--><rect codeLine="34" fill="#FEFECE" filter="url(#ftbttxz9ejhub)" height="48" id="MyPostGresDAOFactory" style="stroke:#A80036;stroke-width:1.5;" width="166" x="283" y="513"/><ellipse cx="298" cy="529" fill="#ADD1B2" rx="11" ry="11" style="stroke:#A80036;stroke-width:1.0;"/><path d="M300.4731,535.1431 Q299.8921,535.4419 299.2529,535.5913 Q298.6138,535.7407 297.9082,535.7407 Q295.4014,535.7407 294.0815,534.0889 Q292.7617,532.437 292.7617,529.3159 Q292.7617,526.1865 294.0815,524.5347 Q295.4014,522.8828 297.9082,522.8828 Q298.6138,522.8828 299.2612,523.0322 Q299.9087,523.1816 300.4731,523.4805 L300.4731,526.2031 Q299.8423,525.6221 299.2488,525.3523 Q298.6553,525.0825 298.0244,525.0825 Q296.6797,525.0825 295.9949,526.1492 Q295.3101,527.2158 295.3101,529.3159 Q295.3101,531.4077 295.9949,532.4744 Q296.6797,533.541 298.0244,533.541 Q298.6553,533.541 299.2488,533.2712 Q299.8423,533.0015 300.4731,532.4204 Z " fill="#000000"/><text fill="#000000" font-family="sans-serif" font-size="12" lengthAdjust="spacingAndGlyphs" textLength="134" x="312" y="533.5352">MyPostGresDAOFactory</text><line style="stroke:#A80036;stroke-width:1.5;" x1="284" x2="448" y1="545" y2="545"/><line style="stroke:#A80036;stroke-width:1.5;" x1="284" x2="448" y1="553" y2="553"/><!--MD5=[bf804b7c3924d30ddf1ffe8c3deadb2b]
class MyPostGresTransactionDAO--><rect codeLine="35" fill="#FEFECE" filter="url(#ftbttxz9ejhub)" height="48" id="MyPostGresTransactionDAO" style="stroke:#A80036;stroke-width:1.5;" width="192" x="270" y="651"/><ellipse cx="285" cy="667" fill="#ADD1B2" rx="11" ry="11" style="stroke:#A80036;stroke-width:1.0;"/><path d="M287.4731,673.1431 Q286.8921,673.4419 286.2529,673.5913 Q285.6138,673.7407 284.9082,673.7407 Q282.4014,673.7407 281.0815,672.0889 Q279.7617,670.437 279.7617,667.3159 Q279.7617,664.1865 281.0815,662.5347 Q282.4014,660.8828 284.9082,660.8828 Q285.6138,660.8828 286.2612,661.0322 Q286.9087,661.1816 287.4731,661.4805 L287.4731,664.2031 Q286.8423,663.6221 286.2488,663.3523 Q285.6553,663.0825 285.0244,663.0825 Q283.6797,663.0825 282.9949,664.1492 Q282.3101,665.2158 282.3101,667.3159 Q282.3101,669.4077 282.9949,670.4744 Q283.6797,671.541 285.0244,671.541 Q285.6553,671.541 286.2488,671.2712 Q286.8423,671.0015 287.4731,670.4204 Z " fill="#000000"/><text fill="#000000" font-family="sans-serif" font-size="12" lengthAdjust="spacingAndGlyphs" textLength="160" x="299" y="671.5352">MyPostGresTransactionDAO</text><line style="stroke:#A80036;stroke-width:1.5;" x1="271" x2="461" y1="683" y2="683"/><line style="stroke:#A80036;stroke-width:1.5;" x1="271" x2="461" y1="691" y2="691"/><!--MD5=[097dfe273c81c4a0248440e11a8351b4]
link MySqlDAOFactory to MySqlTransactionDAO--><path codeLine="30" d="M142.47,561.07 C140.93,584.42 138.54,620.56 136.88,645.64 " fill="none" id="MySqlDAOFactory-to-MySqlTransactionDAO" style="stroke:#A80036;stroke-width:1.0;stroke-dasharray:7.0,7.0;"/><polygon fill="#A80036" points="136.53,650.82,141.1132,642.1025,136.8588,645.8308,133.1305,641.5764,136.53,650.82" style="stroke:#A80036;stroke-width:1.0;"/><text fill="#000000" font-family="sans-serif" font-size="13" lengthAdjust="spacingAndGlyphs" textLength="45" x="140" y="617.5684">creates</text><!--MD5=[93f8a2cc8e798d8760e85248b489e64b]
link MyPostGresDAOFactory to MyPostGresTransactionDAO--><path codeLine="37" d="M345.76,561.05 C333.89,577.41 322.42,600.08 329,621 C331.84,630.03 336.83,638.87 342.24,646.66 " fill="none" id="MyPostGresDAOFactory-to-MyPostGresTransactionDAO" style="stroke:#A80036;stroke-width:1.0;stroke-dasharray:7.0,7.0;"/><polygon fill="#A80036" points="345.28,650.87,343.2558,641.2314,342.3536,646.8159,336.7691,645.9137,345.28,650.87" style="stroke:#A80036;stroke-width:1.0;"/><text fill="#000000" font-family="sans-serif" font-size="13" lengthAdjust="spacingAndGlyphs" textLength="45" x="330" y="617.5684">creates</text><!--MD5=[2244845d9532617fbdb71d141db8964f]
reverse link DAOFactory to MySqlDAOFactory--><path codeLine="46" d="M284.86,442.41 C248.34,466.67 207.17,494.03 178.82,512.87 " fill="none" id="DAOFactory-backto-MySqlDAOFactory" style="stroke:#A80036;stroke-width:1.0;"/><polygon fill="none" points="281.26,436.4,301.79,431.16,289,448.06,281.26,436.4" style="stroke:#A80036;stroke-width:1.0;"/><!--MD5=[0cc072129a130e9263fe0de79ee87aa7]
reverse link DAOFactory to MyPostGresDAOFactory--><path codeLine="47" d="M366,451.35 C366,473.09 366,496.12 366,512.66 " fill="none" id="DAOFactory-backto-MyPostGresDAOFactory" style="stroke:#A80036;stroke-width:1.0;"/><polygon fill="none" points="359,451.16,366,431.16,373,451.16,359,451.16" style="stroke:#A80036;stroke-width:1.0;"/><!--MD5=[6a568f99079ed5bb9f1a95e2d008cf5a]
reverse link TransactionDAO to MyPostGresTransactionDAO--><path codeLine="48" d="M569.44,592.6 C563.58,603.19 556.19,613.36 547,621 C523.08,640.89 491.99,653.31 462.34,661.08 " fill="none" id="TransactionDAO-backto-MyPostGresTransactionDAO" style="stroke:#A80036;stroke-width:1.0;"/><polygon fill="none" points="563.28,589.25,578.15,574.15,575.94,595.23,563.28,589.25" style="stroke:#A80036;stroke-width:1.0;"/><!--MD5=[b86dedbb1f7166fb6e6a11f9add4bdd6]
reverse link TransactionDAO to MySqlTransactionDAO--><path codeLine="49" d="M535.34,586.71 C518.13,599.86 498.26,612.73 478,621 C385.01,658.96 353.13,634.8 254,651 C241.12,653.1 227.51,655.54 214.26,658.02 " fill="none" id="TransactionDAO-backto-MySqlTransactionDAO" style="stroke:#A80036;stroke-width:1.0;"/><polygon fill="none" points="530.97,581.23,550.94,574.15,539.75,592.14,530.97,581.23" style="stroke:#A80036;stroke-width:1.0;"/><!--MD5=[e33dee75d3377294246a596994fd123e]
link TransactionController to TransactionFaçade--><path codeLine="53" d="M505,115.19 C505,138.97 505,169.92 505,193.46 " fill="none" id="TransactionController-to-TransactionFaçade" style="stroke:#A80036;stroke-width:1.0;stroke-dasharray:7.0,7.0;"/><polygon fill="#A80036" points="505,198.67,509,189.67,505,193.67,501,189.67,505,198.67" style="stroke:#A80036;stroke-width:1.0;"/><!--MD5=[d86b87f2c4109d00fc3fb4ba461987e8]
link TransactionFaçade to DAOFactory--><path codeLine="55" d="M478.53,260.21 C458.41,282.79 430.35,314.27 407.29,340.16 " fill="none" id="TransactionFaçade-to-DAOFactory" style="stroke:#A80036;stroke-width:1.0;"/><polygon fill="#A80036" points="403.93,343.93,412.8989,339.8608,407.2518,340.193,406.9196,334.5459,403.93,343.93" style="stroke:#A80036;stroke-width:1.0;"/><!--MD5=[6c03d9b99ea0fed87fe6060c9d3b644b]
link TransactionFaçade to TransactionDAO--><path codeLine="57" d="M513.13,260.07 C528.19,314.83 560.44,432.15 577.65,494.71 " fill="none" id="TransactionFaçade-to-TransactionDAO" style="stroke:#A80036;stroke-width:1.0;"/><polygon fill="#A80036" points="579.06,499.85,580.5217,490.1102,577.7299,495.0302,572.8099,492.2384,579.06,499.85" style="stroke:#A80036;stroke-width:1.0;"/><!--MD5=[013a6858a0d38d76b1b42edd2621f928]
@startuml get_transactions

package transactionController <<Folder>> {


  class TransactionController {
    +getTransactions()
    +filterTransactions()
  }
}

package transaction <<Folder>> {
  class TransactionFaçade {
    +getInstance() : AuthFaçade
  }

}

package dao <<Folder>> {

  class DAOFactory {
    #{static}connection : Connection
    +createTransactionDao() : TransactionDao
    +{static}getConnection() : Connection
  }

  package mysql <<Folder>> {
    class MySqlDAOFactory {}
    class MySqlTransactionDAO {}

    MySqlDAOFactory .down.> MySqlTransactionDAO : creates
  }

  package postgres <<Folder>> {
    class MyPostGresDAOFactory {}
    class MyPostGresTransactionDAO {}

    MyPostGresDAOFactory .down.> MyPostGresTransactionDAO : creates
  }


  class TransactionDAO {
    +getConnection() : Connection
    +findAllTransactions(int userId)
  }

  DAOFactory <|- - MySqlDAOFactory
  DAOFactory <|- - MyPostGresDAOFactory
  TransactionDAO <|- - MyPostGresTransactionDAO
  TransactionDAO <|- - MySqlTransactionDAO

}

TransactionController .down.> TransactionFaçade

TransactionFaçade -down-> DAOFactory

TransactionFaçade - -> TransactionDAO

@enduml

PlantUML version 1.2020.22(Sun Dec 06 10:36:27 CET 2020)
(GPL source distribution)
Java Runtime: OpenJDK Runtime Environment
JVM: OpenJDK 64-Bit Server VM
Default Encoding: UTF-8
Language: en
Country: GB
--></g></svg>