<?xml version="1.0" encoding="UTF-8" standalone="no"?><svg xmlns="http://www.w3.org/2000/svg" xmlns:xlink="http://www.w3.org/1999/xlink" contentScriptType="application/ecmascript" contentStyleType="text/css" height="619.2px" preserveAspectRatio="none" style="width:760px;height:619px;" version="1.1" viewBox="0 0 760 619" width="760.8px" zoomAndPan="magnify"><defs><filter height="300%" id="f1emtkzrn6a4w5" width="300%" x="-1" y="-1"><feGaussianBlur result="blurOut" stdDeviation="1.2"/><feColorMatrix in="blurOut" result="blurOut2" type="matrix" values="0 0 0 0 0 0 0 0 0 0 0 0 0 0 0 0 0 0 .4 0"/><feOffset dx="2.4" dy="2.4" in="blurOut2" result="blurOut3"/><feBlend in="SourceGraphic" in2="blurOut3" mode="normal"/></filter></defs><g><!--MD5=[f9c58d90839a0c7c212d8c6553ac9eb7]
cluster transaction--><polygon fill="#FFFFFF" filter="url(#f1emtkzrn6a4w5)" points="325.8,3.6,378,3.6,382.2,17.093,750.6,17.093,750.6,190.2,325.8,190.2,325.8,3.6" style="stroke: #000000; stroke-width: 0.8999999999999999;"/><line style="stroke: #000000; stroke-width: 0.8999999999999999;" x1="325.8" x2="382.2" y1="17.093" y2="17.093"/><text fill="#000000" font-family="sans-serif" font-size="8.4" font-weight="bold" lengthAdjust="spacingAndGlyphs" textLength="48.6" x="328.2" y="12.9211">transaction</text><!--MD5=[a875e76386ce045a1c23a007901e59fe]
class SplitTransaction--><rect codeLine="80" fill="#FEFECE" filter="url(#f1emtkzrn6a4w5)" height="59.8922" id="SplitTransaction" style="stroke: #A80036; stroke-width: 0.8999999999999999;" width="94.2" x="352.5" y="24.6"/><ellipse cx="370.68" cy="34.2" fill="#ADD1B2" rx="6.6" ry="6.6" style="stroke: #A80036; stroke-width: 0.6;"/><path d="M372.8486,38.1 L368.2167,38.1 L368.2167,30.6642 L372.8486,30.6642 L372.8486,31.9591 L369.686,31.9591 L369.686,33.5628 L372.5497,33.5628 L372.5497,34.8577 L369.686,34.8577 L369.686,36.8051 L372.8486,36.8051 Z " fill="#000000"/><text fill="#000000" font-family="sans-serif" font-size="7.2" lengthAdjust="spacingAndGlyphs" textLength="54.6" x="381.12" y="36.9211">SplitTransaction</text><line style="stroke: #A80036; stroke-width: 0.8999999999999999;" x1="353.1" x2="446.1" y1="43.8" y2="43.8"/><rect fill="none" height="3.6" style="stroke: #C82930; stroke-width: 0.6;" width="3.6" x="357.3" y="48.6"/><text fill="#000000" font-family="sans-serif" font-size="6.6" lengthAdjust="spacingAndGlyphs" textLength="45.6" x="364.5" y="52.5809">amount : Float</text><rect fill="none" height="3.6" style="stroke: #C82930; stroke-width: 0.6;" width="3.6" x="357.3" y="56.373"/><text fill="#000000" font-family="sans-serif" font-size="6.6" lengthAdjust="spacingAndGlyphs" textLength="58.8" x="364.5" y="60.3539">dateCreated : Date</text><rect fill="none" height="3.6" style="stroke: #C82930; stroke-width: 0.6;" width="3.6" x="357.3" y="64.1461"/><text fill="#000000" font-family="sans-serif" font-size="6.6" lengthAdjust="spacingAndGlyphs" textLength="75.6" x="364.5" y="68.127">sender_fk : NormalUser</text><rect fill="none" height="3.6" style="stroke: #C82930; stroke-width: 0.6;" width="3.6" x="357.3" y="71.9191"/><text fill="#000000" font-family="sans-serif" font-size="6.6" lengthAdjust="spacingAndGlyphs" textLength="78.6" x="364.5" y="75.9">receiver_fk : StoreOwner</text><line style="stroke: #A80036; stroke-width: 0.8999999999999999;" x1="353.1" x2="446.1" y1="79.6922" y2="79.6922"/><!--MD5=[bf2d23312a3bc3a20537c134542d9690]
class UserToUserTransaction--><rect codeLine="87" fill="#FEFECE" filter="url(#f1emtkzrn6a4w5)" height="59.8922" id="UserToUserTransaction" style="stroke: #A80036; stroke-width: 0.8999999999999999;" width="99.6" x="468" y="24.6"/><ellipse cx="477" cy="34.2" fill="#ADD1B2" rx="6.6" ry="6.6" style="stroke: #A80036; stroke-width: 0.6;"/><path d="M479.1686,38.1 L474.5367,38.1 L474.5367,30.6642 L479.1686,30.6642 L479.1686,31.9591 L476.006,31.9591 L476.006,33.5628 L478.8697,33.5628 L478.8697,34.8577 L476.006,34.8577 L476.006,36.8051 L479.1686,36.8051 Z " fill="#000000"/><text fill="#000000" font-family="sans-serif" font-size="7.2" lengthAdjust="spacingAndGlyphs" textLength="80.4" x="485.4" y="36.9211">UserToUserTransaction</text><line style="stroke: #A80036; stroke-width: 0.8999999999999999;" x1="468.6" x2="567" y1="43.8" y2="43.8"/><rect fill="none" height="3.6" style="stroke: #C82930; stroke-width: 0.6;" width="3.6" x="472.8" y="48.6"/><text fill="#000000" font-family="sans-serif" font-size="6.6" lengthAdjust="spacingAndGlyphs" textLength="45.6" x="480" y="52.5809">amount : Float</text><rect fill="none" height="3.6" style="stroke: #C82930; stroke-width: 0.6;" width="3.6" x="472.8" y="56.373"/><text fill="#000000" font-family="sans-serif" font-size="6.6" lengthAdjust="spacingAndGlyphs" textLength="58.8" x="480" y="60.3539">dateCreated : Date</text><rect fill="none" height="3.6" style="stroke: #C82930; stroke-width: 0.6;" width="3.6" x="472.8" y="64.1461"/><text fill="#000000" font-family="sans-serif" font-size="6.6" lengthAdjust="spacingAndGlyphs" textLength="75.6" x="480" y="68.127">sender_fk : NormalUser</text><rect fill="none" height="3.6" style="stroke: #C82930; stroke-width: 0.6;" width="3.6" x="472.8" y="71.9191"/><text fill="#000000" font-family="sans-serif" font-size="6.6" lengthAdjust="spacingAndGlyphs" textLength="79.2" x="480" y="75.9">receiver_fk : NormalUser</text><line style="stroke: #A80036; stroke-width: 0.8999999999999999;" x1="468.6" x2="567" y1="79.6922" y2="79.6922"/><!--MD5=[7beef92751538f9e441d05e5b60007c3]
class UserToBankAccount--><rect codeLine="95" fill="#FEFECE" filter="url(#f1emtkzrn6a4w5)" height="59.8922" id="UserToBankAccount" style="stroke: #A80036; stroke-width: 0.8999999999999999;" width="98.4" x="588.6" y="24.6"/><ellipse cx="602.46" cy="34.2" fill="#ADD1B2" rx="6.6" ry="6.6" style="stroke: #A80036; stroke-width: 0.6;"/><path d="M604.6286,38.1 L599.9967,38.1 L599.9967,30.6642 L604.6286,30.6642 L604.6286,31.9591 L601.466,31.9591 L601.466,33.5628 L604.3297,33.5628 L604.3297,34.8577 L601.466,34.8577 L601.466,36.8051 L604.6286,36.8051 Z " fill="#000000"/><text fill="#000000" font-family="sans-serif" font-size="7.2" lengthAdjust="spacingAndGlyphs" textLength="68.4" x="611.94" y="36.9211">UserToBankAccount</text><line style="stroke: #A80036; stroke-width: 0.8999999999999999;" x1="589.2" x2="686.4" y1="43.8" y2="43.8"/><rect fill="none" height="3.6" style="stroke: #C82930; stroke-width: 0.6;" width="3.6" x="593.4" y="48.6"/><text fill="#000000" font-family="sans-serif" font-size="6.6" lengthAdjust="spacingAndGlyphs" textLength="45.6" x="600.6" y="52.5809">amount : Float</text><rect fill="none" height="3.6" style="stroke: #C82930; stroke-width: 0.6;" width="3.6" x="593.4" y="56.373"/><text fill="#000000" font-family="sans-serif" font-size="6.6" lengthAdjust="spacingAndGlyphs" textLength="58.8" x="600.6" y="60.3539">dateCreated : Date</text><rect fill="none" height="3.6" style="stroke: #C82930; stroke-width: 0.6;" width="3.6" x="593.4" y="64.1461"/><text fill="#000000" font-family="sans-serif" font-size="6.6" lengthAdjust="spacingAndGlyphs" textLength="75.6" x="600.6" y="68.127">sender_fk : NormalUser</text><rect fill="none" height="3.6" style="stroke: #C82930; stroke-width: 0.6;" width="3.6" x="593.4" y="71.9191"/><text fill="#000000" font-family="sans-serif" font-size="6.6" lengthAdjust="spacingAndGlyphs" textLength="82.8" x="600.6" y="75.9">receiver_fk : BankAccount</text><line style="stroke: #A80036; stroke-width: 0.8999999999999999;" x1="589.2" x2="686.4" y1="79.6922" y2="79.6922"/><!--MD5=[44a6fd2b124ca4a9dd8bb8c792475a6d]
class BankAccountToUserTransaction--><rect codeLine="102" fill="#FEFECE" filter="url(#f1emtkzrn6a4w5)" height="59.8922" id="BankAccountToUserTransaction" style="stroke: #A80036; stroke-width: 0.8999999999999999;" width="127.8" x="335.7" y="120.6"/><ellipse cx="344.7" cy="130.2" fill="#ADD1B2" rx="6.6" ry="6.6" style="stroke: #A80036; stroke-width: 0.6;"/><path d="M346.8686,134.1 L342.2367,134.1 L342.2367,126.6642 L346.8686,126.6642 L346.8686,127.9591 L343.706,127.9591 L343.706,129.5628 L346.5697,129.5628 L346.5697,130.8577 L343.706,130.8577 L343.706,132.8051 L346.8686,132.8051 Z " fill="#000000"/><text fill="#000000" font-family="sans-serif" font-size="7.2" lengthAdjust="spacingAndGlyphs" textLength="108.6" x="353.1" y="132.9211">BankAccountToUserTransaction</text><line style="stroke: #A80036; stroke-width: 0.8999999999999999;" x1="336.3" x2="462.9" y1="139.8" y2="139.8"/><rect fill="none" height="3.6" style="stroke: #C82930; stroke-width: 0.6;" width="3.6" x="340.5" y="144.6"/><text fill="#000000" font-family="sans-serif" font-size="6.6" lengthAdjust="spacingAndGlyphs" textLength="45.6" x="347.7" y="148.5809">amount : Float</text><rect fill="none" height="3.6" style="stroke: #C82930; stroke-width: 0.6;" width="3.6" x="340.5" y="152.373"/><text fill="#000000" font-family="sans-serif" font-size="6.6" lengthAdjust="spacingAndGlyphs" textLength="58.8" x="347.7" y="156.3539">dateCreated : Date</text><rect fill="none" height="3.6" style="stroke: #C82930; stroke-width: 0.6;" width="3.6" x="340.5" y="160.1461"/><text fill="#000000" font-family="sans-serif" font-size="6.6" lengthAdjust="spacingAndGlyphs" textLength="79.2" x="347.7" y="164.127">sender_fk : BankAccount</text><rect fill="none" height="3.6" style="stroke: #C82930; stroke-width: 0.6;" width="3.6" x="340.5" y="167.9191"/><text fill="#000000" font-family="sans-serif" font-size="6.6" lengthAdjust="spacingAndGlyphs" textLength="55.8" x="347.7" y="171.9">receiver_fk : User</text><line style="stroke: #A80036; stroke-width: 0.8999999999999999;" x1="336.3" x2="462.9" y1="175.6922" y2="175.6922"/><!--MD5=[05b574fff95eb7f1589e6e2df99409e4]
class UserToStoreOwnerTransaction--><rect codeLine="109" fill="#FEFECE" filter="url(#f1emtkzrn6a4w5)" height="59.8922" id="UserToStoreOwnerTransaction" style="stroke: #A80036; stroke-width: 0.8999999999999999;" width="123.6" x="484.8" y="120.6"/><ellipse cx="493.8" cy="130.2" fill="#ADD1B2" rx="6.6" ry="6.6" style="stroke: #A80036; stroke-width: 0.6;"/><path d="M495.9686,134.1 L491.3367,134.1 L491.3367,126.6642 L495.9686,126.6642 L495.9686,127.9591 L492.806,127.9591 L492.806,129.5628 L495.6697,129.5628 L495.6697,130.8577 L492.806,130.8577 L492.806,132.8051 L495.9686,132.8051 Z " fill="#000000"/><text fill="#000000" font-family="sans-serif" font-size="7.2" lengthAdjust="spacingAndGlyphs" textLength="104.4" x="502.2" y="132.9211">UserToStoreOwnerTransaction</text><line style="stroke: #A80036; stroke-width: 0.8999999999999999;" x1="485.4" x2="607.8" y1="139.8" y2="139.8"/><rect fill="none" height="3.6" style="stroke: #C82930; stroke-width: 0.6;" width="3.6" x="489.6" y="144.6"/><text fill="#000000" font-family="sans-serif" font-size="6.6" lengthAdjust="spacingAndGlyphs" textLength="45.6" x="496.8" y="148.5809">amount : Float</text><rect fill="none" height="3.6" style="stroke: #C82930; stroke-width: 0.6;" width="3.6" x="489.6" y="152.373"/><text fill="#000000" font-family="sans-serif" font-size="6.6" lengthAdjust="spacingAndGlyphs" textLength="58.8" x="496.8" y="156.3539">dateCreated : Date</text><rect fill="none" height="3.6" style="stroke: #C82930; stroke-width: 0.6;" width="3.6" x="489.6" y="160.1461"/><text fill="#000000" font-family="sans-serif" font-size="6.6" lengthAdjust="spacingAndGlyphs" textLength="52.2" x="496.8" y="164.127">sender_fk : User</text><rect fill="none" height="3.6" style="stroke: #C82930; stroke-width: 0.6;" width="3.6" x="489.6" y="167.9191"/><text fill="#000000" font-family="sans-serif" font-size="6.6" lengthAdjust="spacingAndGlyphs" textLength="78.6" x="496.8" y="171.9">receiver_fk : StoreOwner</text><line style="stroke: #A80036; stroke-width: 0.8999999999999999;" x1="485.4" x2="607.8" y1="175.6922" y2="175.6922"/><!--MD5=[2140cbbe721fa7bf85128c3ffc527888]
class StoreOwnerToBankAccount--><rect codeLine="116" fill="#FEFECE" filter="url(#f1emtkzrn6a4w5)" height="59.8922" id="StoreOwnerToBankAccount" style="stroke: #A80036; stroke-width: 0.8999999999999999;" width="111.6" x="629.4" y="120.6"/><ellipse cx="638.4" cy="130.2" fill="#ADD1B2" rx="6.6" ry="6.6" style="stroke: #A80036; stroke-width: 0.6;"/><path d="M640.5686,134.1 L635.9367,134.1 L635.9367,126.6642 L640.5686,126.6642 L640.5686,127.9591 L637.406,127.9591 L637.406,129.5628 L640.2697,129.5628 L640.2697,130.8577 L637.406,130.8577 L637.406,132.8051 L640.5686,132.8051 Z " fill="#000000"/><text fill="#000000" font-family="sans-serif" font-size="7.2" lengthAdjust="spacingAndGlyphs" textLength="92.4" x="646.8" y="132.9211">StoreOwnerToBankAccount</text><line style="stroke: #A80036; stroke-width: 0.8999999999999999;" x1="630" x2="740.4" y1="139.8" y2="139.8"/><rect fill="none" height="3.6" style="stroke: #C82930; stroke-width: 0.6;" width="3.6" x="634.2" y="144.6"/><text fill="#000000" font-family="sans-serif" font-size="6.6" lengthAdjust="spacingAndGlyphs" textLength="45.6" x="641.4" y="148.5809">amount : Float</text><rect fill="none" height="3.6" style="stroke: #C82930; stroke-width: 0.6;" width="3.6" x="634.2" y="152.373"/><text fill="#000000" font-family="sans-serif" font-size="6.6" lengthAdjust="spacingAndGlyphs" textLength="58.8" x="641.4" y="156.3539">dateCreated : Date</text><rect fill="none" height="3.6" style="stroke: #C82930; stroke-width: 0.6;" width="3.6" x="634.2" y="160.1461"/><text fill="#000000" font-family="sans-serif" font-size="6.6" lengthAdjust="spacingAndGlyphs" textLength="75" x="641.4" y="164.127">sender_fk : StoreOwner</text><rect fill="none" height="3.6" style="stroke: #C82930; stroke-width: 0.6;" width="3.6" x="634.2" y="167.9191"/><text fill="#000000" font-family="sans-serif" font-size="6.6" lengthAdjust="spacingAndGlyphs" textLength="82.8" x="641.4" y="171.9">receiver_fk : BankAccount</text><line style="stroke: #A80036; stroke-width: 0.8999999999999999;" x1="630" x2="740.4" y1="175.6922" y2="175.6922"/><!--MD5=[3b0e42168dad91672a2b1c2b0678530e]
class BankAccount--><rect codeLine="2" fill="#FEFECE" filter="url(#f1emtkzrn6a4w5)" height="67.6652" id="BankAccount" style="stroke: #A80036; stroke-width: 0.8999999999999999;" width="92.4" x="148.2" y="459.3"/><ellipse cx="170.43" cy="468.9" fill="#ADD1B2" rx="6.6" ry="6.6" style="stroke: #A80036; stroke-width: 0.6;"/><path d="M172.5986,472.8 L167.9667,472.8 L167.9667,465.3642 L172.5986,465.3642 L172.5986,466.6591 L169.436,466.6591 L169.436,468.2628 L172.2997,468.2628 L172.2997,469.5577 L169.436,469.5577 L169.436,471.5051 L172.5986,471.5051 Z " fill="#000000"/><text fill="#000000" font-family="sans-serif" font-size="7.2" lengthAdjust="spacingAndGlyphs" textLength="43.8" x="181.77" y="471.6211">BankAccount</text><line style="stroke: #A80036; stroke-width: 0.8999999999999999;" x1="148.8" x2="240" y1="478.5" y2="478.5"/><rect fill="none" height="3.6" style="stroke: #C82930; stroke-width: 0.6;" width="3.6" x="153" y="483.3"/><text fill="#000000" font-family="sans-serif" font-size="6.6" lengthAdjust="spacingAndGlyphs" textLength="39.6" x="160.2" y="487.2809">label : String</text><rect fill="none" height="3.6" style="stroke: #C82930; stroke-width: 0.6;" width="3.6" x="153" y="491.073"/><text fill="#000000" font-family="sans-serif" font-size="6.6" lengthAdjust="spacingAndGlyphs" textLength="34.2" x="160.2" y="495.0539">bic : String</text><rect fill="none" height="3.6" style="stroke: #C82930; stroke-width: 0.6;" width="3.6" x="153" y="498.8461"/><text fill="#000000" font-family="sans-serif" font-size="6.6" lengthAdjust="spacingAndGlyphs" textLength="38.4" x="160.2" y="502.827">iban : String</text><rect fill="none" height="3.6" style="stroke: #C82930; stroke-width: 0.6;" width="3.6" x="153" y="506.6191"/><text fill="#000000" font-family="sans-serif" font-size="6.6" lengthAdjust="spacingAndGlyphs" textLength="76.8" x="160.2" y="510.6">ownerFirstName : String</text><rect fill="none" height="3.6" style="stroke: #C82930; stroke-width: 0.6;" width="3.6" x="153" y="514.3922"/><text fill="#000000" font-family="sans-serif" font-size="6.6" lengthAdjust="spacingAndGlyphs" textLength="75.6" x="160.2" y="518.373">ownerLastName : String</text><line style="stroke: #A80036; stroke-width: 0.8999999999999999;" x1="148.8" x2="240" y1="522.1652" y2="522.1652"/><!--MD5=[c41d6eca2aeea82ceed4e838781df32a]
class Split--><rect codeLine="10" fill="#FEFECE" filter="url(#f1emtkzrn6a4w5)" height="67.6652" id="Split" style="stroke: #A80036; stroke-width: 0.8999999999999999;" width="76.2" x="86.1" y="343.8"/><ellipse cx="114.45" cy="353.4" fill="#ADD1B2" rx="6.6" ry="6.6" style="stroke: #A80036; stroke-width: 0.6;"/><path d="M116.6186,357.3 L111.9867,357.3 L111.9867,349.8642 L116.6186,349.8642 L116.6186,351.1591 L113.456,351.1591 L113.456,352.7628 L116.3197,352.7628 L116.3197,354.0577 L113.456,354.0577 L113.456,356.0051 L116.6186,356.0051 Z " fill="#000000"/><text fill="#000000" font-family="sans-serif" font-size="7.2" lengthAdjust="spacingAndGlyphs" textLength="14.4" x="126.75" y="356.1211">Split</text><line style="stroke: #A80036; stroke-width: 0.8999999999999999;" x1="86.7" x2="161.7" y1="363" y2="363"/><rect fill="none" height="3.6" style="stroke: #C82930; stroke-width: 0.6;" width="3.6" x="90.9" y="367.8"/><text fill="#000000" font-family="sans-serif" font-size="6.6" lengthAdjust="spacingAndGlyphs" textLength="39.6" x="98.1" y="371.7809">label : String</text><rect fill="none" height="3.6" style="stroke: #C82930; stroke-width: 0.6;" width="3.6" x="90.9" y="375.573"/><text fill="#000000" font-family="sans-serif" font-size="6.6" lengthAdjust="spacingAndGlyphs" textLength="54" x="98.1" y="379.5539">splitcode : String</text><rect fill="none" height="3.6" style="stroke: #C82930; stroke-width: 0.6;" width="3.6" x="90.9" y="383.3461"/><text fill="#000000" font-family="sans-serif" font-size="6.6" lengthAdjust="spacingAndGlyphs" textLength="60.6" x="98.1" y="387.327">goalAmount : Float</text><rect fill="none" height="3.6" style="stroke: #C82930; stroke-width: 0.6;" width="3.6" x="90.9" y="391.1191"/><text fill="#000000" font-family="sans-serif" font-size="6.6" lengthAdjust="spacingAndGlyphs" textLength="55.8" x="98.1" y="395.1">splitMode : String</text><rect fill="none" height="3.6" style="stroke: #C82930; stroke-width: 0.6;" width="3.6" x="90.9" y="398.8922"/><text fill="#000000" font-family="sans-serif" font-size="6.6" lengthAdjust="spacingAndGlyphs" textLength="55.2" x="98.1" y="402.873">expired : Boolean</text><line style="stroke: #A80036; stroke-width: 0.8999999999999999;" x1="86.7" x2="161.7" y1="406.6652" y2="406.6652"/><!--MD5=[00de5c700bb63b7730885a08d9509c94]
class ItemSplit--><rect codeLine="18" fill="#FEFECE" filter="url(#f1emtkzrn6a4w5)" height="75.4383" id="ItemSplit" style="stroke: #A80036; stroke-width: 0.8999999999999999;" width="95.4" x="304.5" y="455.4"/><ellipse cx="334.95" cy="465" fill="#ADD1B2" rx="6.6" ry="6.6" style="stroke: #A80036; stroke-width: 0.6;"/><path d="M337.1186,468.9 L332.4867,468.9 L332.4867,461.4642 L337.1186,461.4642 L337.1186,462.7591 L333.956,462.7591 L333.956,464.3628 L336.8197,464.3628 L336.8197,465.6577 L333.956,465.6577 L333.956,467.6051 L337.1186,467.6051 Z " fill="#000000"/><text fill="#000000" font-family="sans-serif" font-size="7.2" lengthAdjust="spacingAndGlyphs" textLength="29.4" x="347.25" y="467.7211">ItemSplit</text><line style="stroke: #A80036; stroke-width: 0.8999999999999999;" x1="305.1" x2="399.3" y1="474.6" y2="474.6"/><rect fill="none" height="3.6" style="stroke: #C82930; stroke-width: 0.6;" width="3.6" x="309.3" y="479.4"/><text fill="#000000" font-family="sans-serif" font-size="6.6" lengthAdjust="spacingAndGlyphs" textLength="39.6" x="316.5" y="483.3809">label : String</text><rect fill="none" height="3.6" style="stroke: #C82930; stroke-width: 0.6;" width="3.6" x="309.3" y="487.173"/><text fill="#000000" font-family="sans-serif" font-size="6.6" lengthAdjust="spacingAndGlyphs" textLength="54" x="316.5" y="491.1539">splitcode : String</text><rect fill="none" height="3.6" style="stroke: #C82930; stroke-width: 0.6;" width="3.6" x="309.3" y="494.9461"/><text fill="#000000" font-family="sans-serif" font-size="6.6" lengthAdjust="spacingAndGlyphs" textLength="60.6" x="316.5" y="498.927">goalAmount : Float</text><rect fill="none" height="3.6" style="stroke: #C82930; stroke-width: 0.6;" width="3.6" x="309.3" y="502.7191"/><text fill="#000000" font-family="sans-serif" font-size="6.6" lengthAdjust="spacingAndGlyphs" textLength="55.8" x="316.5" y="506.7">splitMode : String</text><rect fill="none" height="3.6" style="stroke: #C82930; stroke-width: 0.6;" width="3.6" x="309.3" y="510.4922"/><text fill="#000000" font-family="sans-serif" font-size="6.6" lengthAdjust="spacingAndGlyphs" textLength="55.2" x="316.5" y="514.473">expired : Boolean</text><rect fill="none" height="3.6" style="stroke: #C82930; stroke-width: 0.6;" width="3.6" x="309.3" y="518.2652"/><text fill="#000000" font-family="sans-serif" font-size="6.6" lengthAdjust="spacingAndGlyphs" textLength="79.8" x="316.5" y="522.2461">items : Collection&lt;Item&gt;</text><line style="stroke: #A80036; stroke-width: 0.8999999999999999;" x1="305.1" x2="399.3" y1="526.0383" y2="526.0383"/><!--MD5=[4d37ff7ba0ceae5cd2f46bdb37209993]
class Bill--><rect codeLine="27" fill="#FEFECE" filter="url(#f1emtkzrn6a4w5)" height="44.3461" id="Bill" style="stroke: #A80036; stroke-width: 0.8999999999999999;" width="64.8" x="279.6" y="567"/><ellipse cx="304.8" cy="576.6" fill="#ADD1B2" rx="6.6" ry="6.6" style="stroke: #A80036; stroke-width: 0.6;"/><path d="M306.9686,580.5 L302.3367,580.5 L302.3367,573.0642 L306.9686,573.0642 L306.9686,574.3591 L303.806,574.3591 L303.806,575.9628 L306.6697,575.9628 L306.6697,577.2577 L303.806,577.2577 L303.806,579.2051 L306.9686,579.2051 Z " fill="#000000"/><text fill="#000000" font-family="sans-serif" font-size="7.2" lengthAdjust="spacingAndGlyphs" textLength="9.6" x="316.8" y="579.3211">Bill</text><line style="stroke: #A80036; stroke-width: 0.8999999999999999;" x1="280.2" x2="343.8" y1="586.2" y2="586.2"/><rect fill="none" height="3.6" style="stroke: #C82930; stroke-width: 0.6;" width="3.6" x="284.4" y="591"/><text fill="#000000" font-family="sans-serif" font-size="6.6" lengthAdjust="spacingAndGlyphs" textLength="39.6" x="291.6" y="594.9809">label : String</text><rect fill="none" height="3.6" style="stroke: #C82930; stroke-width: 0.6;" width="3.6" x="284.4" y="598.773"/><text fill="#000000" font-family="sans-serif" font-size="6.6" lengthAdjust="spacingAndGlyphs" textLength="49.2" x="291.6" y="602.7539">content : String</text><line style="stroke: #A80036; stroke-width: 0.8999999999999999;" x1="280.2" x2="343.8" y1="606.5461" y2="606.5461"/><path d="M365.4,581.7 L365.4,586.8 L344.502,589.2 L365.4,591.6 L365.4,596.8863 A0,0 0 0 0 365.4,596.8863 L598.2,596.8863 A0,0 0 0 0 598.2,596.8863 L598.2,587.7 L592.2,581.7 L365.4,581.7 A0,0 0 0 0 365.4,581.7 " fill="#FBFB77" filter="url(#f1emtkzrn6a4w5)" style="stroke: #A80036; stroke-width: 0.6;"/><path d="M592.2,581.7 L592.2,587.7 L598.2,587.7 L592.2,581.7 " fill="#FBFB77" style="stroke: #A80036; stroke-width: 0.6;"/><text fill="#000000" font-family="sans-serif" font-size="7.8" lengthAdjust="spacingAndGlyphs" textLength="220.2" x="369" y="592.241">content format : "pizza:4.99/cold drink:2.00/ticket:14.99"</text><!--MD5=[76b5e19c9337179d2d7ae334371d68c8]
class Notification--><rect codeLine="37" fill="#FEFECE" filter="url(#f1emtkzrn6a4w5)" height="44.3461" id="Notification" style="stroke: #A80036; stroke-width: 0.8999999999999999;" width="68.4" x="127.2" y="128.4"/><ellipse cx="141.06" cy="138" fill="#ADD1B2" rx="6.6" ry="6.6" style="stroke: #A80036; stroke-width: 0.6;"/><path d="M143.2286,141.9 L138.5967,141.9 L138.5967,134.4642 L143.2286,134.4642 L143.2286,135.7591 L140.066,135.7591 L140.066,137.3628 L142.9297,137.3628 L142.9297,138.6577 L140.066,138.6577 L140.066,140.6051 L143.2286,140.6051 Z " fill="#000000"/><text fill="#000000" font-family="sans-serif" font-size="7.2" lengthAdjust="spacingAndGlyphs" textLength="38.4" x="150.54" y="140.7211">Notification</text><line style="stroke: #A80036; stroke-width: 0.8999999999999999;" x1="127.8" x2="195" y1="147.6" y2="147.6"/><rect fill="none" height="3.6" style="stroke: #C82930; stroke-width: 0.6;" width="3.6" x="132" y="152.4"/><text fill="#000000" font-family="sans-serif" font-size="6.6" lengthAdjust="spacingAndGlyphs" textLength="39.6" x="139.2" y="156.3809">label : String</text><rect fill="none" height="3.6" style="stroke: #C82930; stroke-width: 0.6;" width="3.6" x="132" y="160.173"/><text fill="#000000" font-family="sans-serif" font-size="6.6" lengthAdjust="spacingAndGlyphs" textLength="52.8" x="139.2" y="164.1539">message : String</text><line style="stroke: #A80036; stroke-width: 0.8999999999999999;" x1="127.8" x2="195" y1="167.9461" y2="167.9461"/><!--MD5=[a6a4e9926381d6a127a1f4e6a3ceeebc]
class SplitNotification--><rect codeLine="42" fill="#FEFECE" filter="url(#f1emtkzrn6a4w5)" height="44.3461" id="SplitNotification" style="stroke: #A80036; stroke-width: 0.8999999999999999;" width="72" x="334.8" y="355.5"/><ellipse cx="343.8" cy="365.1" fill="#ADD1B2" rx="6.6" ry="6.6" style="stroke: #A80036; stroke-width: 0.6;"/><path d="M345.9686,369 L341.3367,369 L341.3367,361.5642 L345.9686,361.5642 L345.9686,362.8591 L342.806,362.8591 L342.806,364.4628 L345.6697,364.4628 L345.6697,365.7577 L342.806,365.7577 L342.806,367.7051 L345.9686,367.7051 Z " fill="#000000"/><text fill="#000000" font-family="sans-serif" font-size="7.2" lengthAdjust="spacingAndGlyphs" textLength="52.8" x="352.2" y="367.8211">SplitNotification</text><line style="stroke: #A80036; stroke-width: 0.8999999999999999;" x1="335.4" x2="406.2" y1="374.7" y2="374.7"/><rect fill="none" height="3.6" style="stroke: #C82930; stroke-width: 0.6;" width="3.6" x="339.6" y="379.5"/><text fill="#000000" font-family="sans-serif" font-size="6.6" lengthAdjust="spacingAndGlyphs" textLength="39.6" x="346.8" y="383.4809">label : String</text><rect fill="none" height="3.6" style="stroke: #C82930; stroke-width: 0.6;" width="3.6" x="339.6" y="387.273"/><text fill="#000000" font-family="sans-serif" font-size="6.6" lengthAdjust="spacingAndGlyphs" textLength="52.8" x="346.8" y="391.2539">message : String</text><line style="stroke: #A80036; stroke-width: 0.8999999999999999;" x1="335.4" x2="406.2" y1="395.0461" y2="395.0461"/><!--MD5=[41314a0efc36828092cff9ebad2fcafd]
class Group--><rect codeLine="47" fill="#FEFECE" filter="url(#f1emtkzrn6a4w5)" height="36.573" id="Group" style="stroke: #A80036; stroke-width: 0.8999999999999999;" width="55.2" x="259.2" y="132.3"/><ellipse cx="274.68" cy="141.9" fill="#ADD1B2" rx="6.6" ry="6.6" style="stroke: #A80036; stroke-width: 0.6;"/><path d="M276.8486,145.8 L272.2167,145.8 L272.2167,138.3642 L276.8486,138.3642 L276.8486,139.6591 L273.686,139.6591 L273.686,141.2628 L276.5497,141.2628 L276.5497,142.5577 L273.686,142.5577 L273.686,144.5051 L276.8486,144.5051 Z " fill="#000000"/><text fill="#000000" font-family="sans-serif" font-size="7.2" lengthAdjust="spacingAndGlyphs" textLength="21.6" x="284.52" y="144.6211">Group</text><line style="stroke: #A80036; stroke-width: 0.8999999999999999;" x1="259.8" x2="313.8" y1="151.5" y2="151.5"/><rect fill="none" height="3.6" style="stroke: #C82930; stroke-width: 0.6;" width="3.6" x="264" y="156.3"/><text fill="#000000" font-family="sans-serif" font-size="6.6" lengthAdjust="spacingAndGlyphs" textLength="39.6" x="271.2" y="160.2809">label : String</text><line style="stroke: #A80036; stroke-width: 0.8999999999999999;" x1="259.8" x2="313.8" y1="164.073" y2="164.073"/><!--MD5=[91d4151b6d4c9a3d01b6d84b2458eece]
class CreditCard--><rect codeLine="51" fill="#FEFECE" filter="url(#f1emtkzrn6a4w5)" height="59.8922" id="CreditCard" style="stroke: #A80036; stroke-width: 0.8999999999999999;" width="78" x="28.2" y="120.6"/><ellipse cx="46.65" cy="130.2" fill="#ADD1B2" rx="6.6" ry="6.6" style="stroke: #A80036; stroke-width: 0.6;"/><path d="M48.8186,134.1 L44.1867,134.1 L44.1867,126.6642 L48.8186,126.6642 L48.8186,127.9591 L45.656,127.9591 L45.656,129.5628 L48.5197,129.5628 L48.5197,130.8577 L45.656,130.8577 L45.656,132.8051 L48.8186,132.8051 Z " fill="#000000"/><text fill="#000000" font-family="sans-serif" font-size="7.2" lengthAdjust="spacingAndGlyphs" textLength="37.8" x="57.15" y="132.9211">CreditCard</text><line style="stroke: #A80036; stroke-width: 0.8999999999999999;" x1="28.8" x2="105.6" y1="139.8" y2="139.8"/><rect fill="none" height="3.6" style="stroke: #C82930; stroke-width: 0.6;" width="3.6" x="33" y="144.6"/><text fill="#000000" font-family="sans-serif" font-size="6.6" lengthAdjust="spacingAndGlyphs" textLength="49.8" x="40.2" y="148.5809">number : String</text><rect fill="none" height="3.6" style="stroke: #C82930; stroke-width: 0.6;" width="3.6" x="33" y="152.373"/><text fill="#000000" font-family="sans-serif" font-size="6.6" lengthAdjust="spacingAndGlyphs" textLength="62.4" x="40.2" y="156.3539">ownerName : String</text><rect fill="none" height="3.6" style="stroke: #C82930; stroke-width: 0.6;" width="3.6" x="33" y="160.1461"/><text fill="#000000" font-family="sans-serif" font-size="6.6" lengthAdjust="spacingAndGlyphs" textLength="38.4" x="40.2" y="164.127">date : String</text><rect fill="none" height="3.6" style="stroke: #C82930; stroke-width: 0.6;" width="3.6" x="33" y="167.9191"/><text fill="#000000" font-family="sans-serif" font-size="6.6" lengthAdjust="spacingAndGlyphs" textLength="35.4" x="40.2" y="171.9">cvv : String</text><line style="stroke: #A80036; stroke-width: 0.8999999999999999;" x1="28.8" x2="105.6" y1="175.6922" y2="175.6922"/><!--MD5=[121330b00a863f09dfc695730d4d9fa4]
class NormalUser--><rect codeLine="58" fill="#FEFECE" filter="url(#f1emtkzrn6a4w5)" height="83.2113" id="NormalUser" style="stroke: #A80036; stroke-width: 0.8999999999999999;" width="71.4" x="158.7" y="216.6"/><ellipse cx="172.83" cy="226.2" fill="#ADD1B2" rx="6.6" ry="6.6" style="stroke: #A80036; stroke-width: 0.6;"/><path d="M174.9986,230.1 L170.3667,230.1 L170.3667,222.6642 L174.9986,222.6642 L174.9986,223.9591 L171.836,223.9591 L171.836,225.5628 L174.6997,225.5628 L174.6997,226.8577 L171.836,226.8577 L171.836,228.8051 L174.9986,228.8051 Z " fill="#000000"/><text fill="#000000" font-family="sans-serif" font-size="7.2" lengthAdjust="spacingAndGlyphs" textLength="40.8" x="182.37" y="228.9211">NormalUser</text><line style="stroke: #A80036; stroke-width: 0.8999999999999999;" x1="159.3" x2="229.5" y1="235.8" y2="235.8"/><rect fill="none" height="3.6" style="stroke: #C82930; stroke-width: 0.6;" width="3.6" x="163.5" y="240.6"/><text fill="#000000" font-family="sans-serif" font-size="6.6" lengthAdjust="spacingAndGlyphs" textLength="41.4" x="170.7" y="244.5809">email : String</text><rect fill="none" height="3.6" style="stroke: #C82930; stroke-width: 0.6;" width="3.6" x="163.5" y="248.373"/><text fill="#000000" font-family="sans-serif" font-size="6.6" lengthAdjust="spacingAndGlyphs" textLength="45" x="170.7" y="252.3539">phone : String</text><rect fill="none" height="3.6" style="stroke: #C82930; stroke-width: 0.6;" width="3.6" x="163.5" y="256.1461"/><text fill="#000000" font-family="sans-serif" font-size="6.6" lengthAdjust="spacingAndGlyphs" textLength="55.2" x="170.7" y="260.127">nickname : String</text><rect fill="none" height="3.6" style="stroke: #C82930; stroke-width: 0.6;" width="3.6" x="163.5" y="263.9191"/><text fill="#000000" font-family="sans-serif" font-size="6.6" lengthAdjust="spacingAndGlyphs" textLength="55.8" x="170.7" y="267.9">password : String</text><rect fill="none" height="3.6" style="stroke: #C82930; stroke-width: 0.6;" width="3.6" x="163.5" y="271.6922"/><text fill="#000000" font-family="sans-serif" font-size="6.6" lengthAdjust="spacingAndGlyphs" textLength="45.6" x="170.7" y="275.673">balance : Float</text><rect fill="none" height="3.6" style="stroke: #C82930; stroke-width: 0.6;" width="3.6" x="163.5" y="279.4652"/><text fill="#000000" font-family="sans-serif" font-size="6.6" lengthAdjust="spacingAndGlyphs" textLength="54" x="170.7" y="283.4461">firstName: String</text><rect fill="none" height="3.6" style="stroke: #C82930; stroke-width: 0.6;" width="3.6" x="163.5" y="287.2383"/><text fill="#000000" font-family="sans-serif" font-size="6.6" lengthAdjust="spacingAndGlyphs" textLength="52.2" x="170.7" y="291.2191">lastName: String</text><line style="stroke: #A80036; stroke-width: 0.8999999999999999;" x1="159.3" x2="229.5" y1="295.0113" y2="295.0113"/><!--MD5=[fe3dd8093a56cb0c1c28fde79de95a54]
class StoreOwner--><rect codeLine="68" fill="#FEFECE" filter="url(#f1emtkzrn6a4w5)" height="83.2113" id="StoreOwner" style="stroke: #A80036; stroke-width: 0.8999999999999999;" width="87.6" x="226.2" y="336"/><ellipse cx="248.16" cy="345.6" fill="#ADD1B2" rx="6.6" ry="6.6" style="stroke: #A80036; stroke-width: 0.6;"/><path d="M250.3286,349.5 L245.6967,349.5 L245.6967,342.0642 L250.3286,342.0642 L250.3286,343.3591 L247.166,343.3591 L247.166,344.9628 L250.0297,344.9628 L250.0297,346.2577 L247.166,346.2577 L247.166,348.2051 L250.3286,348.2051 Z " fill="#000000"/><text fill="#000000" font-family="sans-serif" font-size="7.2" lengthAdjust="spacingAndGlyphs" textLength="39.6" x="259.44" y="348.3211">StoreOwner</text><line style="stroke: #A80036; stroke-width: 0.8999999999999999;" x1="226.8" x2="313.2" y1="355.2" y2="355.2"/><rect fill="none" height="3.6" style="stroke: #C82930; stroke-width: 0.6;" width="3.6" x="231" y="360"/><text fill="#000000" font-family="sans-serif" font-size="6.6" lengthAdjust="spacingAndGlyphs" textLength="41.4" x="238.2" y="363.9809">email : String</text><rect fill="none" height="3.6" style="stroke: #C82930; stroke-width: 0.6;" width="3.6" x="231" y="367.773"/><text fill="#000000" font-family="sans-serif" font-size="6.6" lengthAdjust="spacingAndGlyphs" textLength="45" x="238.2" y="371.7539">phone : String</text><rect fill="none" height="3.6" style="stroke: #C82930; stroke-width: 0.6;" width="3.6" x="231" y="375.5461"/><text fill="#000000" font-family="sans-serif" font-size="6.6" lengthAdjust="spacingAndGlyphs" textLength="55.2" x="238.2" y="379.527">nickname : String</text><rect fill="none" height="3.6" style="stroke: #C82930; stroke-width: 0.6;" width="3.6" x="231" y="383.3191"/><text fill="#000000" font-family="sans-serif" font-size="6.6" lengthAdjust="spacingAndGlyphs" textLength="55.8" x="238.2" y="387.3">password : String</text><rect fill="none" height="3.6" style="stroke: #C82930; stroke-width: 0.6;" width="3.6" x="231" y="391.0922"/><text fill="#000000" font-family="sans-serif" font-size="6.6" lengthAdjust="spacingAndGlyphs" textLength="45.6" x="238.2" y="395.073">balance : Float</text><rect fill="none" height="3.6" style="stroke: #C82930; stroke-width: 0.6;" width="3.6" x="231" y="398.8652"/><text fill="#000000" font-family="sans-serif" font-size="6.6" lengthAdjust="spacingAndGlyphs" textLength="72" x="238.2" y="402.8461">companyName : String</text><rect fill="none" height="3.6" style="stroke: #C82930; stroke-width: 0.6;" width="3.6" x="231" y="406.6383"/><text fill="#000000" font-family="sans-serif" font-size="6.6" lengthAdjust="spacingAndGlyphs" textLength="50.4" x="238.2" y="410.6191">address : String</text><line style="stroke: #A80036; stroke-width: 0.8999999999999999;" x1="226.8" x2="313.2" y1="414.4113" y2="414.4113"/><!--MD5=[bdefe9a4d81e15ea50de3145583f42cc]
class GroupUserRelation--><rect codeLine="124" fill="#FEFECE" filter="url(#f1emtkzrn6a4w5)" height="28.8" id="GroupUserRelation" style="stroke: #A80036; stroke-width: 0.8999999999999999;" width="84" x="208.8" y="40.2"/><ellipse cx="217.8" cy="49.8" fill="#ADD1B2" rx="6.6" ry="6.6" style="stroke: #A80036; stroke-width: 0.6;"/><path d="M219.9686,53.7 L215.3367,53.7 L215.3367,46.2642 L219.9686,46.2642 L219.9686,47.5591 L216.806,47.5591 L216.806,49.1628 L219.6697,49.1628 L219.6697,50.4577 L216.806,50.4577 L216.806,52.4051 L219.9686,52.4051 Z " fill="#000000"/><text fill="#000000" font-family="sans-serif" font-size="7.2" lengthAdjust="spacingAndGlyphs" textLength="64.8" x="226.2" y="52.5211">GroupUserRelation</text><line style="stroke: #A80036; stroke-width: 0.8999999999999999;" x1="209.4" x2="292.2" y1="59.4" y2="59.4"/><line style="stroke: #A80036; stroke-width: 0.8999999999999999;" x1="209.4" x2="292.2" y1="64.2" y2="64.2"/><!--MD5=[1562ffbd4085f3afc387814f7817be21]
class Friends--><rect codeLine="128" fill="#FEFECE" filter="url(#f1emtkzrn6a4w5)" height="44.3461" id="Friends" style="stroke: #A80036; stroke-width: 0.8999999999999999;" width="133.2" x="4.2" y="236.1"/><ellipse cx="55.65" cy="245.7" fill="#ADD1B2" rx="6.6" ry="6.6" style="stroke: #A80036; stroke-width: 0.6;"/><path d="M57.8186,249.6 L53.1867,249.6 L53.1867,242.1642 L57.8186,242.1642 L57.8186,243.4591 L54.656,243.4591 L54.656,245.0628 L57.5197,245.0628 L57.5197,246.3577 L54.656,246.3577 L54.656,248.3051 L57.8186,248.3051 Z " fill="#000000"/><text fill="#000000" font-family="sans-serif" font-size="7.2" lengthAdjust="spacingAndGlyphs" textLength="25.2" x="67.95" y="248.4211">Friends</text><line style="stroke: #A80036; stroke-width: 0.8999999999999999;" x1="4.8" x2="136.8" y1="255.3" y2="255.3"/><rect fill="none" height="3.6" style="stroke: #C82930; stroke-width: 0.6;" width="3.6" x="9" y="260.1"/><text fill="#000000" font-family="sans-serif" font-size="6.6" lengthAdjust="spacingAndGlyphs" textLength="116.4" x="16.2" y="264.0809">adder_normal_user_fk : NormalUser</text><rect fill="none" height="3.6" style="stroke: #C82930; stroke-width: 0.6;" width="3.6" x="9" y="267.873"/><text fill="#000000" font-family="sans-serif" font-size="6.6" lengthAdjust="spacingAndGlyphs" textLength="117.6" x="16.2" y="271.8539">added_normal_user_fk : NormalUser</text><line style="stroke: #A80036; stroke-width: 0.8999999999999999;" x1="4.8" x2="136.8" y1="275.6461" y2="275.6461"/><!--MD5=[b8f1ed549ae84f4cabbdc90840acf956]
link GroupUserRelation to Group--><path codeLine="133" d="M256.11,69.186 C262.146,85.074 272.052,111.156 278.97,129.378 " fill="none" id="GroupUserRelation-to-Group" style="stroke: #A80036; stroke-width: 0.6;"/><polygon fill="#A80036" points="280.056,132.234,280.3756,126.3333,278.9877,129.4307,275.8903,128.0427,280.056,132.234" style="stroke: #A80036; stroke-width: 0.6;"/><!--MD5=[1c28459bc815d9958cca39f2f83c36d1]
link GroupUserRelation to NormalUser--><path codeLine="134" d="M246.924,69.12 C238.764,98.412 219.522,167.496 206.736,213.414 " fill="none" id="GroupUserRelation-to-NormalUser" style="stroke: #A80036; stroke-width: 0.6;"/><polygon fill="#A80036" points="205.902,216.402,209.6646,211.8454,206.708,213.5123,205.0411,210.5557,205.902,216.402" style="stroke: #A80036; stroke-width: 0.6;"/><!--MD5=[0c65583d34aec154eec0c03290ec1bfd]
reverse link NormalUser to BankAccount--><path codeLine="136" d="M194.4,303.372 C194.4,348.768 194.4,418.206 194.4,459.144 " fill="none" id="NormalUser-backto-BankAccount" style="stroke: #A80036; stroke-width: 0.6;"/><polygon fill="#A80036" points="194.4,300.144,192,305.544,194.4,303.144,196.8,305.544,194.4,300.144" style="stroke: #A80036; stroke-width: 0.6;"/><!--MD5=[7f3dfab05b0050f30c6ae31c377fc486]
reverse link StoreOwner to BankAccount--><path codeLine="137" d="M241.086,422.022 C232.932,434.346 224.19,447.558 216.504,459.18 " fill="none" id="StoreOwner-backto-BankAccount" style="stroke: #A80036; stroke-width: 0.6;"/><polygon fill="#A80036" points="242.814,419.406,237.8343,422.5875,241.1598,421.9087,241.8386,425.2343,242.814,419.406" style="stroke: #A80036; stroke-width: 0.6;"/><!--MD5=[53b539609da08188f5228d5f66c76684]
reverse link NormalUser to Split--><path codeLine="139" d="M168.348,302.766 C160.308,316.296 151.596,330.978 144.048,343.686 " fill="none" id="NormalUser-backto-Split" style="stroke: #A80036; stroke-width: 0.6;"/><polygon fill="#A80036" points="169.944,300.072,165.1161,303.4795,168.4068,302.6483,169.2381,305.939,169.944,300.072" style="stroke: #A80036; stroke-width: 0.6;"/><!--MD5=[3cbf46e7bcff2e9205bcb6a2268b22c5]
reverse link StoreOwner to ItemSplit--><path codeLine="140" d="M301.344,421.89 C309.264,432.894 317.688,444.612 325.362,455.28 " fill="none" id="StoreOwner-backto-ItemSplit" style="stroke: #A80036; stroke-width: 0.6;"/><polygon fill="#A80036" points="299.562,419.406,300.7765,425.1892,301.3178,421.8385,304.6685,422.3798,299.562,419.406" style="stroke: #A80036; stroke-width: 0.6;"/><!--MD5=[00f37fc25552d8befde699178fa02cbc]
link Notification to NormalUser--><path codeLine="143" d="M168.156,173.01 C171.786,184.71 176.388,199.572 180.726,213.57 " fill="none" id="Notification-to-NormalUser" style="stroke: #A80036; stroke-width: 0.6;"/><polygon fill="#A80036" points="181.644,216.54,182.351,210.6731,180.7623,213.6725,177.763,212.0838,181.644,216.54" style="stroke: #A80036; stroke-width: 0.6;"/><!--MD5=[32d91d240a1fec7f021a1f21385a036c]
reverse link NormalUser to SplitNotification--><path codeLine="144" d="M233.082,279.234 C259.65,293.808 295.272,314.58 324.6,336 C332.664,341.886 340.962,348.924 348.27,355.494 " fill="none" id="NormalUser-backto-SplitNotification" style="stroke: #A80036; stroke-width: 0.6;"/><polygon fill="#A80036" points="230.376,277.752,233.961,282.4497,233.0077,279.1922,236.2652,278.2389,230.376,277.752" style="stroke: #A80036; stroke-width: 0.6;"/><!--MD5=[5b2329c6431866bdbcc94f15b213e85b]
link CreditCard to NormalUser--><path codeLine="145" d="M99.27,180.75 C104.88,185.634 110.736,190.548 116.4,195 C129.654,205.428 134.31,206.22 147.6,216.6 C150.396,218.784 153.246,221.082 156.084,223.434 " fill="none" id="CreditCard-to-NormalUser" style="stroke: #A80036; stroke-width: 0.6;"/><polygon fill="#A80036" points="158.472,225.414,155.8581,220.1142,156.1666,223.4943,152.7866,223.8028,158.472,225.414" style="stroke: #A80036; stroke-width: 0.6;"/><!--MD5=[45c067ebf83548ae453c6ba589de88ff]
link Friends to NormalUser--><path codeLine="147" d="M137.43,274.848 C143.484,274.596 149.538,273.858 155.598,272.646 " fill="none" id="Friends-to-NormalUser" style="stroke: #A80036; stroke-width: 0.6;"/><polygon fill="#A80036" points="158.568,272.01,152.786,270.7901,155.6341,272.6362,153.788,275.4844,158.568,272.01" style="stroke: #A80036; stroke-width: 0.6;"/><!--MD5=[45c067ebf83548ae453c6ba589de88ff]
link Friends to NormalUser--><path codeLine="148" d="M137.43,241.752 C143.484,242.004 149.538,242.742 155.598,243.954 " fill="none" id="Friends-to-NormalUser-1" style="stroke: #A80036; stroke-width: 0.6;"/><polygon fill="#A80036" points="158.568,244.59,153.788,241.1156,155.6341,243.9638,152.786,245.8099,158.568,244.59" style="stroke: #A80036; stroke-width: 0.6;"/><!--MD5=[2969f544d62e6558fd75fae81ae25848]
link ItemSplit to Bill--><path codeLine="150" d="M336.312,531.27 C331.62,542.34 326.604,554.166 322.356,564.18 " fill="none" id="ItemSplit-to-Bill" style="stroke: #A80036; stroke-width: 0.6;"/><polygon fill="#A80036" points="321.18,566.958,325.5025,562.9287,322.3545,564.1975,321.0857,561.0494,321.18,566.958" style="stroke: #A80036; stroke-width: 0.6;"/><!--MD5=[8419bbb1cb5ebf87d505e42b5a4d8090]
link SplitNotification to ItemSplit--><path codeLine="151" d="M367.26,400.068 C364.854,414.822 361.608,434.772 358.746,452.364 " fill="none" id="SplitNotification-to-ItemSplit" style="stroke: #A80036; stroke-width: 0.6;"/><polygon fill="#A80036" points="358.254,455.394,361.4882,450.4483,358.7347,452.4328,356.7502,449.6792,358.254,455.394" style="stroke: #A80036; stroke-width: 0.6;"/><!--MD5=[596f0b63bc13f809af78d9faae7890d6]
link Group to NormalUser--><path codeLine="154" d="M271.332,169.026 C260.61,181.386 245.844,198.408 232.11,214.23 " fill="none" id="Group-to-NormalUser" style="stroke: #A80036; stroke-width: 0.6;"/><polygon fill="#A80036" points="230.094,216.558,235.4454,214.0514,232.0598,214.2918,231.8194,210.9062,230.094,216.558" style="stroke: #A80036; stroke-width: 0.6;"/><!--MD5=[693f6d0d70e65df53949ee50c7506458]
reverse link StoreOwner to Bill--><path codeLine="155" d="M275.208,422.568 C279.24,453.228 285.564,494.868 294,531 C296.814,543.036 300.858,556.218 304.398,566.928 " fill="none" id="StoreOwner-backto-Bill" style="stroke: #A80036; stroke-width: 0.6;"/><polygon fill="#A80036" points="274.8,419.448,273.1144,425.1118,275.1858,422.4231,277.8745,424.4945,274.8,419.448" style="stroke: #A80036; stroke-width: 0.6;"/><!--MD5=[59344cd5dbf9bf4592978e9285371da5]
link SplitTransaction to UserToUserTransaction--><!--MD5=[5c7797323595fc16863122a2f60d9aac]
link UserToUserTransaction to UserToBankAccount--><!--MD5=[23b62954fc6a6bd6cba1c889147f19d5]
link SplitTransaction to BankAccountToUserTransaction--><!--MD5=[753482ec5e056fa10a3c9c6fea80e91e]
link BankAccountToUserTransaction to UserToStoreOwnerTransaction--><!--MD5=[5fe1d77c4a441266492a0c333259aac3]
link UserToStoreOwnerTransaction to StoreOwnerToBankAccount--><!--MD5=[bf0ff063fda7f675388fb5f0a1cae898]
@startuml domain_analysis

entity BankAccount {
  - label : String
  - bic : String
  - iban : String
  - ownerFirstName : String
  - ownerLastName : String
}

entity Split {
  - label : String
  - splitcode : String
  - goalAmount : Float
  - splitMode : String
  - expired : Boolean
}

entity ItemSplit {
    - label : String
    - splitcode : String
    - goalAmount : Float
    - splitMode : String
    - expired : Boolean
    - items : Collection<Item>
}

entity Bill {
  - label : String
  - content : String
}

note right of Bill
content format : "pizza:4.99/cold drink:2.00/ticket:14.99"
endnote


entity Notification {
  - label : String
  - message : String
}

entity SplitNotification {
    - label : String
    - message : String
}

entity Group {
  - label : String
}

entity CreditCard {
  - number : String
  - ownerName : String
  - date : String
  - cvv : String
}

entity NormalUser {
    - email : String
    - phone : String
    - nickname : String
    - password : String
    - balance : Float
    - firstName: String
    - lastName: String
}

entity StoreOwner {
    - email : String
    - phone : String
    - nickname : String
    - password : String
    - balance : Float
    - companyName : String
    - address : String
}

package transaction <<Folder>> {

    entity SplitTransaction{
        - amount : Float
        - dateCreated : Date
        - sender_fk : NormalUser
        - receiver_fk : StoreOwner
    }

    entity UserToUserTransaction {
        - amount : Float
        - dateCreated : Date
        - sender_fk : NormalUser
        - receiver_fk : NormalUser
        }


    entity UserToBankAccount {
        - amount : Float
        - dateCreated : Date
        - sender_fk : NormalUser
        - receiver_fk : BankAccount
    }

    entity BankAccountToUserTransaction{
        - amount : Float
        - dateCreated : Date
        - sender_fk : BankAccount
        - receiver_fk : User
    }

    entity UserToStoreOwnerTransaction {
        - amount : Float
        - dateCreated : Date
        - sender_fk : User
        - receiver_fk : StoreOwner
    }

    entity StoreOwnerToBankAccount {
        - amount : Float
        - dateCreated : Date
        - sender_fk : StoreOwner
        - receiver_fk : BankAccount
    }
}

entity GroupUserRelation{

}

entity Friends {
    - adder_normal_user_fk : NormalUser
    - added_normal_user_fk : NormalUser
}

GroupUserRelation - -> Group
GroupUserRelation - -> NormalUser

NormalUser <- - BankAccount
StoreOwner <- - BankAccount

NormalUser <- - Split
StoreOwner <- - ItemSplit


NormalUser <-up- Notification
NormalUser <- -  SplitNotification
NormalUser <-up- CreditCard

Friends -> NormalUser
Friends -> NormalUser

ItemSplit - ->  Bill
SplitNotification - ->  ItemSplit


Group - ->  NormalUser
StoreOwner  <- - Bill

@enduml

PlantUML version 1.2020.20(Sat Nov 21 11:02:45 CET 2020)
(GPL source distribution)
Java Runtime: OpenJDK Runtime Environment
JVM: OpenJDK 64-Bit Server VM
Default Encoding: UTF-8
Language: en
Country: GB
--></g></svg>