<?xml version="1.0" encoding="UTF-8" standalone="no"?><svg xmlns="http://www.w3.org/2000/svg" xmlns:xlink="http://www.w3.org/1999/xlink" contentScriptType="application/ecmascript" contentStyleType="text/css" height="557.25px" preserveAspectRatio="none" style="width:1490px;height:557px;" version="1.1" viewBox="0 0 1490 557" width="1490.25px" zoomAndPan="magnify"><defs><filter height="300%" id="fk7wxdjz6x0jv" width="300%" x="-1" y="-1"><feGaussianBlur result="blurOut" stdDeviation="1.5"/><feColorMatrix in="blurOut" result="blurOut2" type="matrix" values="0 0 0 0 0 0 0 0 0 0 0 0 0 0 0 0 0 0 .4 0"/><feOffset dx="3.0" dy="3.0" in="blurOut2" result="blurOut3"/><feBlend in="SourceGraphic" in2="blurOut3" mode="normal"/></filter></defs><g><!--MD5=[10ea673caf457862023e152271927b45]
cluster controller--><polygon fill="#FFFFFF" filter="url(#fk7wxdjz6x0jv)" points="1028.25,261.75,1084.5,261.75,1089.75,279.457,1477.5,279.457,1477.5,399,1028.25,399,1028.25,261.75" style="stroke:#000000;stroke-width:1.125;"/><line style="stroke:#000000;stroke-width:1.125;" x1="1028.25" x2="1089.75" y1="279.457" y2="279.457"/><text fill="#000000" font-family="sans-serif" font-size="10.5" font-weight="bold" lengthAdjust="spacingAndGlyphs" textLength="51.75" x="1031.25" y="274.1499">controller</text><!--MD5=[a70b0d373322012744ecc119c63f921b]
cluster main--><polygon fill="#FFFFFF" filter="url(#fk7wxdjz6x0jv)" points="1137.75,81.375,1167,81.375,1172.25,99.082,1268.25,99.082,1268.25,187.875,1137.75,187.875,1137.75,81.375" style="stroke:#000000;stroke-width:1.125;"/><line style="stroke:#000000;stroke-width:1.125;" x1="1137.75" x2="1172.25" y1="99.082" y2="99.082"/><text fill="#000000" font-family="sans-serif" font-size="10.5" font-weight="bold" lengthAdjust="spacingAndGlyphs" textLength="24.75" x="1140.75" y="93.7749">main</text><!--MD5=[01435ace8273dc3cae88e7f376e4d373]
cluster core--><polygon fill="#FFFFFF" filter="url(#fk7wxdjz6x0jv)" points="642.75,228.75,671.25,228.75,676.5,246.457,1010.25,246.457,1010.25,544.5,642.75,544.5,642.75,228.75" style="stroke:#000000;stroke-width:1.125;"/><line style="stroke:#000000;stroke-width:1.125;" x1="642.75" x2="676.5" y1="246.457" y2="246.457"/><text fill="#000000" font-family="sans-serif" font-size="10.5" font-weight="bold" lengthAdjust="spacingAndGlyphs" textLength="24" x="645.75" y="241.1499">core</text><!--MD5=[73a39ff06bfd21a4a8df8317230e2ab5]
cluster facade--><polygon fill="#FFFFFF" filter="url(#fk7wxdjz6x0jv)" points="785.25,292.875,825,292.875,830.25,310.582,992.25,310.582,992.25,526.5,785.25,526.5,785.25,292.875" style="stroke:#000000;stroke-width:1.125;"/><line style="stroke:#000000;stroke-width:1.125;" x1="785.25" x2="830.25" y1="310.582" y2="310.582"/><text fill="#000000" font-family="sans-serif" font-size="10.5" font-weight="bold" lengthAdjust="spacingAndGlyphs" textLength="35.25" x="788.25" y="305.2749">facade</text><!--MD5=[5d4cd377749310b66bf14896f5cd8d9b]
cluster model--><polygon fill="#FFFFFF" filter="url(#fk7wxdjz6x0jv)" points="660.75,261.75,697.5,261.75,702.75,279.457,767.25,279.457,767.25,521.25,660.75,521.25,660.75,261.75" style="stroke:#000000;stroke-width:1.125;"/><line style="stroke:#000000;stroke-width:1.125;" x1="660.75" x2="702.75" y1="279.457" y2="279.457"/><text fill="#000000" font-family="sans-serif" font-size="10.5" font-weight="bold" lengthAdjust="spacingAndGlyphs" textLength="32.25" x="663.75" y="274.1499">model</text><!--MD5=[b029f845b51cf56217b35290d941b161]
cluster persist--><polygon fill="#FFFFFF" filter="url(#fk7wxdjz6x0jv)" points="12,76.5,53.25,76.5,58.5,94.207,624.75,94.207,624.75,552,12,552,12,76.5" style="stroke:#000000;stroke-width:1.125;"/><line style="stroke:#000000;stroke-width:1.125;" x1="12" x2="58.5" y1="94.207" y2="94.207"/><text fill="#000000" font-family="sans-serif" font-size="10.5" font-weight="bold" lengthAdjust="spacingAndGlyphs" textLength="36.75" x="15" y="88.8999">persist</text><!--MD5=[5622bc4ba3bf2be5d17935065b98c5f9]
cluster dao--><polygon fill="#FFFFFF" filter="url(#fk7wxdjz6x0jv)" points="30,254.625,54,254.625,59.25,272.332,606.75,272.332,606.75,534,30,534,30,254.625" style="stroke:#000000;stroke-width:1.125;"/><line style="stroke:#000000;stroke-width:1.125;" x1="30" x2="59.25" y1="272.332" y2="272.332"/><text fill="#000000" font-family="sans-serif" font-size="10.5" font-weight="bold" lengthAdjust="spacingAndGlyphs" textLength="19.5" x="33" y="267.0249">dao</text><!--MD5=[40f389b860e50d90baaf5de832b1264d]
cluster mysql--><polygon fill="#FFFFFF" filter="url(#fk7wxdjz6x0jv)" points="48,287.625,82.5,287.625,87.75,305.332,216,305.332,216,516,48,516,48,287.625" style="stroke:#000000;stroke-width:1.125;"/><line style="stroke:#000000;stroke-width:1.125;" x1="48" x2="87.75" y1="305.332" y2="305.332"/><text fill="#000000" font-family="sans-serif" font-size="10.5" font-weight="bold" lengthAdjust="spacingAndGlyphs" textLength="30" x="51" y="300.0249">mysql</text><!--MD5=[bab4019c732006648757f54388533847]
cluster postgres--><polygon fill="#FFFFFF" filter="url(#fk7wxdjz6x0jv)" points="398.25,287.625,450,287.625,455.25,305.332,588.75,305.332,588.75,516,398.25,516,398.25,287.625" style="stroke:#000000;stroke-width:1.125;"/><line style="stroke:#000000;stroke-width:1.125;" x1="398.25" x2="455.25" y1="305.332" y2="305.332"/><text fill="#000000" font-family="sans-serif" font-size="10.5" font-weight="bold" lengthAdjust="spacingAndGlyphs" textLength="47.25" x="401.25" y="300.0249">postgres</text><!--MD5=[f415acc8ebfa00adf531c66da445d76b]
class ManageFriendsController--><rect codeLine="3" fill="#FEFECE" filter="url(#fk7wxdjz6x0jv)" height="98.2617" id="ManageFriendsController" style="stroke:#A80036;stroke-width:1.125;" width="208.5" x="1257" y="288.75"/><ellipse cx="1305.5625" cy="300.75" fill="#ADD1B2" rx="8.25" ry="8.25" style="stroke:#A80036;stroke-width:0.75;"/><path d="M1307.0625,298.125 Q1307.2148,297.75 1307.3906,297.5625 Q1307.5664,297.375 1307.7656,297.375 Q1308.1172,297.375 1308.3398,297.5859 Q1308.5625,297.7969 1308.5625,298.2891 L1308.5625,299.4609 Q1308.5625,299.9531 1308.3516,300.1641 Q1308.1406,300.375 1307.8125,300.375 Q1307.5195,300.375 1307.332,300.2461 Q1307.1445,300.1172 1307.0625,299.7773 Q1307.0273,299.543 1306.8984,299.4141 Q1306.6641,299.168 1306.2422,299.0273 Q1305.8203,298.875 1305.3984,298.875 Q1304.8711,298.875 1304.4258,299.0859 Q1303.9922,299.2969 1303.6523,299.7656 Q1303.3125,300.2344 1303.3125,300.8789 L1303.3125,301.5703 Q1303.3125,302.3438 1303.9453,302.8594 Q1304.5781,303.375 1305.7031,303.375 Q1306.3711,303.375 1306.8398,303.2227 Q1307.1094,303.1406 1307.4141,302.8711 Q1307.6133,302.7188 1307.7188,302.6719 Q1307.8242,302.625 1307.9531,302.625 Q1308.1992,302.625 1308.375,302.8242 Q1308.5625,303.0117 1308.5625,303.2813 Q1308.5625,303.5391 1308.3047,303.8438 Q1307.9297,304.2891 1307.332,304.5352 Q1306.5469,304.875 1305.5859,304.875 Q1304.4609,304.875 1303.5586,304.4297 Q1302.832,304.0781 1302.3164,303.3164 Q1301.8125,302.5547 1301.8125,301.6523 L1301.8125,300.832 Q1301.8125,299.8945 1302.2578,299.0742 Q1302.7148,298.2539 1303.5,297.8203 Q1304.2969,297.375 1305.1875,297.375 Q1305.7266,297.375 1306.1953,297.5625 Q1306.6641,297.75 1307.0625,298.125 Z " fill="#000000"/><text fill="#000000" font-family="sans-serif" font-size="9" lengthAdjust="spacingAndGlyphs" textLength="105" x="1320.9375" y="304.4326">ManageFriendsController</text><line style="stroke:#A80036;stroke-width:1.125;" x1="1257.75" x2="1464.75" y1="312.75" y2="312.75"/><rect fill="none" height="4.5" style="stroke:#C82930;stroke-width:0.75;" width="4.5" x="1263" y="318.75"/><text fill="#000000" font-family="sans-serif" font-size="8.25" lengthAdjust="spacingAndGlyphs" textLength="75" x="1272" y="324.3142">friendsList: ListView</text><line style="stroke:#A80036;stroke-width:1.125;" x1="1257.75" x2="1464.75" y1="329.127" y2="329.127"/><rect fill="#F24D5C" height="4.5" style="stroke:#C82930;stroke-width:0.75;" width="4.5" x="1263" y="335.127"/><text fill="#000000" font-family="sans-serif" font-size="8.25" lengthAdjust="spacingAndGlyphs" textLength="88.5" x="1272" y="340.6912">allStyleSetDefault(): void</text><ellipse cx="1265.25" cy="347.7539" fill="#84BE84" rx="2.25" ry="2.25" style="stroke:#038048;stroke-width:0.75;"/><text fill="#000000" font-family="sans-serif" font-size="8.25" lengthAdjust="spacingAndGlyphs" textLength="188.25" x="1272" y="351.0681">goToAddFriendView(actionEvent:ActionEvent): void</text><ellipse cx="1265.25" cy="358.1309" fill="#84BE84" rx="2.25" ry="2.25" style="stroke:#038048;stroke-width:0.75;"/><text fill="#000000" font-family="sans-serif" font-size="8.25" lengthAdjust="spacingAndGlyphs" textLength="171" x="1272" y="361.4451">goToHomeView(actionEvent:ActionEvent): void</text><ellipse cx="1265.25" cy="368.5078" fill="#84BE84" rx="2.25" ry="2.25" style="stroke:#038048;stroke-width:0.75;"/><text fill="#000000" font-family="sans-serif" font-size="8.25" lengthAdjust="spacingAndGlyphs" textLength="189" x="1272" y="371.822">deleteSelectedFriend(actionEvent:ActionEvent): void</text><ellipse cx="1265.25" cy="378.8848" fill="#84BE84" rx="2.25" ry="2.25" style="stroke:#038048;stroke-width:0.75;"/><text fill="#000000" font-family="sans-serif" font-size="8.25" lengthAdjust="spacingAndGlyphs" textLength="53.25" x="1272" y="382.199">initialize(): void</text><!--MD5=[820fa698299746c76ebf53aa40ed0a30]
class AddFriendController--><rect codeLine="11" fill="#FEFECE" filter="url(#fk7wxdjz6x0jv)" height="77.5078" id="AddFriendController" style="stroke:#A80036;stroke-width:1.125;" width="190.5" x="1040.25" y="299.25"/><ellipse cx="1091.0625" cy="311.25" fill="#ADD1B2" rx="8.25" ry="8.25" style="stroke:#A80036;stroke-width:0.75;"/><path d="M1092.5625,308.625 Q1092.7148,308.25 1092.8906,308.0625 Q1093.0664,307.875 1093.2656,307.875 Q1093.6172,307.875 1093.8398,308.0859 Q1094.0625,308.2969 1094.0625,308.7891 L1094.0625,309.9609 Q1094.0625,310.4531 1093.8516,310.6641 Q1093.6406,310.875 1093.3125,310.875 Q1093.0195,310.875 1092.832,310.7461 Q1092.6445,310.6172 1092.5625,310.2773 Q1092.5273,310.043 1092.3984,309.9141 Q1092.1641,309.668 1091.7422,309.5273 Q1091.3203,309.375 1090.8984,309.375 Q1090.3711,309.375 1089.9258,309.5859 Q1089.4922,309.7969 1089.1523,310.2656 Q1088.8125,310.7344 1088.8125,311.3789 L1088.8125,312.0703 Q1088.8125,312.8438 1089.4453,313.3594 Q1090.0781,313.875 1091.2031,313.875 Q1091.8711,313.875 1092.3398,313.7227 Q1092.6094,313.6406 1092.9141,313.3711 Q1093.1133,313.2188 1093.2188,313.1719 Q1093.3242,313.125 1093.4531,313.125 Q1093.6992,313.125 1093.875,313.3242 Q1094.0625,313.5117 1094.0625,313.7813 Q1094.0625,314.0391 1093.8047,314.3438 Q1093.4297,314.7891 1092.832,315.0352 Q1092.0469,315.375 1091.0859,315.375 Q1089.9609,315.375 1089.0586,314.9297 Q1088.332,314.5781 1087.8164,313.8164 Q1087.3125,313.0547 1087.3125,312.1523 L1087.3125,311.332 Q1087.3125,310.3945 1087.7578,309.5742 Q1088.2148,308.7539 1089,308.3203 Q1089.7969,307.875 1090.6875,307.875 Q1091.2266,307.875 1091.6953,308.0625 Q1092.1641,308.25 1092.5625,308.625 Z " fill="#000000"/><text fill="#000000" font-family="sans-serif" font-size="9" lengthAdjust="spacingAndGlyphs" textLength="82.5" x="1106.4375" y="314.9326">AddFriendController</text><line style="stroke:#A80036;stroke-width:1.125;" x1="1041" x2="1230" y1="323.25" y2="323.25"/><rect fill="none" height="4.5" style="stroke:#C82930;stroke-width:0.75;" width="4.5" x="1046.25" y="329.25"/><text fill="#000000" font-family="sans-serif" font-size="8.25" lengthAdjust="spacingAndGlyphs" textLength="72" x="1055.25" y="334.8142">credential: TextField</text><line style="stroke:#A80036;stroke-width:1.125;" x1="1041" x2="1230" y1="339.627" y2="339.627"/><rect fill="#F24D5C" height="4.5" style="stroke:#C82930;stroke-width:0.75;" width="4.5" x="1046.25" y="345.627"/><text fill="#000000" font-family="sans-serif" font-size="8.25" lengthAdjust="spacingAndGlyphs" textLength="88.5" x="1055.25" y="351.1912">allStyleSetDefault(): void</text><ellipse cx="1048.5" cy="358.2539" fill="#84BE84" rx="2.25" ry="2.25" style="stroke:#038048;stroke-width:0.75;"/><text fill="#000000" font-family="sans-serif" font-size="8.25" lengthAdjust="spacingAndGlyphs" textLength="171" x="1055.25" y="361.5681">goToHomeView(actionEvent:ActionEvent): void</text><ellipse cx="1048.5" cy="368.6309" fill="#84BE84" rx="2.25" ry="2.25" style="stroke:#038048;stroke-width:0.75;"/><text fill="#000000" font-family="sans-serif" font-size="8.25" lengthAdjust="spacingAndGlyphs" textLength="149.25" x="1055.25" y="371.9451">addFriend(actionEvent:ActionEvent): void</text><!--MD5=[0db50141ac7671f84c63cf2d86851c53]
class SplitPay--><rect codeLine="21" fill="#FEFECE" filter="url(#fk7wxdjz6x0jv)" height="67.1309" id="SplitPay" style="stroke:#A80036;stroke-width:1.125;" width="105.75" x="1150.125" y="108.375"/><ellipse cx="1183.3125" cy="120.375" fill="#ADD1B2" rx="8.25" ry="8.25" style="stroke:#A80036;stroke-width:0.75;"/><path d="M1184.8125,117.75 Q1184.9648,117.375 1185.1406,117.1875 Q1185.3164,117 1185.5156,117 Q1185.8672,117 1186.0898,117.2109 Q1186.3125,117.4219 1186.3125,117.9141 L1186.3125,119.0859 Q1186.3125,119.5781 1186.1016,119.7891 Q1185.8906,120 1185.5625,120 Q1185.2695,120 1185.082,119.8711 Q1184.8945,119.7422 1184.8125,119.4023 Q1184.7773,119.168 1184.6484,119.0391 Q1184.4141,118.793 1183.9922,118.6523 Q1183.5703,118.5 1183.1484,118.5 Q1182.6211,118.5 1182.1758,118.7109 Q1181.7422,118.9219 1181.4023,119.3906 Q1181.0625,119.8594 1181.0625,120.5039 L1181.0625,121.1953 Q1181.0625,121.9688 1181.6953,122.4844 Q1182.3281,123 1183.4531,123 Q1184.1211,123 1184.5898,122.8477 Q1184.8594,122.7656 1185.1641,122.4961 Q1185.3633,122.3438 1185.4688,122.2969 Q1185.5742,122.25 1185.7031,122.25 Q1185.9492,122.25 1186.125,122.4492 Q1186.3125,122.6367 1186.3125,122.9063 Q1186.3125,123.1641 1186.0547,123.4688 Q1185.6797,123.9141 1185.082,124.1602 Q1184.2969,124.5 1183.3359,124.5 Q1182.2109,124.5 1181.3086,124.0547 Q1180.582,123.7031 1180.0664,122.9414 Q1179.5625,122.1797 1179.5625,121.2773 L1179.5625,120.457 Q1179.5625,119.5195 1180.0078,118.6992 Q1180.4648,117.8789 1181.25,117.4453 Q1182.0469,117 1182.9375,117 Q1183.4766,117 1183.9453,117.1875 Q1184.4141,117.375 1184.8125,117.75 Z " fill="#000000"/><text fill="#000000" font-family="sans-serif" font-size="9" lengthAdjust="spacingAndGlyphs" textLength="33" x="1198.6875" y="124.0576">SplitPay</text><line style="stroke:#A80036;stroke-width:1.125;" x1="1150.875" x2="1255.125" y1="132.375" y2="132.375"/><ellipse cx="1158.375" cy="140.625" fill="none" rx="2.25" ry="2.25" style="stroke:#038048;stroke-width:0.75;"/><text fill="#000000" font-family="sans-serif" font-size="8.25" lengthAdjust="spacingAndGlyphs" text-decoration="underline" textLength="55.5" x="1165.125" y="143.9392">window: Stage</text><line style="stroke:#A80036;stroke-width:1.125;" x1="1150.875" x2="1255.125" y1="148.752" y2="148.752"/><ellipse cx="1158.375" cy="157.002" fill="#84BE84" rx="2.25" ry="2.25" style="stroke:#038048;stroke-width:0.75;"/><text fill="#000000" font-family="sans-serif" font-size="8.25" lengthAdjust="spacingAndGlyphs" textLength="85.5" x="1165.125" y="160.3162">start(stage:Stage): void</text><ellipse cx="1158.375" cy="167.3789" fill="#84BE84" rx="2.25" ry="2.25" style="stroke:#038048;stroke-width:0.75;"/><text fill="#000000" font-family="sans-serif" font-size="8.25" lengthAdjust="spacingAndGlyphs" text-decoration="underline" textLength="86.25" x="1165.125" y="170.6931">main(String[]:args): void</text><!--MD5=[e4dfbff3f74627b12500f06f815ed542]
class UserFacade--><rect codeLine="30" fill="#FEFECE" filter="url(#fk7wxdjz6x0jv)" height="36" id="UserFacade" style="stroke:#A80036;stroke-width:1.125;" width="74.25" x="797.625" y="319.875"/><ellipse cx="808.875" cy="331.875" fill="#A9DCDF" rx="8.25" ry="8.25" style="stroke:#A80036;stroke-width:0.75;"/><path d="M810.1875,333 L807.7148,333 L807.3867,333.75 L807.3867,333.75 L807.7383,333.75 L808.125,334.2188 L808.125,334.5 L808.125,334.7813 L807.7383,335.25 L807.3867,335.25 L805.9688,335.25 L805.5117,335.25 L805.125,334.7813 L805.125,334.5 L805.125,334.2188 L805.5117,333.75 L805.9688,333.75 L807.7031,329.25 L807.0469,329.25 L806.2617,329.25 L805.875,328.7813 L805.875,328.5 L805.875,328.2188 L806.2617,327.75 L807.0469,327.75 L809.8008,327.75 L811.8164,333.75 L812.2383,333.75 L812.2383,333.75 L812.625,334.2188 L812.625,334.5 L812.625,334.7813 L812.2383,335.25 L811.8164,335.25 L810.3984,335.25 L810.0117,335.25 L809.625,334.7813 L809.625,334.5 L809.625,334.2188 L810.0117,333.75 L810.3984,333.75 L810.3984,333.75 L810.1875,333 Z M809.7773,331.5 L808.875,328.8164 L808.1016,331.5 L809.7773,331.5 Z " fill="#000000"/><text fill="#000000" font-family="sans-serif" font-size="9" font-style="italic" lengthAdjust="spacingAndGlyphs" textLength="50.25" x="819.375" y="335.5576">UserFacade</text><line style="stroke:#A80036;stroke-width:1.125;" x1="798.375" x2="871.125" y1="343.875" y2="343.875"/><line style="stroke:#A80036;stroke-width:1.125;" x1="798.375" x2="871.125" y1="349.875" y2="349.875"/><!--MD5=[d0eb396c87234e5f7e92c32a03949a74]
class NormalUserFacade--><rect codeLine="32" fill="#FEFECE" filter="url(#fk7wxdjz6x0jv)" height="67.1309" id="NormalUserFacade" style="stroke:#A80036;stroke-width:1.125;" width="182.25" x="797.625" y="447"/><ellipse cx="844.6875" cy="459" fill="#ADD1B2" rx="8.25" ry="8.25" style="stroke:#A80036;stroke-width:0.75;"/><path d="M846.1875,456.375 Q846.3398,456 846.5156,455.8125 Q846.6914,455.625 846.8906,455.625 Q847.2422,455.625 847.4648,455.8359 Q847.6875,456.0469 847.6875,456.5391 L847.6875,457.7109 Q847.6875,458.2031 847.4766,458.4141 Q847.2656,458.625 846.9375,458.625 Q846.6445,458.625 846.457,458.4961 Q846.2695,458.3672 846.1875,458.0273 Q846.1523,457.793 846.0234,457.6641 Q845.7891,457.418 845.3672,457.2773 Q844.9453,457.125 844.5234,457.125 Q843.9961,457.125 843.5508,457.3359 Q843.1172,457.5469 842.7773,458.0156 Q842.4375,458.4844 842.4375,459.1289 L842.4375,459.8203 Q842.4375,460.5938 843.0703,461.1094 Q843.7031,461.625 844.8281,461.625 Q845.4961,461.625 845.9648,461.4727 Q846.2344,461.3906 846.5391,461.1211 Q846.7383,460.9688 846.8438,460.9219 Q846.9492,460.875 847.0781,460.875 Q847.3242,460.875 847.5,461.0742 Q847.6875,461.2617 847.6875,461.5313 Q847.6875,461.7891 847.4297,462.0938 Q847.0547,462.5391 846.457,462.7852 Q845.6719,463.125 844.7109,463.125 Q843.5859,463.125 842.6836,462.6797 Q841.957,462.3281 841.4414,461.5664 Q840.9375,460.8047 840.9375,459.9023 L840.9375,459.082 Q840.9375,458.1445 841.3828,457.3242 Q841.8398,456.5039 842.625,456.0703 Q843.4219,455.625 844.3125,455.625 Q844.8516,455.625 845.3203,455.8125 Q845.7891,456 846.1875,456.375 Z " fill="#000000"/><text fill="#000000" font-family="sans-serif" font-size="9" lengthAdjust="spacingAndGlyphs" textLength="81.75" x="860.0625" y="462.6826">NormalUserFacade</text><line style="stroke:#A80036;stroke-width:1.125;" x1="798.375" x2="979.125" y1="471" y2="471"/><line style="stroke:#A80036;stroke-width:1.125;" x1="798.375" x2="979.125" y1="477" y2="477"/><ellipse cx="805.875" cy="485.25" fill="#84BE84" rx="2.25" ry="2.25" style="stroke:#038048;stroke-width:0.75;"/><text fill="#000000" font-family="sans-serif" font-size="8.25" lengthAdjust="spacingAndGlyphs" textLength="139.5" x="812.625" y="488.5642">addFriendByPhone(phone:String): void</text><ellipse cx="805.875" cy="495.627" fill="#84BE84" rx="2.25" ry="2.25" style="stroke:#038048;stroke-width:0.75;"/><text fill="#000000" font-family="sans-serif" font-size="8.25" lengthAdjust="spacingAndGlyphs" textLength="130.5" x="812.625" y="498.9412">addFriendByEmail(email:String): void</text><ellipse cx="805.875" cy="506.0039" fill="#84BE84" rx="2.25" ry="2.25" style="stroke:#038048;stroke-width:0.75;"/><text fill="#000000" font-family="sans-serif" font-size="8.25" lengthAdjust="spacingAndGlyphs" textLength="162.75" x="812.625" y="509.3181">deleteFriendByPhone(user:NormalUser): void</text><!--MD5=[3fd616f346a44cd59a91eb10b19e157c]
class User--><rect codeLine="39" fill="#FEFECE" filter="url(#fk7wxdjz6x0jv)" height="98.2617" id="User" style="stroke:#A80036;stroke-width:1.125;" width="82.5" x="672.75" y="288.75"/><ellipse cx="701.2125" cy="300.75" fill="#ADD1B2" rx="8.25" ry="8.25" style="stroke:#A80036;stroke-width:0.75;"/><path d="M702.7125,298.125 Q702.8648,297.75 703.0406,297.5625 Q703.2164,297.375 703.4156,297.375 Q703.7672,297.375 703.9898,297.5859 Q704.2125,297.7969 704.2125,298.2891 L704.2125,299.4609 Q704.2125,299.9531 704.0016,300.1641 Q703.7906,300.375 703.4625,300.375 Q703.1695,300.375 702.982,300.2461 Q702.7945,300.1172 702.7125,299.7773 Q702.6773,299.543 702.5484,299.4141 Q702.3141,299.168 701.8922,299.0273 Q701.4703,298.875 701.0484,298.875 Q700.5211,298.875 700.0758,299.0859 Q699.6422,299.2969 699.3023,299.7656 Q698.9625,300.2344 698.9625,300.8789 L698.9625,301.5703 Q698.9625,302.3438 699.5953,302.8594 Q700.2281,303.375 701.3531,303.375 Q702.0211,303.375 702.4898,303.2227 Q702.7594,303.1406 703.0641,302.8711 Q703.2633,302.7188 703.3688,302.6719 Q703.4742,302.625 703.6031,302.625 Q703.8492,302.625 704.025,302.8242 Q704.2125,303.0117 704.2125,303.2813 Q704.2125,303.5391 703.9547,303.8438 Q703.5797,304.2891 702.982,304.5352 Q702.1969,304.875 701.2359,304.875 Q700.1109,304.875 699.2086,304.4297 Q698.482,304.0781 697.9664,303.3164 Q697.4625,302.5547 697.4625,301.6523 L697.4625,300.832 Q697.4625,299.8945 697.9078,299.0742 Q698.3648,298.2539 699.15,297.8203 Q699.9469,297.375 700.8375,297.375 Q701.3766,297.375 701.8453,297.5625 Q702.3141,297.75 702.7125,298.125 Z " fill="#000000"/><text fill="#000000" font-family="sans-serif" font-size="9" lengthAdjust="spacingAndGlyphs" textLength="20.25" x="715.5375" y="304.4326">User</text><line style="stroke:#A80036;stroke-width:1.125;" x1="673.5" x2="754.5" y1="312.75" y2="312.75"/><rect fill="none" height="4.5" style="stroke:#C82930;stroke-width:0.75;" width="4.5" x="678.75" y="318.75"/><text fill="#000000" font-family="sans-serif" font-size="8.25" lengthAdjust="spacingAndGlyphs" textLength="31.5" x="687.75" y="324.3142">id: String</text><rect fill="none" height="4.5" style="stroke:#C82930;stroke-width:0.75;" width="4.5" x="678.75" y="329.127"/><text fill="#000000" font-family="sans-serif" font-size="8.25" lengthAdjust="spacingAndGlyphs" textLength="43.5" x="687.75" y="334.6912">email: String</text><rect fill="none" height="4.5" style="stroke:#C82930;stroke-width:0.75;" width="4.5" x="678.75" y="339.5039"/><text fill="#000000" font-family="sans-serif" font-size="8.25" lengthAdjust="spacingAndGlyphs" textLength="48" x="687.75" y="345.0681">phone: String</text><rect fill="none" height="4.5" style="stroke:#C82930;stroke-width:0.75;" width="4.5" x="678.75" y="349.8809"/><text fill="#000000" font-family="sans-serif" font-size="8.25" lengthAdjust="spacingAndGlyphs" textLength="59.25" x="687.75" y="355.4451">nickname: String</text><rect fill="none" height="4.5" style="stroke:#C82930;stroke-width:0.75;" width="4.5" x="678.75" y="360.2578"/><text fill="#000000" font-family="sans-serif" font-size="8.25" lengthAdjust="spacingAndGlyphs" textLength="63" x="687.75" y="365.822">password: String</text><rect fill="none" height="4.5" style="stroke:#C82930;stroke-width:0.75;" width="4.5" x="678.75" y="370.6348"/><text fill="#000000" font-family="sans-serif" font-size="8.25" lengthAdjust="spacingAndGlyphs" textLength="57.75" x="687.75" y="376.199">balance: Double</text><line style="stroke:#A80036;stroke-width:1.125;" x1="673.5" x2="754.5" y1="381.0117" y2="381.0117"/><!--MD5=[121330b00a863f09dfc695730d4d9fa4]
class NormalUser--><rect codeLine="47" fill="#FEFECE" filter="url(#fk7wxdjz6x0jv)" height="56.7539" id="NormalUser" style="stroke:#A80036;stroke-width:1.125;" width="79.5" x="674.25" y="452.25"/><ellipse cx="687.525" cy="464.25" fill="#ADD1B2" rx="8.25" ry="8.25" style="stroke:#A80036;stroke-width:0.75;"/><path d="M689.025,461.625 Q689.1773,461.25 689.3531,461.0625 Q689.5289,460.875 689.7281,460.875 Q690.0797,460.875 690.3023,461.0859 Q690.525,461.2969 690.525,461.7891 L690.525,462.9609 Q690.525,463.4531 690.3141,463.6641 Q690.1031,463.875 689.775,463.875 Q689.482,463.875 689.2945,463.7461 Q689.107,463.6172 689.025,463.2773 Q688.9898,463.043 688.8609,462.9141 Q688.6266,462.668 688.2047,462.5273 Q687.7828,462.375 687.3609,462.375 Q686.8336,462.375 686.3883,462.5859 Q685.9547,462.7969 685.6148,463.2656 Q685.275,463.7344 685.275,464.3789 L685.275,465.0703 Q685.275,465.8438 685.9078,466.3594 Q686.5406,466.875 687.6656,466.875 Q688.3336,466.875 688.8023,466.7227 Q689.0719,466.6406 689.3766,466.3711 Q689.5758,466.2188 689.6813,466.1719 Q689.7867,466.125 689.9156,466.125 Q690.1617,466.125 690.3375,466.3242 Q690.525,466.5117 690.525,466.7813 Q690.525,467.0391 690.2672,467.3438 Q689.8922,467.7891 689.2945,468.0352 Q688.5094,468.375 687.5484,468.375 Q686.4234,468.375 685.5211,467.9297 Q684.7945,467.5781 684.2789,466.8164 Q683.775,466.0547 683.775,465.1523 L683.775,464.332 Q683.775,463.3945 684.2203,462.5742 Q684.6773,461.7539 685.4625,461.3203 Q686.2594,460.875 687.15,460.875 Q687.6891,460.875 688.1578,461.0625 Q688.6266,461.25 689.025,461.625 Z " fill="#000000"/><text fill="#000000" font-family="sans-serif" font-size="9" lengthAdjust="spacingAndGlyphs" textLength="51" x="698.475" y="467.9326">NormalUser</text><line style="stroke:#A80036;stroke-width:1.125;" x1="675" x2="753" y1="476.25" y2="476.25"/><rect fill="none" height="4.5" style="stroke:#C82930;stroke-width:0.75;" width="4.5" x="680.25" y="482.25"/><text fill="#000000" font-family="sans-serif" font-size="8.25" lengthAdjust="spacingAndGlyphs" textLength="60" x="689.25" y="487.8142">firstName: String</text><rect fill="none" height="4.5" style="stroke:#C82930;stroke-width:0.75;" width="4.5" x="680.25" y="492.627"/><text fill="#000000" font-family="sans-serif" font-size="8.25" lengthAdjust="spacingAndGlyphs" textLength="58.5" x="689.25" y="498.1912">lastName: String</text><line style="stroke:#A80036;stroke-width:1.125;" x1="675" x2="753" y1="503.0039" y2="503.0039"/><!--MD5=[4a0300a6597e068a69ac5dc42e345e2c]
class DAOFactory--><rect codeLine="55" fill="#FEFECE" filter="url(#fk7wxdjz6x0jv)" height="77.5078" id="DAOFactory" style="stroke:#A80036;stroke-width:1.125;" width="122.25" x="432.375" y="103.5"/><ellipse cx="465.5625" cy="115.5" fill="#A9DCDF" rx="8.25" ry="8.25" style="stroke:#A80036;stroke-width:0.75;"/><path d="M466.875,116.625 L464.4023,116.625 L464.0742,117.375 L464.0742,117.375 L464.4258,117.375 L464.8125,117.8438 L464.8125,118.125 L464.8125,118.4063 L464.4258,118.875 L464.0742,118.875 L462.6563,118.875 L462.1992,118.875 L461.8125,118.4063 L461.8125,118.125 L461.8125,117.8438 L462.1992,117.375 L462.6563,117.375 L464.3906,112.875 L463.7344,112.875 L462.9492,112.875 L462.5625,112.4063 L462.5625,112.125 L462.5625,111.8438 L462.9492,111.375 L463.7344,111.375 L466.4883,111.375 L468.5039,117.375 L468.9258,117.375 L468.9258,117.375 L469.3125,117.8438 L469.3125,118.125 L469.3125,118.4063 L468.9258,118.875 L468.5039,118.875 L467.0859,118.875 L466.6992,118.875 L466.3125,118.4063 L466.3125,118.125 L466.3125,117.8438 L466.6992,117.375 L467.0859,117.375 L467.0859,117.375 L466.875,116.625 Z M466.4648,115.125 L465.5625,112.4414 L464.7891,115.125 L466.4648,115.125 Z " fill="#000000"/><text fill="#000000" font-family="sans-serif" font-size="9" font-style="italic" lengthAdjust="spacingAndGlyphs" textLength="49.5" x="480.9375" y="119.1826">DAOFactory</text><line style="stroke:#A80036;stroke-width:1.125;" x1="433.125" x2="553.875" y1="127.5" y2="127.5"/><polygon fill="none" points="440.625,132,443.625,135,440.625,138,437.625,135" style="stroke:#B38D22;stroke-width:0.75;"/><text fill="#000000" font-family="sans-serif" font-size="8.25" lengthAdjust="spacingAndGlyphs" textLength="84.75" x="447.375" y="139.0642">connection: Connection</text><line style="stroke:#A80036;stroke-width:1.125;" x1="433.125" x2="553.875" y1="143.877" y2="143.877"/><ellipse cx="440.625" cy="152.127" fill="#84BE84" rx="2.25" ry="2.25" style="stroke:#038048;stroke-width:0.75;"/><text fill="#000000" font-family="sans-serif" font-size="8.25" lengthAdjust="spacingAndGlyphs" text-decoration="underline" textLength="102.75" x="447.375" y="155.4412">getConnection(): Connection</text><ellipse cx="440.625" cy="162.5039" fill="#84BE84" rx="2.25" ry="2.25" style="stroke:#038048;stroke-width:0.75;"/><text fill="#000000" font-family="sans-serif" font-size="8.25" lengthAdjust="spacingAndGlyphs" textLength="102.75" x="447.375" y="165.8181">createUserDAO(): UserDAO</text><rect fill="#F24D5C" height="4.5" style="stroke:#C82930;stroke-width:0.75;" width="4.5" x="438.375" y="170.6309"/><text fill="#000000" font-family="sans-serif" font-size="8.25" lengthAdjust="spacingAndGlyphs" textLength="100.5" x="447.375" y="176.1951">DAOFactory(): DAOFactory</text><!--MD5=[6f49855a2f41b15b7be64856ff30349b]
class UserDAO--><rect codeLine="70" fill="#FEFECE" filter="url(#fk7wxdjz6x0jv)" height="87.8848" id="UserDAO" style="stroke:#A80036;stroke-width:1.125;" width="156" x="230.25" y="294"/><ellipse cx="285.5625" cy="306" fill="#B4A7E5" rx="8.25" ry="8.25" style="stroke:#A80036;stroke-width:0.75;"/><path d="M286.3125,303.75 L286.3125,308.25 L287.8125,308.25 L288.1758,308.25 L288.5625,308.7188 L288.5625,309 L288.5625,309.2813 L288.1758,309.75 L287.8125,309.75 L283.3125,309.75 L282.9492,309.75 L282.5625,309.2813 L282.5625,309 L282.5625,308.7188 L282.9492,308.25 L283.3125,308.25 L284.8125,308.25 L284.8125,303.75 L283.3125,303.75 L282.9492,303.75 L282.5625,303.2813 L282.5625,303 L282.5625,302.7188 L282.9492,302.25 L283.3125,302.25 L287.8125,302.25 L288.1758,302.25 L288.5625,302.7188 L288.5625,303 L288.5625,303.2813 L288.1758,303.75 L287.8125,303.75 L286.3125,303.75 Z " fill="#000000"/><text fill="#000000" font-family="sans-serif" font-size="9" font-style="italic" lengthAdjust="spacingAndGlyphs" textLength="39" x="300.9375" y="309.6826">UserDAO</text><line style="stroke:#A80036;stroke-width:1.125;" x1="231" x2="385.5" y1="318" y2="318"/><line style="stroke:#A80036;stroke-width:1.125;" x1="231" x2="385.5" y1="324" y2="324"/><ellipse cx="238.5" cy="332.25" fill="#84BE84" rx="2.25" ry="2.25" style="stroke:#038048;stroke-width:0.75;"/><text fill="#000000" font-family="sans-serif" font-size="8.25" lengthAdjust="spacingAndGlyphs" textLength="96.75" x="245.25" y="335.5642">getConnection(): UserDAO</text><ellipse cx="238.5" cy="342.627" fill="#84BE84" rx="2.25" ry="2.25" style="stroke:#038048;stroke-width:0.75;"/><text fill="#000000" font-family="sans-serif" font-size="8.25" lengthAdjust="spacingAndGlyphs" textLength="127.5" x="245.25" y="345.9412">findUserByEmail(email:String): User</text><ellipse cx="238.5" cy="353.0039" fill="#84BE84" rx="2.25" ry="2.25" style="stroke:#038048;stroke-width:0.75;"/><text fill="#000000" font-family="sans-serif" font-size="8.25" lengthAdjust="spacingAndGlyphs" textLength="136.5" x="245.25" y="356.3181">findUserByPhone(phone:String): User</text><ellipse cx="238.5" cy="363.3809" fill="#84BE84" rx="2.25" ry="2.25" style="stroke:#038048;stroke-width:0.75;"/><text fill="#000000" font-family="sans-serif" font-size="8.25" lengthAdjust="spacingAndGlyphs" textLength="109.5" x="245.25" y="366.6951">getFriends(): Collection&lt;User&gt;</text><ellipse cx="238.5" cy="373.7578" fill="#84BE84" rx="2.25" ry="2.25" style="stroke:#038048;stroke-width:0.75;"/><text fill="#000000" font-family="sans-serif" font-size="8.25" lengthAdjust="spacingAndGlyphs" textLength="97.5" x="245.25" y="377.072">addFriend(user:User): void</text><!--MD5=[a3971c949df0b23e8683b9b55b0827cf]
class MySqlUserDAO--><rect codeLine="63" fill="#FEFECE" filter="url(#fk7wxdjz6x0jv)" height="46.377" id="MySqlUserDAO" style="stroke:#A80036;stroke-width:1.125;" width="142.5" x="61.5" y="457.5"/><ellipse cx="98.0625" cy="469.5" fill="#ADD1B2" rx="8.25" ry="8.25" style="stroke:#A80036;stroke-width:0.75;"/><path d="M99.5625,466.875 Q99.7148,466.5 99.8906,466.3125 Q100.0664,466.125 100.2656,466.125 Q100.6172,466.125 100.8398,466.3359 Q101.0625,466.5469 101.0625,467.0391 L101.0625,468.2109 Q101.0625,468.7031 100.8516,468.9141 Q100.6406,469.125 100.3125,469.125 Q100.0195,469.125 99.832,468.9961 Q99.6445,468.8672 99.5625,468.5273 Q99.5273,468.293 99.3984,468.1641 Q99.1641,467.918 98.7422,467.7773 Q98.3203,467.625 97.8984,467.625 Q97.3711,467.625 96.9258,467.8359 Q96.4922,468.0469 96.1523,468.5156 Q95.8125,468.9844 95.8125,469.6289 L95.8125,470.3203 Q95.8125,471.0938 96.4453,471.6094 Q97.0781,472.125 98.2031,472.125 Q98.8711,472.125 99.3398,471.9727 Q99.6094,471.8906 99.9141,471.6211 Q100.1133,471.4688 100.2188,471.4219 Q100.3242,471.375 100.4531,471.375 Q100.6992,471.375 100.875,471.5742 Q101.0625,471.7617 101.0625,472.0313 Q101.0625,472.2891 100.8047,472.5938 Q100.4297,473.0391 99.832,473.2852 Q99.0469,473.625 98.0859,473.625 Q96.9609,473.625 96.0586,473.1797 Q95.332,472.8281 94.8164,472.0664 Q94.3125,471.3047 94.3125,470.4023 L94.3125,469.582 Q94.3125,468.6445 94.7578,467.8242 Q95.2148,467.0039 96,466.5703 Q96.7969,466.125 97.6875,466.125 Q98.2266,466.125 98.6953,466.3125 Q99.1641,466.5 99.5625,466.875 Z " fill="#000000"/><text fill="#000000" font-family="sans-serif" font-size="9" lengthAdjust="spacingAndGlyphs" textLength="63" x="113.4375" y="473.1826">MySqlUserDAO</text><line style="stroke:#A80036;stroke-width:1.125;" x1="62.25" x2="203.25" y1="481.5" y2="481.5"/><line style="stroke:#A80036;stroke-width:1.125;" x1="62.25" x2="203.25" y1="487.5" y2="487.5"/><rect fill="#F24D5C" height="4.5" style="stroke:#C82930;stroke-width:0.75;" width="4.5" x="67.5" y="493.5"/><text fill="#000000" font-family="sans-serif" font-size="8.25" lengthAdjust="spacingAndGlyphs" textLength="123" x="76.5" y="499.0642">MySqlUserDAO(): MySqlUserDAO</text><!--MD5=[0e2e921ab886777c70e16ce5f6b9950f]
class MySqlDAOFactory--><rect codeLine="66" fill="#FEFECE" filter="url(#fk7wxdjz6x0jv)" height="46.377" id="MySqlDAOFactory" style="stroke:#A80036;stroke-width:1.125;" width="144" x="60" y="314.625"/><ellipse cx="92.85" cy="326.625" fill="#ADD1B2" rx="8.25" ry="8.25" style="stroke:#A80036;stroke-width:0.75;"/><path d="M94.35,324 Q94.5023,323.625 94.6781,323.4375 Q94.8539,323.25 95.0531,323.25 Q95.4047,323.25 95.6273,323.4609 Q95.85,323.6719 95.85,324.1641 L95.85,325.3359 Q95.85,325.8281 95.6391,326.0391 Q95.4281,326.25 95.1,326.25 Q94.807,326.25 94.6195,326.1211 Q94.432,325.9922 94.35,325.6523 Q94.3148,325.418 94.1859,325.2891 Q93.9516,325.043 93.5297,324.9023 Q93.1078,324.75 92.6859,324.75 Q92.1586,324.75 91.7133,324.9609 Q91.2797,325.1719 90.9398,325.6406 Q90.6,326.1094 90.6,326.7539 L90.6,327.4453 Q90.6,328.2188 91.2328,328.7344 Q91.8656,329.25 92.9906,329.25 Q93.6586,329.25 94.1273,329.0977 Q94.3969,329.0156 94.7016,328.7461 Q94.9008,328.5938 95.0063,328.5469 Q95.1117,328.5 95.2406,328.5 Q95.4867,328.5 95.6625,328.6992 Q95.85,328.8867 95.85,329.1563 Q95.85,329.4141 95.5922,329.7188 Q95.2172,330.1641 94.6195,330.4102 Q93.8344,330.75 92.8734,330.75 Q91.7484,330.75 90.8461,330.3047 Q90.1195,329.9531 89.6039,329.1914 Q89.1,328.4297 89.1,327.5273 L89.1,326.707 Q89.1,325.7695 89.5453,324.9492 Q90.0023,324.1289 90.7875,323.6953 Q91.5844,323.25 92.475,323.25 Q93.0141,323.25 93.4828,323.4375 Q93.9516,323.625 94.35,324 Z " fill="#000000"/><text fill="#000000" font-family="sans-serif" font-size="9" lengthAdjust="spacingAndGlyphs" textLength="72" x="108.15" y="330.3076">MySqlDAOFactory</text><line style="stroke:#A80036;stroke-width:1.125;" x1="60.75" x2="203.25" y1="338.625" y2="338.625"/><line style="stroke:#A80036;stroke-width:1.125;" x1="60.75" x2="203.25" y1="344.625" y2="344.625"/><ellipse cx="68.25" cy="352.875" fill="#84BE84" rx="2.25" ry="2.25" style="stroke:#038048;stroke-width:0.75;"/><text fill="#000000" font-family="sans-serif" font-size="8.25" lengthAdjust="spacingAndGlyphs" textLength="124.5" x="75" y="356.1892">createUserDAO(): MySqlUserDAO</text><!--MD5=[1cd8db0879aaec40804bcc790e5b2c15]
class PostGresUserDAO--><rect codeLine="78" fill="#FEFECE" filter="url(#fk7wxdjz6x0jv)" height="46.377" id="PostGresUserDAO" style="stroke:#A80036;stroke-width:1.125;" width="166.5" x="410.25" y="457.5"/><ellipse cx="451.3125" cy="469.5" fill="#ADD1B2" rx="8.25" ry="8.25" style="stroke:#A80036;stroke-width:0.75;"/><path d="M452.8125,466.875 Q452.9648,466.5 453.1406,466.3125 Q453.3164,466.125 453.5156,466.125 Q453.8672,466.125 454.0898,466.3359 Q454.3125,466.5469 454.3125,467.0391 L454.3125,468.2109 Q454.3125,468.7031 454.1016,468.9141 Q453.8906,469.125 453.5625,469.125 Q453.2695,469.125 453.082,468.9961 Q452.8945,468.8672 452.8125,468.5273 Q452.7773,468.293 452.6484,468.1641 Q452.4141,467.918 451.9922,467.7773 Q451.5703,467.625 451.1484,467.625 Q450.6211,467.625 450.1758,467.8359 Q449.7422,468.0469 449.4023,468.5156 Q449.0625,468.9844 449.0625,469.6289 L449.0625,470.3203 Q449.0625,471.0938 449.6953,471.6094 Q450.3281,472.125 451.4531,472.125 Q452.1211,472.125 452.5898,471.9727 Q452.8594,471.8906 453.1641,471.6211 Q453.3633,471.4688 453.4688,471.4219 Q453.5742,471.375 453.7031,471.375 Q453.9492,471.375 454.125,471.5742 Q454.3125,471.7617 454.3125,472.0313 Q454.3125,472.2891 454.0547,472.5938 Q453.6797,473.0391 453.082,473.2852 Q452.2969,473.625 451.3359,473.625 Q450.2109,473.625 449.3086,473.1797 Q448.582,472.8281 448.0664,472.0664 Q447.5625,471.3047 447.5625,470.4023 L447.5625,469.582 Q447.5625,468.6445 448.0078,467.8242 Q448.4648,467.0039 449.25,466.5703 Q450.0469,466.125 450.9375,466.125 Q451.4766,466.125 451.9453,466.3125 Q452.4141,466.5 452.8125,466.875 Z " fill="#000000"/><text fill="#000000" font-family="sans-serif" font-size="9" lengthAdjust="spacingAndGlyphs" textLength="78" x="466.6875" y="473.1826">PostGresUserDAO</text><line style="stroke:#A80036;stroke-width:1.125;" x1="411" x2="576" y1="481.5" y2="481.5"/><line style="stroke:#A80036;stroke-width:1.125;" x1="411" x2="576" y1="487.5" y2="487.5"/><rect fill="#F24D5C" height="4.5" style="stroke:#C82930;stroke-width:0.75;" width="4.5" x="416.25" y="493.5"/><text fill="#000000" font-family="sans-serif" font-size="8.25" lengthAdjust="spacingAndGlyphs" textLength="147" x="425.25" y="499.0642">PostGresUserDAO(): PostGresUserDAO</text><!--MD5=[c46ba0df7ad94e3a1ae057e9bcd6145a]
class PostGresDAOFactory--><rect codeLine="81" fill="#FEFECE" filter="url(#fk7wxdjz6x0jv)" height="46.377" id="PostGresDAOFactory" style="stroke:#A80036;stroke-width:1.125;" width="156" x="415.5" y="314.625"/><ellipse cx="447" cy="326.625" fill="#ADD1B2" rx="8.25" ry="8.25" style="stroke:#A80036;stroke-width:0.75;"/><path d="M448.5,324 Q448.6523,323.625 448.8281,323.4375 Q449.0039,323.25 449.2031,323.25 Q449.5547,323.25 449.7773,323.4609 Q450,323.6719 450,324.1641 L450,325.3359 Q450,325.8281 449.7891,326.0391 Q449.5781,326.25 449.25,326.25 Q448.957,326.25 448.7695,326.1211 Q448.582,325.9922 448.5,325.6523 Q448.4648,325.418 448.3359,325.2891 Q448.1016,325.043 447.6797,324.9023 Q447.2578,324.75 446.8359,324.75 Q446.3086,324.75 445.8633,324.9609 Q445.4297,325.1719 445.0898,325.6406 Q444.75,326.1094 444.75,326.7539 L444.75,327.4453 Q444.75,328.2188 445.3828,328.7344 Q446.0156,329.25 447.1406,329.25 Q447.8086,329.25 448.2773,329.0977 Q448.5469,329.0156 448.8516,328.7461 Q449.0508,328.5938 449.1563,328.5469 Q449.2617,328.5 449.3906,328.5 Q449.6367,328.5 449.8125,328.6992 Q450,328.8867 450,329.1563 Q450,329.4141 449.7422,329.7188 Q449.3672,330.1641 448.7695,330.4102 Q447.9844,330.75 447.0234,330.75 Q445.8984,330.75 444.9961,330.3047 Q444.2695,329.9531 443.7539,329.1914 Q443.25,328.4297 443.25,327.5273 L443.25,326.707 Q443.25,325.7695 443.6953,324.9492 Q444.1523,324.1289 444.9375,323.6953 Q445.7344,323.25 446.625,323.25 Q447.1641,323.25 447.6328,323.4375 Q448.1016,323.625 448.5,324 Z " fill="#000000"/><text fill="#000000" font-family="sans-serif" font-size="9" lengthAdjust="spacingAndGlyphs" textLength="87" x="462" y="330.3076">PostGresDAOFactory</text><line style="stroke:#A80036;stroke-width:1.125;" x1="416.25" x2="570.75" y1="338.625" y2="338.625"/><line style="stroke:#A80036;stroke-width:1.125;" x1="416.25" x2="570.75" y1="344.625" y2="344.625"/><ellipse cx="423.75" cy="352.875" fill="#84BE84" rx="2.25" ry="2.25" style="stroke:#038048;stroke-width:0.75;"/><text fill="#000000" font-family="sans-serif" font-size="8.25" lengthAdjust="spacingAndGlyphs" textLength="136.5" x="430.5" y="356.1892">createUserDAO(): PostGresUserDAO</text><!--MD5=[0b4e4b4980470ea387cc45de9bd14b5b]
class Application--><rect codeLine="19" fill="#FEFECE" filter="url(#fk7wxdjz6x0jv)" height="36" id="Application" style="stroke:#A80036;stroke-width:1.125;" width="69.75" x="1168.125" y="5.25"/><ellipse cx="1179.375" cy="17.25" fill="#A9DCDF" rx="8.25" ry="8.25" style="stroke:#A80036;stroke-width:0.75;"/><path d="M1180.6875,18.375 L1178.2148,18.375 L1177.8867,19.125 L1177.8867,19.125 L1178.2383,19.125 L1178.625,19.5938 L1178.625,19.875 L1178.625,20.1563 L1178.2383,20.625 L1177.8867,20.625 L1176.4688,20.625 L1176.0117,20.625 L1175.625,20.1563 L1175.625,19.875 L1175.625,19.5938 L1176.0117,19.125 L1176.4688,19.125 L1178.2031,14.625 L1177.5469,14.625 L1176.7617,14.625 L1176.375,14.1563 L1176.375,13.875 L1176.375,13.5938 L1176.7617,13.125 L1177.5469,13.125 L1180.3008,13.125 L1182.3164,19.125 L1182.7383,19.125 L1182.7383,19.125 L1183.125,19.5938 L1183.125,19.875 L1183.125,20.1563 L1182.7383,20.625 L1182.3164,20.625 L1180.8984,20.625 L1180.5117,20.625 L1180.125,20.1563 L1180.125,19.875 L1180.125,19.5938 L1180.5117,19.125 L1180.8984,19.125 L1180.8984,19.125 L1180.6875,18.375 Z M1180.2773,16.875 L1179.375,14.1914 L1178.6016,16.875 L1180.2773,16.875 Z " fill="#000000"/><text fill="#000000" font-family="sans-serif" font-size="9" font-style="italic" lengthAdjust="spacingAndGlyphs" textLength="45.75" x="1189.875" y="20.9326">Application</text><line style="stroke:#A80036;stroke-width:1.125;" x1="1168.875" x2="1237.125" y1="29.25" y2="29.25"/><line style="stroke:#A80036;stroke-width:1.125;" x1="1168.875" x2="1237.125" y1="35.25" y2="35.25"/><!--MD5=[e8172f745a1515efc280df036836745e]
reverse link SplitPay to ManageFriendsController--><path codeLine="88" d="M1232.4225,178.9875 C1257.54,209.82 1293.885,254.4375 1321.575,288.4275 " fill="none" id="SplitPay-backto-ManageFriendsController" style="stroke:#A80036;stroke-width:0.75;stroke-dasharray:7.0,7.0;"/><polygon fill="#A80036" points="1230.0225,176.0475,1231.9507,183.178,1232.3872,178.9579,1236.6073,179.3945,1230.0225,176.0475" style="stroke:#A80036;stroke-width:0.75;"/><text fill="#000000" font-family="sans-serif" font-size="9.75" lengthAdjust="spacingAndGlyphs" textLength="15.75" x="1259.25" y="214.1213">use</text><!--MD5=[0350cc34b9cffdc1d8ca38dc229940a0]
reverse link SplitPay to AddFriendController--><path codeLine="89" d="M1190.1975,179.715 C1178.325,213.8925 1160.7225,264.54 1148.715,299.0925 " fill="none" id="SplitPay-backto-AddFriendController" style="stroke:#A80036;stroke-width:0.75;stroke-dasharray:7.0,7.0;"/><polygon fill="#A80036" points="1191.4725,176.0475,1186.4183,181.4343,1190.2385,179.5886,1192.0842,183.4088,1191.4725,176.0475" style="stroke:#A80036;stroke-width:0.75;"/><text fill="#000000" font-family="sans-serif" font-size="9.75" lengthAdjust="spacingAndGlyphs" textLength="15.75" x="1181.25" y="214.1213">use</text><!--MD5=[76543e17675818cd8585b1633c3c4e0b]
link ManageFriendsController to NormalUserFacade--><path codeLine="90" d="M1283.565,387.045 C1270.74,393.7575 1257.3525,400.035 1244.25,405 C1159.0575,437.2575 1056.855,456.99 983.94,468.06 " fill="none" id="ManageFriendsController-to-NormalUserFacade" style="stroke:#A80036;stroke-width:0.75;stroke-dasharray:7.0,7.0;"/><polygon fill="#A80036" points="980.055,468.645,987.1759,470.6085,983.7634,468.0877,986.2842,464.6751,980.055,468.645" style="stroke:#A80036;stroke-width:0.75;"/><text fill="#000000" font-family="sans-serif" font-size="9.75" lengthAdjust="spacingAndGlyphs" textLength="15.75" x="1226.25" y="421.8713">use</text><!--MD5=[4ba1df03e6a857a8d6a9416b4e19ead8]
link AddFriendController to NormalUserFacade--><path codeLine="91" d="M1069.3725,376.5075 C1032.1725,397.83 986.04,424.26 949.71,445.0725 " fill="none" id="AddFriendController-to-NormalUserFacade" style="stroke:#A80036;stroke-width:0.75;stroke-dasharray:7.0,7.0;"/><polygon fill="#A80036" points="946.4475,446.9475,953.796,446.1981,949.7021,445.0847,950.8155,440.9907,946.4475,446.9475" style="stroke:#A80036;stroke-width:0.75;"/><text fill="#000000" font-family="sans-serif" font-size="9.75" lengthAdjust="spacingAndGlyphs" textLength="15.75" x="1005" y="421.8713">use</text><!--MD5=[38add4012e22041d0062975d04f99682]
reverse link User to NormalUser--><path codeLine="92" d="M714,402.2325 C714,419.7675 714,437.8875 714,452.22 " fill="none" id="User-backto-NormalUser" style="stroke:#A80036;stroke-width:0.75;"/><polygon fill="none" points="708.75,402.0825,714,387.0825,719.25,402.0825,708.75,402.0825" style="stroke:#A80036;stroke-width:0.75;"/><!--MD5=[b6b34d35169d4be5d3d02221f7f388a3]
reverse link UserDAO to MySqlUserDAO--><path codeLine="93" d="M242.9475,391.23 C214.6125,414.0525 182.9325,439.575 160.8375,457.3725 " fill="none" id="UserDAO-backto-MySqlUserDAO" style="stroke:#A80036;stroke-width:0.75;stroke-dasharray:7.0,7.0;"/><polygon fill="none" points="239.6625,387.135,254.64,381.81,246.255,395.31,239.6625,387.135" style="stroke:#A80036;stroke-width:0.75;"/><!--MD5=[b0ef7ae4e6e76483be6655ba95a3d49e]
reverse link UserDAO to PostGresUserDAO--><path codeLine="94" d="M376.7775,390.9225 C406.785,413.8275 440.4225,439.4925 463.8525,457.3725 " fill="none" id="UserDAO-backto-PostGresUserDAO" style="stroke:#A80036;stroke-width:0.75;stroke-dasharray:7.0,7.0;"/><polygon fill="none" points="373.575,395.085,364.8375,381.81,379.95,386.7375,373.575,395.085" style="stroke:#A80036;stroke-width:0.75;"/><!--MD5=[2244845d9532617fbdb71d141db8964f]
reverse link DAOFactory to MySqlDAOFactory--><path codeLine="95" d="M417.2175,149.3475 C355.4925,157.8525 268.9425,177.48 207,222.75 C174.6975,246.36 152.4225,288.4425 140.9775,314.445 " fill="none" id="DAOFactory-backto-MySqlDAOFactory" style="stroke:#A80036;stroke-width:0.75;"/><polygon fill="none" points="416.6025,144.135,432.15,147.4425,417.9375,154.5525,416.6025,144.135" style="stroke:#A80036;stroke-width:0.75;"/><!--MD5=[efaaed88910802c3b4f4747e6ac87bbc]
reverse link DAOFactory to PostGresDAOFactory--><path codeLine="96" d="M493.5,195.825 C493.5,234.705 493.5,285.585 493.5,314.4825 " fill="none" id="DAOFactory-backto-PostGresDAOFactory" style="stroke:#A80036;stroke-width:0.75;"/><polygon fill="none" points="488.25,195.7875,493.5,180.7875,498.75,195.7875,488.25,195.7875" style="stroke:#A80036;stroke-width:0.75;"/><!--MD5=[a9f4f1fea83a3055b8be1e1e8c9c5d32]
link MySqlDAOFactory to MySqlUserDAO--><path codeLine="97" d="M118.245,361.35 C109.5225,378.525 100.7475,402.7725 105.75,424.5 C108.0675,434.55 112.455,444.885 117.03,453.87 " fill="none" id="MySqlDAOFactory-to-MySqlUserDAO" style="stroke:#A80036;stroke-width:0.75;stroke-dasharray:7.0,7.0;"/><polygon fill="#A80036" points="118.86,457.3725,118.4023,450.0001,117.1276,454.0467,113.081,452.7719,118.86,457.3725" style="stroke:#A80036;stroke-width:0.75;"/><text fill="#000000" font-family="sans-serif" font-size="9.75" lengthAdjust="spacingAndGlyphs" textLength="32.25" x="106.5" y="421.8713">creates</text><!--MD5=[d4f15b838eaf0e9bfa308c2bb6a4702d]
link PostGresDAOFactory to PostGresUserDAO--><path codeLine="98" d="M493.5,361.3425 C493.5,386.4825 493.5,426.9675 493.5,453.525 " fill="none" id="PostGresDAOFactory-to-PostGresUserDAO" style="stroke:#A80036;stroke-width:0.75;stroke-dasharray:7.0,7.0;"/><polygon fill="#A80036" points="493.5,457.3425,496.5,450.5925,493.5,453.5925,490.5,450.5925,493.5,457.3425" style="stroke:#A80036;stroke-width:0.75;"/><text fill="#000000" font-family="sans-serif" font-size="9.75" lengthAdjust="spacingAndGlyphs" textLength="32.25" x="494.25" y="421.8713">creates</text><!--MD5=[2e6bea58ef6eaeaa614f1f7cffde608d]
reverse link DAOFactory to UserFacade--><path codeLine="99" d="M558.7425,148.2825 C618.4275,156.165 706.44,175.4775 767.25,222.75 C800.1075,248.295 820.185,294.675 829.17,319.815 " fill="none" id="DAOFactory-backto-UserFacade" style="stroke:#A80036;stroke-width:0.75;"/><polygon fill="#A80036" points="554.8575,147.78,561.167,151.6209,558.5765,148.2609,561.9365,145.6704,554.8575,147.78" style="stroke:#A80036;stroke-width:0.75;"/><text fill="#000000" font-family="sans-serif" font-size="9.75" lengthAdjust="spacingAndGlyphs" textLength="5.25" x="560.5559" y="145.8709">1</text><!--MD5=[e92dd04785eb7b8bd74eba6c7e5dd990]
reverse link UserDAO to UserFacade--><path codeLine="100" d="M330.8475,290.565 C348.1575,260.49 375.225,224.3025 411.375,208.3125 C446.205,192.9075 719.295,192.9075 754.125,208.3125 C799.7925,228.5175 821.925,289.215 830.415,319.815 " fill="none" id="UserDAO-backto-UserFacade" style="stroke:#A80036;stroke-width:0.75;"/><polygon fill="#A80036" points="328.995,293.8275,334.9409,289.4447,330.8497,290.5683,329.7262,286.4771,328.995,293.8275" style="stroke:#A80036;stroke-width:0.75;"/><text fill="#000000" font-family="sans-serif" font-size="9.75" lengthAdjust="spacingAndGlyphs" textLength="5.25" x="325.9534" y="285.8572">1</text><!--MD5=[797445813df1ac21c168d4c6e7662b07]
reverse link UserFacade to NormalUserFacade--><path codeLine="101" d="M846.8475,370.29 C855.5475,393.0825 867.27,423.7575 876.0975,446.8725 " fill="none" id="UserFacade-backto-NormalUserFacade" style="stroke:#A80036;stroke-width:0.75;"/><polygon fill="none" points="841.8225,371.85,841.3725,355.9575,851.625,368.1,841.8225,371.85" style="stroke:#A80036;stroke-width:0.75;"/><!--MD5=[759941070afa4a98c1123d455c11e7a3]
reverse link Application to SplitPay--><path codeLine="102" d="M1203,56.355 C1203,72.48 1203,91.9425 1203,108.18 " fill="none" id="Application-backto-SplitPay" style="stroke:#A80036;stroke-width:0.75;"/><polygon fill="none" points="1197.75,56.3175,1203,41.3175,1208.25,56.3175,1197.75,56.3175" style="stroke:#A80036;stroke-width:0.75;"/><!--MD5=[e39236ee6bf95c244af609ee5d6ae822]
@startuml

package controller{
    class ManageFriendsController{
        -friendsList: ListView
        -allStyleSetDefault(): void
        +goToAddFriendView(actionEvent:ActionEvent): void
        +goToHomeView(actionEvent:ActionEvent): void
        +deleteSelectedFriend(actionEvent:ActionEvent): void
        +initialize(): void
    }
    class AddFriendController{
        -credential: TextField
        -allStyleSetDefault(): void
        +goToHomeView(actionEvent:ActionEvent): void
        +addFriend(actionEvent:ActionEvent): void
    }
}

abstract class Application
package main{
    class SplitPay{
        {static} +window: Stage
        +start(stage:Stage): void
        {static} +main(String[]:args): void
    }
}

package core{
    package facade{
        abstract class UserFacade{
        }
        class NormalUserFacade{
            +addFriendByPhone(phone:String): void
            +addFriendByEmail(email:String): void
            +deleteFriendByPhone(user:NormalUser): void
        }
    }
    package model{
            class User{
                -id: String
                -email: String
                -phone: String
                -nickname: String
                -password: String
                -balance: Double
            }
            class NormalUser{
                -firstName: String
                -lastName: String
            }
        }
}

package persist{
    abstract class DAOFactory{
        #connection: Connection
        {static} +getConnection(): Connection
        +createUserDAO(): UserDAO
        -DAOFactory(): DAOFactory
    }
    package dao{
        package mysql{
            class MySqlUserDAO{
                -MySqlUserDAO(): MySqlUserDAO
            }
            class MySqlDAOFactory{
                +createUserDAO(): MySqlUserDAO
            }
        }
        interface UserDAO{
            +getConnection(): UserDAO
            +findUserByEmail(email:String): User
            +findUserByPhone(phone:String): User
            +getFriends(): Collection<User>
            +addFriend(user:User): void
        }
        package postgres{
            class PostGresUserDAO{
                -PostGresUserDAO(): PostGresUserDAO
            }
            class PostGresDAOFactory{
                +createUserDAO(): PostGresUserDAO
            }
        }
    }
}

ManageFriendsController .up.> SplitPay : use
AddFriendController .up.> SplitPay : use
ManageFriendsController ..> NormalUserFacade : use
AddFriendController .right.> NormalUserFacade : use
User <|- - NormalUser
UserDAO <|.. MySqlUserDAO
UserDAO <|.. PostGresUserDAO
DAOFactory <|-down- MySqlDAOFactory
DAOFactory <|-down- PostGresDAOFactory
MySqlDAOFactory .down.> MySqlUserDAO : creates
PostGresDAOFactory .down.> PostGresUserDAO : creates
UserFacade -up> "1" DAOFactory
UserFacade -up> "1" UserDAO
UserFacade <|- - NormalUserFacade
Application <|- - SplitPay
@enduml

PlantUML version 1.2020.23(Sun Dec 13 20:14:58 CET 2020)
(GPL source distribution)
Java Runtime: OpenJDK Runtime Environment
JVM: OpenJDK 64-Bit Server VM
Default Encoding: Cp1252
Language: fr
Country: FR
--></g></svg>