<?xml version="1.0" encoding="UTF-8" standalone="no"?><svg xmlns="http://www.w3.org/2000/svg" xmlns:xlink="http://www.w3.org/1999/xlink" contentScriptType="application/ecmascript" contentStyleType="text/css" height="977px" preserveAspectRatio="none" style="width:1015px;height:977px;" version="1.1" viewBox="0 0 1015 977" width="1015px" zoomAndPan="magnify"><defs><filter height="300%" id="f1g157srv1wqby" width="300%" x="-1" y="-1"><feGaussianBlur result="blurOut" stdDeviation="2.0"/><feColorMatrix in="blurOut" result="blurOut2" type="matrix" values="0 0 0 0 0 0 0 0 0 0 0 0 0 0 0 0 0 0 .4 0"/><feOffset dx="4.0" dy="4.0" in="blurOut2" result="blurOut3"/><feBlend in="SourceGraphic" in2="blurOut3" mode="normal"/></filter></defs><g><!--MD5=[8737fa1c2dfd8ac19a6b724ed539a806]
cluster transactionController--><polygon fill="#FFFFFF" filter="url(#f1g157srv1wqby)" points="290,6,464,6,471,28.2969,745,28.2969,745,102,290,102,290,6" style="stroke:#000000;stroke-width:1.5;"/><line style="stroke:#000000;stroke-width:1.5;" x1="290" x2="471" y1="28.2969" y2="28.2969"/><text fill="#000000" font-family="sans-serif" font-size="14" font-weight="bold" lengthAdjust="spacingAndGlyphs" textLength="168" x="294" y="20.9951">transactionController</text><!--MD5=[f9c58d90839a0c7c212d8c6553ac9eb7]
cluster transaction--><polygon fill="#FFFFFF" filter="url(#f1g157srv1wqby)" points="337,133,432,133,439,155.2969,739,155.2969,739,254,337,254,337,133" style="stroke:#000000;stroke-width:1.5;"/><line style="stroke:#000000;stroke-width:1.5;" x1="337" x2="439" y1="155.2969" y2="155.2969"/><text fill="#000000" font-family="sans-serif" font-size="14" font-weight="bold" lengthAdjust="spacingAndGlyphs" textLength="89" x="341" y="147.9951">transaction</text><!--MD5=[5622bc4ba3bf2be5d17935065b98c5f9]
cluster dao--><polygon fill="#FFFFFF" filter="url(#f1g157srv1wqby)" points="16,285,51,285,58,307.2969,998,307.2969,998,970,16,970,16,285" style="stroke:#000000;stroke-width:1.5;"/><line style="stroke:#000000;stroke-width:1.5;" x1="16" x2="58" y1="307.2969" y2="307.2969"/><text fill="#000000" font-family="sans-serif" font-size="14" font-weight="bold" lengthAdjust="spacingAndGlyphs" textLength="29" x="20" y="299.9951">dao</text><!--MD5=[40f389b860e50d90baaf5de832b1264d]
cluster mysql--><polygon fill="#FFFFFF" filter="url(#f1g157srv1wqby)" points="24,499,76,499,83,521.2969,206,521.2969,206,962,24,962,24,499" style="stroke:#000000;stroke-width:1.5;"/><line style="stroke:#000000;stroke-width:1.5;" x1="24" x2="83" y1="521.2969" y2="521.2969"/><text fill="#000000" font-family="sans-serif" font-size="14" font-weight="bold" lengthAdjust="spacingAndGlyphs" textLength="46" x="28" y="513.9951">mysql</text><!--MD5=[bab4019c732006648757f54388533847]
cluster postgres--><polygon fill="#FFFFFF" filter="url(#f1g157srv1wqby)" points="226,499,303,499,310,521.2969,446,521.2969,446,962,226,962,226,499" style="stroke:#000000;stroke-width:1.5;"/><line style="stroke:#000000;stroke-width:1.5;" x1="226" x2="310" y1="521.2969" y2="521.2969"/><text fill="#000000" font-family="sans-serif" font-size="14" font-weight="bold" lengthAdjust="spacingAndGlyphs" textLength="71" x="230" y="513.9951">postgres</text><!--MD5=[60e66b6b1c917d2498b06fdf109d1631]
class RefillMoneyInputController--><rect codeLine="3" fill="#FEFECE" filter="url(#f1g157srv1wqby)" height="60.8047" id="RefillMoneyInputController" style="stroke:#A80036;stroke-width:1.5;" width="194" x="298" y="33"/><ellipse cx="313" cy="49" fill="#ADD1B2" rx="11" ry="11" style="stroke:#A80036;stroke-width:1.0;"/><path d="M315.9688,54.6406 Q315.3906,54.9375 314.75,55.0781 Q314.1094,55.2344 313.4063,55.2344 Q310.9063,55.2344 309.5781,53.5938 Q308.2656,51.9375 308.2656,48.8125 Q308.2656,45.6875 309.5781,44.0313 Q310.9063,42.375 313.4063,42.375 Q314.1094,42.375 314.75,42.5313 Q315.4063,42.6875 315.9688,42.9844 L315.9688,45.7031 Q315.3438,45.125 314.75,44.8594 Q314.1563,44.5781 313.5313,44.5781 Q312.1875,44.5781 311.5,45.6563 Q310.8125,46.7188 310.8125,48.8125 Q310.8125,50.9063 311.5,51.9844 Q312.1875,53.0469 313.5313,53.0469 Q314.1563,53.0469 314.75,52.7813 Q315.3438,52.5 315.9688,51.9219 L315.9688,54.6406 Z " fill="#000000"/><text fill="#000000" font-family="sans-serif" font-size="12" lengthAdjust="spacingAndGlyphs" textLength="162" x="327" y="53.1543">RefillMoneyInputController</text><line style="stroke:#A80036;stroke-width:1.5;" x1="299" x2="491" y1="65" y2="65"/><line style="stroke:#A80036;stroke-width:1.5;" x1="299" x2="491" y1="73" y2="73"/><ellipse cx="309" cy="84" fill="#84BE84" rx="3" ry="3" style="stroke:#038048;stroke-width:1.0;"/><text fill="#000000" font-family="sans-serif" font-size="11" lengthAdjust="spacingAndGlyphs" textLength="78" x="318" y="87.2104">refillBalance()</text><!--MD5=[654e971133a8f260282226228e23b48a]
class pullOutMoneyInputController--><rect codeLine="6" fill="#FEFECE" filter="url(#f1g157srv1wqby)" height="60.8047" id="pullOutMoneyInputController" style="stroke:#A80036;stroke-width:1.5;" width="209" x="527.5" y="33"/><ellipse cx="542.5" cy="49" fill="#ADD1B2" rx="11" ry="11" style="stroke:#A80036;stroke-width:1.0;"/><path d="M545.4688,54.6406 Q544.8906,54.9375 544.25,55.0781 Q543.6094,55.2344 542.9063,55.2344 Q540.4063,55.2344 539.0781,53.5938 Q537.7656,51.9375 537.7656,48.8125 Q537.7656,45.6875 539.0781,44.0313 Q540.4063,42.375 542.9063,42.375 Q543.6094,42.375 544.25,42.5313 Q544.9063,42.6875 545.4688,42.9844 L545.4688,45.7031 Q544.8438,45.125 544.25,44.8594 Q543.6563,44.5781 543.0313,44.5781 Q541.6875,44.5781 541,45.6563 Q540.3125,46.7188 540.3125,48.8125 Q540.3125,50.9063 541,51.9844 Q541.6875,53.0469 543.0313,53.0469 Q543.6563,53.0469 544.25,52.7813 Q544.8438,52.5 545.4688,51.9219 L545.4688,54.6406 Z " fill="#000000"/><text fill="#000000" font-family="sans-serif" font-size="12" lengthAdjust="spacingAndGlyphs" textLength="177" x="556.5" y="53.1543">pullOutMoneyInputController</text><line style="stroke:#A80036;stroke-width:1.5;" x1="528.5" x2="735.5" y1="65" y2="65"/><line style="stroke:#A80036;stroke-width:1.5;" x1="528.5" x2="735.5" y1="73" y2="73"/><ellipse cx="538.5" cy="84" fill="#84BE84" rx="3" ry="3" style="stroke:#038048;stroke-width:1.0;"/><text fill="#000000" font-family="sans-serif" font-size="11" lengthAdjust="spacingAndGlyphs" textLength="84" x="547.5" y="87.2104">pullOutMoney()</text><!--MD5=[73e1e2b7d5870e3c423ec75e997fa891]
class TransactionFaçade--><rect codeLine="12" fill="#FEFECE" filter="url(#f1g157srv1wqby)" height="86.4141" id="TransactionFaçade" style="stroke:#A80036;stroke-width:1.5;" width="385" x="345.5" y="160"/><ellipse cx="473.75" cy="176" fill="#ADD1B2" rx="11" ry="11" style="stroke:#A80036;stroke-width:1.0;"/><path d="M476.7188,181.6406 Q476.1406,181.9375 475.5,182.0781 Q474.8594,182.2344 474.1563,182.2344 Q471.6563,182.2344 470.3281,180.5938 Q469.0156,178.9375 469.0156,175.8125 Q469.0156,172.6875 470.3281,171.0313 Q471.6563,169.375 474.1563,169.375 Q474.8594,169.375 475.5,169.5313 Q476.1563,169.6875 476.7188,169.9844 L476.7188,172.7031 Q476.0938,172.125 475.5,171.8594 Q474.9063,171.5781 474.2813,171.5781 Q472.9375,171.5781 472.25,172.6563 Q471.5625,173.7188 471.5625,175.8125 Q471.5625,177.9063 472.25,178.9844 Q472.9375,180.0469 474.2813,180.0469 Q474.9063,180.0469 475.5,179.7813 Q476.0938,179.5 476.7188,178.9219 L476.7188,181.6406 Z " fill="#000000"/><text fill="#000000" font-family="sans-serif" font-size="12" lengthAdjust="spacingAndGlyphs" textLength="120" x="494.25" y="180.1543">TransactionFaçade</text><line style="stroke:#A80036;stroke-width:1.5;" x1="346.5" x2="729.5" y1="192" y2="192"/><line style="stroke:#A80036;stroke-width:1.5;" x1="346.5" x2="729.5" y1="200" y2="200"/><ellipse cx="356.5" cy="211" fill="#84BE84" rx="3" ry="3" style="stroke:#038048;stroke-width:1.0;"/><text fill="#000000" font-family="sans-serif" font-size="11" lengthAdjust="spacingAndGlyphs" textLength="193" x="365.5" y="214.2104">getInstance() : TransactionFaçade</text><ellipse cx="356.5" cy="223.8047" fill="#84BE84" rx="3" ry="3" style="stroke:#038048;stroke-width:1.0;"/><text fill="#000000" font-family="sans-serif" font-size="11" lengthAdjust="spacingAndGlyphs" textLength="282" x="365.5" y="227.0151">refillBalance(CreditCard creditcard, Float amount)</text><ellipse cx="356.5" cy="236.6094" fill="#84BE84" rx="3" ry="3" style="stroke:#038048;stroke-width:1.0;"/><text fill="#000000" font-family="sans-serif" font-size="11" lengthAdjust="spacingAndGlyphs" textLength="359" x="365.5" y="239.8198">pullOutMoneyFromAccount(BankAccount account, Float amount)</text><!--MD5=[4a0300a6597e068a69ac5dc42e345e2c]
class DAOFactory--><rect codeLine="22" fill="#FEFECE" filter="url(#f1g157srv1wqby)" height="86.4141" id="DAOFactory" style="stroke:#A80036;stroke-width:1.5;" width="260" x="206" y="312"/><ellipse cx="295.75" cy="328" fill="#ADD1B2" rx="11" ry="11" style="stroke:#A80036;stroke-width:1.0;"/><path d="M298.7188,333.6406 Q298.1406,333.9375 297.5,334.0781 Q296.8594,334.2344 296.1563,334.2344 Q293.6563,334.2344 292.3281,332.5938 Q291.0156,330.9375 291.0156,327.8125 Q291.0156,324.6875 292.3281,323.0313 Q293.6563,321.375 296.1563,321.375 Q296.8594,321.375 297.5,321.5313 Q298.1563,321.6875 298.7188,321.9844 L298.7188,324.7031 Q298.0938,324.125 297.5,323.8594 Q296.9063,323.5781 296.2813,323.5781 Q294.9375,323.5781 294.25,324.6563 Q293.5625,325.7188 293.5625,327.8125 Q293.5625,329.9063 294.25,330.9844 Q294.9375,332.0469 296.2813,332.0469 Q296.9063,332.0469 297.5,331.7813 Q298.0938,331.5 298.7188,330.9219 L298.7188,333.6406 Z " fill="#000000"/><text fill="#000000" font-family="sans-serif" font-size="12" lengthAdjust="spacingAndGlyphs" textLength="72" x="316.25" y="332.1543">DAOFactory</text><line style="stroke:#A80036;stroke-width:1.5;" x1="207" x2="465" y1="344" y2="344"/><polygon fill="none" points="217,350,221,354,217,358,213,354" style="stroke:#B38D22;stroke-width:1.0;"/><text fill="#000000" font-family="sans-serif" font-size="11" lengthAdjust="spacingAndGlyphs" text-decoration="underline" textLength="136" x="226" y="358.2104">connection : Connection</text><line style="stroke:#A80036;stroke-width:1.5;" x1="207" x2="465" y1="364.8047" y2="364.8047"/><ellipse cx="217" cy="375.8047" fill="#84BE84" rx="3" ry="3" style="stroke:#038048;stroke-width:1.0;"/><text fill="#000000" font-family="sans-serif" font-size="11" lengthAdjust="spacingAndGlyphs" textLength="234" x="226" y="379.0151">createTransactionDao() : TransactionDao</text><ellipse cx="217" cy="388.6094" fill="#84BE84" rx="3" ry="3" style="stroke:#038048;stroke-width:1.0;"/><text fill="#000000" font-family="sans-serif" font-size="11" lengthAdjust="spacingAndGlyphs" text-decoration="underline" textLength="164" x="226" y="391.8198">getConnection() : Connection</text><!--MD5=[3a6eab5b2414aa53c0b74b8f29c4c326]
class TransactionDAO--><rect codeLine="43" fill="#FEFECE" filter="url(#f1g157srv1wqby)" height="86.4141" id="TransactionDAO" style="stroke:#A80036;stroke-width:1.5;" width="535" x="454.5" y="697"/><ellipse cx="667.75" cy="713" fill="#ADD1B2" rx="11" ry="11" style="stroke:#A80036;stroke-width:1.0;"/><path d="M670.7188,718.6406 Q670.1406,718.9375 669.5,719.0781 Q668.8594,719.2344 668.1563,719.2344 Q665.6563,719.2344 664.3281,717.5938 Q663.0156,715.9375 663.0156,712.8125 Q663.0156,709.6875 664.3281,708.0313 Q665.6563,706.375 668.1563,706.375 Q668.8594,706.375 669.5,706.5313 Q670.1563,706.6875 670.7188,706.9844 L670.7188,709.7031 Q670.0938,709.125 669.5,708.8594 Q668.9063,708.5781 668.2813,708.5781 Q666.9375,708.5781 666.25,709.6563 Q665.5625,710.7188 665.5625,712.8125 Q665.5625,714.9063 666.25,715.9844 Q666.9375,717.0469 668.2813,717.0469 Q668.9063,717.0469 669.5,716.7813 Q670.0938,716.5 670.7188,715.9219 L670.7188,718.6406 Z " fill="#000000"/><text fill="#000000" font-family="sans-serif" font-size="12" lengthAdjust="spacingAndGlyphs" textLength="100" x="688.25" y="717.1543">TransactionDAO</text><line style="stroke:#A80036;stroke-width:1.5;" x1="455.5" x2="988.5" y1="729" y2="729"/><line style="stroke:#A80036;stroke-width:1.5;" x1="455.5" x2="988.5" y1="737" y2="737"/><ellipse cx="465.5" cy="748" fill="#84BE84" rx="3" ry="3" style="stroke:#038048;stroke-width:1.0;"/><text fill="#000000" font-family="sans-serif" font-size="11" lengthAdjust="spacingAndGlyphs" textLength="164" x="474.5" y="751.2104">getConnection() : Connection</text><ellipse cx="465.5" cy="760.8047" fill="#84BE84" rx="3" ry="3" style="stroke:#038048;stroke-width:1.0;"/><text fill="#000000" font-family="sans-serif" font-size="11" lengthAdjust="spacingAndGlyphs" textLength="509" x="474.5" y="764.0151">createBankAccountToUserTransactiont(CreditCard creditCard, Float amount): Transaction</text><ellipse cx="465.5" cy="773.6094" fill="#84BE84" rx="3" ry="3" style="stroke:#038048;stroke-width:1.0;"/><text fill="#000000" font-family="sans-serif" font-size="11" lengthAdjust="spacingAndGlyphs" textLength="505" x="474.5" y="776.8198">createUserToBankAccountTransactiont(BankAccount account, Float amount): Transaction</text><!--MD5=[0e2e921ab886777c70e16ce5f6b9950f]
class MySqlDAOFactory--><rect codeLine="29" fill="#FEFECE" filter="url(#f1g157srv1wqby)" height="48" id="MySqlDAOFactory" style="stroke:#A80036;stroke-width:1.5;" width="139" x="54.5" y="526"/><ellipse cx="69.5" cy="542" fill="#ADD1B2" rx="11" ry="11" style="stroke:#A80036;stroke-width:1.0;"/><path d="M72.4688,547.6406 Q71.8906,547.9375 71.25,548.0781 Q70.6094,548.2344 69.9063,548.2344 Q67.4063,548.2344 66.0781,546.5938 Q64.7656,544.9375 64.7656,541.8125 Q64.7656,538.6875 66.0781,537.0313 Q67.4063,535.375 69.9063,535.375 Q70.6094,535.375 71.25,535.5313 Q71.9063,535.6875 72.4688,535.9844 L72.4688,538.7031 Q71.8438,538.125 71.25,537.8594 Q70.6563,537.5781 70.0313,537.5781 Q68.6875,537.5781 68,538.6563 Q67.3125,539.7188 67.3125,541.8125 Q67.3125,543.9063 68,544.9844 Q68.6875,546.0469 70.0313,546.0469 Q70.6563,546.0469 71.25,545.7813 Q71.8438,545.5 72.4688,544.9219 L72.4688,547.6406 Z " fill="#000000"/><text fill="#000000" font-family="sans-serif" font-size="12" lengthAdjust="spacingAndGlyphs" textLength="107" x="83.5" y="546.1543">MySqlDAOFactory</text><line style="stroke:#A80036;stroke-width:1.5;" x1="55.5" x2="192.5" y1="558" y2="558"/><line style="stroke:#A80036;stroke-width:1.5;" x1="55.5" x2="192.5" y1="566" y2="566"/><!--MD5=[a3f7ff5ac8c6e20d20d0eac371cbe13b]
class MySqlTransactionDAO--><rect codeLine="30" fill="#FEFECE" filter="url(#f1g157srv1wqby)" height="48" id="MySqlTransactionDAO" style="stroke:#A80036;stroke-width:1.5;" width="167" x="31.5" y="906"/><ellipse cx="46.5" cy="922" fill="#ADD1B2" rx="11" ry="11" style="stroke:#A80036;stroke-width:1.0;"/><path d="M49.4688,927.6406 Q48.8906,927.9375 48.25,928.0781 Q47.6094,928.2344 46.9063,928.2344 Q44.4063,928.2344 43.0781,926.5938 Q41.7656,924.9375 41.7656,921.8125 Q41.7656,918.6875 43.0781,917.0313 Q44.4063,915.375 46.9063,915.375 Q47.6094,915.375 48.25,915.5313 Q48.9063,915.6875 49.4688,915.9844 L49.4688,918.7031 Q48.8438,918.125 48.25,917.8594 Q47.6563,917.5781 47.0313,917.5781 Q45.6875,917.5781 45,918.6563 Q44.3125,919.7188 44.3125,921.8125 Q44.3125,923.9063 45,924.9844 Q45.6875,926.0469 47.0313,926.0469 Q47.6563,926.0469 48.25,925.7813 Q48.8438,925.5 49.4688,924.9219 L49.4688,927.6406 Z " fill="#000000"/><text fill="#000000" font-family="sans-serif" font-size="12" lengthAdjust="spacingAndGlyphs" textLength="135" x="60.5" y="926.1543">MySqlTransactionDAO</text><line style="stroke:#A80036;stroke-width:1.5;" x1="32.5" x2="197.5" y1="938" y2="938"/><line style="stroke:#A80036;stroke-width:1.5;" x1="32.5" x2="197.5" y1="946" y2="946"/><!--MD5=[53d91c5c39126efc6a9a0f5f529438be]
class MyPostGresDAOFactory--><rect codeLine="36" fill="#FEFECE" filter="url(#f1g157srv1wqby)" height="48" id="MyPostGresDAOFactory" style="stroke:#A80036;stroke-width:1.5;" width="177" x="247.5" y="526"/><ellipse cx="262.5" cy="542" fill="#ADD1B2" rx="11" ry="11" style="stroke:#A80036;stroke-width:1.0;"/><path d="M265.4688,547.6406 Q264.8906,547.9375 264.25,548.0781 Q263.6094,548.2344 262.9063,548.2344 Q260.4063,548.2344 259.0781,546.5938 Q257.7656,544.9375 257.7656,541.8125 Q257.7656,538.6875 259.0781,537.0313 Q260.4063,535.375 262.9063,535.375 Q263.6094,535.375 264.25,535.5313 Q264.9063,535.6875 265.4688,535.9844 L265.4688,538.7031 Q264.8438,538.125 264.25,537.8594 Q263.6563,537.5781 263.0313,537.5781 Q261.6875,537.5781 261,538.6563 Q260.3125,539.7188 260.3125,541.8125 Q260.3125,543.9063 261,544.9844 Q261.6875,546.0469 263.0313,546.0469 Q263.6563,546.0469 264.25,545.7813 Q264.8438,545.5 265.4688,544.9219 L265.4688,547.6406 Z " fill="#000000"/><text fill="#000000" font-family="sans-serif" font-size="12" lengthAdjust="spacingAndGlyphs" textLength="145" x="276.5" y="546.1543">MyPostGresDAOFactory</text><line style="stroke:#A80036;stroke-width:1.5;" x1="248.5" x2="423.5" y1="558" y2="558"/><line style="stroke:#A80036;stroke-width:1.5;" x1="248.5" x2="423.5" y1="566" y2="566"/><!--MD5=[bf804b7c3924d30ddf1ffe8c3deadb2b]
class MyPostGresTransactionDAO--><rect codeLine="37" fill="#FEFECE" filter="url(#f1g157srv1wqby)" height="48" id="MyPostGresTransactionDAO" style="stroke:#A80036;stroke-width:1.5;" width="205" x="233.5" y="906"/><ellipse cx="248.5" cy="922" fill="#ADD1B2" rx="11" ry="11" style="stroke:#A80036;stroke-width:1.0;"/><path d="M251.4688,927.6406 Q250.8906,927.9375 250.25,928.0781 Q249.6094,928.2344 248.9063,928.2344 Q246.4063,928.2344 245.0781,926.5938 Q243.7656,924.9375 243.7656,921.8125 Q243.7656,918.6875 245.0781,917.0313 Q246.4063,915.375 248.9063,915.375 Q249.6094,915.375 250.25,915.5313 Q250.9063,915.6875 251.4688,915.9844 L251.4688,918.7031 Q250.8438,918.125 250.25,917.8594 Q249.6563,917.5781 249.0313,917.5781 Q247.6875,917.5781 247,918.6563 Q246.3125,919.7188 246.3125,921.8125 Q246.3125,923.9063 247,924.9844 Q247.6875,926.0469 249.0313,926.0469 Q249.6563,926.0469 250.25,925.7813 Q250.8438,925.5 251.4688,924.9219 L251.4688,927.6406 Z " fill="#000000"/><text fill="#000000" font-family="sans-serif" font-size="12" lengthAdjust="spacingAndGlyphs" textLength="173" x="262.5" y="926.1543">MyPostGresTransactionDAO</text><line style="stroke:#A80036;stroke-width:1.5;" x1="234.5" x2="437.5" y1="938" y2="938"/><line style="stroke:#A80036;stroke-width:1.5;" x1="234.5" x2="437.5" y1="946" y2="946"/><!--MD5=[097dfe273c81c4a0248440e11a8351b4]
link MySqlDAOFactory to MySqlTransactionDAO--><path codeLine="32" d="M121.3858,574.2918 C119.7689,591.3873 118,614.8164 118,635.5 C118,635.5 118,635.5 118,844.5 C118,863.0487 117.2861,883.847 116.5548,900.286 " fill="none" id="MySqlDAOFactory-to-MySqlTransactionDAO" style="stroke:#A80036;stroke-width:1.0;stroke-dasharray:7.0,7.0;"/><polygon fill="#A80036" points="116.3071,905.6843,120.7156,896.8772,116.5364,900.6896,112.724,896.5103,116.3071,905.6843" style="stroke:#A80036;stroke-width:1.0;"/><text fill="#000000" font-family="sans-serif" font-size="13" lengthAdjust="spacingAndGlyphs" textLength="48" x="119" y="744.5669">creates</text><!--MD5=[93f8a2cc8e798d8760e85248b489e64b]
link MyPostGresDAOFactory to MyPostGresTransactionDAO--><path codeLine="39" d="M336,574.3236 C336,591.4336 336,614.8672 336,635.5 C336,635.5 336,635.5 336,844.5 C336,863.0373 336,883.8353 336,900.277 " fill="none" id="MyPostGresDAOFactory-to-MyPostGresTransactionDAO" style="stroke:#A80036;stroke-width:1.0;stroke-dasharray:7.0,7.0;"/><polygon fill="#A80036" points="336,905.6764,340,896.6764,336,900.6764,332,896.6764,336,905.6764" style="stroke:#A80036;stroke-width:1.0;"/><text fill="#000000" font-family="sans-serif" font-size="13" lengthAdjust="spacingAndGlyphs" textLength="48" x="337" y="744.5669">creates</text><!--MD5=[2244845d9532617fbdb71d141db8964f]
reverse link DAOFactory to MySqlDAOFactory--><path codeLine="49" d="M274.3215,411.7326 C233.1675,449.5865 181.1425,497.4396 150.3354,525.7764 " fill="none" id="DAOFactory-backto-MySqlDAOFactory" style="stroke:#A80036;stroke-width:1.0;"/><polygon fill="none" points="269.7543,406.4226,289.2133,398.035,279.2321,416.7266,269.7543,406.4226" style="stroke:#A80036;stroke-width:1.0;"/><!--MD5=[0cc072129a130e9263fe0de79ee87aa7]
reverse link DAOFactory to MyPostGresDAOFactory--><path codeLine="50" d="M336,418.2977 C336,455.0069 336,499.1232 336,525.8385 " fill="none" id="DAOFactory-backto-MyPostGresDAOFactory" style="stroke:#A80036;stroke-width:1.0;"/><polygon fill="none" points="329.0001,418.2769,336,398.2768,343.0001,418.2768,329.0001,418.2769" style="stroke:#A80036;stroke-width:1.0;"/><!--MD5=[6a568f99079ed5bb9f1a95e2d008cf5a]
reverse link TransactionDAO to MyPostGresTransactionDAO--><path codeLine="51" d="M652.3813,795.0193 C615.0978,822.3874 567.3968,854.1896 521,876 C495.2623,888.0989 466.2208,898.1166 438.9069,906.1013 " fill="none" id="TransactionDAO-backto-MyPostGresTransactionDAO" style="stroke:#A80036;stroke-width:1.0;"/><polygon fill="none" points="648.2584,789.3617,668.4732,783.0083,656.6326,800.581,648.2584,789.3617" style="stroke:#A80036;stroke-width:1.0;"/><!--MD5=[b86dedbb1f7166fb6e6a11f9add4bdd6]
reverse link TransactionDAO to MySqlTransactionDAO--><path codeLine="52" d="M565.0231,789.1361 C445.2386,826.6304 285.3898,876.6655 191.978,905.9047 " fill="none" id="TransactionDAO-backto-MySqlTransactionDAO" style="stroke:#A80036;stroke-width:1.0;"/><polygon fill="none" points="563.0844,782.4081,584.2623,783.1139,567.2666,795.7688,563.0844,782.4081" style="stroke:#A80036;stroke-width:1.0;"/><!--MD5=[5c228a8ae54cecea6f0e257263f7f070]
link RefillMoneyInputController to TransactionFaçade--><path codeLine="56" d="M426.382,94.1139 C445.0346,112.31 469.0731,135.7601 490.0618,156.2351 " fill="none" id="RefillMoneyInputController-to-TransactionFaçade" style="stroke:#A80036;stroke-width:1.0;stroke-dasharray:7.0,7.0;"/><polygon fill="#A80036" points="493.6722,159.7571,490.0229,150.6093,490.0931,156.2657,484.4367,156.3359,493.6722,159.7571" style="stroke:#A80036;stroke-width:1.0;"/><!--MD5=[906154ed3848027b70d93f25ea3d8ef3]
link pullOutMoneyInputController to TransactionFaçade--><path codeLine="57" d="M611.3713,94.1139 C599.2621,112.0844 583.6998,135.1795 570.0259,155.4722 " fill="none" id="pullOutMoneyInputController-to-TransactionFaçade" style="stroke:#A80036;stroke-width:1.0;stroke-dasharray:7.0,7.0;"/><polygon fill="#A80036" points="567.1386,159.7571,575.4851,154.5287,569.9326,155.6106,568.8507,150.0582,567.1386,159.7571" style="stroke:#A80036;stroke-width:1.0;"/><!--MD5=[d86b87f2c4109d00fc3fb4ba461987e8]
link TransactionFaçade to DAOFactory--><path codeLine="59" d="M480.6552,246.1505 C454.7473,265.6456 424.0939,288.7115 397.6883,308.5811 " fill="none" id="TransactionFaçade-to-DAOFactory" style="stroke:#A80036;stroke-width:1.0;"/><polygon fill="#A80036" points="393.4882,311.7416,403.0847,309.5263,397.4834,308.7352,398.2745,303.134,393.4882,311.7416" style="stroke:#A80036;stroke-width:1.0;"/><!--MD5=[6c03d9b99ea0fed87fe6060c9d3b644b]
link TransactionFaçade to TransactionDAO--><path codeLine="60" d="M576.1193,246.2851 C597.5331,275.0588 620,314.8214 620,355 C620,355 620,355 620,635.5 C620,658.0089 632.2688,677.4744 648.2963,693.3 " fill="none" id="TransactionFaçade-to-TransactionDAO" style="stroke:#A80036;stroke-width:1.0;"/><polygon fill="#A80036" points="651.9936,696.8279,648.2438,687.7208,648.3763,693.3761,642.7209,693.5086,651.9936,696.8279" style="stroke:#A80036;stroke-width:1.0;"/><!--MD5=[61b06ec16391cebb4b8858086244675b]
@startuml
package transactionController <<Folder>> {
  
  class RefillMoneyInputController{
    +refillBalance()
  }
  class pullOutMoneyInputController{
    +pullOutMoney()
  }
}

package transaction <<Folder>> {
  class TransactionFaçade {
    +getInstance() : TransactionFaçade
    +refillBalance(CreditCard creditcard, Float amount)
    +pullOutMoneyFromAccount(BankAccount account, Float amount)
  }
  
}

package dao <<Folder>> {

  class DAOFactory {
    #{static}connection : Connection
    +createTransactionDao() : TransactionDao
    +{static}getConnection() : Connection
  }

  package mysql <<Folder>> {
    class MySqlDAOFactory {}
    class MySqlTransactionDAO {}
    
    MySqlDAOFactory .down.> MySqlTransactionDAO : creates
  }
  
  package postgres <<Folder>> {
    class MyPostGresDAOFactory {}
    class MyPostGresTransactionDAO {}
    
    MyPostGresDAOFactory .down.> MyPostGresTransactionDAO : creates
  }
  
  
  class TransactionDAO {
    +getConnection() : Connection
    +createBankAccountToUserTransactiont(CreditCard creditCard, Float amount): Transaction
    +createUserToBankAccountTransactiont(BankAccount account, Float amount): Transaction
  }

  DAOFactory <|- - MySqlDAOFactory
  DAOFactory <|- - MyPostGresDAOFactory    
  TransactionDAO <|- - MyPostGresTransactionDAO
  TransactionDAO <|- - MySqlTransactionDAO

}

RefillMoneyInputController .down.> TransactionFaçade
pullOutMoneyInputController .down.> TransactionFaçade

TransactionFaçade -down-> DAOFactory
TransactionFaçade -down-> TransactionDAO
@enduml

PlantUML version 1.2020.22(Sun Dec 06 09:36:27 UTC 2020)
(GPL source distribution)
Java Runtime: OpenJDK Runtime Environment
JVM: OpenJDK 64-Bit Server VM
Default Encoding: UTF-8
Language: en
Country: US
--></g></svg>