<?xml version="1.0" encoding="UTF-8" standalone="no"?><svg xmlns="http://www.w3.org/2000/svg" xmlns:xlink="http://www.w3.org/1999/xlink" contentScriptType="application/ecmascript" contentStyleType="text/css" height="730px" preserveAspectRatio="none" style="width:1558px;height:730px;" version="1.1" viewBox="0 0 1558 730" width="1558px" zoomAndPan="magnify"><defs><filter height="300%" id="f1j02fx7xnk417" width="300%" x="-1" y="-1"><feGaussianBlur result="blurOut" stdDeviation="2.0"/><feColorMatrix in="blurOut" result="blurOut2" type="matrix" values="0 0 0 0 0 0 0 0 0 0 0 0 0 0 0 0 0 0 .4 0"/><feOffset dx="4.0" dy="4.0" in="blurOut2" result="blurOut3"/><feBlend in="SourceGraphic" in2="blurOut3" mode="normal"/></filter></defs><g><!--MD5=[64e2e010ba86d7988e5cd73bd64f61f9]
cluster ui--><polygon fill="#FFFFFF" filter="url(#f1j02fx7xnk417)" points="995,6,1014,6,1021,29.6094,1377,29.6094,1377,257,995,257,995,6" style="stroke:#000000;stroke-width:1.5;"/><line style="stroke:#000000;stroke-width:1.5;" x1="995" x2="1021" y1="29.6094" y2="29.6094"/><text fill="#000000" font-family="sans-serif" font-size="14" font-weight="bold" lengthAdjust="spacingAndGlyphs" textLength="13" x="999" y="22.5332">ui</text><!--MD5=[10ea673caf457862023e152271927b45]
cluster controller--><polygon fill="#FFFFFF" filter="url(#f1j02fx7xnk417)" points="1019,50,1094,50,1101,73.6094,1353,73.6094,1353,233,1019,233,1019,50" style="stroke:#000000;stroke-width:1.5;"/><line style="stroke:#000000;stroke-width:1.5;" x1="1019" x2="1101" y1="73.6094" y2="73.6094"/><text fill="#000000" font-family="sans-serif" font-size="14" font-weight="bold" lengthAdjust="spacingAndGlyphs" textLength="69" x="1023" y="66.5332">controller</text><!--MD5=[a70b0d373322012744ecc119c63f921b]
cluster main--><polygon fill="#FFFFFF" filter="url(#f1j02fx7xnk417)" points="1367,344,1406,344,1413,367.6094,1541,367.6094,1541,486,1367,486,1367,344" style="stroke:#000000;stroke-width:1.5;"/><line style="stroke:#000000;stroke-width:1.5;" x1="1367" x2="1413" y1="367.6094" y2="367.6094"/><text fill="#000000" font-family="sans-serif" font-size="14" font-weight="bold" lengthAdjust="spacingAndGlyphs" textLength="33" x="1371" y="360.5332">main</text><!--MD5=[01435ace8273dc3cae88e7f376e4d373]
cluster core--><polygon fill="#FFFFFF" filter="url(#f1j02fx7xnk417)" points="945,307,983,307,990,330.6094,1343,330.6094,1343,719.5,945,719.5,945,307" style="stroke:#000000;stroke-width:1.5;"/><line style="stroke:#000000;stroke-width:1.5;" x1="945" x2="990" y1="330.6094" y2="330.6094"/><text fill="#000000" font-family="sans-serif" font-size="14" font-weight="bold" lengthAdjust="spacingAndGlyphs" textLength="32" x="949" y="323.5332">core</text><!--MD5=[5d4cd377749310b66bf14896f5cd8d9b]
cluster model--><polygon fill="#FFFFFF" filter="url(#f1j02fx7xnk417)" points="1076,540.5,1125,540.5,1132,564.1094,1212,564.1094,1212,695.5,1076,695.5,1076,540.5" style="stroke:#000000;stroke-width:1.5;"/><line style="stroke:#000000;stroke-width:1.5;" x1="1076" x2="1132" y1="564.1094" y2="564.1094"/><text fill="#000000" font-family="sans-serif" font-size="14" font-weight="bold" lengthAdjust="spacingAndGlyphs" textLength="43" x="1080" y="557.0332">model</text><!--MD5=[73a39ff06bfd21a4a8df8317230e2ab5]
cluster facade--><polygon fill="#FFFFFF" filter="url(#f1j02fx7xnk417)" points="969,351,1022,351,1029,374.6094,1319,374.6094,1319,479,969,479,969,351" style="stroke:#000000;stroke-width:1.5;"/><line style="stroke:#000000;stroke-width:1.5;" x1="969" x2="1029" y1="374.6094" y2="374.6094"/><text fill="#000000" font-family="sans-serif" font-size="14" font-weight="bold" lengthAdjust="spacingAndGlyphs" textLength="47" x="973" y="367.5332">facade</text><!--MD5=[b029f845b51cf56217b35290d941b161]
cluster persist--><polygon fill="#FFFFFF" filter="url(#f1j02fx7xnk417)" points="16,64,71,64,78,87.6094,921,87.6094,921,723,16,723,16,64" style="stroke:#000000;stroke-width:1.5;"/><line style="stroke:#000000;stroke-width:1.5;" x1="16" x2="78" y1="87.6094" y2="87.6094"/><text fill="#000000" font-family="sans-serif" font-size="14" font-weight="bold" lengthAdjust="spacingAndGlyphs" textLength="49" x="20" y="80.5332">persist</text><!--MD5=[5622bc4ba3bf2be5d17935065b98c5f9]
cluster dao--><polygon fill="#FFFFFF" filter="url(#f1j02fx7xnk417)" points="40,314,72,314,79,337.6094,897,337.6094,897,699,40,699,40,314" style="stroke:#000000;stroke-width:1.5;"/><line style="stroke:#000000;stroke-width:1.5;" x1="40" x2="79" y1="337.6094" y2="337.6094"/><text fill="#000000" font-family="sans-serif" font-size="14" font-weight="bold" lengthAdjust="spacingAndGlyphs" textLength="26" x="44" y="330.5332">dao</text><!--MD5=[40f389b860e50d90baaf5de832b1264d]
cluster mysql--><polygon fill="#FFFFFF" filter="url(#f1j02fx7xnk417)" points="64,358,110,358,117,381.6094,288,381.6094,288,675,64,675,64,358" style="stroke:#000000;stroke-width:1.5;"/><line style="stroke:#000000;stroke-width:1.5;" x1="64" x2="117" y1="381.6094" y2="381.6094"/><text fill="#000000" font-family="sans-serif" font-size="14" font-weight="bold" lengthAdjust="spacingAndGlyphs" textLength="40" x="68" y="374.5332">mysql</text><!--MD5=[bab4019c732006648757f54388533847]
cluster postgres--><polygon fill="#FFFFFF" filter="url(#f1j02fx7xnk417)" points="619,358,688,358,695,381.6094,873,381.6094,873,675,619,675,619,358" style="stroke:#000000;stroke-width:1.5;"/><line style="stroke:#000000;stroke-width:1.5;" x1="619" x2="695" y1="381.6094" y2="381.6094"/><text fill="#000000" font-family="sans-serif" font-size="14" font-weight="bold" lengthAdjust="spacingAndGlyphs" textLength="63" x="623" y="374.5332">postgres</text><!--MD5=[2f7fd21064240fb8aa75b23459603f41]
class NotificationController--><rect codeLine="4" fill="#FEFECE" filter="url(#f1j02fx7xnk417)" height="131.0156" id="NotificationController" style="stroke:#A80036;stroke-width:1.5;" width="301" x="1035.5" y="86"/><ellipse cx="1124.25" cy="102" fill="#ADD1B2" rx="11" ry="11" style="stroke:#A80036;stroke-width:1.0;"/><path d="M1126.25,98.5 Q1126.4531,98 1126.6875,97.75 Q1126.9219,97.5 1127.1875,97.5 Q1127.6563,97.5 1127.9531,97.7813 Q1128.25,98.0625 1128.25,98.7188 L1128.25,100.2813 Q1128.25,100.9375 1127.9688,101.2188 Q1127.6875,101.5 1127.25,101.5 Q1126.8594,101.5 1126.6094,101.3281 Q1126.3594,101.1563 1126.25,100.7031 Q1126.2031,100.3906 1126.0313,100.2188 Q1125.7188,99.8906 1125.1563,99.7031 Q1124.5938,99.5 1124.0313,99.5 Q1123.3281,99.5 1122.7344,99.7813 Q1122.1563,100.0625 1121.7031,100.6875 Q1121.25,101.3125 1121.25,102.1719 L1121.25,103.0938 Q1121.25,104.125 1122.0938,104.8125 Q1122.9375,105.5 1124.4375,105.5 Q1125.3281,105.5 1125.9531,105.2969 Q1126.3125,105.1875 1126.7188,104.8281 Q1126.9844,104.625 1127.125,104.5625 Q1127.2656,104.5 1127.4375,104.5 Q1127.7656,104.5 1128,104.7656 Q1128.25,105.0156 1128.25,105.375 Q1128.25,105.7188 1127.9063,106.125 Q1127.4063,106.7188 1126.6094,107.0469 Q1125.5625,107.5 1124.2813,107.5 Q1122.7813,107.5 1121.5781,106.9063 Q1120.6094,106.4375 1119.9219,105.4219 Q1119.25,104.4063 1119.25,103.2031 L1119.25,102.1094 Q1119.25,100.8594 1119.8438,99.7656 Q1120.4531,98.6719 1121.5,98.0938 Q1122.5625,97.5 1123.75,97.5 Q1124.4688,97.5 1125.0938,97.75 Q1125.7188,98 1126.25,98.5 Z " fill="#000000"/><text fill="#000000" font-family="sans-serif" font-size="12" lengthAdjust="spacingAndGlyphs" textLength="115" x="1144.75" y="106.9102">NotificationController</text><line style="stroke:#A80036;stroke-width:1.5;" x1="1036.5" x2="1335.5" y1="118" y2="118"/><rect fill="none" height="6" style="stroke:#C82930;stroke-width:1.0;" width="6" x="1043.5" y="126"/><text fill="#000000" font-family="sans-serif" font-size="11" lengthAdjust="spacingAndGlyphs" textLength="118" x="1055.5" y="133.4189">notificationList: ListView</text><line style="stroke:#A80036;stroke-width:1.5;" x1="1036.5" x2="1335.5" y1="139.8359" y2="139.8359"/><rect fill="#F24D5C" height="6" style="stroke:#C82930;stroke-width:1.0;" width="6" x="1043.5" y="147.8359"/><text fill="#000000" font-family="sans-serif" font-size="11" lengthAdjust="spacingAndGlyphs" textLength="118" x="1055.5" y="155.2549">allStyleSetDefault(): void</text><ellipse cx="1046.5" cy="164.6719" fill="#84BE84" rx="3" ry="3" style="stroke:#038048;stroke-width:1.0;"/><text fill="#000000" font-family="sans-serif" font-size="11" lengthAdjust="spacingAndGlyphs" textLength="228" x="1055.5" y="169.0908">goToHomeView(actionEvent:ActionEvent): void</text><ellipse cx="1046.5" cy="178.5078" fill="#84BE84" rx="3" ry="3" style="stroke:#038048;stroke-width:1.0;"/><text fill="#000000" font-family="sans-serif" font-size="11" lengthAdjust="spacingAndGlyphs" textLength="221" x="1055.5" y="182.9268">goToSplitView(actionEvent:ActionEvent): void</text><ellipse cx="1046.5" cy="192.3438" fill="#84BE84" rx="3" ry="3" style="stroke:#038048;stroke-width:1.0;"/><text fill="#000000" font-family="sans-serif" font-size="11" lengthAdjust="spacingAndGlyphs" textLength="275" x="1055.5" y="196.7627">deleteSelectedNotification(actionEvent:ActionEvent): void</text><ellipse cx="1046.5" cy="206.1797" fill="#84BE84" rx="3" ry="3" style="stroke:#038048;stroke-width:1.0;"/><text fill="#000000" font-family="sans-serif" font-size="11" lengthAdjust="spacingAndGlyphs" textLength="71" x="1055.5" y="210.5986">initialize(): void</text><!--MD5=[0db50141ac7671f84c63cf2d86851c53]
class SplitPay--><rect codeLine="17" fill="#FEFECE" filter="url(#f1j02fx7xnk417)" height="89.5078" id="SplitPay" style="stroke:#A80036;stroke-width:1.5;" width="141" x="1383.5" y="380"/><ellipse cx="1427.75" cy="396" fill="#ADD1B2" rx="11" ry="11" style="stroke:#A80036;stroke-width:1.0;"/><path d="M1429.75,392.5 Q1429.9531,392 1430.1875,391.75 Q1430.4219,391.5 1430.6875,391.5 Q1431.1563,391.5 1431.4531,391.7813 Q1431.75,392.0625 1431.75,392.7188 L1431.75,394.2813 Q1431.75,394.9375 1431.4688,395.2188 Q1431.1875,395.5 1430.75,395.5 Q1430.3594,395.5 1430.1094,395.3281 Q1429.8594,395.1563 1429.75,394.7031 Q1429.7031,394.3906 1429.5313,394.2188 Q1429.2188,393.8906 1428.6563,393.7031 Q1428.0938,393.5 1427.5313,393.5 Q1426.8281,393.5 1426.2344,393.7813 Q1425.6563,394.0625 1425.2031,394.6875 Q1424.75,395.3125 1424.75,396.1719 L1424.75,397.0938 Q1424.75,398.125 1425.5938,398.8125 Q1426.4375,399.5 1427.9375,399.5 Q1428.8281,399.5 1429.4531,399.2969 Q1429.8125,399.1875 1430.2188,398.8281 Q1430.4844,398.625 1430.625,398.5625 Q1430.7656,398.5 1430.9375,398.5 Q1431.2656,398.5 1431.5,398.7656 Q1431.75,399.0156 1431.75,399.375 Q1431.75,399.7188 1431.4063,400.125 Q1430.9063,400.7188 1430.1094,401.0469 Q1429.0625,401.5 1427.7813,401.5 Q1426.2813,401.5 1425.0781,400.9063 Q1424.1094,400.4375 1423.4219,399.4219 Q1422.75,398.4063 1422.75,397.2031 L1422.75,396.1094 Q1422.75,394.8594 1423.3438,393.7656 Q1423.9531,392.6719 1425,392.0938 Q1426.0625,391.5 1427.25,391.5 Q1427.9688,391.5 1428.5938,391.75 Q1429.2188,392 1429.75,392.5 Z " fill="#000000"/><text fill="#000000" font-family="sans-serif" font-size="12" lengthAdjust="spacingAndGlyphs" textLength="44" x="1448.25" y="400.9102">SplitPay</text><line style="stroke:#A80036;stroke-width:1.5;" x1="1384.5" x2="1523.5" y1="412" y2="412"/><ellipse cx="1394.5" cy="423" fill="none" rx="3" ry="3" style="stroke:#038048;stroke-width:1.0;"/><text fill="#000000" font-family="sans-serif" font-size="11" lengthAdjust="spacingAndGlyphs" text-decoration="underline" textLength="74" x="1403.5" y="427.4189">window: Stage</text><line style="stroke:#A80036;stroke-width:1.5;" x1="1384.5" x2="1523.5" y1="433.8359" y2="433.8359"/><ellipse cx="1394.5" cy="444.8359" fill="#84BE84" rx="3" ry="3" style="stroke:#038048;stroke-width:1.0;"/><text fill="#000000" font-family="sans-serif" font-size="11" lengthAdjust="spacingAndGlyphs" textLength="114" x="1403.5" y="449.2549">start(stage:Stage): void</text><ellipse cx="1394.5" cy="458.6719" fill="#84BE84" rx="3" ry="3" style="stroke:#038048;stroke-width:1.0;"/><text fill="#000000" font-family="sans-serif" font-size="11" lengthAdjust="spacingAndGlyphs" text-decoration="underline" textLength="115" x="1403.5" y="463.0908">main(String[]:args): void</text><!--MD5=[76b5e19c9337179d2d7ae334371d68c8]
class Notification--><rect codeLine="26" fill="#FEFECE" filter="url(#f1j02fx7xnk417)" height="103.3438" id="Notification" style="stroke:#A80036;stroke-width:1.5;" width="104" x="1092" y="576.5"/><ellipse cx="1111.95" cy="592.5" fill="#ADD1B2" rx="11" ry="11" style="stroke:#A80036;stroke-width:1.0;"/><path d="M1113.95,589 Q1114.1531,588.5 1114.3875,588.25 Q1114.6219,588 1114.8875,588 Q1115.3563,588 1115.6531,588.2813 Q1115.95,588.5625 1115.95,589.2188 L1115.95,590.7813 Q1115.95,591.4375 1115.6688,591.7188 Q1115.3875,592 1114.95,592 Q1114.5594,592 1114.3094,591.8281 Q1114.0594,591.6563 1113.95,591.2031 Q1113.9031,590.8906 1113.7313,590.7188 Q1113.4188,590.3906 1112.8563,590.2031 Q1112.2938,590 1111.7313,590 Q1111.0281,590 1110.4344,590.2813 Q1109.8563,590.5625 1109.4031,591.1875 Q1108.95,591.8125 1108.95,592.6719 L1108.95,593.5938 Q1108.95,594.625 1109.7938,595.3125 Q1110.6375,596 1112.1375,596 Q1113.0281,596 1113.6531,595.7969 Q1114.0125,595.6875 1114.4188,595.3281 Q1114.6844,595.125 1114.825,595.0625 Q1114.9656,595 1115.1375,595 Q1115.4656,595 1115.7,595.2656 Q1115.95,595.5156 1115.95,595.875 Q1115.95,596.2188 1115.6063,596.625 Q1115.1063,597.2188 1114.3094,597.5469 Q1113.2625,598 1111.9813,598 Q1110.4813,598 1109.2781,597.4063 Q1108.3094,596.9375 1107.6219,595.9219 Q1106.95,594.9063 1106.95,593.7031 L1106.95,592.6094 Q1106.95,591.3594 1107.5438,590.2656 Q1108.1531,589.1719 1109.2,588.5938 Q1110.2625,588 1111.45,588 Q1112.1688,588 1112.7938,588.25 Q1113.4188,588.5 1113.95,589 Z " fill="#000000"/><text fill="#000000" font-family="sans-serif" font-size="12" lengthAdjust="spacingAndGlyphs" textLength="61" x="1127.05" y="597.4102">Notification</text><line style="stroke:#A80036;stroke-width:1.5;" x1="1093" x2="1195" y1="608.5" y2="608.5"/><rect fill="none" height="6" style="stroke:#C82930;stroke-width:1.0;" width="6" x="1100" y="616.5"/><text fill="#000000" font-family="sans-serif" font-size="11" lengthAdjust="spacingAndGlyphs" textLength="42" x="1112" y="623.9189">id: String</text><rect fill="none" height="6" style="stroke:#C82930;stroke-width:1.0;" width="6" x="1100" y="630.3359"/><text fill="#000000" font-family="sans-serif" font-size="11" lengthAdjust="spacingAndGlyphs" textLength="64" x="1112" y="637.7549">userId: String</text><rect fill="none" height="6" style="stroke:#C82930;stroke-width:1.0;" width="6" x="1100" y="644.1719"/><text fill="#000000" font-family="sans-serif" font-size="11" lengthAdjust="spacingAndGlyphs" textLength="56" x="1112" y="651.5908">label: String</text><rect fill="none" height="6" style="stroke:#C82930;stroke-width:1.0;" width="6" x="1100" y="658.0078"/><text fill="#000000" font-family="sans-serif" font-size="11" lengthAdjust="spacingAndGlyphs" textLength="78" x="1112" y="665.4268">message: String</text><line style="stroke:#A80036;stroke-width:1.5;" x1="1093" x2="1195" y1="671.8438" y2="671.8438"/><!--MD5=[250d432bd3b805ddd7af008e566177c2]
class NotificationFacade--><rect codeLine="34" fill="#FEFECE" filter="url(#f1j02fx7xnk417)" height="75.6719" id="NotificationFacade" style="stroke:#A80036;stroke-width:1.5;" width="318" x="985" y="387"/><ellipse cx="1088.75" cy="403" fill="#ADD1B2" rx="11" ry="11" style="stroke:#A80036;stroke-width:1.0;"/><path d="M1090.75,399.5 Q1090.9531,399 1091.1875,398.75 Q1091.4219,398.5 1091.6875,398.5 Q1092.1563,398.5 1092.4531,398.7813 Q1092.75,399.0625 1092.75,399.7188 L1092.75,401.2813 Q1092.75,401.9375 1092.4688,402.2188 Q1092.1875,402.5 1091.75,402.5 Q1091.3594,402.5 1091.1094,402.3281 Q1090.8594,402.1563 1090.75,401.7031 Q1090.7031,401.3906 1090.5313,401.2188 Q1090.2188,400.8906 1089.6563,400.7031 Q1089.0938,400.5 1088.5313,400.5 Q1087.8281,400.5 1087.2344,400.7813 Q1086.6563,401.0625 1086.2031,401.6875 Q1085.75,402.3125 1085.75,403.1719 L1085.75,404.0938 Q1085.75,405.125 1086.5938,405.8125 Q1087.4375,406.5 1088.9375,406.5 Q1089.8281,406.5 1090.4531,406.2969 Q1090.8125,406.1875 1091.2188,405.8281 Q1091.4844,405.625 1091.625,405.5625 Q1091.7656,405.5 1091.9375,405.5 Q1092.2656,405.5 1092.5,405.7656 Q1092.75,406.0156 1092.75,406.375 Q1092.75,406.7188 1092.4063,407.125 Q1091.9063,407.7188 1091.1094,408.0469 Q1090.0625,408.5 1088.7813,408.5 Q1087.2813,408.5 1086.0781,407.9063 Q1085.1094,407.4375 1084.4219,406.4219 Q1083.75,405.4063 1083.75,404.2031 L1083.75,403.1094 Q1083.75,401.8594 1084.3438,400.7656 Q1084.9531,399.6719 1086,399.0938 Q1087.0625,398.5 1088.25,398.5 Q1088.9688,398.5 1089.5938,398.75 Q1090.2188,399 1090.75,399.5 Z " fill="#000000"/><text fill="#000000" font-family="sans-serif" font-size="12" lengthAdjust="spacingAndGlyphs" textLength="102" x="1109.25" y="407.9102">NotificationFacade</text><line style="stroke:#A80036;stroke-width:1.5;" x1="986" x2="1302" y1="419" y2="419"/><line style="stroke:#A80036;stroke-width:1.5;" x1="986" x2="1302" y1="427" y2="427"/><text fill="#000000" font-family="sans-serif" font-size="11" lengthAdjust="spacingAndGlyphs" textLength="306" x="991" y="442.4189">addNotification(userId:String, label:String, message:String): void</text><text fill="#000000" font-family="sans-serif" font-size="11" lengthAdjust="spacingAndGlyphs" textLength="158" x="991" y="456.2549">deleteNotification(id: String): void</text><!--MD5=[4a0300a6597e068a69ac5dc42e345e2c]
class DAOFactory--><rect codeLine="42" fill="#FEFECE" filter="url(#f1j02fx7xnk417)" height="103.3438" id="DAOFactory" style="stroke:#A80036;stroke-width:1.5;" width="163" x="664.5" y="100"/><ellipse cx="708.75" cy="116" fill="#A9DCDF" rx="11" ry="11" style="stroke:#A80036;stroke-width:1.0;"/><path d="M710.5,117.5 L707.2031,117.5 L706.7656,118.5 L706.7656,118.5 L707.2344,118.5 L707.75,119.125 L707.75,119.5 L707.75,119.875 L707.2344,120.5 L706.7656,120.5 L704.875,120.5 L704.2656,120.5 L703.75,119.875 L703.75,119.5 L703.75,119.125 L704.2656,118.5 L704.875,118.5 L707.1875,112.5 L706.3125,112.5 L705.2656,112.5 L704.75,111.875 L704.75,111.5 L704.75,111.125 L705.2656,110.5 L706.3125,110.5 L709.9844,110.5 L712.6719,118.5 L713.2344,118.5 L713.2344,118.5 L713.75,119.125 L713.75,119.5 L713.75,119.875 L713.2344,120.5 L712.6719,120.5 L710.7813,120.5 L710.2656,120.5 L709.75,119.875 L709.75,119.5 L709.75,119.125 L710.2656,118.5 L710.7813,118.5 L710.7813,118.5 L710.5,117.5 Z M709.9531,115.5 L708.75,111.9219 L707.7188,115.5 L709.9531,115.5 Z " fill="#000000"/><text fill="#000000" font-family="sans-serif" font-size="12" font-style="italic" lengthAdjust="spacingAndGlyphs" textLength="66" x="729.25" y="120.9102">DAOFactory</text><line style="stroke:#A80036;stroke-width:1.5;" x1="665.5" x2="826.5" y1="132" y2="132"/><polygon fill="none" points="675.5,138,679.5,142,675.5,146,671.5,142" style="stroke:#B38D22;stroke-width:1.0;"/><text fill="#000000" font-family="sans-serif" font-size="11" lengthAdjust="spacingAndGlyphs" textLength="113" x="684.5" y="147.4189">connection: Connection</text><line style="stroke:#A80036;stroke-width:1.5;" x1="665.5" x2="826.5" y1="153.8359" y2="153.8359"/><ellipse cx="675.5" cy="164.8359" fill="#84BE84" rx="3" ry="3" style="stroke:#038048;stroke-width:1.0;"/><text fill="#000000" font-family="sans-serif" font-size="11" lengthAdjust="spacingAndGlyphs" text-decoration="underline" textLength="137" x="684.5" y="169.2549">getConnection(): Connection</text><ellipse cx="675.5" cy="178.6719" fill="#84BE84" rx="3" ry="3" style="stroke:#038048;stroke-width:1.0;"/><text fill="#000000" font-family="sans-serif" font-size="11" lengthAdjust="spacingAndGlyphs" textLength="137" x="684.5" y="183.0908">createUserDAO(): UserDAO</text><rect fill="#F24D5C" height="6" style="stroke:#C82930;stroke-width:1.0;" width="6" x="672.5" y="189.5078"/><text fill="#000000" font-family="sans-serif" font-size="11" lengthAdjust="spacingAndGlyphs" textLength="134" x="684.5" y="196.9268">DAOFactory(): DAOFactory</text><!--MD5=[8e4cd3dd5d94d43ef59f95d8deb563be]
class NotificationDAO--><rect codeLine="57" fill="#FEFECE" filter="url(#f1j02fx7xnk417)" height="103.3438" id="NotificationDAO" style="stroke:#A80036;stroke-width:1.5;" width="296" x="307" y="373.5"/><ellipse cx="407.25" cy="389.5" fill="#B4A7E5" rx="11" ry="11" style="stroke:#A80036;stroke-width:1.0;"/><path d="M408.25,386.5 L408.25,392.5 L410.25,392.5 L410.7344,392.5 L411.25,393.125 L411.25,393.5 L411.25,393.875 L410.7344,394.5 L410.25,394.5 L404.25,394.5 L403.7656,394.5 L403.25,393.875 L403.25,393.5 L403.25,393.125 L403.7656,392.5 L404.25,392.5 L406.25,392.5 L406.25,386.5 L404.25,386.5 L403.7656,386.5 L403.25,385.875 L403.25,385.5 L403.25,385.125 L403.7656,384.5 L404.25,384.5 L410.25,384.5 L410.7344,384.5 L411.25,385.125 L411.25,385.5 L411.25,385.875 L410.7344,386.5 L410.25,386.5 L408.25,386.5 Z " fill="#000000"/><text fill="#000000" font-family="sans-serif" font-size="12" font-style="italic" lengthAdjust="spacingAndGlyphs" textLength="87" x="427.75" y="394.4102">NotificationDAO</text><line style="stroke:#A80036;stroke-width:1.5;" x1="308" x2="602" y1="405.5" y2="405.5"/><line style="stroke:#A80036;stroke-width:1.5;" x1="308" x2="602" y1="413.5" y2="413.5"/><ellipse cx="318" cy="424.5" fill="#84BE84" rx="3" ry="3" style="stroke:#038048;stroke-width:1.0;"/><text fill="#000000" font-family="sans-serif" font-size="11" lengthAdjust="spacingAndGlyphs" textLength="129" x="327" y="428.9189">getConnection(): UserDAO</text><ellipse cx="318" cy="438.3359" fill="#84BE84" rx="3" ry="3" style="stroke:#038048;stroke-width:1.0;"/><text fill="#000000" font-family="sans-serif" font-size="11" lengthAdjust="spacingAndGlyphs" textLength="179" x="327" y="442.7549">deleteNotificationById(id: String): void</text><ellipse cx="318" cy="452.1719" fill="#84BE84" rx="3" ry="3" style="stroke:#038048;stroke-width:1.0;"/><text fill="#000000" font-family="sans-serif" font-size="11" lengthAdjust="spacingAndGlyphs" textLength="249" x="327" y="456.5908">addNotification(notification: Notification): Notification</text><ellipse cx="318" cy="466.0078" fill="#84BE84" rx="3" ry="3" style="stroke:#038048;stroke-width:1.0;"/><text fill="#000000" font-family="sans-serif" font-size="11" lengthAdjust="spacingAndGlyphs" textLength="270" x="327" y="470.4268">getAllCurrentUserNotifications(): Collection&lt;Notification&gt;</text><!--MD5=[a3971c949df0b23e8683b9b55b0827cf]
class MySqlUserDAO--><rect codeLine="50" fill="#FEFECE" filter="url(#f1j02fx7xnk417)" height="61.8359" id="MySqlUserDAO" style="stroke:#A80036;stroke-width:1.5;" width="190" x="82" y="597"/><ellipse cx="130.75" cy="613" fill="#ADD1B2" rx="11" ry="11" style="stroke:#A80036;stroke-width:1.0;"/><path d="M132.75,609.5 Q132.9531,609 133.1875,608.75 Q133.4219,608.5 133.6875,608.5 Q134.1563,608.5 134.4531,608.7813 Q134.75,609.0625 134.75,609.7188 L134.75,611.2813 Q134.75,611.9375 134.4688,612.2188 Q134.1875,612.5 133.75,612.5 Q133.3594,612.5 133.1094,612.3281 Q132.8594,612.1563 132.75,611.7031 Q132.7031,611.3906 132.5313,611.2188 Q132.2188,610.8906 131.6563,610.7031 Q131.0938,610.5 130.5313,610.5 Q129.8281,610.5 129.2344,610.7813 Q128.6563,611.0625 128.2031,611.6875 Q127.75,612.3125 127.75,613.1719 L127.75,614.0938 Q127.75,615.125 128.5938,615.8125 Q129.4375,616.5 130.9375,616.5 Q131.8281,616.5 132.4531,616.2969 Q132.8125,616.1875 133.2188,615.8281 Q133.4844,615.625 133.625,615.5625 Q133.7656,615.5 133.9375,615.5 Q134.2656,615.5 134.5,615.7656 Q134.75,616.0156 134.75,616.375 Q134.75,616.7188 134.4063,617.125 Q133.9063,617.7188 133.1094,618.0469 Q132.0625,618.5 130.7813,618.5 Q129.2813,618.5 128.0781,617.9063 Q127.1094,617.4375 126.4219,616.4219 Q125.75,615.4063 125.75,614.2031 L125.75,613.1094 Q125.75,611.8594 126.3438,610.7656 Q126.9531,609.6719 128,609.0938 Q129.0625,608.5 130.25,608.5 Q130.9688,608.5 131.5938,608.75 Q132.2188,609 132.75,609.5 Z " fill="#000000"/><text fill="#000000" font-family="sans-serif" font-size="12" lengthAdjust="spacingAndGlyphs" textLength="84" x="151.25" y="617.9102">MySqlUserDAO</text><line style="stroke:#A80036;stroke-width:1.5;" x1="83" x2="271" y1="629" y2="629"/><line style="stroke:#A80036;stroke-width:1.5;" x1="83" x2="271" y1="637" y2="637"/><rect fill="#F24D5C" height="6" style="stroke:#C82930;stroke-width:1.0;" width="6" x="90" y="645"/><text fill="#000000" font-family="sans-serif" font-size="11" lengthAdjust="spacingAndGlyphs" textLength="164" x="102" y="652.4189">MySqlUserDAO(): MySqlUserDAO</text><!--MD5=[0e2e921ab886777c70e16ce5f6b9950f]
class MySqlDAOFactory--><rect codeLine="53" fill="#FEFECE" filter="url(#f1j02fx7xnk417)" height="61.8359" id="MySqlDAOFactory" style="stroke:#A80036;stroke-width:1.5;" width="192" x="80" y="394"/><ellipse cx="123.8" cy="410" fill="#ADD1B2" rx="11" ry="11" style="stroke:#A80036;stroke-width:1.0;"/><path d="M125.8,406.5 Q126.0031,406 126.2375,405.75 Q126.4719,405.5 126.7375,405.5 Q127.2063,405.5 127.5031,405.7813 Q127.8,406.0625 127.8,406.7188 L127.8,408.2813 Q127.8,408.9375 127.5188,409.2188 Q127.2375,409.5 126.8,409.5 Q126.4094,409.5 126.1594,409.3281 Q125.9094,409.1563 125.8,408.7031 Q125.7531,408.3906 125.5813,408.2188 Q125.2688,407.8906 124.7063,407.7031 Q124.1438,407.5 123.5813,407.5 Q122.8781,407.5 122.2844,407.7813 Q121.7063,408.0625 121.2531,408.6875 Q120.8,409.3125 120.8,410.1719 L120.8,411.0938 Q120.8,412.125 121.6438,412.8125 Q122.4875,413.5 123.9875,413.5 Q124.8781,413.5 125.5031,413.2969 Q125.8625,413.1875 126.2688,412.8281 Q126.5344,412.625 126.675,412.5625 Q126.8156,412.5 126.9875,412.5 Q127.3156,412.5 127.55,412.7656 Q127.8,413.0156 127.8,413.375 Q127.8,413.7188 127.4563,414.125 Q126.9563,414.7188 126.1594,415.0469 Q125.1125,415.5 123.8313,415.5 Q122.3313,415.5 121.1281,414.9063 Q120.1594,414.4375 119.4719,413.4219 Q118.8,412.4063 118.8,411.2031 L118.8,410.1094 Q118.8,408.8594 119.3938,407.7656 Q120.0031,406.6719 121.05,406.0938 Q122.1125,405.5 123.3,405.5 Q124.0188,405.5 124.6438,405.75 Q125.2688,406 125.8,406.5 Z " fill="#000000"/><text fill="#000000" font-family="sans-serif" font-size="12" lengthAdjust="spacingAndGlyphs" textLength="96" x="144.2" y="414.9102">MySqlDAOFactory</text><line style="stroke:#A80036;stroke-width:1.5;" x1="81" x2="271" y1="426" y2="426"/><line style="stroke:#A80036;stroke-width:1.5;" x1="81" x2="271" y1="434" y2="434"/><ellipse cx="91" cy="445" fill="#84BE84" rx="3" ry="3" style="stroke:#038048;stroke-width:1.0;"/><text fill="#000000" font-family="sans-serif" font-size="11" lengthAdjust="spacingAndGlyphs" textLength="166" x="100" y="449.4189">createUserDAO(): MySqlUserDAO</text><!--MD5=[1cd8db0879aaec40804bcc790e5b2c15]
class PostGresUserDAO--><rect codeLine="64" fill="#FEFECE" filter="url(#f1j02fx7xnk417)" height="61.8359" id="PostGresUserDAO" style="stroke:#A80036;stroke-width:1.5;" width="222" x="635" y="597"/><ellipse cx="689.75" cy="613" fill="#ADD1B2" rx="11" ry="11" style="stroke:#A80036;stroke-width:1.0;"/><path d="M691.75,609.5 Q691.9531,609 692.1875,608.75 Q692.4219,608.5 692.6875,608.5 Q693.1563,608.5 693.4531,608.7813 Q693.75,609.0625 693.75,609.7188 L693.75,611.2813 Q693.75,611.9375 693.4688,612.2188 Q693.1875,612.5 692.75,612.5 Q692.3594,612.5 692.1094,612.3281 Q691.8594,612.1563 691.75,611.7031 Q691.7031,611.3906 691.5313,611.2188 Q691.2188,610.8906 690.6563,610.7031 Q690.0938,610.5 689.5313,610.5 Q688.8281,610.5 688.2344,610.7813 Q687.6563,611.0625 687.2031,611.6875 Q686.75,612.3125 686.75,613.1719 L686.75,614.0938 Q686.75,615.125 687.5938,615.8125 Q688.4375,616.5 689.9375,616.5 Q690.8281,616.5 691.4531,616.2969 Q691.8125,616.1875 692.2188,615.8281 Q692.4844,615.625 692.625,615.5625 Q692.7656,615.5 692.9375,615.5 Q693.2656,615.5 693.5,615.7656 Q693.75,616.0156 693.75,616.375 Q693.75,616.7188 693.4063,617.125 Q692.9063,617.7188 692.1094,618.0469 Q691.0625,618.5 689.7813,618.5 Q688.2813,618.5 687.0781,617.9063 Q686.1094,617.4375 685.4219,616.4219 Q684.75,615.4063 684.75,614.2031 L684.75,613.1094 Q684.75,611.8594 685.3438,610.7656 Q685.9531,609.6719 687,609.0938 Q688.0625,608.5 689.25,608.5 Q689.9688,608.5 690.5938,608.75 Q691.2188,609 691.75,609.5 Z " fill="#000000"/><text fill="#000000" font-family="sans-serif" font-size="12" lengthAdjust="spacingAndGlyphs" textLength="104" x="710.25" y="617.9102">PostGresUserDAO</text><line style="stroke:#A80036;stroke-width:1.5;" x1="636" x2="856" y1="629" y2="629"/><line style="stroke:#A80036;stroke-width:1.5;" x1="636" x2="856" y1="637" y2="637"/><rect fill="#F24D5C" height="6" style="stroke:#C82930;stroke-width:1.0;" width="6" x="643" y="645"/><text fill="#000000" font-family="sans-serif" font-size="11" lengthAdjust="spacingAndGlyphs" textLength="196" x="655" y="652.4189">PostGresUserDAO(): PostGresUserDAO</text><!--MD5=[c46ba0df7ad94e3a1ae057e9bcd6145a]
class PostGresDAOFactory--><rect codeLine="67" fill="#FEFECE" filter="url(#f1j02fx7xnk417)" height="61.8359" id="PostGresDAOFactory" style="stroke:#A80036;stroke-width:1.5;" width="208" x="642" y="394"/><ellipse cx="684" cy="410" fill="#ADD1B2" rx="11" ry="11" style="stroke:#A80036;stroke-width:1.0;"/><path d="M686,406.5 Q686.2031,406 686.4375,405.75 Q686.6719,405.5 686.9375,405.5 Q687.4063,405.5 687.7031,405.7813 Q688,406.0625 688,406.7188 L688,408.2813 Q688,408.9375 687.7188,409.2188 Q687.4375,409.5 687,409.5 Q686.6094,409.5 686.3594,409.3281 Q686.1094,409.1563 686,408.7031 Q685.9531,408.3906 685.7813,408.2188 Q685.4688,407.8906 684.9063,407.7031 Q684.3438,407.5 683.7813,407.5 Q683.0781,407.5 682.4844,407.7813 Q681.9063,408.0625 681.4531,408.6875 Q681,409.3125 681,410.1719 L681,411.0938 Q681,412.125 681.8438,412.8125 Q682.6875,413.5 684.1875,413.5 Q685.0781,413.5 685.7031,413.2969 Q686.0625,413.1875 686.4688,412.8281 Q686.7344,412.625 686.875,412.5625 Q687.0156,412.5 687.1875,412.5 Q687.5156,412.5 687.75,412.7656 Q688,413.0156 688,413.375 Q688,413.7188 687.6563,414.125 Q687.1563,414.7188 686.3594,415.0469 Q685.3125,415.5 684.0313,415.5 Q682.5313,415.5 681.3281,414.9063 Q680.3594,414.4375 679.6719,413.4219 Q679,412.4063 679,411.2031 L679,410.1094 Q679,408.8594 679.5938,407.7656 Q680.2031,406.6719 681.25,406.0938 Q682.3125,405.5 683.5,405.5 Q684.2188,405.5 684.8438,405.75 Q685.4688,406 686,406.5 Z " fill="#000000"/><text fill="#000000" font-family="sans-serif" font-size="12" lengthAdjust="spacingAndGlyphs" textLength="116" x="704" y="414.9102">PostGresDAOFactory</text><line style="stroke:#A80036;stroke-width:1.5;" x1="643" x2="849" y1="426" y2="426"/><line style="stroke:#A80036;stroke-width:1.5;" x1="643" x2="849" y1="434" y2="434"/><ellipse cx="653" cy="445" fill="#84BE84" rx="3" ry="3" style="stroke:#038048;stroke-width:1.0;"/><text fill="#000000" font-family="sans-serif" font-size="11" lengthAdjust="spacingAndGlyphs" textLength="182" x="662" y="449.4189">createUserDAO(): PostGresUserDAO</text><!--MD5=[0b4e4b4980470ea387cc45de9bd14b5b]
class Application--><rect codeLine="15" fill="#FEFECE" filter="url(#f1j02fx7xnk417)" height="48" id="Application" style="stroke:#A80036;stroke-width:1.5;" width="93" x="1407.5" y="127.5"/><ellipse cx="1422.5" cy="143.5" fill="#A9DCDF" rx="11" ry="11" style="stroke:#A80036;stroke-width:1.0;"/><path d="M1424.25,145 L1420.9531,145 L1420.5156,146 L1420.5156,146 L1420.9844,146 L1421.5,146.625 L1421.5,147 L1421.5,147.375 L1420.9844,148 L1420.5156,148 L1418.625,148 L1418.0156,148 L1417.5,147.375 L1417.5,147 L1417.5,146.625 L1418.0156,146 L1418.625,146 L1420.9375,140 L1420.0625,140 L1419.0156,140 L1418.5,139.375 L1418.5,139 L1418.5,138.625 L1419.0156,138 L1420.0625,138 L1423.7344,138 L1426.4219,146 L1426.9844,146 L1426.9844,146 L1427.5,146.625 L1427.5,147 L1427.5,147.375 L1426.9844,148 L1426.4219,148 L1424.5313,148 L1424.0156,148 L1423.5,147.375 L1423.5,147 L1423.5,146.625 L1424.0156,146 L1424.5313,146 L1424.5313,146 L1424.25,145 Z M1423.7031,143 L1422.5,139.4219 L1421.4688,143 L1423.7031,143 Z " fill="#000000"/><text fill="#000000" font-family="sans-serif" font-size="12" font-style="italic" lengthAdjust="spacingAndGlyphs" textLength="61" x="1436.5" y="148.4102">Application</text><line style="stroke:#A80036;stroke-width:1.5;" x1="1408.5" x2="1499.5" y1="159.5" y2="159.5"/><line style="stroke:#A80036;stroke-width:1.5;" x1="1408.5" x2="1499.5" y1="167.5" y2="167.5"/><!--MD5=[f4ddf5501abb4fe4d7b940d9e689b416]
link NotificationController to NotificationFacade--><path codeLine="74" d="M1175.99,217.19 C1168.1,268.23 1157.31,337.95 1150.5,381.97 " fill="none" id="NotificationController-to-NotificationFacade" style="stroke:#A80036;stroke-width:1.0;stroke-dasharray:7.0,7.0;"/><polygon fill="#A80036" points="1149.73,386.95,1155.0466,378.6594,1150.4871,382.0076,1147.1388,377.4481,1149.73,386.95" style="stroke:#A80036;stroke-width:1.0;"/><text fill="#000000" font-family="sans-serif" font-size="13" lengthAdjust="spacingAndGlyphs" textLength="21" x="1167" y="287.4951">use</text><!--MD5=[16ab0fb5d9b905c34a916f4577317530]
link NotificationController to SplitPay--><path codeLine="75" d="M1249.85,217.19 C1298.04,266 1363.08,331.9 1406.68,376.06 " fill="none" id="NotificationController-to-SplitPay" style="stroke:#A80036;stroke-width:1.0;stroke-dasharray:7.0,7.0;"/><polygon fill="#A80036" points="1410.31,379.74,1406.8302,370.5264,1406.796,376.1831,1401.1392,376.1488,1410.31,379.74" style="stroke:#A80036;stroke-width:1.0;"/><text fill="#000000" font-family="sans-serif" font-size="13" lengthAdjust="spacingAndGlyphs" textLength="21" x="1321" y="287.4951">use</text><!--MD5=[f7aa693db01d973fbd05e9072ee65dcb]
link NotificationFacade to Notification--><path codeLine="76" d="M1144,463.34 C1144,493.63 1144,536.81 1144,571.21 " fill="none" id="NotificationFacade-to-Notification" style="stroke:#A80036;stroke-width:1.0;stroke-dasharray:7.0,7.0;"/><polygon fill="#A80036" points="1144,576.22,1148,567.22,1144,571.22,1140,567.22,1144,576.22" style="stroke:#A80036;stroke-width:1.0;"/><text fill="#000000" font-family="sans-serif" font-size="13" lengthAdjust="spacingAndGlyphs" textLength="43" x="1145" y="520.9951">creates</text><!--MD5=[d93ee7b3a09c16fc194d673fc9d6fefe]
reverse link NotificationDAO to MySqlUserDAO--><path codeLine="77" d="M368.38,488.63 C318.48,524.71 258.03,568.41 218.6,596.92 " fill="none" id="NotificationDAO-backto-MySqlUserDAO" style="stroke:#A80036;stroke-width:1.0;stroke-dasharray:7.0,7.0;"/><polygon fill="none" points="364.54,482.77,384.85,476.72,372.74,494.11,364.54,482.77" style="stroke:#A80036;stroke-width:1.0;"/><!--MD5=[3a21413a38ee4d001f434facf6ba7d72]
reverse link NotificationDAO to PostGresUserDAO--><path codeLine="78" d="M544.99,488.16 C597.36,524.33 661,568.29 702.45,596.92 " fill="none" id="NotificationDAO-backto-PostGresUserDAO" style="stroke:#A80036;stroke-width:1.0;stroke-dasharray:7.0,7.0;"/><polygon fill="none" points="540.91,493.85,528.43,476.72,548.87,482.33,540.91,493.85" style="stroke:#A80036;stroke-width:1.0;"/><!--MD5=[2244845d9532617fbdb71d141db8964f]
reverse link DAOFactory to MySqlDAOFactory--><path codeLine="79" d="M644.45,166.41 C543.8,184.06 388.75,222.01 276,299 C239.74,323.76 210.14,365.57 192.8,393.96 " fill="none" id="DAOFactory-backto-MySqlDAOFactory" style="stroke:#A80036;stroke-width:1.0;"/><polygon fill="none" points="643.56,159.46,664.45,163.04,645.89,173.26,643.56,159.46" style="stroke:#A80036;stroke-width:1.0;"/><!--MD5=[efaaed88910802c3b4f4747e6ac87bbc]
reverse link DAOFactory to PostGresDAOFactory--><path codeLine="80" d="M746,223.42 C746,278.74 746,352.83 746,393.71 " fill="none" id="DAOFactory-backto-PostGresDAOFactory" style="stroke:#A80036;stroke-width:1.0;"/><polygon fill="none" points="739,223.25,746,203.25,753,223.25,739,223.25" style="stroke:#A80036;stroke-width:1.0;"/><!--MD5=[a9f4f1fea83a3055b8be1e1e8c9c5d32]
link MySqlDAOFactory to MySqlUserDAO--><path codeLine="81" d="M159.28,456.37 C152.12,471.04 144.6,489.19 141,506.5 C134.91,535.76 145.63,568.18 156.92,592.01 " fill="none" id="MySqlDAOFactory-to-MySqlUserDAO" style="stroke:#A80036;stroke-width:1.0;stroke-dasharray:7.0,7.0;"/><polygon fill="#A80036" points="159.18,596.66,158.8336,586.8172,156.9899,592.1652,151.6419,590.3215,159.18,596.66" style="stroke:#A80036;stroke-width:1.0;"/><text fill="#000000" font-family="sans-serif" font-size="13" lengthAdjust="spacingAndGlyphs" textLength="43" x="142" y="520.9951">creates</text><!--MD5=[d4f15b838eaf0e9bfa308c2bb6a4702d]
link PostGresDAOFactory to PostGresUserDAO--><path codeLine="82" d="M746,456.09 C746,492.36 746,553.2 746,591.66 " fill="none" id="PostGresDAOFactory-to-PostGresUserDAO" style="stroke:#A80036;stroke-width:1.0;stroke-dasharray:7.0,7.0;"/><polygon fill="#A80036" points="746,596.7,750,587.7,746,591.7,742,587.7,746,596.7" style="stroke:#A80036;stroke-width:1.0;"/><text fill="#000000" font-family="sans-serif" font-size="13" lengthAdjust="spacingAndGlyphs" textLength="43" x="747" y="520.9951">creates</text><!--MD5=[a308c18247008a5b86b3cbaeba7789fb]
reverse link DAOFactory to NotificationFacade--><path codeLine="83" d="M824.56,206.09 C902.82,259.48 1020.93,340.05 1089.46,386.8 " fill="none" id="DAOFactory-backto-NotificationFacade" style="stroke:#A80036;stroke-width:1.0;"/><polygon fill="#A80036" points="820.39,203.25,825.5736,211.6244,824.5214,206.0662,830.0796,205.0141,820.39,203.25" style="stroke:#A80036;stroke-width:1.0;"/><text fill="#000000" font-family="sans-serif" font-size="13" lengthAdjust="spacingAndGlyphs" textLength="7" x="822.9158" y="224.7745">1</text><!--MD5=[17058b5668ed596fe1bd4217aab7d6e8]
reverse link NotificationDAO to NotificationFacade--><path codeLine="84" d="M505.41,369.9 C538.96,337.47 586.03,299.49 636.5,282 C798.02,226.01 993.96,327.81 1088.14,386.98 " fill="none" id="NotificationDAO-backto-NotificationFacade" style="stroke:#A80036;stroke-width:1.0;"/><polygon fill="#A80036" points="501.8,373.42,511.0415,370.0148,505.3852,369.9348,505.4652,364.2785,501.8,373.42" style="stroke:#A80036;stroke-width:1.0;"/><text fill="#000000" font-family="sans-serif" font-size="13" lengthAdjust="spacingAndGlyphs" textLength="7" x="500.8891" y="362.5372">1</text><!--MD5=[759941070afa4a98c1123d455c11e7a3]
reverse link Application to SplitPay--><path codeLine="85" d="M1454,195.65 C1454,245.99 1454,328.77 1454,379.62 " fill="none" id="Application-backto-SplitPay" style="stroke:#A80036;stroke-width:1.0;"/><polygon fill="none" points="1447,195.65,1454,175.65,1461,195.65,1447,195.65" style="stroke:#A80036;stroke-width:1.0;"/><!--MD5=[49677e873030f1863692919033d61f84]
@startuml

package ui{
    package controller{
        class NotificationController{
            -notificationList: ListView
            -allStyleSetDefault(): void
            +goToHomeView(actionEvent:ActionEvent): void
            +goToSplitView(actionEvent:ActionEvent): void
            +deleteSelectedNotification(actionEvent:ActionEvent): void
            +initialize(): void
        }
    }
}

abstract class Application
package main{
    class SplitPay{
        {static} +window: Stage
        +start(stage:Stage): void
        {static} +main(String[]:args): void
    }
}

package core{
    package model{
        class Notification{
            -id: String
            -userId: String
            -label: String
            -message: String
        }
    }
    package facade{
        class NotificationFacade{
            addNotification(userId:String, label:String, message:String): void
            deleteNotification(id: String): void
        }
    }
}

package persist{
    abstract class DAOFactory{
        #connection: Connection
        {static} +getConnection(): Connection
        +createUserDAO(): UserDAO
        -DAOFactory(): DAOFactory
    }
    package dao{
        package mysql{
            class MySqlUserDAO{
                -MySqlUserDAO(): MySqlUserDAO
            }
            class MySqlDAOFactory{
                +createUserDAO(): MySqlUserDAO
            }
        }
        interface NotificationDAO{
            +getConnection(): UserDAO
            +deleteNotificationById(id: String): void
            +addNotification(notification: Notification): Notification
            +getAllCurrentUserNotifications(): Collection<Notification>
        }
        package postgres{
            class PostGresUserDAO{
                -PostGresUserDAO(): PostGresUserDAO
            }
            class PostGresDAOFactory{
                +createUserDAO(): PostGresUserDAO
            }
        }
    }
}

NotificationController ..> NotificationFacade : use
NotificationController ..> SplitPay : use
NotificationFacade ..> Notification : creates
NotificationDAO <|.. MySqlUserDAO
NotificationDAO <|.. PostGresUserDAO
DAOFactory <|-down- MySqlDAOFactory
DAOFactory <|-down- PostGresDAOFactory
MySqlDAOFactory .down.> MySqlUserDAO : creates
PostGresDAOFactory .down.> PostGresUserDAO : creates
NotificationFacade -up> "1" DAOFactory
NotificationFacade -up> "1" NotificationDAO
Application <|- - SplitPay
@enduml

PlantUML version 1.2020.23(Sun Dec 13 20:14:58 CET 2020)
(GPL source distribution)
Java Runtime: OpenJDK Runtime Environment
JVM: OpenJDK 64-Bit Server VM
Default Encoding: Cp1252
Language: fr
Country: FR
--></g></svg>