<?xml version="1.0" encoding="UTF-8" standalone="no"?><svg xmlns="http://www.w3.org/2000/svg" xmlns:xlink="http://www.w3.org/1999/xlink" contentScriptType="application/ecmascript" contentStyleType="text/css" height="1144px" preserveAspectRatio="none" style="width:1141px;height:1144px;" version="1.1" viewBox="0 0 1141 1144" width="1141px" zoomAndPan="magnify"><defs><filter height="300%" id="f1u4iozz1ddy1d" width="300%" x="-1" y="-1"><feGaussianBlur result="blurOut" stdDeviation="2.0"/><feColorMatrix in="blurOut" result="blurOut2" type="matrix" values="0 0 0 0 0 0 0 0 0 0 0 0 0 0 0 0 0 0 .4 0"/><feOffset dx="4.0" dy="4.0" in="blurOut2" result="blurOut3"/><feBlend in="SourceGraphic" in2="blurOut3" mode="normal"/></filter></defs><g><!--MD5=[218f7aca036ab7225909e4d6c95761fb]
cluster authController--><polygon fill="#FFFFFF" filter="url(#f1u4iozz1ddy1d)" points="94,6,214,6,221,28.2969,726,28.2969,726,115,94,115,94,6" style="stroke:#000000;stroke-width:1.5;"/><line style="stroke:#000000;stroke-width:1.5;" x1="94" x2="221" y1="28.2969" y2="28.2969"/><text fill="#000000" font-family="sans-serif" font-size="14" font-weight="bold" lengthAdjust="spacingAndGlyphs" textLength="114" x="98" y="20.9951">authController</text><!--MD5=[0c4a738b3201a23a254af68352446157]
cluster auth--><polygon fill="#FFFFFF" filter="url(#f1u4iozz1ddy1d)" points="67,146,108,146,115,168.2969,1124,168.2969,1124,357,67,357,67,146" style="stroke:#000000;stroke-width:1.5;"/><line style="stroke:#000000;stroke-width:1.5;" x1="67" x2="115" y1="168.2969" y2="168.2969"/><text fill="#000000" font-family="sans-serif" font-size="14" font-weight="bold" lengthAdjust="spacingAndGlyphs" textLength="35" x="71" y="160.9951">auth</text><!--MD5=[5622bc4ba3bf2be5d17935065b98c5f9]
cluster dao--><polygon fill="#FFFFFF" filter="url(#f1u4iozz1ddy1d)" points="16,388,51,388,58,410.2969,723,410.2969,723,1137,16,1137,16,388" style="stroke:#000000;stroke-width:1.5;"/><line style="stroke:#000000;stroke-width:1.5;" x1="16" x2="58" y1="410.2969" y2="410.2969"/><text fill="#000000" font-family="sans-serif" font-size="14" font-weight="bold" lengthAdjust="spacingAndGlyphs" textLength="29" x="20" y="402.9951">dao</text><!--MD5=[40f389b860e50d90baaf5de832b1264d]
cluster mysql--><polygon fill="#FFFFFF" filter="url(#f1u4iozz1ddy1d)" points="24,602,76,602,83,624.2969,180,624.2969,180,1129,24,1129,24,602" style="stroke:#000000;stroke-width:1.5;"/><line style="stroke:#000000;stroke-width:1.5;" x1="24" x2="83" y1="624.2969" y2="624.2969"/><text fill="#000000" font-family="sans-serif" font-size="14" font-weight="bold" lengthAdjust="spacingAndGlyphs" textLength="46" x="28" y="616.9951">mysql</text><!--MD5=[bab4019c732006648757f54388533847]
cluster postgres--><polygon fill="#FFFFFF" filter="url(#f1u4iozz1ddy1d)" points="199,602,276,602,283,624.2969,391,624.2969,391,1129,199,1129,199,602" style="stroke:#000000;stroke-width:1.5;"/><line style="stroke:#000000;stroke-width:1.5;" x1="199" x2="283" y1="624.2969" y2="624.2969"/><text fill="#000000" font-family="sans-serif" font-size="14" font-weight="bold" lengthAdjust="spacingAndGlyphs" textLength="71" x="203" y="616.9951">postgres</text><!--MD5=[2f910bc87027c0559418ffab4b34b072]
class NormalUserSignUpController--><rect codeLine="2" fill="#FEFECE" filter="url(#f1u4iozz1ddy1d)" height="60.8047" id="NormalUserSignUpController" style="stroke:#A80036;stroke-width:1.5;" width="210" x="102" y="39.5"/><ellipse cx="117" cy="55.5" fill="#ADD1B2" rx="11" ry="11" style="stroke:#A80036;stroke-width:1.0;"/><path d="M119.9688,61.1406 Q119.3906,61.4375 118.75,61.5781 Q118.1094,61.7344 117.4063,61.7344 Q114.9063,61.7344 113.5781,60.0938 Q112.2656,58.4375 112.2656,55.3125 Q112.2656,52.1875 113.5781,50.5313 Q114.9063,48.875 117.4063,48.875 Q118.1094,48.875 118.75,49.0313 Q119.4063,49.1875 119.9688,49.4844 L119.9688,52.2031 Q119.3438,51.625 118.75,51.3594 Q118.1563,51.0781 117.5313,51.0781 Q116.1875,51.0781 115.5,52.1563 Q114.8125,53.2188 114.8125,55.3125 Q114.8125,57.4063 115.5,58.4844 Q116.1875,59.5469 117.5313,59.5469 Q118.1563,59.5469 118.75,59.2813 Q119.3438,59 119.9688,58.4219 L119.9688,61.1406 Z " fill="#000000"/><text fill="#000000" font-family="sans-serif" font-size="12" lengthAdjust="spacingAndGlyphs" textLength="178" x="131" y="59.6543">NormalUserSignUpController</text><line style="stroke:#A80036;stroke-width:1.5;" x1="103" x2="311" y1="71.5" y2="71.5"/><line style="stroke:#A80036;stroke-width:1.5;" x1="103" x2="311" y1="79.5" y2="79.5"/><ellipse cx="113" cy="90.5" fill="#84BE84" rx="3" ry="3" style="stroke:#038048;stroke-width:1.0;"/><text fill="#000000" font-family="sans-serif" font-size="11" lengthAdjust="spacingAndGlyphs" textLength="47" x="122" y="93.7104">signUp()</text><!--MD5=[896d6503ef10c485421f11eef377d710]
class StoreOwnerSignUpController--><rect codeLine="6" fill="#FEFECE" filter="url(#f1u4iozz1ddy1d)" height="60.8047" id="StoreOwnerSignUpController" style="stroke:#A80036;stroke-width:1.5;" width="210" x="347" y="39.5"/><ellipse cx="362" cy="55.5" fill="#ADD1B2" rx="11" ry="11" style="stroke:#A80036;stroke-width:1.0;"/><path d="M364.9688,61.1406 Q364.3906,61.4375 363.75,61.5781 Q363.1094,61.7344 362.4063,61.7344 Q359.9063,61.7344 358.5781,60.0938 Q357.2656,58.4375 357.2656,55.3125 Q357.2656,52.1875 358.5781,50.5313 Q359.9063,48.875 362.4063,48.875 Q363.1094,48.875 363.75,49.0313 Q364.4063,49.1875 364.9688,49.4844 L364.9688,52.2031 Q364.3438,51.625 363.75,51.3594 Q363.1563,51.0781 362.5313,51.0781 Q361.1875,51.0781 360.5,52.1563 Q359.8125,53.2188 359.8125,55.3125 Q359.8125,57.4063 360.5,58.4844 Q361.1875,59.5469 362.5313,59.5469 Q363.1563,59.5469 363.75,59.2813 Q364.3438,59 364.9688,58.4219 L364.9688,61.1406 Z " fill="#000000"/><text fill="#000000" font-family="sans-serif" font-size="12" lengthAdjust="spacingAndGlyphs" textLength="178" x="376" y="59.6543">StoreOwnerSignUpController</text><line style="stroke:#A80036;stroke-width:1.5;" x1="348" x2="556" y1="71.5" y2="71.5"/><line style="stroke:#A80036;stroke-width:1.5;" x1="348" x2="556" y1="79.5" y2="79.5"/><ellipse cx="358" cy="90.5" fill="#84BE84" rx="3" ry="3" style="stroke:#038048;stroke-width:1.0;"/><text fill="#000000" font-family="sans-serif" font-size="11" lengthAdjust="spacingAndGlyphs" textLength="47" x="367" y="93.7104">signUp()</text><!--MD5=[5103e3471bf31fadd75905833dcba617]
class LoginController--><rect codeLine="10" fill="#FEFECE" filter="url(#f1u4iozz1ddy1d)" height="73.6094" id="LoginController" style="stroke:#A80036;stroke-width:1.5;" width="126" x="592" y="33"/><ellipse cx="607" cy="49" fill="#ADD1B2" rx="11" ry="11" style="stroke:#A80036;stroke-width:1.0;"/><path d="M609.9688,54.6406 Q609.3906,54.9375 608.75,55.0781 Q608.1094,55.2344 607.4063,55.2344 Q604.9063,55.2344 603.5781,53.5938 Q602.2656,51.9375 602.2656,48.8125 Q602.2656,45.6875 603.5781,44.0313 Q604.9063,42.375 607.4063,42.375 Q608.1094,42.375 608.75,42.5313 Q609.4063,42.6875 609.9688,42.9844 L609.9688,45.7031 Q609.3438,45.125 608.75,44.8594 Q608.1563,44.5781 607.5313,44.5781 Q606.1875,44.5781 605.5,45.6563 Q604.8125,46.7188 604.8125,48.8125 Q604.8125,50.9063 605.5,51.9844 Q606.1875,53.0469 607.5313,53.0469 Q608.1563,53.0469 608.75,52.7813 Q609.3438,52.5 609.9688,51.9219 L609.9688,54.6406 Z " fill="#000000"/><text fill="#000000" font-family="sans-serif" font-size="12" lengthAdjust="spacingAndGlyphs" textLength="94" x="621" y="53.1543">LoginController</text><line style="stroke:#A80036;stroke-width:1.5;" x1="593" x2="717" y1="65" y2="65"/><line style="stroke:#A80036;stroke-width:1.5;" x1="593" x2="717" y1="73" y2="73"/><ellipse cx="603" cy="84" fill="#84BE84" rx="3" ry="3" style="stroke:#038048;stroke-width:1.0;"/><text fill="#000000" font-family="sans-serif" font-size="11" lengthAdjust="spacingAndGlyphs" textLength="70" x="612" y="87.2104">login() : void</text><ellipse cx="603" cy="96.8047" fill="#84BE84" rx="3" ry="3" style="stroke:#038048;stroke-width:1.0;"/><text fill="#000000" font-family="sans-serif" font-size="11" lengthAdjust="spacingAndGlyphs" textLength="78" x="612" y="100.0151">logout() : void</text><!--MD5=[ec8bef2600be3ebec76289209b3c205e]
class UserFaçade--><rect codeLine="17" fill="#FEFECE" filter="url(#f1u4iozz1ddy1d)" height="176.0469" id="UserFaçade" style="stroke:#A80036;stroke-width:1.5;" width="754" x="75" y="173"/><ellipse cx="410.25" cy="189" fill="#ADD1B2" rx="11" ry="11" style="stroke:#A80036;stroke-width:1.0;"/><path d="M413.2188,194.6406 Q412.6406,194.9375 412,195.0781 Q411.3594,195.2344 410.6563,195.2344 Q408.1563,195.2344 406.8281,193.5938 Q405.5156,191.9375 405.5156,188.8125 Q405.5156,185.6875 406.8281,184.0313 Q408.1563,182.375 410.6563,182.375 Q411.3594,182.375 412,182.5313 Q412.6563,182.6875 413.2188,182.9844 L413.2188,185.7031 Q412.5938,185.125 412,184.8594 Q411.4063,184.5781 410.7813,184.5781 Q409.4375,184.5781 408.75,185.6563 Q408.0625,186.7188 408.0625,188.8125 Q408.0625,190.9063 408.75,191.9844 Q409.4375,193.0469 410.7813,193.0469 Q411.4063,193.0469 412,192.7813 Q412.5938,192.5 413.2188,191.9219 L413.2188,194.6406 Z " fill="#000000"/><text fill="#000000" font-family="sans-serif" font-size="12" lengthAdjust="spacingAndGlyphs" textLength="75" x="430.75" y="193.1543">UserFaçade</text><line style="stroke:#A80036;stroke-width:1.5;" x1="76" x2="828" y1="205" y2="205"/><line style="stroke:#A80036;stroke-width:1.5;" x1="76" x2="828" y1="213" y2="213"/><ellipse cx="86" cy="224" fill="#84BE84" rx="3" ry="3" style="stroke:#038048;stroke-width:1.0;"/><text fill="#000000" font-family="sans-serif" font-size="11" lengthAdjust="spacingAndGlyphs" textLength="153" x="95" y="227.2104">getInstance() : UserFaçade</text><ellipse cx="86" cy="236.8047" fill="#84BE84" rx="3" ry="3" style="stroke:#038048;stroke-width:1.0;"/><text fill="#000000" font-family="sans-serif" font-size="11" lengthAdjust="spacingAndGlyphs" textLength="387" x="95" y="240.0151">storeOwnerEmailLogin(String email, String password) : StoreOwner</text><ellipse cx="86" cy="249.6094" fill="#84BE84" rx="3" ry="3" style="stroke:#038048;stroke-width:1.0;"/><text fill="#000000" font-family="sans-serif" font-size="11" lengthAdjust="spacingAndGlyphs" textLength="395" x="95" y="252.8198">storeOwnerPhoneLogin(String phone, String password) : StoreOwner</text><ellipse cx="86" cy="262.4141" fill="#84BE84" rx="3" ry="3" style="stroke:#038048;stroke-width:1.0;"/><text fill="#000000" font-family="sans-serif" font-size="11" lengthAdjust="spacingAndGlyphs" textLength="387" x="95" y="265.6245">normalUserEmailLogin(String email, String password) : NormalUser</text><ellipse cx="86" cy="275.2188" fill="#84BE84" rx="3" ry="3" style="stroke:#038048;stroke-width:1.0;"/><text fill="#000000" font-family="sans-serif" font-size="11" lengthAdjust="spacingAndGlyphs" textLength="395" x="95" y="278.4292">normalUserPhoneLogin(String phone, String password) : NormalUser</text><ellipse cx="86" cy="288.0234" fill="#84BE84" rx="3" ry="3" style="stroke:#038048;stroke-width:1.0;"/><text fill="#000000" font-family="sans-serif" font-size="11" lengthAdjust="spacingAndGlyphs" textLength="724" x="95" y="291.2339">storeOwnerEmailSignUp(String credential, String companyName, String nickname, String siret, String password) : StoreOwner</text><ellipse cx="86" cy="300.8281" fill="#84BE84" rx="3" ry="3" style="stroke:#038048;stroke-width:1.0;"/><text fill="#000000" font-family="sans-serif" font-size="11" lengthAdjust="spacingAndGlyphs" textLength="728" x="95" y="304.0386">storeOwnerPhoneSignUp(String credential, String companyName, String nickname, String siret, String password) : StoreOwner</text><ellipse cx="86" cy="313.6328" fill="#84BE84" rx="3" ry="3" style="stroke:#038048;stroke-width:1.0;"/><text fill="#000000" font-family="sans-serif" font-size="11" lengthAdjust="spacingAndGlyphs" textLength="724" x="95" y="316.8433">normalUserEmailSignUp(String credential, String firstName, String lastName, String nickname, String password) : NormalUser</text><ellipse cx="86" cy="326.4375" fill="#84BE84" rx="3" ry="3" style="stroke:#038048;stroke-width:1.0;"/><text fill="#000000" font-family="sans-serif" font-size="11" lengthAdjust="spacingAndGlyphs" textLength="728" x="95" y="329.6479">normalUserPhoneSignUp(String credential, String firstName, String lastName, String nickname, String password) : NormalUser</text><ellipse cx="86" cy="339.2422" fill="#84BE84" rx="3" ry="3" style="stroke:#038048;stroke-width:1.0;"/><text fill="#000000" font-family="sans-serif" font-size="11" lengthAdjust="spacingAndGlyphs" textLength="78" x="95" y="342.4526">logout() : void</text><!--MD5=[2ca1536628238a7dc78c5d90808014f9]
class Session--><rect codeLine="30" fill="#FEFECE" filter="url(#f1u4iozz1ddy1d)" height="124.8281" id="Session" style="stroke:#A80036;stroke-width:1.5;" width="251" x="864.5" y="198.5"/><ellipse cx="961.25" cy="214.5" fill="#ADD1B2" rx="11" ry="11" style="stroke:#A80036;stroke-width:1.0;"/><path d="M964.2188,220.1406 Q963.6406,220.4375 963,220.5781 Q962.3594,220.7344 961.6563,220.7344 Q959.1563,220.7344 957.8281,219.0938 Q956.5156,217.4375 956.5156,214.3125 Q956.5156,211.1875 957.8281,209.5313 Q959.1563,207.875 961.6563,207.875 Q962.3594,207.875 963,208.0313 Q963.6563,208.1875 964.2188,208.4844 L964.2188,211.2031 Q963.5938,210.625 963,210.3594 Q962.4063,210.0781 961.7813,210.0781 Q960.4375,210.0781 959.75,211.1563 Q959.0625,212.2188 959.0625,214.3125 Q959.0625,216.4063 959.75,217.4844 Q960.4375,218.5469 961.7813,218.5469 Q962.4063,218.5469 963,218.2813 Q963.5938,218 964.2188,217.4219 L964.2188,220.1406 Z " fill="#000000"/><text fill="#000000" font-family="sans-serif" font-size="12" lengthAdjust="spacingAndGlyphs" textLength="49" x="981.75" y="218.6543">Session</text><line style="stroke:#A80036;stroke-width:1.5;" x1="865.5" x2="1114.5" y1="230.5" y2="230.5"/><rect fill="none" height="6" style="stroke:#C82930;stroke-width:1.0;" width="6" x="872.5" y="238.5"/><text fill="#000000" font-family="sans-serif" font-size="11" lengthAdjust="spacingAndGlyphs" textLength="186" x="884.5" y="244.7104">loggedNormalUser : NormalUser</text><rect fill="none" height="6" style="stroke:#C82930;stroke-width:1.0;" width="6" x="872.5" y="251.3047"/><text fill="#000000" font-family="sans-serif" font-size="11" lengthAdjust="spacingAndGlyphs" textLength="186" x="884.5" y="257.5151">loggedStoreOwner : StoreOwner</text><line style="stroke:#A80036;stroke-width:1.5;" x1="865.5" x2="1114.5" y1="264.1094" y2="264.1094"/><ellipse cx="875.5" cy="275.1094" fill="#84BE84" rx="3" ry="3" style="stroke:#038048;stroke-width:1.0;"/><text fill="#000000" font-family="sans-serif" font-size="11" lengthAdjust="spacingAndGlyphs" textLength="132" x="884.5" y="278.3198">getInstance() : Session</text><ellipse cx="875.5" cy="287.9141" fill="#84BE84" rx="3" ry="3" style="stroke:#038048;stroke-width:1.0;"/><text fill="#000000" font-family="sans-serif" font-size="11" lengthAdjust="spacingAndGlyphs" textLength="225" x="884.5" y="291.1245">getLoggedInNormalUser() : NormalUser</text><ellipse cx="875.5" cy="300.7188" fill="#84BE84" rx="3" ry="3" style="stroke:#038048;stroke-width:1.0;"/><text fill="#000000" font-family="sans-serif" font-size="11" lengthAdjust="spacingAndGlyphs" textLength="225" x="884.5" y="303.9292">getLoggedInStoreOwner() : StoreOwner</text><ellipse cx="875.5" cy="313.5234" fill="#84BE84" rx="3" ry="3" style="stroke:#038048;stroke-width:1.0;"/><text fill="#000000" font-family="sans-serif" font-size="11" lengthAdjust="spacingAndGlyphs" textLength="78" x="884.5" y="316.7339">logout() : void</text><!--MD5=[4a0300a6597e068a69ac5dc42e345e2c]
class DAOFactory--><rect codeLine="45" fill="#FEFECE" filter="url(#f1u4iozz1ddy1d)" height="86.4141" id="DAOFactory" style="stroke:#A80036;stroke-width:1.5;" width="204" x="193" y="415"/><ellipse cx="254.75" cy="431" fill="#ADD1B2" rx="11" ry="11" style="stroke:#A80036;stroke-width:1.0;"/><path d="M257.7188,436.6406 Q257.1406,436.9375 256.5,437.0781 Q255.8594,437.2344 255.1563,437.2344 Q252.6563,437.2344 251.3281,435.5938 Q250.0156,433.9375 250.0156,430.8125 Q250.0156,427.6875 251.3281,426.0313 Q252.6563,424.375 255.1563,424.375 Q255.8594,424.375 256.5,424.5313 Q257.1563,424.6875 257.7188,424.9844 L257.7188,427.7031 Q257.0938,427.125 256.5,426.8594 Q255.9063,426.5781 255.2813,426.5781 Q253.9375,426.5781 253.25,427.6563 Q252.5625,428.7188 252.5625,430.8125 Q252.5625,432.9063 253.25,433.9844 Q253.9375,435.0469 255.2813,435.0469 Q255.9063,435.0469 256.5,434.7813 Q257.0938,434.5 257.7188,433.9219 L257.7188,436.6406 Z " fill="#000000"/><text fill="#000000" font-family="sans-serif" font-size="12" lengthAdjust="spacingAndGlyphs" textLength="72" x="275.25" y="435.1543">DAOFactory</text><line style="stroke:#A80036;stroke-width:1.5;" x1="194" x2="396" y1="447" y2="447"/><polygon fill="none" points="204,453,208,457,204,461,200,457" style="stroke:#B38D22;stroke-width:1.0;"/><text fill="#000000" font-family="sans-serif" font-size="11" lengthAdjust="spacingAndGlyphs" text-decoration="underline" textLength="136" x="213" y="461.2104">connection : Connection</text><line style="stroke:#A80036;stroke-width:1.5;" x1="194" x2="396" y1="467.8047" y2="467.8047"/><ellipse cx="204" cy="478.8047" fill="#84BE84" rx="3" ry="3" style="stroke:#038048;stroke-width:1.0;"/><text fill="#000000" font-family="sans-serif" font-size="11" lengthAdjust="spacingAndGlyphs" textLength="178" x="213" y="482.0151">createUserDao() : UserDaoImpl</text><ellipse cx="204" cy="491.6094" fill="#84BE84" rx="3" ry="3" style="stroke:#038048;stroke-width:1.0;"/><text fill="#000000" font-family="sans-serif" font-size="11" lengthAdjust="spacingAndGlyphs" text-decoration="underline" textLength="164" x="213" y="494.8198">getConnection() : Connection</text><!--MD5=[f24ebb147806559577bd3d8174bd9cfc]
class UserDAOImpl--><rect codeLine="66" fill="#FEFECE" filter="url(#f1u4iozz1ddy1d)" height="150.4375" id="UserDAOImpl" style="stroke:#A80036;stroke-width:1.5;" width="316" x="399" y="800"/><ellipse cx="512.75" cy="816" fill="#ADD1B2" rx="11" ry="11" style="stroke:#A80036;stroke-width:1.0;"/><path d="M515.7188,821.6406 Q515.1406,821.9375 514.5,822.0781 Q513.8594,822.2344 513.1563,822.2344 Q510.6563,822.2344 509.3281,820.5938 Q508.0156,818.9375 508.0156,815.8125 Q508.0156,812.6875 509.3281,811.0313 Q510.6563,809.375 513.1563,809.375 Q513.8594,809.375 514.5,809.5313 Q515.1563,809.6875 515.7188,809.9844 L515.7188,812.7031 Q515.0938,812.125 514.5,811.8594 Q513.9063,811.5781 513.2813,811.5781 Q511.9375,811.5781 511.25,812.6563 Q510.5625,813.7188 510.5625,815.8125 Q510.5625,817.9063 511.25,818.9844 Q511.9375,820.0469 513.2813,820.0469 Q513.9063,820.0469 514.5,819.7813 Q515.0938,819.5 515.7188,818.9219 L515.7188,821.6406 Z " fill="#000000"/><text fill="#000000" font-family="sans-serif" font-size="12" lengthAdjust="spacingAndGlyphs" textLength="80" x="533.25" y="820.1543">UserDAOImpl</text><line style="stroke:#A80036;stroke-width:1.5;" x1="400" x2="714" y1="832" y2="832"/><line style="stroke:#A80036;stroke-width:1.5;" x1="400" x2="714" y1="840" y2="840"/><ellipse cx="410" cy="851" fill="#84BE84" rx="3" ry="3" style="stroke:#038048;stroke-width:1.0;"/><text fill="#000000" font-family="sans-serif" font-size="11" lengthAdjust="spacingAndGlyphs" textLength="164" x="419" y="854.2104">getConnection() : Connection</text><ellipse cx="410" cy="863.8047" fill="#84BE84" rx="3" ry="3" style="stroke:#038048;stroke-width:1.0;"/><text fill="#000000" font-family="sans-serif" font-size="11" lengthAdjust="spacingAndGlyphs" textLength="240" x="419" y="867.0151">emailLogin(String email, String password)</text><ellipse cx="410" cy="876.6094" fill="#84BE84" rx="3" ry="3" style="stroke:#038048;stroke-width:1.0;"/><text fill="#000000" font-family="sans-serif" font-size="11" lengthAdjust="spacingAndGlyphs" textLength="248" x="419" y="879.8198">phoneLogin(String phone, String password)</text><ellipse cx="410" cy="889.4141" fill="#84BE84" rx="3" ry="3" style="stroke:#038048;stroke-width:1.0;"/><text fill="#000000" font-family="sans-serif" font-size="11" lengthAdjust="spacingAndGlyphs" textLength="290" x="419" y="892.6245">createStoreOwner(StoreOwner user) : StoreOwner</text><ellipse cx="410" cy="902.2188" fill="#84BE84" rx="3" ry="3" style="stroke:#038048;stroke-width:1.0;"/><text fill="#000000" font-family="sans-serif" font-size="11" lengthAdjust="spacingAndGlyphs" textLength="290" x="419" y="905.4292">createNormalUser(NormalUser user) : NormalUser</text><rect fill="#F24D5C" height="6" style="stroke:#C82930;stroke-width:1.0;" width="6" x="407" y="912.0234"/><text fill="#000000" font-family="sans-serif" font-size="11" lengthAdjust="spacingAndGlyphs" textLength="209" x="419" y="918.2339">findUserByEmail(String email) : User</text><rect fill="#F24D5C" height="6" style="stroke:#C82930;stroke-width:1.0;" width="6" x="407" y="924.8281"/><text fill="#000000" font-family="sans-serif" font-size="11" lengthAdjust="spacingAndGlyphs" textLength="217" x="419" y="931.0386">findUserByPhone(String phone) : User</text><rect fill="#F24D5C" height="6" style="stroke:#C82930;stroke-width:1.0;" width="6" x="407" y="937.6328"/><text fill="#000000" font-family="sans-serif" font-size="11" lengthAdjust="spacingAndGlyphs" textLength="189" x="419" y="943.8433">findUser(String credential) : User</text><!--MD5=[0e2e921ab886777c70e16ce5f6b9950f]
class MySqlDAOFactory--><rect codeLine="52" fill="#FEFECE" filter="url(#f1u4iozz1ddy1d)" height="48" id="MySqlDAOFactory" style="stroke:#A80036;stroke-width:1.5;" width="139" x="32.5" y="629"/><ellipse cx="47.5" cy="645" fill="#ADD1B2" rx="11" ry="11" style="stroke:#A80036;stroke-width:1.0;"/><path d="M50.4688,650.6406 Q49.8906,650.9375 49.25,651.0781 Q48.6094,651.2344 47.9063,651.2344 Q45.4063,651.2344 44.0781,649.5938 Q42.7656,647.9375 42.7656,644.8125 Q42.7656,641.6875 44.0781,640.0313 Q45.4063,638.375 47.9063,638.375 Q48.6094,638.375 49.25,638.5313 Q49.9063,638.6875 50.4688,638.9844 L50.4688,641.7031 Q49.8438,641.125 49.25,640.8594 Q48.6563,640.5781 48.0313,640.5781 Q46.6875,640.5781 46,641.6563 Q45.3125,642.7188 45.3125,644.8125 Q45.3125,646.9063 46,647.9844 Q46.6875,649.0469 48.0313,649.0469 Q48.6563,649.0469 49.25,648.7813 Q49.8438,648.5 50.4688,647.9219 L50.4688,650.6406 Z " fill="#000000"/><text fill="#000000" font-family="sans-serif" font-size="12" lengthAdjust="spacingAndGlyphs" textLength="107" x="61.5" y="649.1543">MySqlDAOFactory</text><line style="stroke:#A80036;stroke-width:1.5;" x1="33.5" x2="170.5" y1="661" y2="661"/><line style="stroke:#A80036;stroke-width:1.5;" x1="33.5" x2="170.5" y1="669" y2="669"/><!--MD5=[a3971c949df0b23e8683b9b55b0827cf]
class MySqlUserDAO--><rect codeLine="53" fill="#FEFECE" filter="url(#f1u4iozz1ddy1d)" height="48" id="MySqlUserDAO" style="stroke:#A80036;stroke-width:1.5;" width="122" x="47" y="1073"/><ellipse cx="62" cy="1089" fill="#ADD1B2" rx="11" ry="11" style="stroke:#A80036;stroke-width:1.0;"/><path d="M64.9688,1094.6406 Q64.3906,1094.9375 63.75,1095.0781 Q63.1094,1095.2344 62.4063,1095.2344 Q59.9063,1095.2344 58.5781,1093.5938 Q57.2656,1091.9375 57.2656,1088.8125 Q57.2656,1085.6875 58.5781,1084.0313 Q59.9063,1082.375 62.4063,1082.375 Q63.1094,1082.375 63.75,1082.5313 Q64.4063,1082.6875 64.9688,1082.9844 L64.9688,1085.7031 Q64.3438,1085.125 63.75,1084.8594 Q63.1563,1084.5781 62.5313,1084.5781 Q61.1875,1084.5781 60.5,1085.6563 Q59.8125,1086.7188 59.8125,1088.8125 Q59.8125,1090.9063 60.5,1091.9844 Q61.1875,1093.0469 62.5313,1093.0469 Q63.1563,1093.0469 63.75,1092.7813 Q64.3438,1092.5 64.9688,1091.9219 L64.9688,1094.6406 Z " fill="#000000"/><text fill="#000000" font-family="sans-serif" font-size="12" lengthAdjust="spacingAndGlyphs" textLength="90" x="76" y="1093.1543">MySqlUserDAO</text><line style="stroke:#A80036;stroke-width:1.5;" x1="48" x2="168" y1="1105" y2="1105"/><line style="stroke:#A80036;stroke-width:1.5;" x1="48" x2="168" y1="1113" y2="1113"/><!--MD5=[53d91c5c39126efc6a9a0f5f529438be]
class MyPostGresDAOFactory--><rect codeLine="59" fill="#FEFECE" filter="url(#f1u4iozz1ddy1d)" height="48" id="MyPostGresDAOFactory" style="stroke:#A80036;stroke-width:1.5;" width="177" x="206.5" y="629"/><ellipse cx="221.5" cy="645" fill="#ADD1B2" rx="11" ry="11" style="stroke:#A80036;stroke-width:1.0;"/><path d="M224.4688,650.6406 Q223.8906,650.9375 223.25,651.0781 Q222.6094,651.2344 221.9063,651.2344 Q219.4063,651.2344 218.0781,649.5938 Q216.7656,647.9375 216.7656,644.8125 Q216.7656,641.6875 218.0781,640.0313 Q219.4063,638.375 221.9063,638.375 Q222.6094,638.375 223.25,638.5313 Q223.9063,638.6875 224.4688,638.9844 L224.4688,641.7031 Q223.8438,641.125 223.25,640.8594 Q222.6563,640.5781 222.0313,640.5781 Q220.6875,640.5781 220,641.6563 Q219.3125,642.7188 219.3125,644.8125 Q219.3125,646.9063 220,647.9844 Q220.6875,649.0469 222.0313,649.0469 Q222.6563,649.0469 223.25,648.7813 Q223.8438,648.5 224.4688,647.9219 L224.4688,650.6406 Z " fill="#000000"/><text fill="#000000" font-family="sans-serif" font-size="12" lengthAdjust="spacingAndGlyphs" textLength="145" x="235.5" y="649.1543">MyPostGresDAOFactory</text><line style="stroke:#A80036;stroke-width:1.5;" x1="207.5" x2="382.5" y1="661" y2="661"/><line style="stroke:#A80036;stroke-width:1.5;" x1="207.5" x2="382.5" y1="669" y2="669"/><!--MD5=[0f754d035f7c043d06ac57997acbdde4]
class MyPostGresUserDAO--><rect codeLine="60" fill="#FEFECE" filter="url(#f1u4iozz1ddy1d)" height="48" id="MyPostGresUserDAO" style="stroke:#A80036;stroke-width:1.5;" width="160" x="221" y="1073"/><ellipse cx="236" cy="1089" fill="#ADD1B2" rx="11" ry="11" style="stroke:#A80036;stroke-width:1.0;"/><path d="M238.9688,1094.6406 Q238.3906,1094.9375 237.75,1095.0781 Q237.1094,1095.2344 236.4063,1095.2344 Q233.9063,1095.2344 232.5781,1093.5938 Q231.2656,1091.9375 231.2656,1088.8125 Q231.2656,1085.6875 232.5781,1084.0313 Q233.9063,1082.375 236.4063,1082.375 Q237.1094,1082.375 237.75,1082.5313 Q238.4063,1082.6875 238.9688,1082.9844 L238.9688,1085.7031 Q238.3438,1085.125 237.75,1084.8594 Q237.1563,1084.5781 236.5313,1084.5781 Q235.1875,1084.5781 234.5,1085.6563 Q233.8125,1086.7188 233.8125,1088.8125 Q233.8125,1090.9063 234.5,1091.9844 Q235.1875,1093.0469 236.5313,1093.0469 Q237.1563,1093.0469 237.75,1092.7813 Q238.3438,1092.5 238.9688,1091.9219 L238.9688,1094.6406 Z " fill="#000000"/><text fill="#000000" font-family="sans-serif" font-size="12" lengthAdjust="spacingAndGlyphs" textLength="128" x="250" y="1093.1543">MyPostGresUserDAO</text><line style="stroke:#A80036;stroke-width:1.5;" x1="222" x2="380" y1="1105" y2="1105"/><line style="stroke:#A80036;stroke-width:1.5;" x1="222" x2="380" y1="1113" y2="1113"/><!--MD5=[ac5237948c69cdb4c70bfe1272ecaec4]
link UserFaçade to Session--><path codeLine="39" d="M829.2305,261 C839.2131,261 849.1958,261 859.1785,261 " fill="none" id="UserFaçade-to-Session" style="stroke:#A80036;stroke-width:1.0;"/><polygon fill="#A80036" points="864.3988,261,855.3988,257,859.3988,261,855.3988,265,864.3988,261" style="stroke:#A80036;stroke-width:1.0;"/><!--MD5=[a9f4f1fea83a3055b8be1e1e8c9c5d32]
link MySqlDAOFactory to MySqlUserDAO--><path codeLine="55" d="M102.8714,677.3201 C103.4104,694.4285 104,717.8615 104,738.5 C104,738.5 104,738.5 104,1011.5 C104,1030.0576 104.9519,1050.8561 105.927,1067.293 " fill="none" id="MySqlDAOFactory-to-MySqlUserDAO" style="stroke:#A80036;stroke-width:1.0;stroke-dasharray:7.0,7.0;"/><polygon fill="#A80036" points="106.2572,1072.6905,109.7,1063.463,105.9518,1067.6998,101.7149,1063.9516,106.2572,1072.6905" style="stroke:#A80036;stroke-width:1.0;"/><text fill="#000000" font-family="sans-serif" font-size="13" lengthAdjust="spacingAndGlyphs" textLength="48" x="105" y="879.5669">creates</text><!--MD5=[b580fc6e2544af6e65bd0538250429bb]
link MyPostGresDAOFactory to MyPostGresUserDAO--><path codeLine="62" d="M295.8714,677.3201 C296.4104,694.4285 297,717.8615 297,738.5 C297,738.5 297,738.5 297,1011.5 C297,1030.0576 297.9519,1050.8561 298.927,1067.293 " fill="none" id="MyPostGresDAOFactory-to-MyPostGresUserDAO" style="stroke:#A80036;stroke-width:1.0;stroke-dasharray:7.0,7.0;"/><polygon fill="#A80036" points="299.2572,1072.6905,302.7,1063.463,298.9518,1067.6998,294.7149,1063.9516,299.2572,1072.6905" style="stroke:#A80036;stroke-width:1.0;"/><text fill="#000000" font-family="sans-serif" font-size="13" lengthAdjust="spacingAndGlyphs" textLength="48" x="298" y="879.5669">creates</text><!--MD5=[2244845d9532617fbdb71d141db8964f]
reverse link DAOFactory to MySqlDAOFactory--><path codeLine="79" d="M237.8673,515.7248 C200.5319,553.4471 153.7078,600.7563 125.9137,628.8385 " fill="none" id="DAOFactory-backto-MySqlDAOFactory" style="stroke:#A80036;stroke-width:1.0;"/><polygon fill="none" points="233.1228,510.5675,252.167,501.2768,243.0732,520.4159,233.1228,510.5675" style="stroke:#A80036;stroke-width:1.0;"/><!--MD5=[0cc072129a130e9263fe0de79ee87aa7]
reverse link DAOFactory to MyPostGresDAOFactory--><path codeLine="80" d="M295,521.2977 C295,558.0069 295,602.1232 295,628.8385 " fill="none" id="DAOFactory-backto-MyPostGresDAOFactory" style="stroke:#A80036;stroke-width:1.0;"/><polygon fill="none" points="288.0001,521.2769,295,501.2768,302.0001,521.2768,288.0001,521.2769" style="stroke:#A80036;stroke-width:1.0;"/><!--MD5=[e708e2d3118b77ae552056fc0a54db72]
reverse link UserDAOImpl to MyPostGresUserDAO--><path codeLine="81" d="M506.191,967.5753 C487.8372,994.6758 465.1076,1022.497 439,1043 C422.0038,1056.3476 401.3034,1066.7498 381.1597,1074.7025 " fill="none" id="UserDAOImpl-backto-MyPostGresUserDAO" style="stroke:#A80036;stroke-width:1.0;"/><polygon fill="none" points="500.5688,963.3798,517.3273,950.4123,512.3131,971.0002,500.5688,963.3798" style="stroke:#A80036;stroke-width:1.0;"/><!--MD5=[5b7abe463d08a5c8e10b2bf1e30029b8]
reverse link UserDAOImpl to MySqlUserDAO--><path codeLine="82" d="M434.6052,960.719 C422.7671,967.9083 410.7795,974.7906 399,981 C322.6227,1021.2611 229.0685,1056.1963 169.0113,1076.9287 " fill="none" id="UserDAOImpl-backto-MySqlUserDAO" style="stroke:#A80036;stroke-width:1.0;"/><polygon fill="none" points="431.1234,954.6409,451.8006,950.0088,438.5251,966.5243,431.1234,954.6409" style="stroke:#A80036;stroke-width:1.0;"/><!--MD5=[e282ed2c854956adf5dcb7f49c64d67c]
link UserFaçade to DAOFactory--><path codeLine="86" d="M381.7657,349.1284 C364.8391,370.3676 347.3941,392.2571 332.6259,410.7879 " fill="none" id="UserFaçade-to-DAOFactory" style="stroke:#A80036;stroke-width:1.0;"/><polygon fill="#A80036" points="329.3224,414.933,338.0596,410.3876,332.4386,411.0228,331.8034,405.4017,329.3224,414.933" style="stroke:#A80036;stroke-width:1.0;"/><!--MD5=[aecd797cf56b919c0904c29837805ff3]
link UserFaçade to UserDAOImpl--><path codeLine="87" d="M485.0193,349.487 C494.8241,382.9921 503,421.7879 503,458 C503,458 503,458 503,738.5 C503,757.3688 507.5168,776.7409 513.9379,794.7469 " fill="none" id="UserFaçade-to-UserDAOImpl" style="stroke:#A80036;stroke-width:1.0;"/><polygon fill="#A80036" points="515.7972,799.7878,516.4352,789.9596,514.0668,795.0968,508.9296,792.7283,515.7972,799.7878" style="stroke:#A80036;stroke-width:1.0;"/><!--MD5=[265aae8d33e96d920e32576d64445938]
link LoginController to UserFaçade--><path codeLine="88" d="M615.3777,107.2801 C596.4299,125.1079 572.8299,147.3128 549.5111,169.2531 " fill="none" id="LoginController-to-UserFaçade" style="stroke:#A80036;stroke-width:1.0;stroke-dasharray:7.0,7.0;"/><polygon fill="#A80036" points="545.7717,172.7714,555.0675,169.5174,549.4132,169.3451,549.5855,163.6909,545.7717,172.7714" style="stroke:#A80036;stroke-width:1.0;"/><!--MD5=[25114e107892efb7d0072851e8c50a43]
link StoreOwnerSignUpController to UserFaçade--><path codeLine="89" d="M452,100.6875 C452,118.999 452,143.3299 452,167.4908 " fill="none" id="StoreOwnerSignUpController-to-UserFaçade" style="stroke:#A80036;stroke-width:1.0;stroke-dasharray:7.0,7.0;"/><polygon fill="#A80036" points="452,172.6417,456,163.6417,452,167.6417,448,163.6417,452,172.6417" style="stroke:#A80036;stroke-width:1.0;"/><!--MD5=[0024823462502f6b5e7e59522247cd17]
link NormalUserSignUpController to UserFaçade--><path codeLine="90" d="M246.3635,100.6875 C270.5065,119.5091 302.8069,144.6903 334.6433,169.5097 " fill="none" id="NormalUserSignUpController-to-UserFaçade" style="stroke:#A80036;stroke-width:1.0;stroke-dasharray:7.0,7.0;"/><polygon fill="#A80036" points="338.9279,172.8499,334.2895,164.1617,334.9847,169.7757,329.3707,170.4708,338.9279,172.8499" style="stroke:#A80036;stroke-width:1.0;"/><!--MD5=[29fde02b0a683f085c59361fb20edfd9]
@startuml
package authController <<Folder>> {
  class NormalUserSignUpController {
    +signUp()
  }
  
  class StoreOwnerSignUpController {
    +signUp()
  }
  
  class LoginController {
    +login() : void
    +logout() : void
  }
}

package auth <<Folder>> {
  class UserFaçade {
    +getInstance() : UserFaçade
    +storeOwnerEmailLogin(String email, String password) : StoreOwner
    +storeOwnerPhoneLogin(String phone, String password) : StoreOwner
    +normalUserEmailLogin(String email, String password) : NormalUser
    +normalUserPhoneLogin(String phone, String password) : NormalUser
    +storeOwnerEmailSignUp(String credential, String companyName, String nickname, String siret, String password) : StoreOwner
    +storeOwnerPhoneSignUp(String credential, String companyName, String nickname, String siret, String password) : StoreOwner
    +normalUserEmailSignUp(String credential, String firstName, String lastName, String nickname, String password) : NormalUser
    +normalUserPhoneSignUp(String credential, String firstName, String lastName, String nickname, String password) : NormalUser
    +logout() : void
  }

  class Session {
    -loggedNormalUser : NormalUser
    -loggedStoreOwner : StoreOwner
    +getInstance() : Session
    +getLoggedInNormalUser() : NormalUser
    +getLoggedInStoreOwner() : StoreOwner
    +logout() : void
  }
  
  UserFaçade -> Session

}

package dao <<Folder>> {

  class DAOFactory {
    #{static}connection : Connection
    +createUserDao() : UserDaoImpl
    +{static}getConnection() : Connection
  }

  package mysql <<Folder>> {
    class MySqlDAOFactory {}
    class MySqlUserDAO {}
    
    MySqlDAOFactory .down.> MySqlUserDAO : creates
  }
  
  package postgres <<Folder>> {
    class MyPostGresDAOFactory {}
    class MyPostGresUserDAO {}
    
    MyPostGresDAOFactory .down.> MyPostGresUserDAO : creates
  }
  
  
  class UserDAOImpl {
    +getConnection() : Connection
    +emailLogin(String email, String password)
    +phoneLogin(String phone, String password)
    +createStoreOwner(StoreOwner user) : StoreOwner
    +createNormalUser(NormalUser user) : NormalUser
    -findUserByEmail(String email) : User
    -findUserByPhone(String phone) : User
    -findUser(String credential) : User
    
    
  }

  DAOFactory <|- - MySqlDAOFactory
  DAOFactory <|- - MyPostGresDAOFactory    
  UserDAOImpl <|- - MyPostGresUserDAO
  UserDAOImpl <|- - MySqlUserDAO

}

UserFaçade -down-> DAOFactory
UserFaçade -down-> UserDAOImpl
LoginController .down.> UserFaçade
StoreOwnerSignUpController .down.> UserFaçade
NormalUserSignUpController .down.> UserFaçade
@enduml

PlantUML version 1.2020.22(Sun Dec 06 09:36:27 UTC 2020)
(GPL source distribution)
Java Runtime: OpenJDK Runtime Environment
JVM: OpenJDK 64-Bit Server VM
Default Encoding: UTF-8
Language: en
Country: US
--></g></svg>