<?xml version="1.0" encoding="UTF-8" standalone="no"?><svg xmlns="http://www.w3.org/2000/svg" xmlns:xlink="http://www.w3.org/1999/xlink" contentScriptType="application/ecmascript" contentStyleType="text/css" height="977px" preserveAspectRatio="none" style="width:895px;height:977px;" version="1.1" viewBox="0 0 895 977" width="895px" zoomAndPan="magnify"><defs><filter height="300%" id="fx3y55q5duoep" width="300%" x="-1" y="-1"><feGaussianBlur result="blurOut" stdDeviation="2.0"/><feColorMatrix in="blurOut" result="blurOut2" type="matrix" values="0 0 0 0 0 0 0 0 0 0 0 0 0 0 0 0 0 0 .4 0"/><feOffset dx="4.0" dy="4.0" in="blurOut2" result="blurOut3"/><feBlend in="SourceGraphic" in2="blurOut3" mode="normal"/></filter></defs><g><!--MD5=[8480038b7a153a023ef4036f22c5216d]
cluster paymentController--><polygon fill="#FFFFFF" filter="url(#fx3y55q5duoep)" points="329,6,482,6,489,28.2969,666,28.2969,666,102,329,102,329,6" style="stroke:#000000;stroke-width:1.5;"/><line style="stroke:#000000;stroke-width:1.5;" x1="329" x2="489" y1="28.2969" y2="28.2969"/><text fill="#000000" font-family="sans-serif" font-size="14" font-weight="bold" lengthAdjust="spacingAndGlyphs" textLength="147" x="333" y="20.9951">paymentController</text><!--MD5=[f9c58d90839a0c7c212d8c6553ac9eb7]
cluster transaction--><polygon fill="#FFFFFF" filter="url(#fx3y55q5duoep)" points="363,133,458,133,465,155.2969,689,155.2969,689,254,363,254,363,133" style="stroke:#000000;stroke-width:1.5;"/><line style="stroke:#000000;stroke-width:1.5;" x1="363" x2="465" y1="155.2969" y2="155.2969"/><text fill="#000000" font-family="sans-serif" font-size="14" font-weight="bold" lengthAdjust="spacingAndGlyphs" textLength="89" x="367" y="147.9951">transaction</text><!--MD5=[5622bc4ba3bf2be5d17935065b98c5f9]
cluster dao--><polygon fill="#FFFFFF" filter="url(#fx3y55q5duoep)" points="16,285,51,285,58,307.2969,878,307.2969,878,970,16,970,16,285" style="stroke:#000000;stroke-width:1.5;"/><line style="stroke:#000000;stroke-width:1.5;" x1="16" x2="58" y1="307.2969" y2="307.2969"/><text fill="#000000" font-family="sans-serif" font-size="14" font-weight="bold" lengthAdjust="spacingAndGlyphs" textLength="29" x="20" y="299.9951">dao</text><!--MD5=[40f389b860e50d90baaf5de832b1264d]
cluster mysql--><polygon fill="#FFFFFF" filter="url(#fx3y55q5duoep)" points="24,499,76,499,83,521.2969,206,521.2969,206,962,24,962,24,499" style="stroke:#000000;stroke-width:1.5;"/><line style="stroke:#000000;stroke-width:1.5;" x1="24" x2="83" y1="521.2969" y2="521.2969"/><text fill="#000000" font-family="sans-serif" font-size="14" font-weight="bold" lengthAdjust="spacingAndGlyphs" textLength="46" x="28" y="513.9951">mysql</text><!--MD5=[bab4019c732006648757f54388533847]
cluster postgres--><polygon fill="#FFFFFF" filter="url(#fx3y55q5duoep)" points="226,499,303,499,310,521.2969,446,521.2969,446,962,226,962,226,499" style="stroke:#000000;stroke-width:1.5;"/><line style="stroke:#000000;stroke-width:1.5;" x1="226" x2="310" y1="521.2969" y2="521.2969"/><text fill="#000000" font-family="sans-serif" font-size="14" font-weight="bold" lengthAdjust="spacingAndGlyphs" textLength="71" x="230" y="513.9951">postgres</text><!--MD5=[46828bc5d464312d1c0592e57d1cf050]
class moneyInputController--><rect codeLine="2" fill="#FEFECE" filter="url(#fx3y55q5duoep)" height="60.8047" id="moneyInputController" style="stroke:#A80036;stroke-width:1.5;" width="166" x="337" y="33"/><ellipse cx="352" cy="49" fill="#ADD1B2" rx="11" ry="11" style="stroke:#A80036;stroke-width:1.0;"/><path d="M354.9688,54.6406 Q354.3906,54.9375 353.75,55.0781 Q353.1094,55.2344 352.4063,55.2344 Q349.9063,55.2344 348.5781,53.5938 Q347.2656,51.9375 347.2656,48.8125 Q347.2656,45.6875 348.5781,44.0313 Q349.9063,42.375 352.4063,42.375 Q353.1094,42.375 353.75,42.5313 Q354.4063,42.6875 354.9688,42.9844 L354.9688,45.7031 Q354.3438,45.125 353.75,44.8594 Q353.1563,44.5781 352.5313,44.5781 Q351.1875,44.5781 350.5,45.6563 Q349.8125,46.7188 349.8125,48.8125 Q349.8125,50.9063 350.5,51.9844 Q351.1875,53.0469 352.5313,53.0469 Q353.1563,53.0469 353.75,52.7813 Q354.3438,52.5 354.9688,51.9219 L354.9688,54.6406 Z " fill="#000000"/><text fill="#000000" font-family="sans-serif" font-size="12" lengthAdjust="spacingAndGlyphs" textLength="134" x="366" y="53.1543">moneyInputController</text><line style="stroke:#A80036;stroke-width:1.5;" x1="338" x2="502" y1="65" y2="65"/><line style="stroke:#A80036;stroke-width:1.5;" x1="338" x2="502" y1="73" y2="73"/><ellipse cx="348" cy="84" fill="#84BE84" rx="3" ry="3" style="stroke:#038048;stroke-width:1.0;"/><text fill="#000000" font-family="sans-serif" font-size="11" lengthAdjust="spacingAndGlyphs" textLength="72" x="357" y="87.2104">sendMoney()</text><!--MD5=[b99c57cecdeff08c80913024a899ac2f]
class splitController--><rect codeLine="5" fill="#FEFECE" filter="url(#fx3y55q5duoep)" height="60.8047" id="splitController" style="stroke:#A80036;stroke-width:1.5;" width="119" x="538.5" y="33"/><ellipse cx="553.5" cy="49" fill="#ADD1B2" rx="11" ry="11" style="stroke:#A80036;stroke-width:1.0;"/><path d="M556.4688,54.6406 Q555.8906,54.9375 555.25,55.0781 Q554.6094,55.2344 553.9063,55.2344 Q551.4063,55.2344 550.0781,53.5938 Q548.7656,51.9375 548.7656,48.8125 Q548.7656,45.6875 550.0781,44.0313 Q551.4063,42.375 553.9063,42.375 Q554.6094,42.375 555.25,42.5313 Q555.9063,42.6875 556.4688,42.9844 L556.4688,45.7031 Q555.8438,45.125 555.25,44.8594 Q554.6563,44.5781 554.0313,44.5781 Q552.6875,44.5781 552,45.6563 Q551.3125,46.7188 551.3125,48.8125 Q551.3125,50.9063 552,51.9844 Q552.6875,53.0469 554.0313,53.0469 Q554.6563,53.0469 555.25,52.7813 Q555.8438,52.5 556.4688,51.9219 L556.4688,54.6406 Z " fill="#000000"/><text fill="#000000" font-family="sans-serif" font-size="12" lengthAdjust="spacingAndGlyphs" textLength="87" x="567.5" y="53.1543">splitController</text><line style="stroke:#A80036;stroke-width:1.5;" x1="539.5" x2="656.5" y1="65" y2="65"/><line style="stroke:#A80036;stroke-width:1.5;" x1="539.5" x2="656.5" y1="73" y2="73"/><ellipse cx="549.5" cy="84" fill="#84BE84" rx="3" ry="3" style="stroke:#038048;stroke-width:1.0;"/><text fill="#000000" font-family="sans-serif" font-size="11" lengthAdjust="spacingAndGlyphs" textLength="53" x="558.5" y="87.2104">paySplit()</text><!--MD5=[73e1e2b7d5870e3c423ec75e997fa891]
class TransactionFaçade--><rect codeLine="11" fill="#FEFECE" filter="url(#fx3y55q5duoep)" height="86.4141" id="TransactionFaçade" style="stroke:#A80036;stroke-width:1.5;" width="310" x="371" y="160"/><ellipse cx="461.75" cy="176" fill="#ADD1B2" rx="11" ry="11" style="stroke:#A80036;stroke-width:1.0;"/><path d="M464.7188,181.6406 Q464.1406,181.9375 463.5,182.0781 Q462.8594,182.2344 462.1563,182.2344 Q459.6563,182.2344 458.3281,180.5938 Q457.0156,178.9375 457.0156,175.8125 Q457.0156,172.6875 458.3281,171.0313 Q459.6563,169.375 462.1563,169.375 Q462.8594,169.375 463.5,169.5313 Q464.1563,169.6875 464.7188,169.9844 L464.7188,172.7031 Q464.0938,172.125 463.5,171.8594 Q462.9063,171.5781 462.2813,171.5781 Q460.9375,171.5781 460.25,172.6563 Q459.5625,173.7188 459.5625,175.8125 Q459.5625,177.9063 460.25,178.9844 Q460.9375,180.0469 462.2813,180.0469 Q462.9063,180.0469 463.5,179.7813 Q464.0938,179.5 464.7188,178.9219 L464.7188,181.6406 Z " fill="#000000"/><text fill="#000000" font-family="sans-serif" font-size="12" lengthAdjust="spacingAndGlyphs" textLength="120" x="482.25" y="180.1543">TransactionFaçade</text><line style="stroke:#A80036;stroke-width:1.5;" x1="372" x2="680" y1="192" y2="192"/><line style="stroke:#A80036;stroke-width:1.5;" x1="372" x2="680" y1="200" y2="200"/><ellipse cx="382" cy="211" fill="#84BE84" rx="3" ry="3" style="stroke:#038048;stroke-width:1.0;"/><text fill="#000000" font-family="sans-serif" font-size="11" lengthAdjust="spacingAndGlyphs" textLength="193" x="391" y="214.2104">getInstance() : TransactionFaçade</text><ellipse cx="382" cy="223.8047" fill="#84BE84" rx="3" ry="3" style="stroke:#038048;stroke-width:1.0;"/><text fill="#000000" font-family="sans-serif" font-size="11" lengthAdjust="spacingAndGlyphs" textLength="284" x="391" y="227.0151">sendMoney(int sender, int receiver, Float amount)</text><ellipse cx="382" cy="236.6094" fill="#84BE84" rx="3" ry="3" style="stroke:#038048;stroke-width:1.0;"/><text fill="#000000" font-family="sans-serif" font-size="11" lengthAdjust="spacingAndGlyphs" textLength="265" x="391" y="239.8198">paySplit(int sender, int receiver, Float amount)</text><!--MD5=[4a0300a6597e068a69ac5dc42e345e2c]
class DAOFactory--><rect codeLine="19" fill="#FEFECE" filter="url(#fx3y55q5duoep)" height="86.4141" id="DAOFactory" style="stroke:#A80036;stroke-width:1.5;" width="260" x="206" y="312"/><ellipse cx="295.75" cy="328" fill="#ADD1B2" rx="11" ry="11" style="stroke:#A80036;stroke-width:1.0;"/><path d="M298.7188,333.6406 Q298.1406,333.9375 297.5,334.0781 Q296.8594,334.2344 296.1563,334.2344 Q293.6563,334.2344 292.3281,332.5938 Q291.0156,330.9375 291.0156,327.8125 Q291.0156,324.6875 292.3281,323.0313 Q293.6563,321.375 296.1563,321.375 Q296.8594,321.375 297.5,321.5313 Q298.1563,321.6875 298.7188,321.9844 L298.7188,324.7031 Q298.0938,324.125 297.5,323.8594 Q296.9063,323.5781 296.2813,323.5781 Q294.9375,323.5781 294.25,324.6563 Q293.5625,325.7188 293.5625,327.8125 Q293.5625,329.9063 294.25,330.9844 Q294.9375,332.0469 296.2813,332.0469 Q296.9063,332.0469 297.5,331.7813 Q298.0938,331.5 298.7188,330.9219 L298.7188,333.6406 Z " fill="#000000"/><text fill="#000000" font-family="sans-serif" font-size="12" lengthAdjust="spacingAndGlyphs" textLength="72" x="316.25" y="332.1543">DAOFactory</text><line style="stroke:#A80036;stroke-width:1.5;" x1="207" x2="465" y1="344" y2="344"/><polygon fill="none" points="217,350,221,354,217,358,213,354" style="stroke:#B38D22;stroke-width:1.0;"/><text fill="#000000" font-family="sans-serif" font-size="11" lengthAdjust="spacingAndGlyphs" text-decoration="underline" textLength="136" x="226" y="358.2104">connection : Connection</text><line style="stroke:#A80036;stroke-width:1.5;" x1="207" x2="465" y1="364.8047" y2="364.8047"/><ellipse cx="217" cy="375.8047" fill="#84BE84" rx="3" ry="3" style="stroke:#038048;stroke-width:1.0;"/><text fill="#000000" font-family="sans-serif" font-size="11" lengthAdjust="spacingAndGlyphs" textLength="234" x="226" y="379.0151">createTransactionDao() : TransactionDao</text><ellipse cx="217" cy="388.6094" fill="#84BE84" rx="3" ry="3" style="stroke:#038048;stroke-width:1.0;"/><text fill="#000000" font-family="sans-serif" font-size="11" lengthAdjust="spacingAndGlyphs" text-decoration="underline" textLength="164" x="226" y="391.8198">getConnection() : Connection</text><!--MD5=[3a6eab5b2414aa53c0b74b8f29c4c326]
class TransactionDAO--><rect codeLine="36" fill="#FEFECE" filter="url(#fx3y55q5duoep)" height="86.4141" id="TransactionDAO" style="stroke:#A80036;stroke-width:1.5;" width="417" x="453.5" y="697"/><ellipse cx="607.75" cy="713" fill="#ADD1B2" rx="11" ry="11" style="stroke:#A80036;stroke-width:1.0;"/><path d="M610.7188,718.6406 Q610.1406,718.9375 609.5,719.0781 Q608.8594,719.2344 608.1563,719.2344 Q605.6563,719.2344 604.3281,717.5938 Q603.0156,715.9375 603.0156,712.8125 Q603.0156,709.6875 604.3281,708.0313 Q605.6563,706.375 608.1563,706.375 Q608.8594,706.375 609.5,706.5313 Q610.1563,706.6875 610.7188,706.9844 L610.7188,709.7031 Q610.0938,709.125 609.5,708.8594 Q608.9063,708.5781 608.2813,708.5781 Q606.9375,708.5781 606.25,709.6563 Q605.5625,710.7188 605.5625,712.8125 Q605.5625,714.9063 606.25,715.9844 Q606.9375,717.0469 608.2813,717.0469 Q608.9063,717.0469 609.5,716.7813 Q610.0938,716.5 610.7188,715.9219 L610.7188,718.6406 Z " fill="#000000"/><text fill="#000000" font-family="sans-serif" font-size="12" lengthAdjust="spacingAndGlyphs" textLength="100" x="628.25" y="717.1543">TransactionDAO</text><line style="stroke:#A80036;stroke-width:1.5;" x1="454.5" x2="869.5" y1="729" y2="729"/><line style="stroke:#A80036;stroke-width:1.5;" x1="454.5" x2="869.5" y1="737" y2="737"/><ellipse cx="464.5" cy="748" fill="#84BE84" rx="3" ry="3" style="stroke:#038048;stroke-width:1.0;"/><text fill="#000000" font-family="sans-serif" font-size="11" lengthAdjust="spacingAndGlyphs" textLength="164" x="473.5" y="751.2104">getConnection() : Connection</text><ellipse cx="464.5" cy="760.8047" fill="#84BE84" rx="3" ry="3" style="stroke:#038048;stroke-width:1.0;"/><text fill="#000000" font-family="sans-serif" font-size="11" lengthAdjust="spacingAndGlyphs" textLength="391" x="473.5" y="764.0151">createUserToUserTransaction(int sender, int receiver, Float amount)</text><ellipse cx="464.5" cy="773.6094" fill="#84BE84" rx="3" ry="3" style="stroke:#038048;stroke-width:1.0;"/><text fill="#000000" font-family="sans-serif" font-size="11" lengthAdjust="spacingAndGlyphs" textLength="348" x="473.5" y="776.8198">createSplitTransaction(int sender, int receiver, Float amount)</text><!--MD5=[0e2e921ab886777c70e16ce5f6b9950f]
class MySqlDAOFactory--><rect codeLine="26" fill="#FEFECE" filter="url(#fx3y55q5duoep)" height="48" id="MySqlDAOFactory" style="stroke:#A80036;stroke-width:1.5;" width="139" x="54.5" y="526"/><ellipse cx="69.5" cy="542" fill="#ADD1B2" rx="11" ry="11" style="stroke:#A80036;stroke-width:1.0;"/><path d="M72.4688,547.6406 Q71.8906,547.9375 71.25,548.0781 Q70.6094,548.2344 69.9063,548.2344 Q67.4063,548.2344 66.0781,546.5938 Q64.7656,544.9375 64.7656,541.8125 Q64.7656,538.6875 66.0781,537.0313 Q67.4063,535.375 69.9063,535.375 Q70.6094,535.375 71.25,535.5313 Q71.9063,535.6875 72.4688,535.9844 L72.4688,538.7031 Q71.8438,538.125 71.25,537.8594 Q70.6563,537.5781 70.0313,537.5781 Q68.6875,537.5781 68,538.6563 Q67.3125,539.7188 67.3125,541.8125 Q67.3125,543.9063 68,544.9844 Q68.6875,546.0469 70.0313,546.0469 Q70.6563,546.0469 71.25,545.7813 Q71.8438,545.5 72.4688,544.9219 L72.4688,547.6406 Z " fill="#000000"/><text fill="#000000" font-family="sans-serif" font-size="12" lengthAdjust="spacingAndGlyphs" textLength="107" x="83.5" y="546.1543">MySqlDAOFactory</text><line style="stroke:#A80036;stroke-width:1.5;" x1="55.5" x2="192.5" y1="558" y2="558"/><line style="stroke:#A80036;stroke-width:1.5;" x1="55.5" x2="192.5" y1="566" y2="566"/><!--MD5=[a3f7ff5ac8c6e20d20d0eac371cbe13b]
class MySqlTransactionDAO--><rect codeLine="27" fill="#FEFECE" filter="url(#fx3y55q5duoep)" height="48" id="MySqlTransactionDAO" style="stroke:#A80036;stroke-width:1.5;" width="167" x="31.5" y="906"/><ellipse cx="46.5" cy="922" fill="#ADD1B2" rx="11" ry="11" style="stroke:#A80036;stroke-width:1.0;"/><path d="M49.4688,927.6406 Q48.8906,927.9375 48.25,928.0781 Q47.6094,928.2344 46.9063,928.2344 Q44.4063,928.2344 43.0781,926.5938 Q41.7656,924.9375 41.7656,921.8125 Q41.7656,918.6875 43.0781,917.0313 Q44.4063,915.375 46.9063,915.375 Q47.6094,915.375 48.25,915.5313 Q48.9063,915.6875 49.4688,915.9844 L49.4688,918.7031 Q48.8438,918.125 48.25,917.8594 Q47.6563,917.5781 47.0313,917.5781 Q45.6875,917.5781 45,918.6563 Q44.3125,919.7188 44.3125,921.8125 Q44.3125,923.9063 45,924.9844 Q45.6875,926.0469 47.0313,926.0469 Q47.6563,926.0469 48.25,925.7813 Q48.8438,925.5 49.4688,924.9219 L49.4688,927.6406 Z " fill="#000000"/><text fill="#000000" font-family="sans-serif" font-size="12" lengthAdjust="spacingAndGlyphs" textLength="135" x="60.5" y="926.1543">MySqlTransactionDAO</text><line style="stroke:#A80036;stroke-width:1.5;" x1="32.5" x2="197.5" y1="938" y2="938"/><line style="stroke:#A80036;stroke-width:1.5;" x1="32.5" x2="197.5" y1="946" y2="946"/><!--MD5=[53d91c5c39126efc6a9a0f5f529438be]
class MyPostGresDAOFactory--><rect codeLine="32" fill="#FEFECE" filter="url(#fx3y55q5duoep)" height="48" id="MyPostGresDAOFactory" style="stroke:#A80036;stroke-width:1.5;" width="177" x="247.5" y="526"/><ellipse cx="262.5" cy="542" fill="#ADD1B2" rx="11" ry="11" style="stroke:#A80036;stroke-width:1.0;"/><path d="M265.4688,547.6406 Q264.8906,547.9375 264.25,548.0781 Q263.6094,548.2344 262.9063,548.2344 Q260.4063,548.2344 259.0781,546.5938 Q257.7656,544.9375 257.7656,541.8125 Q257.7656,538.6875 259.0781,537.0313 Q260.4063,535.375 262.9063,535.375 Q263.6094,535.375 264.25,535.5313 Q264.9063,535.6875 265.4688,535.9844 L265.4688,538.7031 Q264.8438,538.125 264.25,537.8594 Q263.6563,537.5781 263.0313,537.5781 Q261.6875,537.5781 261,538.6563 Q260.3125,539.7188 260.3125,541.8125 Q260.3125,543.9063 261,544.9844 Q261.6875,546.0469 263.0313,546.0469 Q263.6563,546.0469 264.25,545.7813 Q264.8438,545.5 265.4688,544.9219 L265.4688,547.6406 Z " fill="#000000"/><text fill="#000000" font-family="sans-serif" font-size="12" lengthAdjust="spacingAndGlyphs" textLength="145" x="276.5" y="546.1543">MyPostGresDAOFactory</text><line style="stroke:#A80036;stroke-width:1.5;" x1="248.5" x2="423.5" y1="558" y2="558"/><line style="stroke:#A80036;stroke-width:1.5;" x1="248.5" x2="423.5" y1="566" y2="566"/><!--MD5=[bf804b7c3924d30ddf1ffe8c3deadb2b]
class MyPostGresTransactionDAO--><rect codeLine="33" fill="#FEFECE" filter="url(#fx3y55q5duoep)" height="48" id="MyPostGresTransactionDAO" style="stroke:#A80036;stroke-width:1.5;" width="205" x="233.5" y="906"/><ellipse cx="248.5" cy="922" fill="#ADD1B2" rx="11" ry="11" style="stroke:#A80036;stroke-width:1.0;"/><path d="M251.4688,927.6406 Q250.8906,927.9375 250.25,928.0781 Q249.6094,928.2344 248.9063,928.2344 Q246.4063,928.2344 245.0781,926.5938 Q243.7656,924.9375 243.7656,921.8125 Q243.7656,918.6875 245.0781,917.0313 Q246.4063,915.375 248.9063,915.375 Q249.6094,915.375 250.25,915.5313 Q250.9063,915.6875 251.4688,915.9844 L251.4688,918.7031 Q250.8438,918.125 250.25,917.8594 Q249.6563,917.5781 249.0313,917.5781 Q247.6875,917.5781 247,918.6563 Q246.3125,919.7188 246.3125,921.8125 Q246.3125,923.9063 247,924.9844 Q247.6875,926.0469 249.0313,926.0469 Q249.6563,926.0469 250.25,925.7813 Q250.8438,925.5 251.4688,924.9219 L251.4688,927.6406 Z " fill="#000000"/><text fill="#000000" font-family="sans-serif" font-size="12" lengthAdjust="spacingAndGlyphs" textLength="173" x="262.5" y="926.1543">MyPostGresTransactionDAO</text><line style="stroke:#A80036;stroke-width:1.5;" x1="234.5" x2="437.5" y1="938" y2="938"/><line style="stroke:#A80036;stroke-width:1.5;" x1="234.5" x2="437.5" y1="946" y2="946"/><!--MD5=[097dfe273c81c4a0248440e11a8351b4]
link MySqlDAOFactory to MySqlTransactionDAO--><path codeLine="28" d="M121.3858,574.2918 C119.7689,591.3873 118,614.8164 118,635.5 C118,635.5 118,635.5 118,844.5 C118,863.0487 117.2861,883.847 116.5548,900.286 " fill="none" id="MySqlDAOFactory-to-MySqlTransactionDAO" style="stroke:#A80036;stroke-width:1.0;stroke-dasharray:7.0,7.0;"/><polygon fill="#A80036" points="116.3071,905.6843,120.7156,896.8772,116.5364,900.6896,112.724,896.5103,116.3071,905.6843" style="stroke:#A80036;stroke-width:1.0;"/><text fill="#000000" font-family="sans-serif" font-size="13" lengthAdjust="spacingAndGlyphs" textLength="48" x="119" y="744.5669">creates</text><!--MD5=[93f8a2cc8e798d8760e85248b489e64b]
link MyPostGresDAOFactory to MyPostGresTransactionDAO--><path codeLine="34" d="M336,574.3236 C336,591.4336 336,614.8672 336,635.5 C336,635.5 336,635.5 336,844.5 C336,863.0373 336,883.8353 336,900.277 " fill="none" id="MyPostGresDAOFactory-to-MyPostGresTransactionDAO" style="stroke:#A80036;stroke-width:1.0;stroke-dasharray:7.0,7.0;"/><polygon fill="#A80036" points="336,905.6764,340,896.6764,336,900.6764,332,896.6764,336,905.6764" style="stroke:#A80036;stroke-width:1.0;"/><text fill="#000000" font-family="sans-serif" font-size="13" lengthAdjust="spacingAndGlyphs" textLength="48" x="337" y="744.5669">creates</text><!--MD5=[2244845d9532617fbdb71d141db8964f]
reverse link DAOFactory to MySqlDAOFactory--><path codeLine="42" d="M274.3215,411.7326 C233.1675,449.5865 181.1425,497.4396 150.3354,525.7764 " fill="none" id="DAOFactory-backto-MySqlDAOFactory" style="stroke:#A80036;stroke-width:1.0;"/><polygon fill="none" points="269.7543,406.4226,289.2133,398.035,279.2321,416.7266,269.7543,406.4226" style="stroke:#A80036;stroke-width:1.0;"/><!--MD5=[0cc072129a130e9263fe0de79ee87aa7]
reverse link DAOFactory to MyPostGresDAOFactory--><path codeLine="43" d="M336,418.2977 C336,455.0069 336,499.1232 336,525.8385 " fill="none" id="DAOFactory-backto-MyPostGresDAOFactory" style="stroke:#A80036;stroke-width:1.0;"/><polygon fill="none" points="329.0001,418.2769,336,398.2768,343.0001,418.2768,329.0001,418.2769" style="stroke:#A80036;stroke-width:1.0;"/><!--MD5=[6a568f99079ed5bb9f1a95e2d008cf5a]
reverse link TransactionDAO to MyPostGresTransactionDAO--><path codeLine="44" d="M607.5734,797.3767 C579.3967,824.3512 543.1654,855.0993 506,876 C484.2717,888.2193 459.3987,898.0934 435.5073,905.8889 " fill="none" id="TransactionDAO-backto-MyPostGresTransactionDAO" style="stroke:#A80036;stroke-width:1.0;"/><polygon fill="none" points="602.765,792.2878,621.9436,783.2776,612.5698,802.2811,602.765,792.2878" style="stroke:#A80036;stroke-width:1.0;"/><!--MD5=[b86dedbb1f7166fb6e6a11f9add4bdd6]
reverse link TransactionDAO to MySqlTransactionDAO--><path codeLine="45" d="M522.5935,789.8587 C499.6908,797.9744 476.1936,806.2553 454,814 C361.6453,846.2283 254.8408,882.6319 186.1849,905.9212 " fill="none" id="TransactionDAO-backto-MySqlTransactionDAO" style="stroke:#A80036;stroke-width:1.0;"/><polygon fill="none" points="520.4607,783.1879,541.6501,783.0957,525.143,796.3817,520.4607,783.1879" style="stroke:#A80036;stroke-width:1.0;"/><!--MD5=[ee1ae5b7b91bee84231a3f748583c663]
link moneyInputController to TransactionFaçade--><path codeLine="49" d="M443.2621,94.1139 C456.9743,112.1596 474.613,135.3728 490.0792,155.7268 " fill="none" id="moneyInputController-to-TransactionFaçade" style="stroke:#A80036;stroke-width:1.0;stroke-dasharray:7.0,7.0;"/><polygon fill="#A80036" points="493.1416,159.7571,490.8813,150.1711,490.1165,155.776,484.5116,155.0113,493.1416,159.7571" style="stroke:#A80036;stroke-width:1.0;"/><!--MD5=[7bff8f10a7b2ff8fc6b9ffe6ca735b7e]
link splitController to TransactionFaçade--><path codeLine="50" d="M582.1993,94.1139 C572.963,112.0092 561.1038,134.9863 550.662,155.2174 " fill="none" id="splitController-to-TransactionFaçade" style="stroke:#A80036;stroke-width:1.0;stroke-dasharray:7.0,7.0;"/><polygon fill="#A80036" points="548.3189,159.7571,556.0011,153.594,550.612,155.314,548.892,149.9249,548.3189,159.7571" style="stroke:#A80036;stroke-width:1.0;"/><!--MD5=[d86b87f2c4109d00fc3fb4ba461987e8]
link TransactionFaçade to DAOFactory--><path codeLine="52" d="M472.0618,246.1505 C447.693,265.6456 418.8606,288.7115 394.0236,308.5811 " fill="none" id="TransactionFaçade-to-DAOFactory" style="stroke:#A80036;stroke-width:1.0;"/><polygon fill="#A80036" points="390.073,311.7416,399.5996,309.243,393.9774,308.6182,394.6022,302.996,390.073,311.7416" style="stroke:#A80036;stroke-width:1.0;"/><!--MD5=[6c03d9b99ea0fed87fe6060c9d3b644b]
link TransactionFaçade to TransactionDAO--><path codeLine="53" d="M555.0039,246.2155 C571.9375,275.5949 590,316.0596 590,355 C590,355 590,355 590,635.5 C590,656.4198 599.9054,676.1974 612.3681,692.8021 " fill="none" id="TransactionFaçade-to-TransactionDAO" style="stroke:#A80036;stroke-width:1.0;"/><polygon fill="#A80036" points="615.5872,696.954,613.2337,687.3905,612.5235,693.0026,606.9114,692.2924,615.5872,696.954" style="stroke:#A80036;stroke-width:1.0;"/><!--MD5=[b005b57dcd156a9e9d4f67c646ce681c]
@startuml
package paymentController <<Folder>> {
  class moneyInputController {
    +sendMoney()
  }
  class splitController {
    +paySplit()
  }
}

package transaction <<Folder>> {
  class TransactionFaçade {
    +getInstance() : TransactionFaçade
    +sendMoney(int sender, int receiver, Float amount)
    +paySplit(int sender, int receiver, Float amount)
  }
}

package dao <<Folder>> {
  class DAOFactory {
    #{static}connection : Connection
    +createTransactionDao() : TransactionDao
    +{static}getConnection() : Connection
  }

  package mysql <<Folder>> {
    class MySqlDAOFactory {}
    class MySqlTransactionDAO {}
    MySqlDAOFactory .down.> MySqlTransactionDAO : creates
  }
  
  package postgres <<Folder>> {
    class MyPostGresDAOFactory {}
    class MyPostGresTransactionDAO {}
    MyPostGresDAOFactory .down.> MyPostGresTransactionDAO : creates
  }
  class TransactionDAO {
    +getConnection() : Connection
    +createUserToUserTransaction(int sender, int receiver, Float amount)
    +createSplitTransaction(int sender, int receiver, Float amount)
  }

  DAOFactory <|- - MySqlDAOFactory
  DAOFactory <|- - MyPostGresDAOFactory    
  TransactionDAO <|- - MyPostGresTransactionDAO
  TransactionDAO <|- - MySqlTransactionDAO

}

moneyInputController .down.> TransactionFaçade
splitController .down.> TransactionFaçade

TransactionFaçade -down-> DAOFactory
TransactionFaçade - -> TransactionDAO
@enduml

PlantUML version 1.2020.22(Sun Dec 06 09:36:27 UTC 2020)
(GPL source distribution)
Java Runtime: OpenJDK Runtime Environment
JVM: OpenJDK 64-Bit Server VM
Default Encoding: UTF-8
Language: en
Country: US
--></g></svg>