<?xml version="1.0" encoding="UTF-8" standalone="no"?><svg xmlns="http://www.w3.org/2000/svg" xmlns:xlink="http://www.w3.org/1999/xlink" contentScriptType="application/ecmascript" contentStyleType="text/css" height="1465.6px" preserveAspectRatio="none" style="width:1622px;height:1465px;" version="1.1" viewBox="0 0 1622 1465" width="1622.4px" zoomAndPan="magnify"><defs><filter height="300%" id="f1bzafetcjlxtt" width="300%" x="-1" y="-1"><feGaussianBlur result="blurOut" stdDeviation="3.2"/><feColorMatrix in="blurOut" result="blurOut2" type="matrix" values="0 0 0 0 0 0 0 0 0 0 0 0 0 0 0 0 0 0 .4 0"/><feOffset dx="6.4" dy="6.4" in="blurOut2" result="blurOut3"/><feBlend in="SourceGraphic" in2="blurOut3" mode="normal"/></filter></defs><g><!--MD5=[10ea673caf457862023e152271927b45]
cluster controller--><polygon fill="#FFFFFF" filter="url(#f1bzafetcjlxtt)" points="436.8,9.6,558.4,9.6,569.6,45.5813,972.8,45.5813,972.8,188.8,436.8,188.8,436.8,9.6" style="stroke: #000000; stroke-width: 2.4000000000000004;"/><line style="stroke: #000000; stroke-width: 2.4000000000000004;" x1="436.8" x2="569.6" y1="45.5813" y2="45.5813"/><text fill="#000000" font-family="sans-serif" font-size="22.4" font-weight="bold" lengthAdjust="spacingAndGlyphs" textLength="112" x="443.2" y="34.4563">controller</text><!--MD5=[73a39ff06bfd21a4a8df8317230e2ab5]
cluster facade--><polygon fill="#FFFFFF" filter="url(#f1bzafetcjlxtt)" points="483.2,241.6,566.4,241.6,577.6,277.5813,1001.6,277.5813,1001.6,704,483.2,704,483.2,241.6" style="stroke: #000000; stroke-width: 2.4000000000000004;"/><line style="stroke: #000000; stroke-width: 2.4000000000000004;" x1="483.2" x2="577.6" y1="277.5813" y2="277.5813"/><text fill="#000000" font-family="sans-serif" font-size="22.4" font-weight="bold" lengthAdjust="spacingAndGlyphs" textLength="73.6" x="489.6" y="266.4563">facade</text><!--MD5=[5622bc4ba3bf2be5d17935065b98c5f9]
cluster dao--><polygon fill="#FFFFFF" filter="url(#f1bzafetcjlxtt)" points="25.6,756.8,76.8,756.8,88,792.7813,1595.2,792.7813,1595.2,1455.2,25.6,1455.2,25.6,756.8" style="stroke: #000000; stroke-width: 2.4000000000000004;"/><line style="stroke: #000000; stroke-width: 2.4000000000000004;" x1="25.6" x2="88" y1="792.7813" y2="792.7813"/><text fill="#000000" font-family="sans-serif" font-size="22.4" font-weight="bold" lengthAdjust="spacingAndGlyphs" textLength="41.6" x="32" y="781.6563">dao</text><!--MD5=[40f389b860e50d90baaf5de832b1264d]
cluster mysql--><polygon fill="#FFFFFF" filter="url(#f1bzafetcjlxtt)" points="704,1027.2,784,1027.2,795.2,1063.1813,1249.6,1063.1813,1249.6,1416.8,704,1416.8,704,1027.2" style="stroke: #000000; stroke-width: 2.4000000000000004;"/><line style="stroke: #000000; stroke-width: 2.4000000000000004;" x1="704" x2="795.2" y1="1063.1813" y2="1063.1813"/><text fill="#000000" font-family="sans-serif" font-size="22.4" font-weight="bold" lengthAdjust="spacingAndGlyphs" textLength="70.4" x="710.4" y="1052.0563">mysql</text><!--MD5=[46828bc5d464312d1c0592e57d1cf050]
class moneyInputController--><rect codeLine="3" fill="#FEFECE" filter="url(#f1bzafetcjlxtt)" height="97.5281" id="moneyInputController" style="stroke: #A80036; stroke-width: 2.4000000000000004;" width="248" x="463.2" y="65.6"/><ellipse cx="487.2" cy="91.2" fill="#ADD1B2" rx="17.6" ry="17.6" style="stroke: #A80036; stroke-width: 1.6;"/><path d="M491.157,101.0289 Q490.2273,101.507 489.2047,101.7461 Q488.182,101.9852 487.0531,101.9852 Q483.0422,101.9852 480.9305,99.3422 Q478.8188,96.6992 478.8188,91.7055 Q478.8188,86.6984 480.9305,84.0555 Q483.0422,81.4125 487.0531,81.4125 Q488.182,81.4125 489.218,81.6516 Q490.2539,81.8906 491.157,82.3688 L491.157,86.725 Q490.1477,85.7953 489.198,85.3637 Q488.2484,84.932 487.2391,84.932 Q485.0875,84.932 483.9918,86.6387 Q482.8961,88.3453 482.8961,91.7055 Q482.8961,95.0523 483.9918,96.759 Q485.0875,98.4656 487.2391,98.4656 Q488.2484,98.4656 489.198,98.034 Q490.1477,97.6023 491.157,96.6727 Z " fill="#000000"/><text fill="#000000" font-family="sans-serif" font-size="19.2" lengthAdjust="spacingAndGlyphs" textLength="196.8" x="509.6" y="98.4563">moneyInputController</text><line style="stroke: #A80036; stroke-width: 2.4000000000000004;" x1="464.8" x2="709.6" y1="116.8" y2="116.8"/><line style="stroke: #A80036; stroke-width: 2.4000000000000004;" x1="464.8" x2="709.6" y1="129.6" y2="129.6"/><ellipse cx="480.8" cy="147.2" fill="#84BE84" rx="4.8" ry="4.8" style="stroke: #038048; stroke-width: 1.6;"/><text fill="#000000" font-family="sans-serif" font-size="17.6" lengthAdjust="spacingAndGlyphs" textLength="110.4" x="495.2" y="153.0156">sendMoney()</text><!--MD5=[b99c57cecdeff08c80913024a899ac2f]
class splitController--><rect codeLine="6" fill="#FEFECE" filter="url(#f1bzafetcjlxtt)" height="97.5281" id="splitController" style="stroke: #A80036; stroke-width: 2.4000000000000004;" width="179.2" x="768" y="65.6"/><ellipse cx="792" cy="91.2" fill="#ADD1B2" rx="17.6" ry="17.6" style="stroke: #A80036; stroke-width: 1.6;"/><path d="M795.957,101.0289 Q795.0273,101.507 794.0047,101.7461 Q792.982,101.9852 791.8531,101.9852 Q787.8422,101.9852 785.7305,99.3422 Q783.6188,96.6992 783.6188,91.7055 Q783.6188,86.6984 785.7305,84.0555 Q787.8422,81.4125 791.8531,81.4125 Q792.982,81.4125 794.018,81.6516 Q795.0539,81.8906 795.957,82.3688 L795.957,86.725 Q794.9477,85.7953 793.998,85.3637 Q793.0484,84.932 792.0391,84.932 Q789.8875,84.932 788.7918,86.6387 Q787.6961,88.3453 787.6961,91.7055 Q787.6961,95.0523 788.7918,96.759 Q789.8875,98.4656 792.0391,98.4656 Q793.0484,98.4656 793.998,98.034 Q794.9477,97.6023 795.957,96.6727 Z " fill="#000000"/><text fill="#000000" font-family="sans-serif" font-size="19.2" lengthAdjust="spacingAndGlyphs" textLength="128" x="814.4" y="98.4563">splitController</text><line style="stroke: #A80036; stroke-width: 2.4000000000000004;" x1="769.6" x2="945.6" y1="116.8" y2="116.8"/><line style="stroke: #A80036; stroke-width: 2.4000000000000004;" x1="769.6" x2="945.6" y1="129.6" y2="129.6"/><ellipse cx="785.6" cy="147.2" fill="#84BE84" rx="4.8" ry="4.8" style="stroke: #038048; stroke-width: 1.6;"/><text fill="#000000" font-family="sans-serif" font-size="17.6" lengthAdjust="spacingAndGlyphs" textLength="80" x="800" y="153.0156">paySplit()</text><!--MD5=[863f95438c4654ad3ceec0b81ff3356b]
class TransactionFacade--><rect codeLine="12" fill="#FEFECE" filter="url(#f1bzafetcjlxtt)" height="138.9844" id="TransactionFacade" style="stroke: #A80036; stroke-width: 2.4000000000000004;" width="465.6" x="509.6" y="539.2"/><ellipse cx="649.2" cy="564.8" fill="#ADD1B2" rx="17.6" ry="17.6" style="stroke: #A80036; stroke-width: 1.6;"/><path d="M653.157,574.6289 Q652.2273,575.107 651.2047,575.3461 Q650.182,575.5852 649.0531,575.5852 Q645.0422,575.5852 642.9305,572.9422 Q640.8188,570.2992 640.8188,565.3055 Q640.8188,560.2984 642.9305,557.6555 Q645.0422,555.0125 649.0531,555.0125 Q650.182,555.0125 651.218,555.2516 Q652.2539,555.4906 653.157,555.9688 L653.157,560.325 Q652.1477,559.3953 651.198,558.9637 Q650.2484,558.532 649.2391,558.532 Q647.0875,558.532 645.9918,560.2387 Q644.8961,561.9453 644.8961,565.3055 Q644.8961,568.6523 645.9918,570.359 Q647.0875,572.0656 649.2391,572.0656 Q650.2484,572.0656 651.198,571.634 Q652.1477,571.2023 653.157,570.2727 Z " fill="#000000"/><text fill="#000000" font-family="sans-serif" font-size="19.2" lengthAdjust="spacingAndGlyphs" textLength="172.8" x="682" y="572.0563">TransactionFacade</text><line style="stroke: #A80036; stroke-width: 2.4000000000000004;" x1="511.2" x2="973.6" y1="590.4" y2="590.4"/><line style="stroke: #A80036; stroke-width: 2.4000000000000004;" x1="511.2" x2="973.6" y1="603.2" y2="603.2"/><ellipse cx="527.2" cy="620.8" fill="#84BE84" rx="4.8" ry="4.8" style="stroke: #038048; stroke-width: 1.6;"/><text fill="#000000" font-family="sans-serif" font-size="17.6" lengthAdjust="spacingAndGlyphs" textLength="288" x="541.6" y="626.6156">getInstance() : TransactionFacade</text><ellipse cx="527.2" cy="641.5281" fill="#84BE84" rx="4.8" ry="4.8" style="stroke: #038048; stroke-width: 1.6;"/><text fill="#000000" font-family="sans-serif" font-size="17.6" lengthAdjust="spacingAndGlyphs" textLength="424" x="541.6" y="647.3438">sendMoney(int sender, int receiver, Float amount)</text><ellipse cx="527.2" cy="662.2563" fill="#84BE84" rx="4.8" ry="4.8" style="stroke: #038048; stroke-width: 1.6;"/><text fill="#000000" font-family="sans-serif" font-size="17.6" lengthAdjust="spacingAndGlyphs" textLength="393.6" x="541.6" y="668.0719">paySplit(int sender, int receiver, Float amount)</text><!--MD5=[b91dd9f6576f50bcaf7e53db05f781b5]
class SplitFacade--><rect codeLine="18" fill="#FEFECE" filter="url(#f1bzafetcjlxtt)" height="118.2563" id="SplitFacade" style="stroke: #A80036; stroke-width: 2.4000000000000004;" width="264" x="711.2" y="297.6"/><ellipse cx="784.4" cy="323.2" fill="#ADD1B2" rx="17.6" ry="17.6" style="stroke: #A80036; stroke-width: 1.6;"/><path d="M788.357,333.0289 Q787.4273,333.507 786.4047,333.7461 Q785.382,333.9852 784.2531,333.9852 Q780.2422,333.9852 778.1305,331.3422 Q776.0188,328.6992 776.0188,323.7055 Q776.0188,318.6984 778.1305,316.0555 Q780.2422,313.4125 784.2531,313.4125 Q785.382,313.4125 786.418,313.6516 Q787.4539,313.8906 788.357,314.3688 L788.357,318.725 Q787.3477,317.7953 786.398,317.3637 Q785.4484,316.932 784.4391,316.932 Q782.2875,316.932 781.1918,318.6387 Q780.0961,320.3453 780.0961,323.7055 Q780.0961,327.0523 781.1918,328.759 Q782.2875,330.4656 784.4391,330.4656 Q785.4484,330.4656 786.398,330.034 Q787.3477,329.6023 788.357,328.6727 Z " fill="#000000"/><text fill="#000000" font-family="sans-serif" font-size="19.2" lengthAdjust="spacingAndGlyphs" textLength="104" x="817.2" y="330.4563">SplitFacade</text><line style="stroke: #A80036; stroke-width: 2.4000000000000004;" x1="712.8" x2="973.6" y1="348.8" y2="348.8"/><line style="stroke: #A80036; stroke-width: 2.4000000000000004;" x1="712.8" x2="973.6" y1="361.6" y2="361.6"/><ellipse cx="728.8" cy="379.2" fill="#84BE84" rx="4.8" ry="4.8" style="stroke: #038048; stroke-width: 1.6;"/><text fill="#000000" font-family="sans-serif" font-size="17.6" lengthAdjust="spacingAndGlyphs" textLength="222.4" x="743.2" y="385.0156">getInstance() : SplitFacade</text><ellipse cx="728.8" cy="399.9281" fill="#84BE84" rx="4.8" ry="4.8" style="stroke: #038048; stroke-width: 1.6;"/><text fill="#000000" font-family="sans-serif" font-size="17.6" lengthAdjust="spacingAndGlyphs" textLength="123.2" x="743.2" y="405.7438">paySplit(int id)</text><!--MD5=[4a0300a6597e068a69ac5dc42e345e2c]
class DAOFactory--><rect codeLine="28" fill="#FEFECE" filter="url(#f1bzafetcjlxtt)" height="138.9844" id="DAOFactory" style="stroke: #A80036; stroke-width: 2.4000000000000004;" width="393.6" x="766.4" y="812.8"/><ellipse cx="902.8" cy="838.4" fill="#ADD1B2" rx="17.6" ry="17.6" style="stroke: #A80036; stroke-width: 1.6;"/><path d="M906.757,848.2289 Q905.8273,848.707 904.8047,848.9461 Q903.782,849.1852 902.6531,849.1852 Q898.6422,849.1852 896.5305,846.5422 Q894.4188,843.8992 894.4188,838.9055 Q894.4188,833.8984 896.5305,831.2555 Q898.6422,828.6125 902.6531,828.6125 Q903.782,828.6125 904.818,828.8516 Q905.8539,829.0906 906.757,829.5688 L906.757,833.925 Q905.7477,832.9953 904.798,832.5637 Q903.8484,832.132 902.8391,832.132 Q900.6875,832.132 899.5918,833.8387 Q898.4961,835.5453 898.4961,838.9055 Q898.4961,842.2523 899.5918,843.959 Q900.6875,845.6656 902.8391,845.6656 Q903.8484,845.6656 904.798,845.234 Q905.7477,844.8023 906.757,843.8727 Z " fill="#000000"/><text fill="#000000" font-family="sans-serif" font-size="19.2" lengthAdjust="spacingAndGlyphs" textLength="107.2" x="935.6" y="845.6563">DAOFactory</text><line style="stroke: #A80036; stroke-width: 2.4000000000000004;" x1="768" x2="1158.4" y1="864" y2="864"/><polygon fill="none" points="784,873.6,790.4,880,784,886.4,777.6,880" style="stroke: #B38D22; stroke-width: 1.6;"/><text fill="#000000" font-family="sans-serif" font-size="17.6" lengthAdjust="spacingAndGlyphs" text-decoration="underline" textLength="209.6" x="798.4" y="887.4156">connection : Connection</text><line style="stroke: #A80036; stroke-width: 2.4000000000000004;" x1="768" x2="1158.4" y1="897.5281" y2="897.5281"/><ellipse cx="784" cy="915.1281" fill="#84BE84" rx="4.8" ry="4.8" style="stroke: #038048; stroke-width: 1.6;"/><text fill="#000000" font-family="sans-serif" font-size="17.6" lengthAdjust="spacingAndGlyphs" textLength="352" x="798.4" y="920.9438">createTransactionDao() : TransactionDao</text><ellipse cx="784" cy="935.8563" fill="#84BE84" rx="4.8" ry="4.8" style="stroke: #038048; stroke-width: 1.6;"/><text fill="#000000" font-family="sans-serif" font-size="17.6" lengthAdjust="spacingAndGlyphs" text-decoration="underline" textLength="252.8" x="798.4" y="941.6719">getConnection() : Connection</text><!--MD5=[3a6eab5b2414aa53c0b74b8f29c4c326]
class TransactionDAO--><rect codeLine="42" fill="#FEFECE" filter="url(#f1bzafetcjlxtt)" height="138.9844" id="TransactionDAO" style="stroke: #A80036; stroke-width: 2.4000000000000004;" width="625.6" x="52" y="1052"/><ellipse cx="283.6" cy="1077.6" fill="#ADD1B2" rx="17.6" ry="17.6" style="stroke: #A80036; stroke-width: 1.6;"/><path d="M287.557,1087.4289 Q286.6273,1087.907 285.6047,1088.1461 Q284.582,1088.3852 283.4531,1088.3852 Q279.4422,1088.3852 277.3305,1085.7422 Q275.2188,1083.0992 275.2188,1078.1055 Q275.2188,1073.0984 277.3305,1070.4555 Q279.4422,1067.8125 283.4531,1067.8125 Q284.582,1067.8125 285.618,1068.0516 Q286.6539,1068.2906 287.557,1068.7688 L287.557,1073.125 Q286.5477,1072.1953 285.598,1071.7637 Q284.6484,1071.332 283.6391,1071.332 Q281.4875,1071.332 280.3918,1073.0387 Q279.2961,1074.7453 279.2961,1078.1055 Q279.2961,1081.4523 280.3918,1083.159 Q281.4875,1084.8656 283.6391,1084.8656 Q284.6484,1084.8656 285.598,1084.434 Q286.5477,1084.0023 287.557,1083.0727 Z " fill="#000000"/><text fill="#000000" font-family="sans-serif" font-size="19.2" lengthAdjust="spacingAndGlyphs" textLength="148.8" x="316.4" y="1084.8563">TransactionDAO</text><line style="stroke: #A80036; stroke-width: 2.4000000000000004;" x1="53.6" x2="676" y1="1103.2" y2="1103.2"/><line style="stroke: #A80036; stroke-width: 2.4000000000000004;" x1="53.6" x2="676" y1="1116" y2="1116"/><ellipse cx="69.6" cy="1133.6" fill="#84BE84" rx="4.8" ry="4.8" style="stroke: #038048; stroke-width: 1.6;"/><text fill="#000000" font-family="sans-serif" font-size="17.6" lengthAdjust="spacingAndGlyphs" textLength="252.8" x="84" y="1139.4156">getConnection() : Connection</text><ellipse cx="69.6" cy="1154.3281" fill="#84BE84" rx="4.8" ry="4.8" style="stroke: #038048; stroke-width: 1.6;"/><text fill="#000000" font-family="sans-serif" font-size="17.6" lengthAdjust="spacingAndGlyphs" textLength="584" x="84" y="1160.1438">createUserToUserTransaction(int sender, int receiver, Float amount)</text><ellipse cx="69.6" cy="1175.0563" fill="#84BE84" rx="4.8" ry="4.8" style="stroke: #038048; stroke-width: 1.6;"/><text fill="#000000" font-family="sans-serif" font-size="17.6" lengthAdjust="spacingAndGlyphs" textLength="518.4" x="84" y="1180.8719">createSplitTransaction(int sender, int receiver, Float amount)</text><!--MD5=[a5ddcedbf2f6b6b6d755c1c2454e4fa9]
class SplitDAO--><rect codeLine="48" fill="#FEFECE" filter="url(#f1bzafetcjlxtt)" height="118.2563" id="SplitDAO" style="stroke: #A80036; stroke-width: 2.4000000000000004;" width="294.4" x="1275.2" y="1062.4"/><ellipse cx="1375.6" cy="1088" fill="#ADD1B2" rx="17.6" ry="17.6" style="stroke: #A80036; stroke-width: 1.6;"/><path d="M1379.557,1097.8289 Q1378.6273,1098.307 1377.6047,1098.5461 Q1376.582,1098.7852 1375.4531,1098.7852 Q1371.4422,1098.7852 1369.3305,1096.1422 Q1367.2188,1093.4992 1367.2188,1088.5055 Q1367.2188,1083.4984 1369.3305,1080.8555 Q1371.4422,1078.2125 1375.4531,1078.2125 Q1376.582,1078.2125 1377.618,1078.4516 Q1378.6539,1078.6906 1379.557,1079.1688 L1379.557,1083.525 Q1378.5477,1082.5953 1377.598,1082.1637 Q1376.6484,1081.732 1375.6391,1081.732 Q1373.4875,1081.732 1372.3918,1083.4387 Q1371.2961,1085.1453 1371.2961,1088.5055 Q1371.2961,1091.8523 1372.3918,1093.559 Q1373.4875,1095.2656 1375.6391,1095.2656 Q1376.6484,1095.2656 1377.598,1094.834 Q1378.5477,1094.4023 1379.557,1093.4727 Z " fill="#000000"/><text fill="#000000" font-family="sans-serif" font-size="19.2" lengthAdjust="spacingAndGlyphs" textLength="80" x="1408.4" y="1095.2563">SplitDAO</text><line style="stroke: #A80036; stroke-width: 2.4000000000000004;" x1="1276.8" x2="1568" y1="1113.6" y2="1113.6"/><line style="stroke: #A80036; stroke-width: 2.4000000000000004;" x1="1276.8" x2="1568" y1="1126.4" y2="1126.4"/><ellipse cx="1292.8" cy="1144" fill="#84BE84" rx="4.8" ry="4.8" style="stroke: #038048; stroke-width: 1.6;"/><text fill="#000000" font-family="sans-serif" font-size="17.6" lengthAdjust="spacingAndGlyphs" textLength="252.8" x="1307.2" y="1149.8156">getConnection() : Connection</text><ellipse cx="1292.8" cy="1164.7281" fill="#84BE84" rx="4.8" ry="4.8" style="stroke: #038048; stroke-width: 1.6;"/><text fill="#000000" font-family="sans-serif" font-size="17.6" lengthAdjust="spacingAndGlyphs" textLength="174.4" x="1307.2" y="1170.5438">paySplit(int id) : void</text><!--MD5=[0e2e921ab886777c70e16ce5f6b9950f]
class MySqlDAOFactory--><rect codeLine="35" fill="#FEFECE" filter="url(#f1bzafetcjlxtt)" height="76.8" id="MySqlDAOFactory" style="stroke: #A80036; stroke-width: 2.4000000000000004;" width="211.2" x="857.6" y="1083.2"/><ellipse cx="881.6" cy="1108.8" fill="#ADD1B2" rx="17.6" ry="17.6" style="stroke: #A80036; stroke-width: 1.6;"/><path d="M885.557,1118.6289 Q884.6273,1119.107 883.6047,1119.3461 Q882.582,1119.5852 881.4531,1119.5852 Q877.4422,1119.5852 875.3305,1116.9422 Q873.2188,1114.2992 873.2188,1109.3055 Q873.2188,1104.2984 875.3305,1101.6555 Q877.4422,1099.0125 881.4531,1099.0125 Q882.582,1099.0125 883.618,1099.2516 Q884.6539,1099.4906 885.557,1099.9688 L885.557,1104.325 Q884.5477,1103.3953 883.598,1102.9637 Q882.6484,1102.532 881.6391,1102.532 Q879.4875,1102.532 878.3918,1104.2387 Q877.2961,1105.9453 877.2961,1109.3055 Q877.2961,1112.6523 878.3918,1114.359 Q879.4875,1116.0656 881.6391,1116.0656 Q882.6484,1116.0656 883.598,1115.634 Q884.5477,1115.2023 885.557,1114.2727 Z " fill="#000000"/><text fill="#000000" font-family="sans-serif" font-size="19.2" lengthAdjust="spacingAndGlyphs" textLength="160" x="904" y="1116.0563">MySqlDAOFactory</text><line style="stroke: #A80036; stroke-width: 2.4000000000000004;" x1="859.2" x2="1067.2" y1="1134.4" y2="1134.4"/><line style="stroke: #A80036; stroke-width: 2.4000000000000004;" x1="859.2" x2="1067.2" y1="1147.2" y2="1147.2"/><!--MD5=[a3f7ff5ac8c6e20d20d0eac371cbe13b]
class MySqlTransactionDAO--><rect codeLine="36" fill="#FEFECE" filter="url(#f1bzafetcjlxtt)" height="76.8" id="MySqlTransactionDAO" style="stroke: #A80036; stroke-width: 2.4000000000000004;" width="252.8" x="729.6" y="1314.4"/><ellipse cx="753.6" cy="1340" fill="#ADD1B2" rx="17.6" ry="17.6" style="stroke: #A80036; stroke-width: 1.6;"/><path d="M757.557,1349.8289 Q756.6273,1350.307 755.6047,1350.5461 Q754.582,1350.7852 753.4531,1350.7852 Q749.4422,1350.7852 747.3305,1348.1422 Q745.2188,1345.4992 745.2188,1340.5055 Q745.2188,1335.4984 747.3305,1332.8555 Q749.4422,1330.2125 753.4531,1330.2125 Q754.582,1330.2125 755.618,1330.4516 Q756.6539,1330.6906 757.557,1331.1688 L757.557,1335.525 Q756.5477,1334.5953 755.598,1334.1637 Q754.6484,1333.732 753.6391,1333.732 Q751.4875,1333.732 750.3918,1335.4387 Q749.2961,1337.1453 749.2961,1340.5055 Q749.2961,1343.8523 750.3918,1345.559 Q751.4875,1347.2656 753.6391,1347.2656 Q754.6484,1347.2656 755.598,1346.834 Q756.5477,1346.4023 757.557,1345.4727 Z " fill="#000000"/><text fill="#000000" font-family="sans-serif" font-size="19.2" lengthAdjust="spacingAndGlyphs" textLength="201.6" x="776" y="1347.2563">MySqlTransactionDAO</text><line style="stroke: #A80036; stroke-width: 2.4000000000000004;" x1="731.2" x2="980.8" y1="1365.6" y2="1365.6"/><line style="stroke: #A80036; stroke-width: 2.4000000000000004;" x1="731.2" x2="980.8" y1="1378.4" y2="1378.4"/><!--MD5=[2c47170fff28441583cede01b276a78c]
class MySqlSplitDAO--><rect codeLine="37" fill="#FEFECE" filter="url(#f1bzafetcjlxtt)" height="76.8" id="MySqlSplitDAO" style="stroke: #A80036; stroke-width: 2.4000000000000004;" width="184" x="1039.2" y="1314.4"/><ellipse cx="1063.2" cy="1340" fill="#ADD1B2" rx="17.6" ry="17.6" style="stroke: #A80036; stroke-width: 1.6;"/><path d="M1067.157,1349.8289 Q1066.2273,1350.307 1065.2047,1350.5461 Q1064.182,1350.7852 1063.0531,1350.7852 Q1059.0422,1350.7852 1056.9305,1348.1422 Q1054.8188,1345.4992 1054.8188,1340.5055 Q1054.8188,1335.4984 1056.9305,1332.8555 Q1059.0422,1330.2125 1063.0531,1330.2125 Q1064.182,1330.2125 1065.218,1330.4516 Q1066.2539,1330.6906 1067.157,1331.1688 L1067.157,1335.525 Q1066.1477,1334.5953 1065.198,1334.1637 Q1064.2484,1333.732 1063.2391,1333.732 Q1061.0875,1333.732 1059.9918,1335.4387 Q1058.8961,1337.1453 1058.8961,1340.5055 Q1058.8961,1343.8523 1059.9918,1345.559 Q1061.0875,1347.2656 1063.2391,1347.2656 Q1064.2484,1347.2656 1065.198,1346.834 Q1066.1477,1346.4023 1067.157,1345.4727 Z " fill="#000000"/><text fill="#000000" font-family="sans-serif" font-size="19.2" lengthAdjust="spacingAndGlyphs" textLength="132.8" x="1085.6" y="1347.2563">MySqlSplitDAO</text><line style="stroke: #A80036; stroke-width: 2.4000000000000004;" x1="1040.8" x2="1221.6" y1="1365.6" y2="1365.6"/><line style="stroke: #A80036; stroke-width: 2.4000000000000004;" x1="1040.8" x2="1221.6" y1="1378.4" y2="1378.4"/><!--MD5=[7f7a65320509971a19febcc355d53539]
link SplitFacade to TransactionFacade--><path codeLine="23" d="M819.824,416.112 C805.968,450.272 788.272,493.984 773.28,530.976 " fill="none" id="SplitFacade-to-TransactionFacade" style="stroke: #A80036; stroke-width: 1.6; stroke-dasharray: 7.0,7.0;"/><polygon fill="#A80036" points="770.128,538.768,781.4881,527.847,773.1464,531.3593,769.6341,523.0176,770.128,538.768" style="stroke: #A80036; stroke-width: 1.6;"/><polygon fill="#000000" points="803.3956,485.2629,813.1887,473.616,804.4725,470.0841,803.3956,485.2629" style="stroke: #000000; stroke-width: 1.6;"/><text fill="#000000" font-family="sans-serif" font-size="20.8" lengthAdjust="spacingAndGlyphs" textLength="46.4" x="820.8" y="485.7094">uses</text><!--MD5=[097dfe273c81c4a0248440e11a8351b4]
link MySqlDAOFactory to MySqlTransactionDAO--><path codeLine="38" d="M945.744,1160.336 C926.976,1200.256 897.136,1263.696 877.088,1306.368 " fill="none" id="MySqlDAOFactory-to-MySqlTransactionDAO" style="stroke: #A80036; stroke-width: 1.6; stroke-dasharray: 7.0,7.0;"/><polygon fill="#A80036" points="873.456,1314.08,885.3736,1303.7703,876.8591,1306.8399,873.7895,1298.3254,873.456,1314.08" style="stroke: #A80036; stroke-width: 1.6;"/><text fill="#000000" font-family="sans-serif" font-size="20.8" lengthAdjust="spacingAndGlyphs" textLength="72" x="907.2" y="1260.9094">creates</text><!--MD5=[3126643696cdfba07848521934f8cf5c]
link MySqlDAOFactory to MySqlSplitDAO--><path codeLine="39" d="M970.576,1160.176 C978.096,1190.928 992.112,1234.64 1016,1266.4 C1028.256,1282.704 1044.496,1297.264 1060.912,1309.536 " fill="none" id="MySqlDAOFactory-to-MySqlSplitDAO" style="stroke: #A80036; stroke-width: 1.6; stroke-dasharray: 7.0,7.0;"/><polygon fill="#A80036" points="1067.44,1314.288,1059.5642,1300.6391,1060.9721,1309.5799,1052.0313,1310.9878,1067.44,1314.288" style="stroke: #A80036; stroke-width: 1.6;"/><text fill="#000000" font-family="sans-serif" font-size="20.8" lengthAdjust="spacingAndGlyphs" textLength="72" x="1017.6" y="1260.9094">creates</text><!--MD5=[2244845d9532617fbdb71d141db8964f]
reverse link DAOFactory to MySqlDAOFactory--><path codeLine="53" d="M963.2,984.56 C963.2,1019.344 963.2,1056.192 963.2,1082.656 " fill="none" id="DAOFactory-backto-MySqlDAOFactory" style="stroke: #A80036; stroke-width: 1.6;"/><polygon fill="none" points="952,984.256,963.2,952.256,974.4,984.256,952,984.256" style="stroke: #A80036; stroke-width: 1.6;"/><!--MD5=[b86dedbb1f7166fb6e6a11f9add4bdd6]
reverse link TransactionDAO to MySqlTransactionDAO--><path codeLine="54" d="M540.624,1204.816 C621.184,1242.208 712.672,1284.672 776.288,1314.192 " fill="none" id="TransactionDAO-backto-MySqlTransactionDAO" style="stroke: #A80036; stroke-width: 1.6;"/><polygon fill="none" points="535.824,1214.928,511.504,1191.296,545.248,1194.608,535.824,1214.928" style="stroke: #A80036; stroke-width: 1.6;"/><!--MD5=[406f72c383c9e1c1ed3b8e4f698210d2]
reverse link SplitDAO to MySqlSplitDAO--><path codeLine="55" d="M1322.72,1201.248 C1273.856,1239.504 1217.312,1283.776 1178.4,1314.24 " fill="none" id="SplitDAO-backto-MySqlSplitDAO" style="stroke: #A80036; stroke-width: 1.6;"/><polygon fill="none" points="1316.064,1192.24,1348.16,1181.328,1329.872,1209.872,1316.064,1192.24" style="stroke: #A80036; stroke-width: 1.6;"/><!--MD5=[1e4a967229c9e2fb2f6c158208e7b2b1]
link moneyInputController to TransactionFacade--><path codeLine="60" d="M602.224,163.552 C629.168,248.848 685.936,428.512 718.352,531.12 " fill="none" id="moneyInputController-to-TransactionFacade" style="stroke: #A80036; stroke-width: 1.6; stroke-dasharray: 7.0,7.0;"/><polygon fill="#A80036" points="720.848,538.976,722.5922,523.3147,718.428,531.3508,710.3919,527.1866,720.848,538.976" style="stroke: #A80036; stroke-width: 1.6;"/><!--MD5=[a41f3fc0c691e1985bcad8b95da8ed6c]
link splitController to SplitFacade--><path codeLine="61" d="M854.752,163.264 C852.592,199.232 849.584,249.184 847.184,289.12 " fill="none" id="splitController-to-SplitFacade" style="stroke: #A80036; stroke-width: 1.6; stroke-dasharray: 7.0,7.0;"/><polygon fill="#A80036" points="846.672,297.472,853.9254,283.4824,847.1525,289.4864,841.1485,282.7136,846.672,297.472" style="stroke: #A80036; stroke-width: 1.6;"/><!--MD5=[98fb9b3b61fc278bc7abd1dffb33cacd]
link TransactionFacade to DAOFactory--><path codeLine="63" d="M798.112,678.64 C829.888,717.536 869.744,766.352 902.336,806.256 " fill="none" id="TransactionFacade-to-DAOFactory" style="stroke: #A80036; stroke-width: 1.6;"/><polygon fill="#A80036" points="907.504,812.592,903.3632,797.3876,902.4481,806.3922,893.4435,805.4771,907.504,812.592" style="stroke: #A80036; stroke-width: 1.6;"/><!--MD5=[e05d775764165980a33096f11c326e39]
link TransactionFacade to TransactionDAO--><path codeLine="64" d="M691.872,678.592 C621.312,773.808 493.744,945.984 420.512,1044.816 " fill="none" id="TransactionFacade-to-TransactionDAO" style="stroke: #A80036; stroke-width: 1.6;"/><polygon fill="#A80036" points="415.328,1051.792,429.0394,1044.0256,420.0876,1045.3619,418.7513,1036.4102,415.328,1051.792" style="stroke: #A80036; stroke-width: 1.6;"/><!--MD5=[e9b555a038801e8b6e6486e73d02b2f9]
link SplitFacade to DAOFactory--><path codeLine="66" d="M914.352,416.24 C948.192,448.432 985.152,491.584 1003.2,539.2 C1036.096,626.032 1014.272,733.424 992.064,804.352 " fill="none" id="SplitFacade-to-DAOFactory" style="stroke: #A80036; stroke-width: 1.6;"/><polygon fill="#A80036" points="989.504,812.384,1000.0024,800.6322,991.9513,804.7675,987.816,796.7165,989.504,812.384" style="stroke: #A80036; stroke-width: 1.6;"/><!--MD5=[a6e5ba71bbf3665e59971e84ba1827df]
link SplitFacade to SplitDAO--><path codeLine="67" d="M949.6,416.112 C970.768,430.208 991.904,446.368 1009.6,464 C1194.208,647.904 1335.728,928.928 1393.712,1054.928 " fill="none" id="SplitFacade-to-SplitDAO" style="stroke: #A80036; stroke-width: 1.6;"/><polygon fill="#A80036" points="1397.072,1062.272,1396.88,1046.515,1393.734,1055.0016,1385.2474,1051.8557,1397.072,1062.272" style="stroke: #A80036; stroke-width: 1.6;"/><!--MD5=[9319f15c544164f97e2f1bd4b63bd601]
@startuml make_payment

package controller <<Folder>> {
  class moneyInputController {
    +sendMoney()
  }
  class splitController {
    +paySplit()
  }
}

package facade <<Folder>> {
  class TransactionFacade {
    +getInstance() : TransactionFacade
    +sendMoney(int sender, int receiver, Float amount)
    +paySplit(int sender, int receiver, Float amount)
  }

  class SplitFacade {
      +getInstance() : SplitFacade
      +paySplit(int id)
    }

  SplitFacade ..> TransactionFacade : uses >
}


package dao <<Folder>> {
  class DAOFactory {
    #{static}connection : Connection
    +createTransactionDao() : TransactionDao
    +{static}getConnection() : Connection
  }

  package mysql <<Folder>> {
    class MySqlDAOFactory {}
    class MySqlTransactionDAO {}
    class MySqlSplitDAO {}
    MySqlDAOFactory .down.> MySqlTransactionDAO : creates
    MySqlDAOFactory .down.> MySqlSplitDAO : creates
  }

  class TransactionDAO {
    +getConnection() : Connection
    +createUserToUserTransaction(int sender, int receiver, Float amount)
    +createSplitTransaction(int sender, int receiver, Float amount)
  }

  class SplitDAO {
      +getConnection() : Connection
      +paySplit(int id) : void
    }

  DAOFactory <|- - MySqlDAOFactory
  TransactionDAO <|- - MySqlTransactionDAO
  SplitDAO <|- - MySqlSplitDAO


}

moneyInputController .down.> TransactionFacade
splitController .down.> SplitFacade

TransactionFacade -down-> DAOFactory
TransactionFacade - -> TransactionDAO

SplitFacade -down-> DAOFactory
SplitFacade - -> SplitDAO

@enduml

PlantUML version 1.2020.20(Sat Nov 21 11:02:45 CET 2020)
(GPL source distribution)
Java Runtime: OpenJDK Runtime Environment
JVM: OpenJDK 64-Bit Server VM
Default Encoding: UTF-8
Language: en
Country: GB
--></g></svg>