<?xml version="1.0" encoding="UTF-8" standalone="no"?><svg xmlns="http://www.w3.org/2000/svg" xmlns:xlink="http://www.w3.org/1999/xlink" contentScriptType="application/ecmascript" contentStyleType="text/css" height="907.5px" preserveAspectRatio="none" style="width:2448px;height:907px;" version="1.1" viewBox="0 0 2448 907" width="2448px" zoomAndPan="magnify"><defs><filter height="300%" id="f17f8iiymhfhxl" width="300%" x="-1" y="-1"><feGaussianBlur result="blurOut" stdDeviation="1.5"/><feColorMatrix in="blurOut" result="blurOut2" type="matrix" values="0 0 0 0 0 0 0 0 0 0 0 0 0 0 0 0 0 0 .4 0"/><feOffset dx="3.0" dy="3.0" in="blurOut2" result="blurOut3"/><feBlend in="SourceGraphic" in2="blurOut3" mode="normal"/></filter></defs><g><!--MD5=[10ea673caf457862023e152271927b45]
cluster controller--><polygon fill="#FFFFFF" filter="url(#f17f8iiymhfhxl)" points="642.75,220.5,699,220.5,704.25,238.207,2435.25,238.207,2435.25,368.25,642.75,368.25,642.75,220.5" style="stroke:#000000;stroke-width:1.125;"/><line style="stroke:#000000;stroke-width:1.125;" x1="642.75" x2="704.25" y1="238.207" y2="238.207"/><text fill="#000000" font-family="sans-serif" font-size="10.5" font-weight="bold" lengthAdjust="spacingAndGlyphs" textLength="51.75" x="645.75" y="232.8999">controller</text><!--MD5=[a70b0d373322012744ecc119c63f921b]
cluster main--><polygon fill="#FFFFFF" filter="url(#f17f8iiymhfhxl)" points="1470,76.5,1499.25,76.5,1504.5,94.207,1600.5,94.207,1600.5,183,1470,183,1470,76.5" style="stroke:#000000;stroke-width:1.125;"/><line style="stroke:#000000;stroke-width:1.125;" x1="1470" x2="1504.5" y1="94.207" y2="94.207"/><text fill="#000000" font-family="sans-serif" font-size="10.5" font-weight="bold" lengthAdjust="spacingAndGlyphs" textLength="24.75" x="1473" y="88.8999">main</text><!--MD5=[01435ace8273dc3cae88e7f376e4d373]
cluster core--><polygon fill="#FFFFFF" filter="url(#f17f8iiymhfhxl)" points="655.5,405.75,684,405.75,689.25,423.457,1353.75,423.457,1353.75,902.625,655.5,902.625,655.5,405.75" style="stroke:#000000;stroke-width:1.125;"/><line style="stroke:#000000;stroke-width:1.125;" x1="655.5" x2="689.25" y1="423.457" y2="423.457"/><text fill="#000000" font-family="sans-serif" font-size="10.5" font-weight="bold" lengthAdjust="spacingAndGlyphs" textLength="24" x="658.5" y="418.1499">core</text><!--MD5=[5d4cd377749310b66bf14896f5cd8d9b]
cluster model--><polygon fill="#FFFFFF" filter="url(#f17f8iiymhfhxl)" points="1107,622.5,1143.75,622.5,1149,640.207,1335.75,640.207,1335.75,884.625,1107,884.625,1107,622.5" style="stroke:#000000;stroke-width:1.125;"/><line style="stroke:#000000;stroke-width:1.125;" x1="1107" x2="1149" y1="640.207" y2="640.207"/><text fill="#000000" font-family="sans-serif" font-size="10.5" font-weight="bold" lengthAdjust="spacingAndGlyphs" textLength="32.25" x="1110" y="634.8999">model</text><!--MD5=[73a39ff06bfd21a4a8df8317230e2ab5]
cluster facade--><polygon fill="#FFFFFF" filter="url(#f17f8iiymhfhxl)" points="673.5,438.75,713.25,438.75,718.5,456.457,1089,456.457,1089,744.375,673.5,744.375,673.5,438.75" style="stroke:#000000;stroke-width:1.125;"/><line style="stroke:#000000;stroke-width:1.125;" x1="673.5" x2="718.5" y1="456.457" y2="456.457"/><text fill="#000000" font-family="sans-serif" font-size="10.5" font-weight="bold" lengthAdjust="spacingAndGlyphs" textLength="35.25" x="676.5" y="451.1499">facade</text><!--MD5=[b029f845b51cf56217b35290d941b161]
cluster persist--><polygon fill="#FFFFFF" filter="url(#f17f8iiymhfhxl)" points="12,236.25,53.25,236.25,58.5,253.957,624.75,253.957,624.75,769.875,12,769.875,12,236.25" style="stroke:#000000;stroke-width:1.125;"/><line style="stroke:#000000;stroke-width:1.125;" x1="12" x2="58.5" y1="253.957" y2="253.957"/><text fill="#000000" font-family="sans-serif" font-size="10.5" font-weight="bold" lengthAdjust="spacingAndGlyphs" textLength="36.75" x="15" y="248.6499">persist</text><!--MD5=[5622bc4ba3bf2be5d17935065b98c5f9]
cluster dao--><polygon fill="#FFFFFF" filter="url(#f17f8iiymhfhxl)" points="30,436.875,54,436.875,59.25,454.582,606.75,454.582,606.75,751.875,30,751.875,30,436.875" style="stroke:#000000;stroke-width:1.125;"/><line style="stroke:#000000;stroke-width:1.125;" x1="30" x2="59.25" y1="454.582" y2="454.582"/><text fill="#000000" font-family="sans-serif" font-size="10.5" font-weight="bold" lengthAdjust="spacingAndGlyphs" textLength="19.5" x="33" y="449.2749">dao</text><!--MD5=[40f389b860e50d90baaf5de832b1264d]
cluster mysql--><polygon fill="#FFFFFF" filter="url(#f17f8iiymhfhxl)" points="48,469.875,82.5,469.875,87.75,487.582,216,487.582,216,733.875,48,733.875,48,469.875" style="stroke:#000000;stroke-width:1.125;"/><line style="stroke:#000000;stroke-width:1.125;" x1="48" x2="87.75" y1="487.582" y2="487.582"/><text fill="#000000" font-family="sans-serif" font-size="10.5" font-weight="bold" lengthAdjust="spacingAndGlyphs" textLength="30" x="51" y="482.2749">mysql</text><!--MD5=[bab4019c732006648757f54388533847]
cluster postgres--><polygon fill="#FFFFFF" filter="url(#f17f8iiymhfhxl)" points="398.25,469.875,450,469.875,455.25,487.582,588.75,487.582,588.75,733.875,398.25,733.875,398.25,469.875" style="stroke:#000000;stroke-width:1.125;"/><line style="stroke:#000000;stroke-width:1.125;" x1="398.25" x2="455.25" y1="487.582" y2="487.582"/><text fill="#000000" font-family="sans-serif" font-size="10.5" font-weight="bold" lengthAdjust="spacingAndGlyphs" textLength="47.25" x="401.25" y="482.2749">postgres</text><!--MD5=[3d53ec432110b99c6bff88dc0e68cac6]
class ManagePersonnalAccountController--><rect codeLine="3" fill="#FEFECE" filter="url(#f17f8iiymhfhxl)" height="108.6387" id="ManagePersonnalAccountController" style="stroke:#A80036;stroke-width:1.125;" width="267.75" x="655.125" y="247.5"/><ellipse cx="711.5625" cy="259.5" fill="#ADD1B2" rx="8.25" ry="8.25" style="stroke:#A80036;stroke-width:0.75;"/><path d="M713.0625,256.875 Q713.2148,256.5 713.3906,256.3125 Q713.5664,256.125 713.7656,256.125 Q714.1172,256.125 714.3398,256.3359 Q714.5625,256.5469 714.5625,257.0391 L714.5625,258.2109 Q714.5625,258.7031 714.3516,258.9141 Q714.1406,259.125 713.8125,259.125 Q713.5195,259.125 713.332,258.9961 Q713.1445,258.8672 713.0625,258.5273 Q713.0273,258.293 712.8984,258.1641 Q712.6641,257.918 712.2422,257.7773 Q711.8203,257.625 711.3984,257.625 Q710.8711,257.625 710.4258,257.8359 Q709.9922,258.0469 709.6523,258.5156 Q709.3125,258.9844 709.3125,259.6289 L709.3125,260.3203 Q709.3125,261.0938 709.9453,261.6094 Q710.5781,262.125 711.7031,262.125 Q712.3711,262.125 712.8398,261.9727 Q713.1094,261.8906 713.4141,261.6211 Q713.6133,261.4688 713.7188,261.4219 Q713.8242,261.375 713.9531,261.375 Q714.1992,261.375 714.375,261.5742 Q714.5625,261.7617 714.5625,262.0313 Q714.5625,262.2891 714.3047,262.5938 Q713.9297,263.0391 713.332,263.2852 Q712.5469,263.625 711.5859,263.625 Q710.4609,263.625 709.5586,263.1797 Q708.832,262.8281 708.3164,262.0664 Q707.8125,261.3047 707.8125,260.4023 L707.8125,259.582 Q707.8125,258.6445 708.2578,257.8242 Q708.7148,257.0039 709.5,256.5703 Q710.2969,256.125 711.1875,256.125 Q711.7266,256.125 712.1953,256.3125 Q712.6641,256.5 713.0625,256.875 Z " fill="#000000"/><text fill="#000000" font-family="sans-serif" font-size="9" lengthAdjust="spacingAndGlyphs" textLength="148.5" x="726.9375" y="263.1826">ManagePersonnalAccountController</text><line style="stroke:#A80036;stroke-width:1.125;" x1="655.875" x2="922.125" y1="271.5" y2="271.5"/><line style="stroke:#A80036;stroke-width:1.125;" x1="655.875" x2="922.125" y1="277.5" y2="277.5"/><rect fill="#F24D5C" height="4.5" style="stroke:#C82930;stroke-width:0.75;" width="4.5" x="661.125" y="283.5"/><text fill="#000000" font-family="sans-serif" font-size="8.25" lengthAdjust="spacingAndGlyphs" textLength="88.5" x="670.125" y="289.0642">allStyleSetDefault(): void</text><ellipse cx="663.375" cy="296.127" fill="#84BE84" rx="2.25" ry="2.25" style="stroke:#038048;stroke-width:0.75;"/><text fill="#000000" font-family="sans-serif" font-size="8.25" lengthAdjust="spacingAndGlyphs" textLength="179.25" x="670.125" y="299.4412">goToHomeView(in actionEvent:ActionEvent): void</text><ellipse cx="663.375" cy="306.5039" fill="#84BE84" rx="2.25" ry="2.25" style="stroke:#038048;stroke-width:0.75;"/><text fill="#000000" font-family="sans-serif" font-size="8.25" lengthAdjust="spacingAndGlyphs" textLength="204.75" x="670.125" y="309.8181">goToChangeEmailView(in actionEvent:ActionEvent): void</text><ellipse cx="663.375" cy="316.8809" fill="#84BE84" rx="2.25" ry="2.25" style="stroke:#038048;stroke-width:0.75;"/><text fill="#000000" font-family="sans-serif" font-size="8.25" lengthAdjust="spacingAndGlyphs" textLength="209.25" x="670.125" y="320.1951">goToChangePhoneView(in actionEvent:ActionEvent): void</text><ellipse cx="663.375" cy="327.2578" fill="#84BE84" rx="2.25" ry="2.25" style="stroke:#038048;stroke-width:0.75;"/><text fill="#000000" font-family="sans-serif" font-size="8.25" lengthAdjust="spacingAndGlyphs" textLength="224.25" x="670.125" y="330.572">goToChangePasswordView(in actionEvent:ActionEvent): void</text><ellipse cx="663.375" cy="337.6348" fill="#84BE84" rx="2.25" ry="2.25" style="stroke:#038048;stroke-width:0.75;"/><text fill="#000000" font-family="sans-serif" font-size="8.25" lengthAdjust="spacingAndGlyphs" textLength="248.25" x="670.125" y="340.949">goToChooseValidationMethodView(in actionEvent:ActionEvent): void</text><ellipse cx="663.375" cy="348.0117" fill="#84BE84" rx="2.25" ry="2.25" style="stroke:#038048;stroke-width:0.75;"/><text fill="#000000" font-family="sans-serif" font-size="8.25" lengthAdjust="spacingAndGlyphs" textLength="53.25" x="670.125" y="351.3259">initialize(): void</text><!--MD5=[22601401f0187e80f29c505696f11fd5]
class ChangeEmailController--><rect codeLine="12" fill="#FEFECE" filter="url(#f17f8iiymhfhxl)" height="77.5078" id="ChangeEmailController" style="stroke:#A80036;stroke-width:1.125;" width="273.75" x="949.125" y="263.25"/><ellipse cx="1034.0625" cy="275.25" fill="#ADD1B2" rx="8.25" ry="8.25" style="stroke:#A80036;stroke-width:0.75;"/><path d="M1035.5625,272.625 Q1035.7148,272.25 1035.8906,272.0625 Q1036.0664,271.875 1036.2656,271.875 Q1036.6172,271.875 1036.8398,272.0859 Q1037.0625,272.2969 1037.0625,272.7891 L1037.0625,273.9609 Q1037.0625,274.4531 1036.8516,274.6641 Q1036.6406,274.875 1036.3125,274.875 Q1036.0195,274.875 1035.832,274.7461 Q1035.6445,274.6172 1035.5625,274.2773 Q1035.5273,274.043 1035.3984,273.9141 Q1035.1641,273.668 1034.7422,273.5273 Q1034.3203,273.375 1033.8984,273.375 Q1033.3711,273.375 1032.9258,273.5859 Q1032.4922,273.7969 1032.1523,274.2656 Q1031.8125,274.7344 1031.8125,275.3789 L1031.8125,276.0703 Q1031.8125,276.8438 1032.4453,277.3594 Q1033.0781,277.875 1034.2031,277.875 Q1034.8711,277.875 1035.3398,277.7227 Q1035.6094,277.6406 1035.9141,277.3711 Q1036.1133,277.2188 1036.2188,277.1719 Q1036.3242,277.125 1036.4531,277.125 Q1036.6992,277.125 1036.875,277.3242 Q1037.0625,277.5117 1037.0625,277.7813 Q1037.0625,278.0391 1036.8047,278.3438 Q1036.4297,278.7891 1035.832,279.0352 Q1035.0469,279.375 1034.0859,279.375 Q1032.9609,279.375 1032.0586,278.9297 Q1031.332,278.5781 1030.8164,277.8164 Q1030.3125,277.0547 1030.3125,276.1523 L1030.3125,275.332 Q1030.3125,274.3945 1030.7578,273.5742 Q1031.2148,272.7539 1032,272.3203 Q1032.7969,271.875 1033.6875,271.875 Q1034.2266,271.875 1034.6953,272.0625 Q1035.1641,272.25 1035.5625,272.625 Z " fill="#000000"/><text fill="#000000" font-family="sans-serif" font-size="9" lengthAdjust="spacingAndGlyphs" textLength="97.5" x="1049.4375" y="278.9326">ChangeEmailController</text><line style="stroke:#A80036;stroke-width:1.125;" x1="949.875" x2="1222.125" y1="287.25" y2="287.25"/><rect fill="none" height="4.5" style="stroke:#C82930;stroke-width:0.75;" width="4.5" x="955.125" y="293.25"/><text fill="#000000" font-family="sans-serif" font-size="8.25" lengthAdjust="spacingAndGlyphs" textLength="59.25" x="964.125" y="298.8142">email1: TextField</text><rect fill="none" height="4.5" style="stroke:#C82930;stroke-width:0.75;" width="4.5" x="955.125" y="303.627"/><text fill="#000000" font-family="sans-serif" font-size="8.25" lengthAdjust="spacingAndGlyphs" textLength="59.25" x="964.125" y="309.1912">email2: TextField</text><line style="stroke:#A80036;stroke-width:1.125;" x1="949.875" x2="1222.125" y1="314.0039" y2="314.0039"/><ellipse cx="957.375" cy="322.2539" fill="#84BE84" rx="2.25" ry="2.25" style="stroke:#038048;stroke-width:0.75;"/><text fill="#000000" font-family="sans-serif" font-size="8.25" lengthAdjust="spacingAndGlyphs" textLength="254.25" x="964.125" y="325.5681">goToManagePersonnalAccountView(in actionEvent:ActionEvent): void</text><ellipse cx="957.375" cy="332.6309" fill="#84BE84" rx="2.25" ry="2.25" style="stroke:#038048;stroke-width:0.75;"/><text fill="#000000" font-family="sans-serif" font-size="8.25" lengthAdjust="spacingAndGlyphs" textLength="194.25" x="964.125" y="335.9451">goToValidationView(in actionEvent:ActionEvent): void</text><!--MD5=[b0e3cb68241936e93aa23f668d4ee427]
class ChangePasswordController--><rect codeLine="18" fill="#FEFECE" filter="url(#f17f8iiymhfhxl)" height="77.5078" id="ChangePasswordController" style="stroke:#A80036;stroke-width:1.125;" width="273.75" x="1249.125" y="263.25"/><ellipse cx="1325.0625" cy="275.25" fill="#ADD1B2" rx="8.25" ry="8.25" style="stroke:#A80036;stroke-width:0.75;"/><path d="M1326.5625,272.625 Q1326.7148,272.25 1326.8906,272.0625 Q1327.0664,271.875 1327.2656,271.875 Q1327.6172,271.875 1327.8398,272.0859 Q1328.0625,272.2969 1328.0625,272.7891 L1328.0625,273.9609 Q1328.0625,274.4531 1327.8516,274.6641 Q1327.6406,274.875 1327.3125,274.875 Q1327.0195,274.875 1326.832,274.7461 Q1326.6445,274.6172 1326.5625,274.2773 Q1326.5273,274.043 1326.3984,273.9141 Q1326.1641,273.668 1325.7422,273.5273 Q1325.3203,273.375 1324.8984,273.375 Q1324.3711,273.375 1323.9258,273.5859 Q1323.4922,273.7969 1323.1523,274.2656 Q1322.8125,274.7344 1322.8125,275.3789 L1322.8125,276.0703 Q1322.8125,276.8438 1323.4453,277.3594 Q1324.0781,277.875 1325.2031,277.875 Q1325.8711,277.875 1326.3398,277.7227 Q1326.6094,277.6406 1326.9141,277.3711 Q1327.1133,277.2188 1327.2188,277.1719 Q1327.3242,277.125 1327.4531,277.125 Q1327.6992,277.125 1327.875,277.3242 Q1328.0625,277.5117 1328.0625,277.7813 Q1328.0625,278.0391 1327.8047,278.3438 Q1327.4297,278.7891 1326.832,279.0352 Q1326.0469,279.375 1325.0859,279.375 Q1323.9609,279.375 1323.0586,278.9297 Q1322.332,278.5781 1321.8164,277.8164 Q1321.3125,277.0547 1321.3125,276.1523 L1321.3125,275.332 Q1321.3125,274.3945 1321.7578,273.5742 Q1322.2148,272.7539 1323,272.3203 Q1323.7969,271.875 1324.6875,271.875 Q1325.2266,271.875 1325.6953,272.0625 Q1326.1641,272.25 1326.5625,272.625 Z " fill="#000000"/><text fill="#000000" font-family="sans-serif" font-size="9" lengthAdjust="spacingAndGlyphs" textLength="115.5" x="1340.4375" y="278.9326">ChangePasswordController</text><line style="stroke:#A80036;stroke-width:1.125;" x1="1249.875" x2="1522.125" y1="287.25" y2="287.25"/><rect fill="none" height="4.5" style="stroke:#C82930;stroke-width:0.75;" width="4.5" x="1255.125" y="293.25"/><text fill="#000000" font-family="sans-serif" font-size="8.25" lengthAdjust="spacingAndGlyphs" textLength="78.75" x="1264.125" y="298.8142">password1: TextField</text><rect fill="none" height="4.5" style="stroke:#C82930;stroke-width:0.75;" width="4.5" x="1255.125" y="303.627"/><text fill="#000000" font-family="sans-serif" font-size="8.25" lengthAdjust="spacingAndGlyphs" textLength="78.75" x="1264.125" y="309.1912">password2: TextField</text><line style="stroke:#A80036;stroke-width:1.125;" x1="1249.875" x2="1522.125" y1="314.0039" y2="314.0039"/><ellipse cx="1257.375" cy="322.2539" fill="#84BE84" rx="2.25" ry="2.25" style="stroke:#038048;stroke-width:0.75;"/><text fill="#000000" font-family="sans-serif" font-size="8.25" lengthAdjust="spacingAndGlyphs" textLength="254.25" x="1264.125" y="325.5681">goToManagePersonnalAccountView(in actionEvent:ActionEvent): void</text><ellipse cx="1257.375" cy="332.6309" fill="#84BE84" rx="2.25" ry="2.25" style="stroke:#038048;stroke-width:0.75;"/><text fill="#000000" font-family="sans-serif" font-size="8.25" lengthAdjust="spacingAndGlyphs" textLength="248.25" x="1264.125" y="335.9451">goToChooseValidationMethodView(in actionEvent:ActionEvent): void</text><!--MD5=[6d9514d6d6bbb490542742b38ecdc01a]
class ChangePhoneController--><rect codeLine="24" fill="#FEFECE" filter="url(#f17f8iiymhfhxl)" height="77.5078" id="ChangePhoneController" style="stroke:#A80036;stroke-width:1.125;" width="273.75" x="1549.125" y="263.25"/><ellipse cx="1632.5625" cy="275.25" fill="#ADD1B2" rx="8.25" ry="8.25" style="stroke:#A80036;stroke-width:0.75;"/><path d="M1634.0625,272.625 Q1634.2148,272.25 1634.3906,272.0625 Q1634.5664,271.875 1634.7656,271.875 Q1635.1172,271.875 1635.3398,272.0859 Q1635.5625,272.2969 1635.5625,272.7891 L1635.5625,273.9609 Q1635.5625,274.4531 1635.3516,274.6641 Q1635.1406,274.875 1634.8125,274.875 Q1634.5195,274.875 1634.332,274.7461 Q1634.1445,274.6172 1634.0625,274.2773 Q1634.0273,274.043 1633.8984,273.9141 Q1633.6641,273.668 1633.2422,273.5273 Q1632.8203,273.375 1632.3984,273.375 Q1631.8711,273.375 1631.4258,273.5859 Q1630.9922,273.7969 1630.6523,274.2656 Q1630.3125,274.7344 1630.3125,275.3789 L1630.3125,276.0703 Q1630.3125,276.8438 1630.9453,277.3594 Q1631.5781,277.875 1632.7031,277.875 Q1633.3711,277.875 1633.8398,277.7227 Q1634.1094,277.6406 1634.4141,277.3711 Q1634.6133,277.2188 1634.7188,277.1719 Q1634.8242,277.125 1634.9531,277.125 Q1635.1992,277.125 1635.375,277.3242 Q1635.5625,277.5117 1635.5625,277.7813 Q1635.5625,278.0391 1635.3047,278.3438 Q1634.9297,278.7891 1634.332,279.0352 Q1633.5469,279.375 1632.5859,279.375 Q1631.4609,279.375 1630.5586,278.9297 Q1629.832,278.5781 1629.3164,277.8164 Q1628.8125,277.0547 1628.8125,276.1523 L1628.8125,275.332 Q1628.8125,274.3945 1629.2578,273.5742 Q1629.7148,272.7539 1630.5,272.3203 Q1631.2969,271.875 1632.1875,271.875 Q1632.7266,271.875 1633.1953,272.0625 Q1633.6641,272.25 1634.0625,272.625 Z " fill="#000000"/><text fill="#000000" font-family="sans-serif" font-size="9" lengthAdjust="spacingAndGlyphs" textLength="100.5" x="1647.9375" y="278.9326">ChangePhoneController</text><line style="stroke:#A80036;stroke-width:1.125;" x1="1549.875" x2="1822.125" y1="287.25" y2="287.25"/><rect fill="none" height="4.5" style="stroke:#C82930;stroke-width:0.75;" width="4.5" x="1555.125" y="293.25"/><text fill="#000000" font-family="sans-serif" font-size="8.25" lengthAdjust="spacingAndGlyphs" textLength="63.75" x="1564.125" y="298.8142">phone1: TextField</text><rect fill="none" height="4.5" style="stroke:#C82930;stroke-width:0.75;" width="4.5" x="1555.125" y="303.627"/><text fill="#000000" font-family="sans-serif" font-size="8.25" lengthAdjust="spacingAndGlyphs" textLength="63.75" x="1564.125" y="309.1912">phone2: TextField</text><line style="stroke:#A80036;stroke-width:1.125;" x1="1549.875" x2="1822.125" y1="314.0039" y2="314.0039"/><ellipse cx="1557.375" cy="322.2539" fill="#84BE84" rx="2.25" ry="2.25" style="stroke:#038048;stroke-width:0.75;"/><text fill="#000000" font-family="sans-serif" font-size="8.25" lengthAdjust="spacingAndGlyphs" textLength="254.25" x="1564.125" y="325.5681">goToManagePersonnalAccountView(in actionEvent:ActionEvent): void</text><ellipse cx="1557.375" cy="332.6309" fill="#84BE84" rx="2.25" ry="2.25" style="stroke:#038048;stroke-width:0.75;"/><text fill="#000000" font-family="sans-serif" font-size="8.25" lengthAdjust="spacingAndGlyphs" textLength="194.25" x="1564.125" y="335.9451">goToValidationView(in actionEvent:ActionEvent): void</text><!--MD5=[c83e865530b86129c533921fe8806bee]
class ValidationController--><rect codeLine="30" fill="#FEFECE" filter="url(#f17f8iiymhfhxl)" height="108.6387" id="ValidationController" style="stroke:#A80036;stroke-width:1.125;" width="273.75" x="1849.125" y="247.5"/><ellipse cx="1942.3125" cy="259.5" fill="#ADD1B2" rx="8.25" ry="8.25" style="stroke:#A80036;stroke-width:0.75;"/><path d="M1943.8125,256.875 Q1943.9648,256.5 1944.1406,256.3125 Q1944.3164,256.125 1944.5156,256.125 Q1944.8672,256.125 1945.0898,256.3359 Q1945.3125,256.5469 1945.3125,257.0391 L1945.3125,258.2109 Q1945.3125,258.7031 1945.1016,258.9141 Q1944.8906,259.125 1944.5625,259.125 Q1944.2695,259.125 1944.082,258.9961 Q1943.8945,258.8672 1943.8125,258.5273 Q1943.7773,258.293 1943.6484,258.1641 Q1943.4141,257.918 1942.9922,257.7773 Q1942.5703,257.625 1942.1484,257.625 Q1941.6211,257.625 1941.1758,257.8359 Q1940.7422,258.0469 1940.4023,258.5156 Q1940.0625,258.9844 1940.0625,259.6289 L1940.0625,260.3203 Q1940.0625,261.0938 1940.6953,261.6094 Q1941.3281,262.125 1942.4531,262.125 Q1943.1211,262.125 1943.5898,261.9727 Q1943.8594,261.8906 1944.1641,261.6211 Q1944.3633,261.4688 1944.4688,261.4219 Q1944.5742,261.375 1944.7031,261.375 Q1944.9492,261.375 1945.125,261.5742 Q1945.3125,261.7617 1945.3125,262.0313 Q1945.3125,262.2891 1945.0547,262.5938 Q1944.6797,263.0391 1944.082,263.2852 Q1943.2969,263.625 1942.3359,263.625 Q1941.2109,263.625 1940.3086,263.1797 Q1939.582,262.8281 1939.0664,262.0664 Q1938.5625,261.3047 1938.5625,260.4023 L1938.5625,259.582 Q1938.5625,258.6445 1939.0078,257.8242 Q1939.4648,257.0039 1940.25,256.5703 Q1941.0469,256.125 1941.9375,256.125 Q1942.4766,256.125 1942.9453,256.3125 Q1943.4141,256.5 1943.8125,256.875 Z " fill="#000000"/><text fill="#000000" font-family="sans-serif" font-size="9" lengthAdjust="spacingAndGlyphs" textLength="81" x="1957.6875" y="263.1826">ValidationController</text><line style="stroke:#A80036;stroke-width:1.125;" x1="1849.875" x2="2122.125" y1="271.5" y2="271.5"/><polygon fill="none" points="1857.375,276.75,1854.375,281.25,1860.375,281.25" style="stroke:#1963A0;stroke-width:0.75;"/><text fill="#000000" font-family="sans-serif" font-size="8.25" lengthAdjust="spacingAndGlyphs" text-decoration="underline" textLength="56.25" x="1864.125" y="283.0642">tempUser: User</text><rect fill="none" height="4.5" style="stroke:#C82930;stroke-width:0.75;" width="4.5" x="1855.125" y="287.877"/><text fill="#000000" font-family="sans-serif" font-size="8.25" lengthAdjust="spacingAndGlyphs" textLength="89.25" x="1864.125" y="293.4412">validationCode: TextField</text><line style="stroke:#A80036;stroke-width:1.125;" x1="1849.875" x2="2122.125" y1="298.2539" y2="298.2539"/><ellipse cx="1857.375" cy="306.5039" fill="#84BE84" rx="2.25" ry="2.25" style="stroke:#038048;stroke-width:0.75;"/><text fill="#000000" font-family="sans-serif" font-size="8.25" lengthAdjust="spacingAndGlyphs" textLength="180.75" x="1864.125" y="309.8181">confirmChanges(in actionEvent:ActionEvent): void</text><rect fill="#F24D5C" height="4.5" style="stroke:#C82930;stroke-width:0.75;" width="4.5" x="1855.125" y="314.6309"/><text fill="#000000" font-family="sans-serif" font-size="8.25" lengthAdjust="spacingAndGlyphs" textLength="111.75" x="1864.125" y="320.1951">generateValidationCode(): void</text><rect fill="#F24D5C" height="4.5" style="stroke:#C82930;stroke-width:0.75;" width="4.5" x="1855.125" y="325.0078"/><text fill="#000000" font-family="sans-serif" font-size="8.25" lengthAdjust="spacingAndGlyphs" textLength="97.5" x="1864.125" y="330.572">sendValidationCode(): void</text><rect fill="#F24D5C" height="4.5" style="stroke:#C82930;stroke-width:0.75;" width="4.5" x="1855.125" y="335.3848"/><text fill="#000000" font-family="sans-serif" font-size="8.25" lengthAdjust="spacingAndGlyphs" textLength="104.25" x="1864.125" y="340.949">updateUser(UserTemp): void</text><ellipse cx="1857.375" cy="348.0117" fill="#84BE84" rx="2.25" ry="2.25" style="stroke:#038048;stroke-width:0.75;"/><text fill="#000000" font-family="sans-serif" font-size="8.25" lengthAdjust="spacingAndGlyphs" textLength="254.25" x="1864.125" y="351.3259">goToManagePersonnalAccountView(in actionEvent:ActionEvent): void</text><!--MD5=[d9c1c8164ce69e33a576b8029678279a]
class ChooseValidationMethodController--><rect codeLine="39" fill="#FEFECE" filter="url(#f17f8iiymhfhxl)" height="98.2617" id="ChooseValidationMethodController" style="stroke:#A80036;stroke-width:1.125;" width="273.75" x="2149.125" y="252.75"/><ellipse cx="2210.8125" cy="264.75" fill="#ADD1B2" rx="8.25" ry="8.25" style="stroke:#A80036;stroke-width:0.75;"/><path d="M2212.3125,262.125 Q2212.4648,261.75 2212.6406,261.5625 Q2212.8164,261.375 2213.0156,261.375 Q2213.3672,261.375 2213.5898,261.5859 Q2213.8125,261.7969 2213.8125,262.2891 L2213.8125,263.4609 Q2213.8125,263.9531 2213.6016,264.1641 Q2213.3906,264.375 2213.0625,264.375 Q2212.7695,264.375 2212.582,264.2461 Q2212.3945,264.1172 2212.3125,263.7773 Q2212.2773,263.543 2212.1484,263.4141 Q2211.9141,263.168 2211.4922,263.0273 Q2211.0703,262.875 2210.6484,262.875 Q2210.1211,262.875 2209.6758,263.0859 Q2209.2422,263.2969 2208.9023,263.7656 Q2208.5625,264.2344 2208.5625,264.8789 L2208.5625,265.5703 Q2208.5625,266.3438 2209.1953,266.8594 Q2209.8281,267.375 2210.9531,267.375 Q2211.6211,267.375 2212.0898,267.2227 Q2212.3594,267.1406 2212.6641,266.8711 Q2212.8633,266.7188 2212.9688,266.6719 Q2213.0742,266.625 2213.2031,266.625 Q2213.4492,266.625 2213.625,266.8242 Q2213.8125,267.0117 2213.8125,267.2813 Q2213.8125,267.5391 2213.5547,267.8438 Q2213.1797,268.2891 2212.582,268.5352 Q2211.7969,268.875 2210.8359,268.875 Q2209.7109,268.875 2208.8086,268.4297 Q2208.082,268.0781 2207.5664,267.3164 Q2207.0625,266.5547 2207.0625,265.6523 L2207.0625,264.832 Q2207.0625,263.8945 2207.5078,263.0742 Q2207.9648,262.2539 2208.75,261.8203 Q2209.5469,261.375 2210.4375,261.375 Q2210.9766,261.375 2211.4453,261.5625 Q2211.9141,261.75 2212.3125,262.125 Z " fill="#000000"/><text fill="#000000" font-family="sans-serif" font-size="9" lengthAdjust="spacingAndGlyphs" textLength="144" x="2226.1875" y="268.4326">ChooseValidationMethodController</text><line style="stroke:#A80036;stroke-width:1.125;" x1="2149.875" x2="2422.125" y1="276.75" y2="276.75"/><rect fill="none" height="4.5" style="stroke:#C82930;stroke-width:0.75;" width="4.5" x="2155.125" y="282.75"/><text fill="#000000" font-family="sans-serif" font-size="8.25" lengthAdjust="spacingAndGlyphs" textLength="70.5" x="2164.125" y="288.3142">phone: RadioButton</text><rect fill="none" height="4.5" style="stroke:#C82930;stroke-width:0.75;" width="4.5" x="2155.125" y="293.127"/><text fill="#000000" font-family="sans-serif" font-size="8.25" lengthAdjust="spacingAndGlyphs" textLength="66" x="2164.125" y="298.6912">email: RadioButton</text><line style="stroke:#A80036;stroke-width:1.125;" x1="2149.875" x2="2422.125" y1="303.5039" y2="303.5039"/><ellipse cx="2157.375" cy="311.7539" fill="#84BE84" rx="2.25" ry="2.25" style="stroke:#038048;stroke-width:0.75;"/><text fill="#000000" font-family="sans-serif" font-size="8.25" lengthAdjust="spacingAndGlyphs" textLength="254.25" x="2164.125" y="315.0681">goToManagePersonnalAccountView(in actionEvent:ActionEvent): void</text><ellipse cx="2157.375" cy="322.1309" fill="#84BE84" rx="2.25" ry="2.25" style="stroke:#038048;stroke-width:0.75;"/><text fill="#000000" font-family="sans-serif" font-size="8.25" lengthAdjust="spacingAndGlyphs" textLength="194.25" x="2164.125" y="325.4451">goToValidationView(in actionEvent:ActionEvent): void</text><rect fill="#F24D5C" height="4.5" style="stroke:#C82930;stroke-width:0.75;" width="4.5" x="2155.125" y="330.2578"/><text fill="#000000" font-family="sans-serif" font-size="8.25" lengthAdjust="spacingAndGlyphs" textLength="93.75" x="2164.125" y="335.822">getVerifiedPhone(): String</text><rect fill="#F24D5C" height="4.5" style="stroke:#C82930;stroke-width:0.75;" width="4.5" x="2155.125" y="340.6348"/><text fill="#000000" font-family="sans-serif" font-size="8.25" lengthAdjust="spacingAndGlyphs" textLength="89.25" x="2164.125" y="346.199">getVerifiedEmail(): String</text><!--MD5=[0db50141ac7671f84c63cf2d86851c53]
class SplitPay--><rect codeLine="51" fill="#FEFECE" filter="url(#f17f8iiymhfhxl)" height="67.1309" id="SplitPay" style="stroke:#A80036;stroke-width:1.125;" width="105.75" x="1482.375" y="103.5"/><ellipse cx="1515.5625" cy="115.5" fill="#ADD1B2" rx="8.25" ry="8.25" style="stroke:#A80036;stroke-width:0.75;"/><path d="M1517.0625,112.875 Q1517.2148,112.5 1517.3906,112.3125 Q1517.5664,112.125 1517.7656,112.125 Q1518.1172,112.125 1518.3398,112.3359 Q1518.5625,112.5469 1518.5625,113.0391 L1518.5625,114.2109 Q1518.5625,114.7031 1518.3516,114.9141 Q1518.1406,115.125 1517.8125,115.125 Q1517.5195,115.125 1517.332,114.9961 Q1517.1445,114.8672 1517.0625,114.5273 Q1517.0273,114.293 1516.8984,114.1641 Q1516.6641,113.918 1516.2422,113.7773 Q1515.8203,113.625 1515.3984,113.625 Q1514.8711,113.625 1514.4258,113.8359 Q1513.9922,114.0469 1513.6523,114.5156 Q1513.3125,114.9844 1513.3125,115.6289 L1513.3125,116.3203 Q1513.3125,117.0938 1513.9453,117.6094 Q1514.5781,118.125 1515.7031,118.125 Q1516.3711,118.125 1516.8398,117.9727 Q1517.1094,117.8906 1517.4141,117.6211 Q1517.6133,117.4688 1517.7188,117.4219 Q1517.8242,117.375 1517.9531,117.375 Q1518.1992,117.375 1518.375,117.5742 Q1518.5625,117.7617 1518.5625,118.0313 Q1518.5625,118.2891 1518.3047,118.5938 Q1517.9297,119.0391 1517.332,119.2852 Q1516.5469,119.625 1515.5859,119.625 Q1514.4609,119.625 1513.5586,119.1797 Q1512.832,118.8281 1512.3164,118.0664 Q1511.8125,117.3047 1511.8125,116.4023 L1511.8125,115.582 Q1511.8125,114.6445 1512.2578,113.8242 Q1512.7148,113.0039 1513.5,112.5703 Q1514.2969,112.125 1515.1875,112.125 Q1515.7266,112.125 1516.1953,112.3125 Q1516.6641,112.5 1517.0625,112.875 Z " fill="#000000"/><text fill="#000000" font-family="sans-serif" font-size="9" lengthAdjust="spacingAndGlyphs" textLength="33" x="1530.9375" y="119.1826">SplitPay</text><line style="stroke:#A80036;stroke-width:1.125;" x1="1483.125" x2="1587.375" y1="127.5" y2="127.5"/><ellipse cx="1490.625" cy="135.75" fill="none" rx="2.25" ry="2.25" style="stroke:#038048;stroke-width:0.75;"/><text fill="#000000" font-family="sans-serif" font-size="8.25" lengthAdjust="spacingAndGlyphs" text-decoration="underline" textLength="55.5" x="1497.375" y="139.0642">window: Stage</text><line style="stroke:#A80036;stroke-width:1.125;" x1="1483.125" x2="1587.375" y1="143.877" y2="143.877"/><ellipse cx="1490.625" cy="152.127" fill="#84BE84" rx="2.25" ry="2.25" style="stroke:#038048;stroke-width:0.75;"/><text fill="#000000" font-family="sans-serif" font-size="8.25" lengthAdjust="spacingAndGlyphs" textLength="85.5" x="1497.375" y="155.4412">start(stage:Stage): void</text><ellipse cx="1490.625" cy="162.5039" fill="#84BE84" rx="2.25" ry="2.25" style="stroke:#038048;stroke-width:0.75;"/><text fill="#000000" font-family="sans-serif" font-size="8.25" lengthAdjust="spacingAndGlyphs" text-decoration="underline" textLength="86.25" x="1497.375" y="165.8181">main(String[]:args): void</text><!--MD5=[3fd616f346a44cd59a91eb10b19e157c]
class User--><rect codeLine="60" fill="#FEFECE" filter="url(#f17f8iiymhfhxl)" height="98.2617" id="User" style="stroke:#A80036;stroke-width:1.125;" width="82.5" x="1175.25" y="649.5"/><ellipse cx="1204.05" cy="661.5" fill="#A9DCDF" rx="8.25" ry="8.25" style="stroke:#A80036;stroke-width:0.75;"/><path d="M1205.3625,662.625 L1202.8898,662.625 L1202.5617,663.375 L1202.5617,663.375 L1202.9133,663.375 L1203.3,663.8438 L1203.3,664.125 L1203.3,664.4063 L1202.9133,664.875 L1202.5617,664.875 L1201.1438,664.875 L1200.6867,664.875 L1200.3,664.4063 L1200.3,664.125 L1200.3,663.8438 L1200.6867,663.375 L1201.1438,663.375 L1202.8781,658.875 L1202.2219,658.875 L1201.4367,658.875 L1201.05,658.4063 L1201.05,658.125 L1201.05,657.8438 L1201.4367,657.375 L1202.2219,657.375 L1204.9758,657.375 L1206.9914,663.375 L1207.4133,663.375 L1207.4133,663.375 L1207.8,663.8438 L1207.8,664.125 L1207.8,664.4063 L1207.4133,664.875 L1206.9914,664.875 L1205.5734,664.875 L1205.1867,664.875 L1204.8,664.4063 L1204.8,664.125 L1204.8,663.8438 L1205.1867,663.375 L1205.5734,663.375 L1205.5734,663.375 L1205.3625,662.625 Z M1204.9523,661.125 L1204.05,658.4414 L1203.2766,661.125 L1204.9523,661.125 Z " fill="#000000"/><text fill="#000000" font-family="sans-serif" font-size="9" font-style="italic" lengthAdjust="spacingAndGlyphs" textLength="19.5" x="1218.45" y="665.1826">User</text><line style="stroke:#A80036;stroke-width:1.125;" x1="1176" x2="1257" y1="673.5" y2="673.5"/><rect fill="none" height="4.5" style="stroke:#C82930;stroke-width:0.75;" width="4.5" x="1181.25" y="679.5"/><text fill="#000000" font-family="sans-serif" font-size="8.25" lengthAdjust="spacingAndGlyphs" textLength="31.5" x="1190.25" y="685.0642">id: String</text><rect fill="none" height="4.5" style="stroke:#C82930;stroke-width:0.75;" width="4.5" x="1181.25" y="689.877"/><text fill="#000000" font-family="sans-serif" font-size="8.25" lengthAdjust="spacingAndGlyphs" textLength="43.5" x="1190.25" y="695.4412">email: String</text><rect fill="none" height="4.5" style="stroke:#C82930;stroke-width:0.75;" width="4.5" x="1181.25" y="700.2539"/><text fill="#000000" font-family="sans-serif" font-size="8.25" lengthAdjust="spacingAndGlyphs" textLength="48" x="1190.25" y="705.8181">phone: String</text><rect fill="none" height="4.5" style="stroke:#C82930;stroke-width:0.75;" width="4.5" x="1181.25" y="710.6309"/><text fill="#000000" font-family="sans-serif" font-size="8.25" lengthAdjust="spacingAndGlyphs" textLength="59.25" x="1190.25" y="716.1951">nickname: String</text><rect fill="none" height="4.5" style="stroke:#C82930;stroke-width:0.75;" width="4.5" x="1181.25" y="721.0078"/><text fill="#000000" font-family="sans-serif" font-size="8.25" lengthAdjust="spacingAndGlyphs" textLength="63" x="1190.25" y="726.572">password: String</text><rect fill="none" height="4.5" style="stroke:#C82930;stroke-width:0.75;" width="4.5" x="1181.25" y="731.3848"/><text fill="#000000" font-family="sans-serif" font-size="8.25" lengthAdjust="spacingAndGlyphs" textLength="57.75" x="1190.25" y="736.949">balance: Double</text><line style="stroke:#A80036;stroke-width:1.125;" x1="1176" x2="1257" y1="741.7617" y2="741.7617"/><!--MD5=[121330b00a863f09dfc695730d4d9fa4]
class NormalUser--><rect codeLine="68" fill="#FEFECE" filter="url(#f17f8iiymhfhxl)" height="56.7539" id="NormalUser" style="stroke:#A80036;stroke-width:1.125;" width="79.5" x="1119" y="810.375"/><ellipse cx="1132.275" cy="822.375" fill="#ADD1B2" rx="8.25" ry="8.25" style="stroke:#A80036;stroke-width:0.75;"/><path d="M1133.775,819.75 Q1133.9273,819.375 1134.1031,819.1875 Q1134.2789,819 1134.4781,819 Q1134.8297,819 1135.0523,819.2109 Q1135.275,819.4219 1135.275,819.9141 L1135.275,821.0859 Q1135.275,821.5781 1135.0641,821.7891 Q1134.8531,822 1134.525,822 Q1134.232,822 1134.0445,821.8711 Q1133.857,821.7422 1133.775,821.4023 Q1133.7398,821.168 1133.6109,821.0391 Q1133.3766,820.793 1132.9547,820.6523 Q1132.5328,820.5 1132.1109,820.5 Q1131.5836,820.5 1131.1383,820.7109 Q1130.7047,820.9219 1130.3648,821.3906 Q1130.025,821.8594 1130.025,822.5039 L1130.025,823.1953 Q1130.025,823.9688 1130.6578,824.4844 Q1131.2906,825 1132.4156,825 Q1133.0836,825 1133.5523,824.8477 Q1133.8219,824.7656 1134.1266,824.4961 Q1134.3258,824.3438 1134.4313,824.2969 Q1134.5367,824.25 1134.6656,824.25 Q1134.9117,824.25 1135.0875,824.4492 Q1135.275,824.6367 1135.275,824.9063 Q1135.275,825.1641 1135.0172,825.4688 Q1134.6422,825.9141 1134.0445,826.1602 Q1133.2594,826.5 1132.2984,826.5 Q1131.1734,826.5 1130.2711,826.0547 Q1129.5445,825.7031 1129.0289,824.9414 Q1128.525,824.1797 1128.525,823.2773 L1128.525,822.457 Q1128.525,821.5195 1128.9703,820.6992 Q1129.4273,819.8789 1130.2125,819.4453 Q1131.0094,819 1131.9,819 Q1132.4391,819 1132.9078,819.1875 Q1133.3766,819.375 1133.775,819.75 Z " fill="#000000"/><text fill="#000000" font-family="sans-serif" font-size="9" lengthAdjust="spacingAndGlyphs" textLength="51" x="1143.225" y="826.0576">NormalUser</text><line style="stroke:#A80036;stroke-width:1.125;" x1="1119.75" x2="1197.75" y1="834.375" y2="834.375"/><rect fill="none" height="4.5" style="stroke:#C82930;stroke-width:0.75;" width="4.5" x="1125" y="840.375"/><text fill="#000000" font-family="sans-serif" font-size="8.25" lengthAdjust="spacingAndGlyphs" textLength="60" x="1134" y="845.9392">firstName: String</text><rect fill="none" height="4.5" style="stroke:#C82930;stroke-width:0.75;" width="4.5" x="1125" y="850.752"/><text fill="#000000" font-family="sans-serif" font-size="8.25" lengthAdjust="spacingAndGlyphs" textLength="58.5" x="1134" y="856.3162">lastName: String</text><line style="stroke:#A80036;stroke-width:1.125;" x1="1119.75" x2="1197.75" y1="861.1289" y2="861.1289"/><!--MD5=[fe3dd8093a56cb0c1c28fde79de95a54]
class StoreOwner--><rect codeLine="72" fill="#FEFECE" filter="url(#f17f8iiymhfhxl)" height="67.1309" id="StoreOwner" style="stroke:#A80036;stroke-width:1.125;" width="98.25" x="1225.125" y="805.125"/><ellipse cx="1247.85" cy="817.125" fill="#ADD1B2" rx="8.25" ry="8.25" style="stroke:#A80036;stroke-width:0.75;"/><path d="M1249.35,814.5 Q1249.5023,814.125 1249.6781,813.9375 Q1249.8539,813.75 1250.0531,813.75 Q1250.4047,813.75 1250.6273,813.9609 Q1250.85,814.1719 1250.85,814.6641 L1250.85,815.8359 Q1250.85,816.3281 1250.6391,816.5391 Q1250.4281,816.75 1250.1,816.75 Q1249.807,816.75 1249.6195,816.6211 Q1249.432,816.4922 1249.35,816.1523 Q1249.3148,815.918 1249.1859,815.7891 Q1248.9516,815.543 1248.5297,815.4023 Q1248.1078,815.25 1247.6859,815.25 Q1247.1586,815.25 1246.7133,815.4609 Q1246.2797,815.6719 1245.9398,816.1406 Q1245.6,816.6094 1245.6,817.2539 L1245.6,817.9453 Q1245.6,818.7188 1246.2328,819.2344 Q1246.8656,819.75 1247.9906,819.75 Q1248.6586,819.75 1249.1273,819.5977 Q1249.3969,819.5156 1249.7016,819.2461 Q1249.9008,819.0938 1250.0063,819.0469 Q1250.1117,819 1250.2406,819 Q1250.4867,819 1250.6625,819.1992 Q1250.85,819.3867 1250.85,819.6563 Q1250.85,819.9141 1250.5922,820.2188 Q1250.2172,820.6641 1249.6195,820.9102 Q1248.8344,821.25 1247.8734,821.25 Q1246.7484,821.25 1245.8461,820.8047 Q1245.1195,820.4531 1244.6039,819.6914 Q1244.1,818.9297 1244.1,818.0273 L1244.1,817.207 Q1244.1,816.2695 1244.5453,815.4492 Q1245.0023,814.6289 1245.7875,814.1953 Q1246.5844,813.75 1247.475,813.75 Q1248.0141,813.75 1248.4828,813.9375 Q1248.9516,814.125 1249.35,814.5 Z " fill="#000000"/><text fill="#000000" font-family="sans-serif" font-size="9" lengthAdjust="spacingAndGlyphs" textLength="48.75" x="1260.9" y="820.8076">StoreOwner</text><line style="stroke:#A80036;stroke-width:1.125;" x1="1225.875" x2="1322.625" y1="829.125" y2="829.125"/><rect fill="none" height="4.5" style="stroke:#C82930;stroke-width:0.75;" width="4.5" x="1231.125" y="835.125"/><text fill="#000000" font-family="sans-serif" font-size="8.25" lengthAdjust="spacingAndGlyphs" textLength="78.75" x="1240.125" y="840.6892">companyName: String</text><rect fill="none" height="4.5" style="stroke:#C82930;stroke-width:0.75;" width="4.5" x="1231.125" y="845.502"/><text fill="#000000" font-family="sans-serif" font-size="8.25" lengthAdjust="spacingAndGlyphs" textLength="55.5" x="1240.125" y="851.0662">address: String</text><rect fill="none" height="4.5" style="stroke:#C82930;stroke-width:0.75;" width="4.5" x="1231.125" y="855.8789"/><text fill="#000000" font-family="sans-serif" font-size="8.25" lengthAdjust="spacingAndGlyphs" textLength="41.25" x="1240.125" y="861.4431">siret: String</text><line style="stroke:#A80036;stroke-width:1.125;" x1="1225.875" x2="1322.625" y1="866.2559" y2="866.2559"/><!--MD5=[e4dfbff3f74627b12500f06f815ed542]
class UserFacade--><rect codeLine="79" fill="#FEFECE" filter="url(#f17f8iiymhfhxl)" height="108.6387" id="UserFacade" style="stroke:#A80036;stroke-width:1.125;" width="129.75" x="724.125" y="465.75"/><ellipse cx="760.6875" cy="477.75" fill="#A9DCDF" rx="8.25" ry="8.25" style="stroke:#A80036;stroke-width:0.75;"/><path d="M762,478.875 L759.5273,478.875 L759.1992,479.625 L759.1992,479.625 L759.5508,479.625 L759.9375,480.0938 L759.9375,480.375 L759.9375,480.6563 L759.5508,481.125 L759.1992,481.125 L757.7813,481.125 L757.3242,481.125 L756.9375,480.6563 L756.9375,480.375 L756.9375,480.0938 L757.3242,479.625 L757.7813,479.625 L759.5156,475.125 L758.8594,475.125 L758.0742,475.125 L757.6875,474.6563 L757.6875,474.375 L757.6875,474.0938 L758.0742,473.625 L758.8594,473.625 L761.6133,473.625 L763.6289,479.625 L764.0508,479.625 L764.0508,479.625 L764.4375,480.0938 L764.4375,480.375 L764.4375,480.6563 L764.0508,481.125 L763.6289,481.125 L762.2109,481.125 L761.8242,481.125 L761.4375,480.6563 L761.4375,480.375 L761.4375,480.0938 L761.8242,479.625 L762.2109,479.625 L762.2109,479.625 L762,478.875 Z M761.5898,477.375 L760.6875,474.6914 L759.9141,477.375 L761.5898,477.375 Z " fill="#000000"/><text fill="#000000" font-family="sans-serif" font-size="9" font-style="italic" lengthAdjust="spacingAndGlyphs" textLength="50.25" x="776.0625" y="481.4326">UserFacade</text><line style="stroke:#A80036;stroke-width:1.125;" x1="724.875" x2="853.125" y1="489.75" y2="489.75"/><rect fill="none" height="4.5" style="stroke:#C82930;stroke-width:0.75;" width="4.5" x="730.125" y="495.75"/><text fill="#000000" font-family="sans-serif" font-size="8.25" lengthAdjust="spacingAndGlyphs" textLength="65.25" x="739.125" y="501.3142">user: UserFaçade</text><line style="stroke:#A80036;stroke-width:1.125;" x1="724.875" x2="853.125" y1="506.127" y2="506.127"/><rect fill="#F24D5C" height="4.5" style="stroke:#C82930;stroke-width:0.75;" width="4.5" x="730.125" y="512.127"/><text fill="#000000" font-family="sans-serif" font-size="8.25" lengthAdjust="spacingAndGlyphs" textLength="99" x="739.125" y="517.6912">UserFaçade(): UserFaçade</text><ellipse cx="732.375" cy="524.7539" fill="#84BE84" rx="2.25" ry="2.25" style="stroke:#038048;stroke-width:0.75;"/><text fill="#000000" font-family="sans-serif" font-size="8.25" lengthAdjust="spacingAndGlyphs" textLength="110.25" x="739.125" y="528.0681">getUserFaçade(): UserFaçade</text><ellipse cx="732.375" cy="535.1309" fill="#84BE84" rx="2.25" ry="2.25" style="stroke:#038048;stroke-width:0.75;"/><text fill="#000000" font-family="sans-serif" font-size="8.25" lengthAdjust="spacingAndGlyphs" textLength="78" x="739.125" y="538.4451">deleteAccount(): void</text><ellipse cx="732.375" cy="545.5078" fill="#84BE84" rx="2.25" ry="2.25" style="stroke:#038048;stroke-width:0.75;"/><text fill="#000000" font-family="sans-serif" font-size="8.25" lengthAdjust="spacingAndGlyphs" textLength="89.25" x="739.125" y="548.822">getVerifiedEmail(): String</text><ellipse cx="732.375" cy="555.8848" fill="#84BE84" rx="2.25" ry="2.25" style="stroke:#038048;stroke-width:0.75;"/><text fill="#000000" font-family="sans-serif" font-size="8.25" lengthAdjust="spacingAndGlyphs" textLength="93.75" x="739.125" y="559.199">getVerifiedPhone(): String</text><ellipse cx="732.375" cy="566.2617" fill="#84BE84" rx="2.25" ry="2.25" style="stroke:#038048;stroke-width:0.75;"/><text fill="#000000" font-family="sans-serif" font-size="8.25" lengthAdjust="spacingAndGlyphs" textLength="84.75" x="739.125" y="569.5759">updateUser(User): void</text><!--MD5=[d0eb396c87234e5f7e92c32a03949a74]
class NormalUserFacade--><rect codeLine="88" fill="#FEFECE" filter="url(#f17f8iiymhfhxl)" height="67.1309" id="NormalUserFacade" style="stroke:#A80036;stroke-width:1.125;" width="179.25" x="685.875" y="664.875"/><ellipse cx="731.4375" cy="676.875" fill="#ADD1B2" rx="8.25" ry="8.25" style="stroke:#A80036;stroke-width:0.75;"/><path d="M732.9375,674.25 Q733.0898,673.875 733.2656,673.6875 Q733.4414,673.5 733.6406,673.5 Q733.9922,673.5 734.2148,673.7109 Q734.4375,673.9219 734.4375,674.4141 L734.4375,675.5859 Q734.4375,676.0781 734.2266,676.2891 Q734.0156,676.5 733.6875,676.5 Q733.3945,676.5 733.207,676.3711 Q733.0195,676.2422 732.9375,675.9023 Q732.9023,675.668 732.7734,675.5391 Q732.5391,675.293 732.1172,675.1523 Q731.6953,675 731.2734,675 Q730.7461,675 730.3008,675.2109 Q729.8672,675.4219 729.5273,675.8906 Q729.1875,676.3594 729.1875,677.0039 L729.1875,677.6953 Q729.1875,678.4688 729.8203,678.9844 Q730.4531,679.5 731.5781,679.5 Q732.2461,679.5 732.7148,679.3477 Q732.9844,679.2656 733.2891,678.9961 Q733.4883,678.8438 733.5938,678.7969 Q733.6992,678.75 733.8281,678.75 Q734.0742,678.75 734.25,678.9492 Q734.4375,679.1367 734.4375,679.4063 Q734.4375,679.6641 734.1797,679.9688 Q733.8047,680.4141 733.207,680.6602 Q732.4219,681 731.4609,681 Q730.3359,681 729.4336,680.5547 Q728.707,680.2031 728.1914,679.4414 Q727.6875,678.6797 727.6875,677.7773 L727.6875,676.957 Q727.6875,676.0195 728.1328,675.1992 Q728.5898,674.3789 729.375,673.9453 Q730.1719,673.5 731.0625,673.5 Q731.6016,673.5 732.0703,673.6875 Q732.5391,673.875 732.9375,674.25 Z " fill="#000000"/><text fill="#000000" font-family="sans-serif" font-size="9" lengthAdjust="spacingAndGlyphs" textLength="81.75" x="746.8125" y="680.5576">NormalUserFacade</text><line style="stroke:#A80036;stroke-width:1.125;" x1="686.625" x2="864.375" y1="688.875" y2="688.875"/><rect fill="none" height="4.5" style="stroke:#C82930;stroke-width:0.75;" width="4.5" x="691.875" y="694.875"/><text fill="#000000" font-family="sans-serif" font-size="8.25" lengthAdjust="spacingAndGlyphs" textLength="90" x="700.875" y="700.4392">user: NormalUserFacade</text><line style="stroke:#A80036;stroke-width:1.125;" x1="686.625" x2="864.375" y1="705.252" y2="705.252"/><rect fill="#F24D5C" height="4.5" style="stroke:#C82930;stroke-width:0.75;" width="4.5" x="691.875" y="711.252"/><text fill="#000000" font-family="sans-serif" font-size="8.25" lengthAdjust="spacingAndGlyphs" textLength="148.5" x="700.875" y="716.8162">NormalUserFacade(): NormalUserFacade</text><ellipse cx="694.125" cy="723.8789" fill="#84BE84" rx="2.25" ry="2.25" style="stroke:#038048;stroke-width:0.75;"/><text fill="#000000" font-family="sans-serif" font-size="8.25" lengthAdjust="spacingAndGlyphs" textLength="159.75" x="700.875" y="727.1931">getNormalUserFacade(): NormalUserFacade</text><!--MD5=[2b1fecb2f1f4ab83f669530bf26dc79f]
class StoreOwnerFacade--><rect codeLine="93" fill="#FEFECE" filter="url(#f17f8iiymhfhxl)" height="67.1309" id="StoreOwnerFacade" style="stroke:#A80036;stroke-width:1.125;" width="185.25" x="891.375" y="664.875"/><ellipse cx="941.0625" cy="676.875" fill="#ADD1B2" rx="8.25" ry="8.25" style="stroke:#A80036;stroke-width:0.75;"/><path d="M942.5625,674.25 Q942.7148,673.875 942.8906,673.6875 Q943.0664,673.5 943.2656,673.5 Q943.6172,673.5 943.8398,673.7109 Q944.0625,673.9219 944.0625,674.4141 L944.0625,675.5859 Q944.0625,676.0781 943.8516,676.2891 Q943.6406,676.5 943.3125,676.5 Q943.0195,676.5 942.832,676.3711 Q942.6445,676.2422 942.5625,675.9023 Q942.5273,675.668 942.3984,675.5391 Q942.1641,675.293 941.7422,675.1523 Q941.3203,675 940.8984,675 Q940.3711,675 939.9258,675.2109 Q939.4922,675.4219 939.1523,675.8906 Q938.8125,676.3594 938.8125,677.0039 L938.8125,677.6953 Q938.8125,678.4688 939.4453,678.9844 Q940.0781,679.5 941.2031,679.5 Q941.8711,679.5 942.3398,679.3477 Q942.6094,679.2656 942.9141,678.9961 Q943.1133,678.8438 943.2188,678.7969 Q943.3242,678.75 943.4531,678.75 Q943.6992,678.75 943.875,678.9492 Q944.0625,679.1367 944.0625,679.4063 Q944.0625,679.6641 943.8047,679.9688 Q943.4297,680.4141 942.832,680.6602 Q942.0469,681 941.0859,681 Q939.9609,681 939.0586,680.5547 Q938.332,680.2031 937.8164,679.4414 Q937.3125,678.6797 937.3125,677.7773 L937.3125,676.957 Q937.3125,676.0195 937.7578,675.1992 Q938.2148,674.3789 939,673.9453 Q939.7969,673.5 940.6875,673.5 Q941.2266,673.5 941.6953,673.6875 Q942.1641,673.875 942.5625,674.25 Z " fill="#000000"/><text fill="#000000" font-family="sans-serif" font-size="9" lengthAdjust="spacingAndGlyphs" textLength="79.5" x="956.4375" y="680.5576">StoreOwnerFacade</text><line style="stroke:#A80036;stroke-width:1.125;" x1="892.125" x2="1075.875" y1="688.875" y2="688.875"/><rect fill="none" height="4.5" style="stroke:#C82930;stroke-width:0.75;" width="4.5" x="897.375" y="694.875"/><text fill="#000000" font-family="sans-serif" font-size="8.25" lengthAdjust="spacingAndGlyphs" textLength="93" x="906.375" y="700.4392">user: StoreOwnerFacade</text><line style="stroke:#A80036;stroke-width:1.125;" x1="892.125" x2="1075.875" y1="705.252" y2="705.252"/><rect fill="#F24D5C" height="4.5" style="stroke:#C82930;stroke-width:0.75;" width="4.5" x="897.375" y="711.252"/><text fill="#000000" font-family="sans-serif" font-size="8.25" lengthAdjust="spacingAndGlyphs" textLength="154.5" x="906.375" y="716.8162">StoreOwnerFacade(): StoreOwnerFacade</text><ellipse cx="899.625" cy="723.8789" fill="#84BE84" rx="2.25" ry="2.25" style="stroke:#038048;stroke-width:0.75;"/><text fill="#000000" font-family="sans-serif" font-size="8.25" lengthAdjust="spacingAndGlyphs" textLength="165.75" x="906.375" y="727.1931">getStoreOwnerFacade(): StoreOwnerFacade</text><!--MD5=[4a0300a6597e068a69ac5dc42e345e2c]
class DAOFactory--><rect codeLine="102" fill="#FEFECE" filter="url(#f17f8iiymhfhxl)" height="77.5078" id="DAOFactory" style="stroke:#A80036;stroke-width:1.125;" width="122.25" x="432.375" y="263.25"/><ellipse cx="465.5625" cy="275.25" fill="#A9DCDF" rx="8.25" ry="8.25" style="stroke:#A80036;stroke-width:0.75;"/><path d="M466.875,276.375 L464.4023,276.375 L464.0742,277.125 L464.0742,277.125 L464.4258,277.125 L464.8125,277.5938 L464.8125,277.875 L464.8125,278.1563 L464.4258,278.625 L464.0742,278.625 L462.6563,278.625 L462.1992,278.625 L461.8125,278.1563 L461.8125,277.875 L461.8125,277.5938 L462.1992,277.125 L462.6563,277.125 L464.3906,272.625 L463.7344,272.625 L462.9492,272.625 L462.5625,272.1563 L462.5625,271.875 L462.5625,271.5938 L462.9492,271.125 L463.7344,271.125 L466.4883,271.125 L468.5039,277.125 L468.9258,277.125 L468.9258,277.125 L469.3125,277.5938 L469.3125,277.875 L469.3125,278.1563 L468.9258,278.625 L468.5039,278.625 L467.0859,278.625 L466.6992,278.625 L466.3125,278.1563 L466.3125,277.875 L466.3125,277.5938 L466.6992,277.125 L467.0859,277.125 L467.0859,277.125 L466.875,276.375 Z M466.4648,274.875 L465.5625,272.1914 L464.7891,274.875 L466.4648,274.875 Z " fill="#000000"/><text fill="#000000" font-family="sans-serif" font-size="9" font-style="italic" lengthAdjust="spacingAndGlyphs" textLength="49.5" x="480.9375" y="278.9326">DAOFactory</text><line style="stroke:#A80036;stroke-width:1.125;" x1="433.125" x2="553.875" y1="287.25" y2="287.25"/><polygon fill="none" points="440.625,291.75,443.625,294.75,440.625,297.75,437.625,294.75" style="stroke:#B38D22;stroke-width:0.75;"/><text fill="#000000" font-family="sans-serif" font-size="8.25" lengthAdjust="spacingAndGlyphs" textLength="84.75" x="447.375" y="298.8142">connection: Connection</text><line style="stroke:#A80036;stroke-width:1.125;" x1="433.125" x2="553.875" y1="303.627" y2="303.627"/><ellipse cx="440.625" cy="311.877" fill="#84BE84" rx="2.25" ry="2.25" style="stroke:#038048;stroke-width:0.75;"/><text fill="#000000" font-family="sans-serif" font-size="8.25" lengthAdjust="spacingAndGlyphs" text-decoration="underline" textLength="102.75" x="447.375" y="315.1912">getConnection(): Connection</text><ellipse cx="440.625" cy="322.2539" fill="#84BE84" rx="2.25" ry="2.25" style="stroke:#038048;stroke-width:0.75;"/><text fill="#000000" font-family="sans-serif" font-size="8.25" lengthAdjust="spacingAndGlyphs" textLength="102.75" x="447.375" y="325.5681">createUserDAO(): UserDAO</text><rect fill="#F24D5C" height="4.5" style="stroke:#C82930;stroke-width:0.75;" width="4.5" x="438.375" y="330.3809"/><text fill="#000000" font-family="sans-serif" font-size="8.25" lengthAdjust="spacingAndGlyphs" textLength="100.5" x="447.375" y="335.9451">DAOFactory(): DAOFactory</text><!--MD5=[6f49855a2f41b15b7be64856ff30349b]
class UserDAO--><rect codeLine="117" fill="#FEFECE" filter="url(#f17f8iiymhfhxl)" height="87.8848" id="UserDAO" style="stroke:#A80036;stroke-width:1.125;" width="156" x="230.25" y="476.25"/><ellipse cx="285.5625" cy="488.25" fill="#B4A7E5" rx="8.25" ry="8.25" style="stroke:#A80036;stroke-width:0.75;"/><path d="M286.3125,486 L286.3125,490.5 L287.8125,490.5 L288.1758,490.5 L288.5625,490.9688 L288.5625,491.25 L288.5625,491.5313 L288.1758,492 L287.8125,492 L283.3125,492 L282.9492,492 L282.5625,491.5313 L282.5625,491.25 L282.5625,490.9688 L282.9492,490.5 L283.3125,490.5 L284.8125,490.5 L284.8125,486 L283.3125,486 L282.9492,486 L282.5625,485.5313 L282.5625,485.25 L282.5625,484.9688 L282.9492,484.5 L283.3125,484.5 L287.8125,484.5 L288.1758,484.5 L288.5625,484.9688 L288.5625,485.25 L288.5625,485.5313 L288.1758,486 L287.8125,486 L286.3125,486 Z " fill="#000000"/><text fill="#000000" font-family="sans-serif" font-size="9" font-style="italic" lengthAdjust="spacingAndGlyphs" textLength="39" x="300.9375" y="491.9326">UserDAO</text><line style="stroke:#A80036;stroke-width:1.125;" x1="231" x2="385.5" y1="500.25" y2="500.25"/><line style="stroke:#A80036;stroke-width:1.125;" x1="231" x2="385.5" y1="506.25" y2="506.25"/><ellipse cx="238.5" cy="514.5" fill="#84BE84" rx="2.25" ry="2.25" style="stroke:#038048;stroke-width:0.75;"/><text fill="#000000" font-family="sans-serif" font-size="8.25" lengthAdjust="spacingAndGlyphs" textLength="96.75" x="245.25" y="517.8142">getConnection(): UserDAO</text><ellipse cx="238.5" cy="524.877" fill="#84BE84" rx="2.25" ry="2.25" style="stroke:#038048;stroke-width:0.75;"/><text fill="#000000" font-family="sans-serif" font-size="8.25" lengthAdjust="spacingAndGlyphs" textLength="127.5" x="245.25" y="528.1912">findUserByEmail(email:String): User</text><ellipse cx="238.5" cy="535.2539" fill="#84BE84" rx="2.25" ry="2.25" style="stroke:#038048;stroke-width:0.75;"/><text fill="#000000" font-family="sans-serif" font-size="8.25" lengthAdjust="spacingAndGlyphs" textLength="136.5" x="245.25" y="538.5681">findUserByPhone(phone:String): User</text><ellipse cx="238.5" cy="545.6309" fill="#84BE84" rx="2.25" ry="2.25" style="stroke:#038048;stroke-width:0.75;"/><text fill="#000000" font-family="sans-serif" font-size="8.25" lengthAdjust="spacingAndGlyphs" textLength="109.5" x="245.25" y="548.9451">getFriends(): Collection&lt;User&gt;</text><ellipse cx="238.5" cy="556.0078" fill="#84BE84" rx="2.25" ry="2.25" style="stroke:#038048;stroke-width:0.75;"/><text fill="#000000" font-family="sans-serif" font-size="8.25" lengthAdjust="spacingAndGlyphs" textLength="97.5" x="245.25" y="559.322">addFriend(user:User): void</text><!--MD5=[a3971c949df0b23e8683b9b55b0827cf]
class MySqlUserDAO--><rect codeLine="110" fill="#FEFECE" filter="url(#f17f8iiymhfhxl)" height="46.377" id="MySqlUserDAO" style="stroke:#A80036;stroke-width:1.125;" width="142.5" x="61.5" y="675.375"/><ellipse cx="98.0625" cy="687.375" fill="#ADD1B2" rx="8.25" ry="8.25" style="stroke:#A80036;stroke-width:0.75;"/><path d="M99.5625,684.75 Q99.7148,684.375 99.8906,684.1875 Q100.0664,684 100.2656,684 Q100.6172,684 100.8398,684.2109 Q101.0625,684.4219 101.0625,684.9141 L101.0625,686.0859 Q101.0625,686.5781 100.8516,686.7891 Q100.6406,687 100.3125,687 Q100.0195,687 99.832,686.8711 Q99.6445,686.7422 99.5625,686.4023 Q99.5273,686.168 99.3984,686.0391 Q99.1641,685.793 98.7422,685.6523 Q98.3203,685.5 97.8984,685.5 Q97.3711,685.5 96.9258,685.7109 Q96.4922,685.9219 96.1523,686.3906 Q95.8125,686.8594 95.8125,687.5039 L95.8125,688.1953 Q95.8125,688.9688 96.4453,689.4844 Q97.0781,690 98.2031,690 Q98.8711,690 99.3398,689.8477 Q99.6094,689.7656 99.9141,689.4961 Q100.1133,689.3438 100.2188,689.2969 Q100.3242,689.25 100.4531,689.25 Q100.6992,689.25 100.875,689.4492 Q101.0625,689.6367 101.0625,689.9063 Q101.0625,690.1641 100.8047,690.4688 Q100.4297,690.9141 99.832,691.1602 Q99.0469,691.5 98.0859,691.5 Q96.9609,691.5 96.0586,691.0547 Q95.332,690.7031 94.8164,689.9414 Q94.3125,689.1797 94.3125,688.2773 L94.3125,687.457 Q94.3125,686.5195 94.7578,685.6992 Q95.2148,684.8789 96,684.4453 Q96.7969,684 97.6875,684 Q98.2266,684 98.6953,684.1875 Q99.1641,684.375 99.5625,684.75 Z " fill="#000000"/><text fill="#000000" font-family="sans-serif" font-size="9" lengthAdjust="spacingAndGlyphs" textLength="63" x="113.4375" y="691.0576">MySqlUserDAO</text><line style="stroke:#A80036;stroke-width:1.125;" x1="62.25" x2="203.25" y1="699.375" y2="699.375"/><line style="stroke:#A80036;stroke-width:1.125;" x1="62.25" x2="203.25" y1="705.375" y2="705.375"/><rect fill="#F24D5C" height="4.5" style="stroke:#C82930;stroke-width:0.75;" width="4.5" x="67.5" y="711.375"/><text fill="#000000" font-family="sans-serif" font-size="8.25" lengthAdjust="spacingAndGlyphs" textLength="123" x="76.5" y="716.9392">MySqlUserDAO(): MySqlUserDAO</text><!--MD5=[0e2e921ab886777c70e16ce5f6b9950f]
class MySqlDAOFactory--><rect codeLine="113" fill="#FEFECE" filter="url(#f17f8iiymhfhxl)" height="46.377" id="MySqlDAOFactory" style="stroke:#A80036;stroke-width:1.125;" width="144" x="60" y="496.875"/><ellipse cx="92.85" cy="508.875" fill="#ADD1B2" rx="8.25" ry="8.25" style="stroke:#A80036;stroke-width:0.75;"/><path d="M94.35,506.25 Q94.5023,505.875 94.6781,505.6875 Q94.8539,505.5 95.0531,505.5 Q95.4047,505.5 95.6273,505.7109 Q95.85,505.9219 95.85,506.4141 L95.85,507.5859 Q95.85,508.0781 95.6391,508.2891 Q95.4281,508.5 95.1,508.5 Q94.807,508.5 94.6195,508.3711 Q94.432,508.2422 94.35,507.9023 Q94.3148,507.668 94.1859,507.5391 Q93.9516,507.293 93.5297,507.1523 Q93.1078,507 92.6859,507 Q92.1586,507 91.7133,507.2109 Q91.2797,507.4219 90.9398,507.8906 Q90.6,508.3594 90.6,509.0039 L90.6,509.6953 Q90.6,510.4688 91.2328,510.9844 Q91.8656,511.5 92.9906,511.5 Q93.6586,511.5 94.1273,511.3477 Q94.3969,511.2656 94.7016,510.9961 Q94.9008,510.8438 95.0063,510.7969 Q95.1117,510.75 95.2406,510.75 Q95.4867,510.75 95.6625,510.9492 Q95.85,511.1367 95.85,511.4063 Q95.85,511.6641 95.5922,511.9688 Q95.2172,512.4141 94.6195,512.6602 Q93.8344,513 92.8734,513 Q91.7484,513 90.8461,512.5547 Q90.1195,512.2031 89.6039,511.4414 Q89.1,510.6797 89.1,509.7773 L89.1,508.957 Q89.1,508.0195 89.5453,507.1992 Q90.0023,506.3789 90.7875,505.9453 Q91.5844,505.5 92.475,505.5 Q93.0141,505.5 93.4828,505.6875 Q93.9516,505.875 94.35,506.25 Z " fill="#000000"/><text fill="#000000" font-family="sans-serif" font-size="9" lengthAdjust="spacingAndGlyphs" textLength="72" x="108.15" y="512.5576">MySqlDAOFactory</text><line style="stroke:#A80036;stroke-width:1.125;" x1="60.75" x2="203.25" y1="520.875" y2="520.875"/><line style="stroke:#A80036;stroke-width:1.125;" x1="60.75" x2="203.25" y1="526.875" y2="526.875"/><ellipse cx="68.25" cy="535.125" fill="#84BE84" rx="2.25" ry="2.25" style="stroke:#038048;stroke-width:0.75;"/><text fill="#000000" font-family="sans-serif" font-size="8.25" lengthAdjust="spacingAndGlyphs" textLength="124.5" x="75" y="538.4392">createUserDAO(): MySqlUserDAO</text><!--MD5=[1cd8db0879aaec40804bcc790e5b2c15]
class PostGresUserDAO--><rect codeLine="125" fill="#FEFECE" filter="url(#f17f8iiymhfhxl)" height="46.377" id="PostGresUserDAO" style="stroke:#A80036;stroke-width:1.125;" width="166.5" x="410.25" y="675.375"/><ellipse cx="451.3125" cy="687.375" fill="#ADD1B2" rx="8.25" ry="8.25" style="stroke:#A80036;stroke-width:0.75;"/><path d="M452.8125,684.75 Q452.9648,684.375 453.1406,684.1875 Q453.3164,684 453.5156,684 Q453.8672,684 454.0898,684.2109 Q454.3125,684.4219 454.3125,684.9141 L454.3125,686.0859 Q454.3125,686.5781 454.1016,686.7891 Q453.8906,687 453.5625,687 Q453.2695,687 453.082,686.8711 Q452.8945,686.7422 452.8125,686.4023 Q452.7773,686.168 452.6484,686.0391 Q452.4141,685.793 451.9922,685.6523 Q451.5703,685.5 451.1484,685.5 Q450.6211,685.5 450.1758,685.7109 Q449.7422,685.9219 449.4023,686.3906 Q449.0625,686.8594 449.0625,687.5039 L449.0625,688.1953 Q449.0625,688.9688 449.6953,689.4844 Q450.3281,690 451.4531,690 Q452.1211,690 452.5898,689.8477 Q452.8594,689.7656 453.1641,689.4961 Q453.3633,689.3438 453.4688,689.2969 Q453.5742,689.25 453.7031,689.25 Q453.9492,689.25 454.125,689.4492 Q454.3125,689.6367 454.3125,689.9063 Q454.3125,690.1641 454.0547,690.4688 Q453.6797,690.9141 453.082,691.1602 Q452.2969,691.5 451.3359,691.5 Q450.2109,691.5 449.3086,691.0547 Q448.582,690.7031 448.0664,689.9414 Q447.5625,689.1797 447.5625,688.2773 L447.5625,687.457 Q447.5625,686.5195 448.0078,685.6992 Q448.4648,684.8789 449.25,684.4453 Q450.0469,684 450.9375,684 Q451.4766,684 451.9453,684.1875 Q452.4141,684.375 452.8125,684.75 Z " fill="#000000"/><text fill="#000000" font-family="sans-serif" font-size="9" lengthAdjust="spacingAndGlyphs" textLength="78" x="466.6875" y="691.0576">PostGresUserDAO</text><line style="stroke:#A80036;stroke-width:1.125;" x1="411" x2="576" y1="699.375" y2="699.375"/><line style="stroke:#A80036;stroke-width:1.125;" x1="411" x2="576" y1="705.375" y2="705.375"/><rect fill="#F24D5C" height="4.5" style="stroke:#C82930;stroke-width:0.75;" width="4.5" x="416.25" y="711.375"/><text fill="#000000" font-family="sans-serif" font-size="8.25" lengthAdjust="spacingAndGlyphs" textLength="147" x="425.25" y="716.9392">PostGresUserDAO(): PostGresUserDAO</text><!--MD5=[c46ba0df7ad94e3a1ae057e9bcd6145a]
class PostGresDAOFactory--><rect codeLine="128" fill="#FEFECE" filter="url(#f17f8iiymhfhxl)" height="46.377" id="PostGresDAOFactory" style="stroke:#A80036;stroke-width:1.125;" width="156" x="415.5" y="496.875"/><ellipse cx="447" cy="508.875" fill="#ADD1B2" rx="8.25" ry="8.25" style="stroke:#A80036;stroke-width:0.75;"/><path d="M448.5,506.25 Q448.6523,505.875 448.8281,505.6875 Q449.0039,505.5 449.2031,505.5 Q449.5547,505.5 449.7773,505.7109 Q450,505.9219 450,506.4141 L450,507.5859 Q450,508.0781 449.7891,508.2891 Q449.5781,508.5 449.25,508.5 Q448.957,508.5 448.7695,508.3711 Q448.582,508.2422 448.5,507.9023 Q448.4648,507.668 448.3359,507.5391 Q448.1016,507.293 447.6797,507.1523 Q447.2578,507 446.8359,507 Q446.3086,507 445.8633,507.2109 Q445.4297,507.4219 445.0898,507.8906 Q444.75,508.3594 444.75,509.0039 L444.75,509.6953 Q444.75,510.4688 445.3828,510.9844 Q446.0156,511.5 447.1406,511.5 Q447.8086,511.5 448.2773,511.3477 Q448.5469,511.2656 448.8516,510.9961 Q449.0508,510.8438 449.1563,510.7969 Q449.2617,510.75 449.3906,510.75 Q449.6367,510.75 449.8125,510.9492 Q450,511.1367 450,511.4063 Q450,511.6641 449.7422,511.9688 Q449.3672,512.4141 448.7695,512.6602 Q447.9844,513 447.0234,513 Q445.8984,513 444.9961,512.5547 Q444.2695,512.2031 443.7539,511.4414 Q443.25,510.6797 443.25,509.7773 L443.25,508.957 Q443.25,508.0195 443.6953,507.1992 Q444.1523,506.3789 444.9375,505.9453 Q445.7344,505.5 446.625,505.5 Q447.1641,505.5 447.6328,505.6875 Q448.1016,505.875 448.5,506.25 Z " fill="#000000"/><text fill="#000000" font-family="sans-serif" font-size="9" lengthAdjust="spacingAndGlyphs" textLength="87" x="462" y="512.5576">PostGresDAOFactory</text><line style="stroke:#A80036;stroke-width:1.125;" x1="416.25" x2="570.75" y1="520.875" y2="520.875"/><line style="stroke:#A80036;stroke-width:1.125;" x1="416.25" x2="570.75" y1="526.875" y2="526.875"/><ellipse cx="423.75" cy="535.125" fill="#84BE84" rx="2.25" ry="2.25" style="stroke:#038048;stroke-width:0.75;"/><text fill="#000000" font-family="sans-serif" font-size="8.25" lengthAdjust="spacingAndGlyphs" textLength="136.5" x="430.5" y="538.4392">createUserDAO(): PostGresUserDAO</text><!--MD5=[0b4e4b4980470ea387cc45de9bd14b5b]
class Application--><rect codeLine="49" fill="#FEFECE" filter="url(#f17f8iiymhfhxl)" height="36" id="Application" style="stroke:#A80036;stroke-width:1.125;" width="69.75" x="1500.375" y="5.25"/><ellipse cx="1511.625" cy="17.25" fill="#A9DCDF" rx="8.25" ry="8.25" style="stroke:#A80036;stroke-width:0.75;"/><path d="M1512.9375,18.375 L1510.4648,18.375 L1510.1367,19.125 L1510.1367,19.125 L1510.4883,19.125 L1510.875,19.5938 L1510.875,19.875 L1510.875,20.1563 L1510.4883,20.625 L1510.1367,20.625 L1508.7188,20.625 L1508.2617,20.625 L1507.875,20.1563 L1507.875,19.875 L1507.875,19.5938 L1508.2617,19.125 L1508.7188,19.125 L1510.4531,14.625 L1509.7969,14.625 L1509.0117,14.625 L1508.625,14.1563 L1508.625,13.875 L1508.625,13.5938 L1509.0117,13.125 L1509.7969,13.125 L1512.5508,13.125 L1514.5664,19.125 L1514.9883,19.125 L1514.9883,19.125 L1515.375,19.5938 L1515.375,19.875 L1515.375,20.1563 L1514.9883,20.625 L1514.5664,20.625 L1513.1484,20.625 L1512.7617,20.625 L1512.375,20.1563 L1512.375,19.875 L1512.375,19.5938 L1512.7617,19.125 L1513.1484,19.125 L1513.1484,19.125 L1512.9375,18.375 Z M1512.5273,16.875 L1511.625,14.1914 L1510.8516,16.875 L1512.5273,16.875 Z " fill="#000000"/><text fill="#000000" font-family="sans-serif" font-size="9" font-style="italic" lengthAdjust="spacingAndGlyphs" textLength="45.75" x="1522.125" y="20.9326">Application</text><line style="stroke:#A80036;stroke-width:1.125;" x1="1501.125" x2="1569.375" y1="29.25" y2="29.25"/><line style="stroke:#A80036;stroke-width:1.125;" x1="1501.125" x2="1569.375" y1="35.25" y2="35.25"/><!--MD5=[759941070afa4a98c1123d455c11e7a3]
reverse link Application to SplitPay--><path codeLine="135" d="M1535.25,56.5125 C1535.25,71.19 1535.25,88.5225 1535.25,103.2825 " fill="none" id="Application-backto-SplitPay" style="stroke:#A80036;stroke-width:0.75;"/><polygon fill="none" points="1530,56.3325,1535.25,41.3325,1540.5,56.3325,1530,56.3325" style="stroke:#A80036;stroke-width:0.75;"/><!--MD5=[25c56f151d869ceed6095d683fe9eb93]
reverse link SplitPay to ManagePersonnalAccountController--><path codeLine="137" d="M1478.55,137.715 C1370.1375,138.7875 1127.235,149.055 936,214.5 C912.315,222.6075 888.255,234.795 866.64,247.4925 " fill="none" id="SplitPay-backto-ManagePersonnalAccountController" style="stroke:#A80036;stroke-width:0.75;stroke-dasharray:7.0,7.0;"/><polygon fill="#A80036" points="1482.3525,137.6775,1475.577,134.7355,1478.6026,137.7096,1475.6285,140.7352,1482.3525,137.6775" style="stroke:#A80036;stroke-width:0.75;"/><text fill="#000000" font-family="sans-serif" font-size="9.75" lengthAdjust="spacingAndGlyphs" textLength="15.75" x="999" y="205.8713">use</text><!--MD5=[e4d730ddfddfe5f324fea0cfa479095e]
reverse link SplitPay to ChangeEmailController--><path codeLine="138" d="M1478.25,147.75 C1416.93,159.3375 1317.27,181.38 1236,214.5 C1203.975,227.55 1170.45,246.36 1143.24,263.115 " fill="none" id="SplitPay-backto-ChangeEmailController" style="stroke:#A80036;stroke-width:0.75;stroke-dasharray:7.0,7.0;"/><polygon fill="#A80036" points="1482.2325,147,1475.0476,145.2852,1478.5458,147.6859,1476.1451,151.184,1482.2325,147" style="stroke:#A80036;stroke-width:0.75;"/><text fill="#000000" font-family="sans-serif" font-size="9.75" lengthAdjust="spacingAndGlyphs" textLength="15.75" x="1284" y="205.8713">use</text><!--MD5=[fc96f3cdf24522b93d0040cf959ba86e]
reverse link SplitPay to ChangePasswordController--><path codeLine="139" d="M1502.445,173.8575 C1478.2875,200.2575 1445.4975,236.1 1420.8675,263.0175 " fill="none" id="SplitPay-backto-ChangePasswordController" style="stroke:#A80036;stroke-width:0.75;stroke-dasharray:7.0,7.0;"/><polygon fill="#A80036" points="1505.0475,171.0075,1498.2837,173.9763,1502.5218,173.7794,1502.7187,178.0174,1505.0475,171.0075" style="stroke:#A80036;stroke-width:0.75;"/><text fill="#000000" font-family="sans-serif" font-size="9.75" lengthAdjust="spacingAndGlyphs" textLength="15.75" x="1482.75" y="205.8713">use</text><!--MD5=[2770821444705a5b15b00442d0f2e586]
reverse link SplitPay to ChangePhoneController--><path codeLine="140" d="M1568.385,173.8575 C1592.79,200.2575 1625.9025,236.1 1650.78,263.0175 " fill="none" id="SplitPay-backto-ChangePhoneController" style="stroke:#A80036;stroke-width:0.75;stroke-dasharray:7.0,7.0;"/><polygon fill="#A80036" points="1565.76,171.0075,1568.1306,178.0034,1568.3022,173.7642,1572.5414,173.9359,1565.76,171.0075" style="stroke:#A80036;stroke-width:0.75;"/><text fill="#000000" font-family="sans-serif" font-size="9.75" lengthAdjust="spacingAndGlyphs" textLength="15.75" x="1597.5" y="205.8713">use</text><!--MD5=[9dcca6d6f6350dfe26f86179f481e1f1]
reverse link SplitPay to ValidationController--><path codeLine="141" d="M1592.2575,147.66 C1653.87,159.195 1754.205,181.2225 1836,214.5 C1858.2825,223.5675 1881.2925,235.425 1902.39,247.4475 " fill="none" id="SplitPay-backto-ValidationController" style="stroke:#A80036;stroke-width:0.75;stroke-dasharray:7.0,7.0;"/><polygon fill="#A80036" points="1588.26,146.91,1594.3474,151.094,1591.9467,147.5959,1595.4449,145.1952,1588.26,146.91" style="stroke:#A80036;stroke-width:0.75;"/><text fill="#000000" font-family="sans-serif" font-size="9.75" lengthAdjust="spacingAndGlyphs" textLength="15.75" x="1821" y="205.8713">use</text><!--MD5=[b3e03e6af247a8b16842c82027cc96b2]
reverse link SplitPay to ChooseValidationMethodController--><path codeLine="142" d="M1592.04,137.8425 C1700.6325,139.14 1944,149.7675 2136,214.5 C2163.36,223.725 2191.29,238.2075 2215.5225,252.72 " fill="none" id="SplitPay-backto-ChooseValidationMethodController" style="stroke:#A80036;stroke-width:0.75;stroke-dasharray:7.0,7.0;"/><polygon fill="#A80036" points="1588.23,137.805,1594.9453,140.8819,1591.9798,137.8479,1595.0138,134.8823,1588.23,137.805" style="stroke:#A80036;stroke-width:0.75;"/><text fill="#000000" font-family="sans-serif" font-size="9.75" lengthAdjust="spacingAndGlyphs" textLength="15.75" x="2105.25" y="205.8713">use</text><!--MD5=[116b2f30b05625a95bcacc44f48fba4f]
reverse link UserFacade to ManagePersonnalAccountController--><path codeLine="144" d="M789,461.67 C789,429.0225 789,388.47 789,356.4825 " fill="none" id="UserFacade-backto-ManagePersonnalAccountController" style="stroke:#A80036;stroke-width:0.75;stroke-dasharray:7.0,7.0;"/><polygon fill="#A80036" points="789,465.6075,792,458.8575,789,461.8575,786,458.8575,789,465.6075" style="stroke:#A80036;stroke-width:0.75;"/><text fill="#000000" font-family="sans-serif" font-size="9.75" lengthAdjust="spacingAndGlyphs" textLength="15.75" x="789.75" y="391.1213">use</text><!--MD5=[fb90857b53342ef578808177524d0a56]
link ValidationController to UserFacade--><path codeLine="145" d="M1884.3825,356.25 C1868.4975,363.1275 1852.0275,369.435 1836,374.25 C1478.2875,481.62 1027.5975,509.9925 857.8575,517.1175 " fill="none" id="ValidationController-to-UserFacade" style="stroke:#A80036;stroke-width:0.75;stroke-dasharray:7.0,7.0;"/><polygon fill="#A80036" points="853.8975,517.2825,860.7698,519.9907,857.6441,517.1219,860.5129,513.9962,853.8975,517.2825" style="stroke:#A80036;stroke-width:0.75;"/><text fill="#000000" font-family="sans-serif" font-size="9.75" lengthAdjust="spacingAndGlyphs" textLength="15.75" x="1809" y="391.1213">use</text><!--MD5=[34776080ebf9fd7ace208e20409ce8c0]
link ChooseValidationMethodController to UserFacade--><path codeLine="146" d="M2197.305,351.0075 C2177.6025,360.0375 2156.475,368.445 2136,374.25 C1660.74,509.0625 1058.625,520.35 857.7225,520.0575 " fill="none" id="ChooseValidationMethodController-to-UserFacade" style="stroke:#A80036;stroke-width:0.75;stroke-dasharray:7.0,7.0;"/><polygon fill="#A80036" points="853.92,520.05,860.67,523.05,857.67,520.05,860.67,517.05,853.92,520.05" style="stroke:#A80036;stroke-width:0.75;"/><text fill="#000000" font-family="sans-serif" font-size="9.75" lengthAdjust="spacingAndGlyphs" textLength="15.75" x="2101.5" y="391.1213">use</text><!--MD5=[38add4012e22041d0062975d04f99682]
reverse link User to NormalUser--><path codeLine="148" d="M1190.475,761.9025 C1183.425,778.83 1176.15,796.3125 1170.3525,810.255 " fill="none" id="User-backto-NormalUser" style="stroke:#A80036;stroke-width:0.75;"/><polygon fill="none" points="1185.69,759.735,1196.3025,747.9,1195.3875,763.77,1185.69,759.735" style="stroke:#A80036;stroke-width:0.75;"/><!--MD5=[837b95431cb842a0a0c704197ce26155]
reverse link User to StoreOwner--><path codeLine="149" d="M1242.5475,761.955 C1248.7425,776.835 1255.11,792.1425 1260.5025,805.095 " fill="none" id="User-backto-StoreOwner" style="stroke:#A80036;stroke-width:0.75;"/><polygon fill="none" points="1237.6125,763.77,1236.6975,747.9,1247.31,759.735,1237.6125,763.77" style="stroke:#A80036;stroke-width:0.75;"/><!--MD5=[4ddc3111f8c08be5f1856156c5c4bfbf]
link NormalUserFacade to NormalUser--><path codeLine="151" d="M811.845,732.3825 C830.49,747.705 854.2875,764.91 878.25,775.875 C957.0975,811.9575 1058.1975,827.7375 1114.9725,834.1575 " fill="none" id="NormalUserFacade-to-NormalUser" style="stroke:#A80036;stroke-width:0.75;"/><polygon fill="#A80036" points="1118.985,834.6,1112.6005,830.885,1115.2572,834.1929,1111.9492,836.8496,1118.985,834.6" style="stroke:#A80036;stroke-width:0.75;"/><!--MD5=[ac5f7c47cbc4d90e0d9184d1d8240215]
link StoreOwnerFacade to StoreOwner--><path codeLine="152" d="M1030.1625,732.4575 C1052.535,747.33 1080.2925,764.1375 1107,775.875 C1151.3475,795.3675 1167.0075,787.1775 1212,805.125 C1215.1725,806.3925 1218.39,807.7725 1221.6075,809.2275 " fill="none" id="StoreOwnerFacade-to-StoreOwner" style="stroke:#A80036;stroke-width:0.75;"/><polygon fill="#A80036" points="1225.1025,810.84,1220.2343,805.2846,1221.6986,809.2665,1217.7167,810.7308,1225.1025,810.84" style="stroke:#A80036;stroke-width:0.75;"/><!--MD5=[797445813df1ac21c168d4c6e7662b07]
reverse link UserFacade to NormalUserFacade--><path codeLine="153" d="M783.735,589.95 C781.7625,615.72 779.625,643.8 778.02,664.86 " fill="none" id="UserFacade-backto-NormalUserFacade" style="stroke:#A80036;stroke-width:0.75;"/><polygon fill="none" points="778.5225,589.26,784.8975,574.7025,788.985,590.055,778.5225,589.26" style="stroke:#A80036;stroke-width:0.75;"/><!--MD5=[b67536105ccc39ed5324dbe091504df8]
reverse link UserFacade to StoreOwnerFacade--><path codeLine="154" d="M859.5375,584.9025 C889.3875,612 922.905,642.42 947.625,664.86 " fill="none" id="UserFacade-backto-StoreOwnerFacade" style="stroke:#A80036;stroke-width:0.75;"/><polygon fill="none" points="855.8775,588.6675,848.3025,574.7025,862.935,580.8975,855.8775,588.6675" style="stroke:#A80036;stroke-width:0.75;"/><!--MD5=[b6b34d35169d4be5d3d02221f7f388a3]
reverse link UserDAO to MySqlUserDAO--><path codeLine="157" d="M254.565,575.0175 C221.2125,608.655 180.09,650.13 155.1675,675.2625 " fill="none" id="UserDAO-backto-MySqlUserDAO" style="stroke:#A80036;stroke-width:0.75;stroke-dasharray:7.0,7.0;"/><polygon fill="none" points="251.025,571.1325,265.32,564.1725,258.4875,578.52,251.025,571.1325" style="stroke:#A80036;stroke-width:0.75;"/><!--MD5=[b0ef7ae4e6e76483be6655ba95a3d49e]
reverse link UserDAO to PostGresUserDAO--><path codeLine="158" d="M364.455,574.5825 C399.7425,608.295 443.415,650.025 469.8375,675.2625 " fill="none" id="UserDAO-backto-PostGresUserDAO" style="stroke:#A80036;stroke-width:0.75;stroke-dasharray:7.0,7.0;"/><polygon fill="none" points="360.7875,578.3325,353.565,564.1725,368.04,570.7425,360.7875,578.3325" style="stroke:#A80036;stroke-width:0.75;"/><!--MD5=[2244845d9532617fbdb71d141db8964f]
reverse link DAOFactory to MySqlDAOFactory--><path codeLine="159" d="M417.3225,313.92 C355.3425,326.295 268.38,351.24 207,399.75 C174.3075,425.5875 151.9575,469.86 140.64,496.695 " fill="none" id="DAOFactory-backto-MySqlDAOFactory" style="stroke:#A80036;stroke-width:0.75;"/><polygon fill="none" points="416.4,308.7525,432.12,311.1075,418.3575,319.065,416.4,308.7525" style="stroke:#A80036;stroke-width:0.75;"/><!--MD5=[efaaed88910802c3b4f4747e6ac87bbc]
reverse link DAOFactory to PostGresDAOFactory--><path codeLine="160" d="M493.5,355.8 C493.5,400.9725 493.5,463.59 493.5,496.7175 " fill="none" id="DAOFactory-backto-PostGresDAOFactory" style="stroke:#A80036;stroke-width:0.75;"/><polygon fill="none" points="488.25,355.6275,493.5,340.6275,498.75,355.6275,488.25,355.6275" style="stroke:#A80036;stroke-width:0.75;"/><!--MD5=[a9f4f1fea83a3055b8be1e1e8c9c5d32]
link MySqlDAOFactory to MySqlUserDAO--><path codeLine="161" d="M121.905,543.675 C115.89,558.5325 108.8475,578.5275 105.75,597 C101.4375,622.755 110.52,651.4575 119.295,671.6475 " fill="none" id="MySqlDAOFactory-to-MySqlUserDAO" style="stroke:#A80036;stroke-width:0.75;stroke-dasharray:7.0,7.0;"/><polygon fill="#A80036" points="120.93,675.315,120.9257,667.9284,119.405,671.8891,115.4443,670.3684,120.93,675.315" style="stroke:#A80036;stroke-width:0.75;"/><text fill="#000000" font-family="sans-serif" font-size="9.75" lengthAdjust="spacingAndGlyphs" textLength="32.25" x="106.5" y="607.8713">creates</text><!--MD5=[d4f15b838eaf0e9bfa308c2bb6a4702d]
link PostGresDAOFactory to PostGresUserDAO--><path codeLine="162" d="M493.5,543.6525 C493.5,576.375 493.5,636.57 493.5,671.2875 " fill="none" id="PostGresDAOFactory-to-PostGresUserDAO" style="stroke:#A80036;stroke-width:0.75;stroke-dasharray:7.0,7.0;"/><polygon fill="#A80036" points="493.5,675.1875,496.5,668.4375,493.5,671.4375,490.5,668.4375,493.5,675.1875" style="stroke:#A80036;stroke-width:0.75;"/><text fill="#000000" font-family="sans-serif" font-size="9.75" lengthAdjust="spacingAndGlyphs" textLength="32.25" x="494.25" y="607.8713">creates</text><!--MD5=[2e6bea58ef6eaeaa614f1f7cffde608d]
reverse link DAOFactory to UserFacade--><path codeLine="163" d="M548.55,343.005 C598.275,379.4775 671.505,433.1925 724.065,471.75 " fill="none" id="DAOFactory-backto-UserFacade" style="stroke:#A80036;stroke-width:0.75;"/><polygon fill="#A80036" points="545.31,340.6275,548.9762,347.0401,548.333,342.8465,552.5266,342.2033,545.31,340.6275" style="stroke:#A80036;stroke-width:0.75;"/><text fill="#000000" font-family="sans-serif" font-size="9.75" lengthAdjust="spacingAndGlyphs" textLength="5.25" x="546.6692" y="356.7628">1</text><!--MD5=[e92dd04785eb7b8bd74eba6c7e5dd990]
reverse link UserDAO to UserFacade--><path codeLine="164" d="M329.085,472.635 C346.0125,440.97 373.3425,402.4275 411.375,387 C445.2,373.275 540.5325,376.95 575.625,387 C629.985,402.57 683.9475,436.4475 724.005,466.1325 " fill="none" id="UserDAO-backto-UserFacade" style="stroke:#A80036;stroke-width:0.75;"/><polygon fill="#A80036" points="327.27,476.07,333.0728,471.4995,329.0196,472.7532,327.7659,468.7,327.27,476.07" style="stroke:#A80036;stroke-width:0.75;"/><text fill="#000000" font-family="sans-serif" font-size="9.75" lengthAdjust="spacingAndGlyphs" textLength="5.25" x="324.0181" y="468.0987">1</text><!--MD5=[144d635e9e1bc4ee4a5775dc32af1d17]
@startuml

package controller{
    class ManagePersonnalAccountController{
        -allStyleSetDefault(): void
        +goToHomeView(in actionEvent:ActionEvent): void
        +goToChangeEmailView(in actionEvent:ActionEvent): void
        +goToChangePhoneView(in actionEvent:ActionEvent): void
        +goToChangePasswordView(in actionEvent:ActionEvent): void
        +goToChooseValidationMethodView(in actionEvent:ActionEvent): void
        +initialize(): void
    }
    class ChangeEmailController{
        -email1: TextField
        -email2: TextField
        +goToManagePersonnalAccountView(in actionEvent:ActionEvent): void
        +goToValidationView(in actionEvent:ActionEvent): void
    }
    class ChangePasswordController{
        -password1: TextField
        -password2: TextField
        +goToManagePersonnalAccountView(in actionEvent:ActionEvent): void
        +goToChooseValidationMethodView(in actionEvent:ActionEvent): void
    }
    class ChangePhoneController{
        -phone1: TextField
        -phone2: TextField
        +goToManagePersonnalAccountView(in actionEvent:ActionEvent): void
        +goToValidationView(in actionEvent:ActionEvent): void
    }
    class ValidationController{
        {static} ~tempUser: User
        -validationCode: TextField
        +confirmChanges(in actionEvent:ActionEvent): void
        -generateValidationCode(): void
        -sendValidationCode(): void
        -updateUser(UserTemp): void
        +goToManagePersonnalAccountView(in actionEvent:ActionEvent): void
    }
    class ChooseValidationMethodController{
        -phone: RadioButton
        -email: RadioButton
        +goToManagePersonnalAccountView(in actionEvent:ActionEvent): void
        +goToValidationView(in actionEvent:ActionEvent): void
        -getVerifiedPhone(): String
        -getVerifiedEmail(): String
    }
}

abstract class Application
package main{
    class SplitPay{
        {static} +window: Stage
        +start(stage:Stage): void
        {static} +main(String[]:args): void
    }
}

package core{
    package model{
        abstract class User{
            -id: String
            -email: String
            -phone: String
            -nickname: String
            -password: String
            -balance: Double
        }
        class NormalUser{
            -firstName: String
            -lastName: String
        }
        class StoreOwner{
            -companyName: String
            -address: String
            -siret: String
        }
    }
    package facade{
        abstract class UserFacade{
            -user: UserFaçade
            -UserFaçade(): UserFaçade
            +getUserFaçade(): UserFaçade
            +deleteAccount(): void
            +getVerifiedEmail(): String
            +getVerifiedPhone(): String
            +updateUser(User): void
        }
        class NormalUserFacade{
            -user: NormalUserFacade
            -NormalUserFacade(): NormalUserFacade
            +getNormalUserFacade(): NormalUserFacade
        }
        class StoreOwnerFacade{
            -user: StoreOwnerFacade
            -StoreOwnerFacade(): StoreOwnerFacade
            +getStoreOwnerFacade(): StoreOwnerFacade
        }
    }
}

package persist{
    abstract class DAOFactory{
        #connection: Connection
        {static} +getConnection(): Connection
        +createUserDAO(): UserDAO
        -DAOFactory(): DAOFactory
    }
    package dao{
        package mysql{
            class MySqlUserDAO{
                -MySqlUserDAO(): MySqlUserDAO
            }
            class MySqlDAOFactory{
                +createUserDAO(): MySqlUserDAO
            }
        }
        interface UserDAO{
            +getConnection(): UserDAO
            +findUserByEmail(email:String): User
            +findUserByPhone(phone:String): User
            +getFriends(): Collection<User>
            +addFriend(user:User): void
        }
        package postgres{
            class PostGresUserDAO{
                -PostGresUserDAO(): PostGresUserDAO
            }
            class PostGresDAOFactory{
                +createUserDAO(): PostGresUserDAO
            }
        }
    }
}

Application <|- - SplitPay

ManagePersonnalAccountController .up.> SplitPay : use
ChangeEmailController .up.> SplitPay : use
ChangePasswordController .up.> SplitPay : use
ChangePhoneController .up.> SplitPay : use
ValidationController .up.> SplitPay : use
ChooseValidationMethodController .up.> SplitPay : use

ManagePersonnalAccountController .up.> UserFacade : use
ValidationController ..> UserFacade : use
ChooseValidationMethodController ..> UserFacade : use

User <|- - NormalUser
User <|- - StoreOwner

NormalUserFacade - -> NormalUser
StoreOwnerFacade - -> StoreOwner
UserFacade <|- - NormalUserFacade
UserFacade <|- - StoreOwnerFacade


UserDAO <|.. MySqlUserDAO
UserDAO <|.. PostGresUserDAO
DAOFactory <|-down- MySqlDAOFactory
DAOFactory <|-down- PostGresDAOFactory
MySqlDAOFactory .down.> MySqlUserDAO : creates
PostGresDAOFactory .down.> PostGresUserDAO : creates
UserFacade -up> "1" DAOFactory
UserFacade -up> "1" UserDAO

@enduml

PlantUML version 1.2020.23(Sun Dec 13 20:14:58 CET 2020)
(GPL source distribution)
Java Runtime: OpenJDK Runtime Environment
JVM: OpenJDK 64-Bit Server VM
Default Encoding: Cp1252
Language: fr
Country: FR
--></g></svg>